<svg xmlns="http://www.w3.org/2000/svg" xmlns:xlink="http://www.w3.org/1999/xlink" preserveAspectRatio="xMidYMid" width="17.969" height="15.406" viewBox="0 0 17.969 15.406">
  <defs>
    <style>
      .cls-1 {
        fill: #4eacdd;
        fill-rule: evenodd;
      }
    </style>
  </defs>
  <path d="M16.695,4.683 C16.695,6.521 14.838,8.227 14.807,8.258 L8.984,13.870 L3.151,8.248 C3.131,8.227 1.273,6.521 1.273,4.683 C1.273,1.862 3.181,1.270 4.787,1.270 C6.283,1.270 7.970,2.886 8.492,3.509 C8.733,3.800 9.235,3.800 9.476,3.509 C9.998,2.886 11.685,1.270 13.181,1.270 C14.787,1.270 16.695,1.862 16.695,4.683 ZM17.980,4.683 C17.980,1.741 16.183,-0.016 13.181,-0.016 C11.424,-0.016 9.777,1.370 8.984,2.153 C8.191,1.370 6.544,-0.016 4.787,-0.016 C1.785,-0.016 -0.012,1.741 -0.012,4.683 C-0.012,7.093 2.197,9.111 2.277,9.181 L8.542,15.226 C8.663,15.346 8.823,15.406 8.984,15.406 C9.145,15.406 9.305,15.346 9.426,15.226 L15.681,9.201 C15.771,9.111 17.980,7.093 17.980,4.683 Z" class="cls-1"/>
</svg>
