<svg xmlns="http://www.w3.org/2000/svg" xmlns:xlink="http://www.w3.org/1999/xlink" preserveAspectRatio="xMidYMid" width="13.407" height="11.81" viewBox="0 0 13.407 11.81">
  <defs>
    <style>
      .cls-1 {
        fill: #fff;
        fill-rule: evenodd;
      }
    </style>
  </defs>
  <path d="M4.830,6.434 C4.705,6.434 4.403,6.434 3.758,6.434 C3.163,6.434 2.686,5.957 2.686,5.362 C2.686,5.362 2.686,4.290 2.686,3.217 L4.830,3.217 L4.830,6.434 ZM13.408,10.187 L12.336,8.579 L12.336,1.877 L12.872,1.609 L12.604,0.001 L4.562,0.001 L4.294,1.073 L0.273,1.073 L0.005,2.145 L0.541,2.681 L0.541,5.362 C0.541,7.138 1.982,8.579 3.758,8.579 C3.850,8.579 4.738,8.579 4.830,8.579 L3.758,10.187 L3.758,11.796 L13.408,11.796 L13.408,10.187 Z" class="cls-1"/>
</svg>
