<svg xmlns="http://www.w3.org/2000/svg" xmlns:xlink="http://www.w3.org/1999/xlink" preserveAspectRatio="xMidYMid" width="16.09" height="11.812" viewBox="0 0 16.09 11.812">
  <defs>
    <style>
      .cls-1 {
        fill: #fff;
        fill-rule: evenodd;
      }
    </style>
  </defs>
  <path d="M10.723,6.703 C10.723,6.779 10.689,6.846 10.639,6.904 L7.699,9.845 C7.648,9.895 7.573,9.920 7.506,9.920 C7.430,9.920 7.363,9.895 7.313,9.845 L4.364,6.896 C4.314,6.846 4.289,6.770 4.289,6.703 C4.289,6.561 4.406,6.435 4.557,6.435 L6.434,6.435 L6.434,3.487 C6.434,3.344 6.559,3.218 6.702,3.218 L8.310,3.218 C8.452,3.218 8.578,3.344 8.578,3.487 L8.578,6.435 L10.455,6.435 C10.605,6.435 10.723,6.553 10.723,6.703 ZM16.084,8.580 C16.084,7.089 15.054,5.790 13.596,5.447 C13.822,5.103 13.939,4.701 13.939,4.291 C13.939,3.110 12.976,2.146 11.795,2.146 C11.284,2.146 10.790,2.331 10.404,2.666 C9.743,1.057 8.176,0.002 6.434,0.002 C4.063,0.002 2.145,1.920 2.145,4.291 C2.145,4.408 2.153,4.525 2.161,4.651 C0.846,5.263 0.000,6.586 0.000,8.044 C0.000,10.113 1.684,11.797 3.753,11.797 L12.867,11.797 C14.643,11.797 16.084,10.356 16.084,8.580 Z" class="cls-1"/>
</svg>
