<svg xmlns="http://www.w3.org/2000/svg" xmlns:xlink="http://www.w3.org/1999/xlink" preserveAspectRatio="xMidYMid" width="12.875" height="12.87" viewBox="0 0 12.875 12.87">
  <defs>
    <style>
      .cls-1 {
        fill: #ea4c89;
        fill-rule: evenodd;
      }
    </style>
  </defs>
  <path d="M8.578,11.494 C7.916,11.770 7.196,11.930 6.434,11.930 C5.102,11.930 3.887,11.452 2.932,10.673 C2.932,10.673 3.007,10.723 3.058,10.765 C4.113,8.470 7.372,7.331 7.372,7.331 C7.380,7.331 7.397,7.322 7.405,7.322 C8.176,9.333 8.494,11.008 8.578,11.494 ZM7.028,6.409 C6.961,6.434 6.886,6.451 6.811,6.476 C6.811,6.476 3.845,7.431 2.346,10.103 L2.346,10.103 C1.474,9.132 0.938,7.842 0.938,6.434 C0.938,6.376 0.938,6.317 0.947,6.258 C1.039,6.258 3.753,6.325 6.584,5.479 C6.744,5.789 6.894,6.099 7.028,6.409 ZM6.132,4.633 C3.493,5.329 1.198,5.303 1.056,5.303 C1.416,3.603 2.555,2.187 4.088,1.467 C4.163,1.567 5.177,2.941 6.132,4.633 ZM11.862,7.306 C11.611,8.839 10.739,10.162 9.508,10.991 C9.449,10.665 9.156,9.048 8.436,7.063 C10.212,6.786 11.745,7.272 11.862,7.306 ZM5.118,1.098 C5.110,1.098 5.102,1.106 5.102,1.106 C5.110,1.098 5.110,1.098 5.118,1.098 ZM10.061,2.313 C10.044,2.338 9.265,3.527 7.196,4.298 C6.258,2.572 5.219,1.207 5.135,1.098 C5.554,0.998 5.990,0.939 6.434,0.939 C7.824,0.939 9.098,1.458 10.061,2.313 ZM11.929,6.376 C11.862,6.367 9.994,5.957 8.101,6.200 C8.059,6.108 8.025,6.007 7.983,5.915 C7.866,5.647 7.740,5.379 7.615,5.119 C9.784,4.231 10.664,2.958 10.681,2.941 C11.451,3.879 11.912,5.077 11.929,6.376 ZM12.867,6.434 C12.867,2.882 9.985,0.001 6.434,0.001 C2.882,0.001 0.000,2.882 0.000,6.434 C0.000,9.986 2.882,12.868 6.434,12.868 C9.985,12.868 12.867,9.986 12.867,6.434 Z" class="cls-1"/>
</svg>
