<svg xmlns="http://www.w3.org/2000/svg" xmlns:xlink="http://www.w3.org/1999/xlink" preserveAspectRatio="xMidYMid" width="17.969" height="14.125" viewBox="0 0 17.969 14.125">
  <defs>
    <style>
      .cls-1 {
        fill: #4eacdd;
        fill-rule: evenodd;
      }
    </style>
  </defs>
  <path d="M16.695,12.519 C16.695,12.689 16.544,12.840 16.374,12.840 L1.594,12.840 C1.424,12.840 1.273,12.689 1.273,12.519 L1.273,4.808 C1.484,5.049 1.715,5.270 1.966,5.471 C3.402,6.575 4.848,7.699 6.243,8.864 C6.996,9.497 7.930,10.270 8.974,10.270 L8.984,10.270 L8.994,10.270 C10.038,10.270 10.972,9.497 11.725,8.864 C13.121,7.699 14.567,6.575 16.002,5.471 C16.253,5.270 16.484,5.049 16.695,4.808 L16.695,12.519 ZM16.695,1.966 C16.695,2.820 15.872,3.934 15.219,4.446 C13.874,5.501 12.528,6.565 11.193,7.629 C10.661,8.061 9.697,8.985 8.994,8.985 L8.984,8.985 L8.974,8.985 C8.271,8.985 7.307,8.061 6.775,7.629 C5.440,6.565 4.095,5.501 2.749,4.446 C1.845,3.734 1.273,2.740 1.273,1.595 C1.273,1.424 1.424,1.274 1.594,1.274 L16.374,1.274 C16.755,1.274 16.695,1.715 16.695,1.966 ZM17.980,1.595 C17.980,0.711 17.257,-0.011 16.374,-0.011 L1.594,-0.011 C0.711,-0.011 -0.012,0.711 -0.012,1.595 L-0.012,12.519 C-0.012,13.402 0.711,14.125 1.594,14.125 L16.374,14.125 C17.257,14.125 17.980,13.402 17.980,12.519 L17.980,1.595 Z" class="cls-1"/>
</svg>
