<svg xmlns="http://www.w3.org/2000/svg" xmlns:xlink="http://www.w3.org/1999/xlink" preserveAspectRatio="xMidYMid" width="10" height="19" viewBox="0 0 10 19">
  <defs>
    <style>
      .cls-1 {
        fill: #545454;
        fill-rule: evenodd;
      }
    </style>
  </defs>
  <path d="M6.813,0.007 C5.676,0.007 4.573,0.195 3.829,0.572 C3.086,0.949 2.549,1.615 2.272,2.215 C1.995,2.814 1.856,3.543 1.856,4.760 L1.856,5.957 L-0.008,5.957 L-0.008,8.984 L1.856,8.984 L1.856,18.999 L5.841,18.999 L5.841,8.984 L8.327,8.984 L9.015,5.957 L5.841,5.957 L5.841,4.828 C5.841,4.093 5.970,3.596 6.228,3.337 C6.485,3.078 6.996,2.882 7.590,2.882 C8.192,2.882 8.676,3.215 9.284,3.583 L10.011,0.735 C8.892,0.408 7.980,0.007 6.813,0.007 Z" class="cls-1"/>
</svg>
