<svg xmlns="http://www.w3.org/2000/svg" xmlns:xlink="http://www.w3.org/1999/xlink" preserveAspectRatio="xMidYMid" width="16.187" height="12.875" viewBox="0 0 16.187 12.875">
  <defs>
    <style>
      .cls-1 {
        fill: #4eacdd;
        fill-rule: evenodd;
      }
    </style>
  </defs>
  <path d="M13.875,7.409 C13.875,7.389 13.875,7.369 13.865,7.349 L8.092,2.590 L2.318,7.349 C2.318,7.369 2.308,7.389 2.308,7.409 L2.308,12.229 C2.308,12.580 2.600,12.871 2.951,12.871 L6.806,12.871 L6.806,9.016 L9.377,9.016 L9.377,12.871 L13.232,12.871 C13.584,12.871 13.875,12.580 13.875,12.229 L13.875,7.409 ZM16.114,6.716 C16.224,6.586 16.204,6.375 16.074,6.265 L13.875,4.437 L13.875,0.341 C13.875,0.160 13.734,0.020 13.553,0.020 L11.626,0.020 C11.445,0.020 11.304,0.160 11.304,0.341 L11.304,2.299 L8.855,0.250 C8.433,-0.101 7.750,-0.101 7.328,0.250 L0.110,6.265 C-0.021,6.375 -0.041,6.586 0.069,6.716 L0.692,7.459 C0.742,7.520 0.822,7.560 0.903,7.570 C0.993,7.580 1.073,7.550 1.144,7.500 L8.092,1.706 L15.039,7.500 C15.100,7.550 15.170,7.570 15.250,7.570 C15.260,7.570 15.270,7.570 15.280,7.570 C15.361,7.560 15.441,7.520 15.491,7.459 L16.114,6.716 Z" class="cls-1"/>
</svg>
