<svg xmlns="http://www.w3.org/2000/svg" xmlns:xlink="http://www.w3.org/1999/xlink" preserveAspectRatio="xMidYMid" width="15" height="11.81" viewBox="0 0 15 11.81">
  <defs>
    <style>
      .cls-1 {
        fill: #6ec5ea;
        fill-rule: evenodd;
      }
    </style>
  </defs>
  <path d="M15.012,3.816 C14.760,4.093 14.476,4.336 14.174,4.545 C12.775,5.492 11.368,6.447 10.002,7.435 C9.299,7.954 8.427,8.591 7.514,8.591 L7.506,8.591 L7.497,8.591 C6.584,8.591 5.713,7.954 5.009,7.435 C3.644,6.438 2.237,5.492 0.846,4.545 C0.536,4.336 0.251,4.093 0.000,3.816 L0.000,10.468 C0.000,11.205 0.603,11.808 1.340,11.808 L13.671,11.808 C14.409,11.808 15.012,11.205 15.012,10.468 L15.012,3.816 ZM15.012,1.353 C15.012,0.616 14.400,0.013 13.671,0.013 L1.340,0.013 C0.444,0.013 0.000,0.717 0.000,1.538 C0.000,2.300 0.846,3.247 1.441,3.649 C2.739,4.553 4.055,5.458 5.353,6.371 C5.897,6.748 6.819,7.519 7.497,7.519 L7.506,7.519 L7.514,7.519 C8.193,7.519 9.114,6.748 9.659,6.371 C10.957,5.458 12.272,4.553 13.579,3.649 C14.316,3.138 15.012,2.292 15.012,1.353 Z" class="cls-1"/>
</svg>
