<svg xmlns="http://www.w3.org/2000/svg" xmlns:xlink="http://www.w3.org/1999/xlink" preserveAspectRatio="xMidYMid" width="24.5" height="24.5" viewBox="0 0 24.5 24.5">
  <defs>
    <style>
      .cls-1 {
        fill: #545454;
        fill-rule: evenodd;
      }
    </style>
  </defs>
  <path d="M24.150,0.123 C24.024,0.041 23.879,0.000 23.734,0.000 C23.586,0.000 23.438,0.042 23.309,0.129 L0.341,15.441 C0.105,15.598 -0.026,15.875 0.004,16.158 C0.033,16.440 0.217,16.684 0.481,16.789 L6.472,19.186 L9.288,24.114 C9.423,24.351 9.673,24.497 9.945,24.500 C9.948,24.500 9.950,24.500 9.953,24.500 C10.221,24.500 10.471,24.358 10.609,24.128 L12.200,21.477 L19.622,24.445 C19.713,24.482 19.810,24.500 19.906,24.500 C20.036,24.500 20.166,24.467 20.281,24.402 C20.483,24.288 20.623,24.089 20.661,23.860 L24.489,0.891 C24.540,0.591 24.406,0.289 24.150,0.123 ZM2.401,15.908 L20.145,4.078 L7.244,17.888 C7.176,17.847 7.115,17.794 7.041,17.764 L2.401,15.908 ZM7.801,18.426 C7.800,18.423 7.797,18.422 7.796,18.419 L22.299,2.895 L9.935,22.160 L7.801,18.426 ZM19.307,22.670 L12.768,20.055 C12.612,19.993 12.450,19.972 12.290,19.963 L22.360,4.353 L19.307,22.670 Z" class="cls-1"/>
</svg>
