<svg xmlns="http://www.w3.org/2000/svg" xmlns:xlink="http://www.w3.org/1999/xlink" preserveAspectRatio="xMidYMid" width="19.281" height="16.718" viewBox="0 0 19.281 16.718">
  <defs>
    <style>
      .cls-1 {
        fill: #4eacdd;
        fill-rule: evenodd;
      }
    </style>
  </defs>
  <path d="M17.980,9.971 C17.980,10.142 17.830,10.292 17.659,10.292 L1.594,10.292 C1.424,10.292 1.273,10.142 1.273,9.971 L1.273,1.618 C1.273,1.447 1.424,1.296 1.594,1.296 L17.659,1.296 C17.830,1.296 17.980,1.447 17.980,1.618 L17.980,9.971 ZM19.265,1.618 C19.265,0.734 18.542,0.011 17.659,0.011 L1.594,0.011 C0.711,0.011 -0.012,0.734 -0.012,1.618 L-0.012,12.541 C-0.012,13.425 0.711,14.148 1.594,14.148 L7.056,14.148 C7.056,15.021 6.414,15.704 6.414,16.076 C6.414,16.427 6.705,16.718 7.056,16.718 L12.197,16.718 C12.548,16.718 12.840,16.427 12.840,16.076 C12.840,15.724 12.197,15.001 12.197,14.148 L17.659,14.148 C18.542,14.148 19.265,13.425 19.265,12.541 L19.265,1.618 Z" class="cls-1"/>
</svg>
