<svg xmlns="http://www.w3.org/2000/svg" xmlns:xlink="http://www.w3.org/1999/xlink" preserveAspectRatio="xMidYMid" width="23.812" height="21.62" viewBox="0 0 23.812 21.62">
  <defs>
    <style>
      .cls-1 {
        fill: #545454;
        fill-rule: evenodd;
      }
    </style>
  </defs>
  <path d="M23.821,5.191 C22.997,5.693 21.651,6.036 20.858,6.014 C22.224,5.341 22.923,4.310 22.942,3.276 C22.558,3.796 21.114,4.765 20.112,4.776 C19.986,4.583 19.861,4.402 19.742,4.241 C18.099,2.008 15.032,0.892 12.743,2.072 C12.904,1.917 13.070,1.766 13.240,1.621 C13.464,1.423 14.904,0.561 14.444,0.102 C14.047,-0.307 12.501,1.289 12.190,1.541 C12.588,1.178 13.241,0.566 13.107,-0.017 C12.430,0.365 11.862,0.988 11.517,1.705 C11.628,1.412 11.674,1.090 11.594,0.795 C10.172,2.794 10.043,5.748 10.098,8.544 C9.112,8.119 8.264,7.814 7.580,7.727 C5.657,7.482 3.408,7.321 -0.005,7.360 C0.298,8.400 1.400,9.510 3.410,9.744 C3.031,9.836 2.416,10.206 1.941,10.540 C2.607,11.607 3.680,12.280 5.758,11.992 C4.914,12.391 4.544,12.771 4.309,13.363 C5.018,14.009 6.353,14.571 8.010,13.697 C6.415,15.304 8.175,16.428 9.653,15.577 C8.086,19.453 3.783,20.902 0.432,19.492 C10.218,25.816 22.559,16.814 21.276,7.526 C22.818,6.934 23.502,6.024 23.821,5.191 Z" class="cls-1"/>
</svg>
