<svg xmlns="http://www.w3.org/2000/svg" width="25" height="31" viewBox="0 0 25 31">
  <defs>
    <style>
      .cls-1 {
        fill: #2e2929;
        fill-rule: evenodd;
      }
    </style>
  </defs>
  <path class="cls-1" d="M1079.36,912.011a1.208,1.208,0,0,1,1.06,1.308v16.163a0.749,0.749,0,0,0-.21-0.02h-3.41a0.784,0.784,0,0,0-.22.02V913.319a1.2,1.2,0,0,1,1.06-1.308h1.72Zm0.85,26.744a0.749,0.749,0,0,0,.21-0.02v2.958a1.207,1.207,0,0,1-1.06,1.307h-1.72a1.2,1.2,0,0,1-1.06-1.307v-2.958a0.784,0.784,0,0,0,.22.02h3.41Zm9.14-26.744a1.208,1.208,0,0,1,1.07,1.308v9.237a0.824,0.824,0,0,0-.21-0.019h-3.42a0.9,0.9,0,0,0-.22.019v-9.237a1.208,1.208,0,0,1,1.06-1.308h1.72Zm0.86,19.818a0.824,0.824,0,0,0,.21-0.019v9.883a1.207,1.207,0,0,1-1.07,1.307h-1.72a1.207,1.207,0,0,1-1.06-1.307V931.81a0.9,0.9,0,0,0,.22.019h3.42Zm9.14-19.818a1.2,1.2,0,0,1,1.06,1.308v1.568a0.715,0.715,0,0,0-.2-0.019h-3.42a0.862,0.862,0,0,0-.22.019v-1.568a1.2,1.2,0,0,1,1.06-1.308h1.72Zm0.86,12.149a0.715,0.715,0,0,0,.2-0.019v17.552a1.2,1.2,0,0,1-1.06,1.307h-1.72a1.2,1.2,0,0,1-1.06-1.307V924.141a0.862,0.862,0,0,0,.22.019h3.42Zm0.06-1.493h-3.56a0.669,0.669,0,0,1-.73-0.576v-5.148a0.668,0.668,0,0,1,.73-0.575h3.56a0.672,0.672,0,0,1,.74.575v5.148A0.673,0.673,0,0,1,1100.27,922.667Zm-9.99,7.662h-3.56a0.672,0.672,0,0,1-.74-0.574v-5.15a0.672,0.672,0,0,1,.74-0.574h3.56a0.668,0.668,0,0,1,.73.574v5.15A0.668,0.668,0,0,1,1090.28,930.329Zm-10,6.929h-3.56a0.662,0.662,0,0,1-.73-0.574v-5.15a0.662,0.662,0,0,1,.73-0.574h3.56a0.662,0.662,0,0,1,.73.574v5.15A0.662,0.662,0,0,1,1080.28,937.258Z" transform="translate(-1076 -912)"/>
</svg>
