<svg xmlns="http://www.w3.org/2000/svg" width="20.344" height="24.32" viewBox="0 0 20.344 24.32">
  <defs>
    <style>
      .cls-1 {
        fill: #fff;
        fill-rule: evenodd;
      }
    </style>
  </defs>
  <path id="Ios" class="cls-1" d="M728.358,2052.07a4.488,4.488,0,0,1-2.31-1.85,5.571,5.571,0,0,1-1.009-3.26,5.163,5.163,0,0,1,.95-3.02,9.026,9.026,0,0,1,1.667-1.73,7.5,7.5,0,0,0-1.521-1.46,5.325,5.325,0,0,0-3.114-.95,8.031,8.031,0,0,0-2.53.5,7.467,7.467,0,0,1-2.091.49,8.877,8.877,0,0,1-2.018-.44,9.673,9.673,0,0,0-2.588-.43,5.051,5.051,0,0,0-4.152,2.1,8.667,8.667,0,0,0-1.653,5.47,14.9,14.9,0,0,0,2.15,7.35c1.447,2.52,2.895,3.79,4.4,3.79a5.259,5.259,0,0,0,1.93-.5,5.7,5.7,0,0,1,2.077-.48,6.547,6.547,0,0,1,2.207.47,6.653,6.653,0,0,0,2.048.47c1.242,0,2.5-.95,3.757-2.87A14.573,14.573,0,0,0,728.358,2052.07Zm-5.5-17.16c0-.1-0.015-0.19-0.015-0.29s-0.043-.19-0.073-0.32a5.874,5.874,0,0,0-3.655,2.16,6.7,6.7,0,0,0-1.141,3.76,7.272,7.272,0,0,0,1.521-.25,4.03,4.03,0,0,0,1.579-1.05,5.975,5.975,0,0,0,1.36-2.02A5.569,5.569,0,0,0,722.86,2034.91Z" transform="translate(-708 -2034.31)"/>
</svg>
