<svg xmlns="http://www.w3.org/2000/svg" width="36" height="25" viewBox="0 0 36 25">
  <defs>
    <style>
      .cls-1 {
        fill: #fff;
        fill-rule: evenodd;
      }
    </style>
  </defs>
  <path class="cls-1" d="M1149.15,75.3l-27.85-.063-4.3-2.969,4.3-3.041h27.86c2.12,0,3.84,1.359,3.84,3.036h0C1153,73.939,1151.27,75.3,1149.15,75.3Zm0,9.707-27.85-.062-4.3-2.97,4.3-3.041h27.86c2.12,0,3.84,1.359,3.84,3.037h0C1153,83.646,1151.27,85.007,1149.15,85Zm0-18.928-27.85-.062-4.3-2.97,4.3-3.04h27.86c2.12,0,3.84,1.359,3.84,3.036h0C1153,64.717,1151.27,66.078,1149.15,66.073Z" transform="translate(-1117 -60)"/>
</svg>
