<svg xmlns="http://www.w3.org/2000/svg" xmlns:xlink="http://www.w3.org/1999/xlink" preserveAspectRatio="xMidYMid" width="21" height="12" viewBox="0 0 21 12">
  <defs>
    <style>
      .cls-1 {
        fill: #ccc;
        fill-rule: evenodd;
      }
    </style>
  </defs>
  <path d="M2.638,0.520 L10.497,8.380 L18.458,0.418 L18.459,0.419 C18.729,0.158 19.096,-0.001 19.500,-0.001 C20.328,-0.001 21.000,0.669 21.000,1.498 C21.000,1.902 20.840,2.269 20.579,2.539 L20.580,2.540 L11.580,11.539 L11.579,11.539 C11.307,11.822 10.924,11.998 10.500,11.998 C10.499,11.998 10.498,11.998 10.497,11.998 C10.496,11.998 10.494,11.998 10.493,11.998 C10.069,11.998 9.687,11.822 9.414,11.539 L9.414,11.539 L0.413,2.540 L0.417,2.535 C0.159,2.265 -0.000,1.901 -0.000,1.498 C-0.000,0.669 0.672,-0.001 1.500,-0.001 C1.955,-0.001 2.362,0.201 2.638,0.520 Z" class="cls-1"/>
</svg>
