<svg xmlns="http://www.w3.org/2000/svg" width="20.563" height="24.31" viewBox="0 0 20.563 24.31">
  <defs>
    <style>
      .cls-1 {
        fill: #fff;
        fill-rule: evenodd;
      }
    </style>
  </defs>
  <path id="Android" class="cls-1" d="M465.2,2041.36a0.566,0.566,0,0,1-.556-0.57A0.563,0.563,0,1,1,465.2,2041.36Zm6.171,0a0.569,0.569,0,0,1-.571-0.57,0.563,0.563,0,1,1,1.126,0A0.565,0.565,0,0,1,471.369,2041.36Zm-11.874,2.69a1.506,1.506,0,0,0-1.506,1.49v6.29a1.5,1.5,0,1,0,3,0v-6.29A1.5,1.5,0,0,0,459.5,2044.05Zm15.5,0.28H461.572v9.74a1.606,1.606,0,0,0,1.608,1.61h1.082l0.015,3.32a1.5,1.5,0,1,0,3,0v-3.32h2.018V2059a1.506,1.506,0,0,0,3.012,0v-3.32h1.1a1.6,1.6,0,0,0,1.594-1.61v-9.74Zm-3.392-5.92,1.038-1.92a0.212,0.212,0,0,0-.073-0.29,0.241,0.241,0,0,0-.293.09l-1.053,1.93a7.385,7.385,0,0,0-5.878,0l-1.053-1.93a0.24,0.24,0,0,0-.292-0.09,0.211,0.211,0,0,0-.073.29l1.038,1.92a6.093,6.093,0,0,0-3.451,5.39h13.526A6.106,6.106,0,0,0,471.6,2038.41Zm6.974,7.13a1.5,1.5,0,0,0-3,0v6.29a1.5,1.5,0,1,0,3,0v-6.29Z" transform="translate(-458 -2036.19)"/>
</svg>
