<svg xmlns="http://www.w3.org/2000/svg" width="36" height="36" viewBox="0 0 36 36">
  <defs>
    <style>
      .cls-1 {
        fill: #2e2929;
        fill-rule: evenodd;
      }
    </style>
  </defs>
  <path class="cls-1" d="M797,910a18,18,0,1,0,18,18A18.02,18.02,0,0,0,797,910Zm7.99,31.838-0.775-1.342-0.878.507,0.758,1.313A15.869,15.869,0,0,1,797,944V942.43h-1.014v1.516a15.874,15.874,0,0,1-6.976-2.108l0.775-1.342-0.878-.507-0.763,1.322a16.1,16.1,0,0,1-4.983-5.322l1.342-.775L784,934.337l-1.313.758A15.877,15.877,0,0,1,781,928h1.568v-1.014h-1.517a15.878,15.878,0,0,1,2.108-6.976l1.342,0.775,0.507-.878-1.322-.763a16.1,16.1,0,0,1,5.322-4.983l0.775,1.342,0.878-.507-0.758-1.313A15.869,15.869,0,0,1,797,912h0v1.568h1.013v-1.516a15.856,15.856,0,0,1,6.976,2.107l-0.774,1.342,0.878,0.507,0.763-1.322a16.11,16.11,0,0,1,4.982,5.322l-1.342.775L810,921.662l1.314-.758A15.869,15.869,0,0,1,813,928H811.43v1.014h1.516a15.852,15.852,0,0,1-2.108,6.976l-1.342-.775-0.506.878,1.322,0.763A16.113,16.113,0,0,1,804.99,941.838Zm-7.151-11.285,6.85-11.543-10.723,8.075ZM797.6,929l-2.059-1.844,5.7-4.293Zm-9.094,8.069,8.211-6.184-2.966-2.656Z" transform="translate(-779 -910)"/>
</svg>
