<svg id="Button-down-menu" xmlns="http://www.w3.org/2000/svg" width="20" height="20" viewBox="0 0 20 20">
  <defs>
    <style>
      .cls-1 {
        fill: #fff;
        fill-rule: evenodd;
      }
    </style>
  </defs>
  <path class="cls-1" d="M1145.48,82.481h0a1.73,1.73,0,0,0,0-2.453l-16.53-16.533a1.731,1.731,0,0,0-2.45,0h0a1.731,1.731,0,0,0,0,2.454l16.53,16.532A1.731,1.731,0,0,0,1145.48,82.481Zm-18.98,0h0a1.73,1.73,0,0,1,0-2.453l16.53-16.533a1.731,1.731,0,0,1,2.45,0h0a1.731,1.731,0,0,1,0,2.454l-16.53,16.532A1.731,1.731,0,0,1,1126.5,82.481Z" transform="translate(-1126 -63)"/>
</svg>
