<svg xmlns="http://www.w3.org/2000/svg" width="19.844" height="24" viewBox="0 0 19.844 24">
  <defs>
    <style>
      .cls-1 {
        fill: #2e3235;
        fill-rule: evenodd;
      }
    </style>
  </defs>
  <path id="Youtube" class="cls-1" d="M731.509,3856.09c0-.59-0.174-0.9-0.523-0.9a0.831,0.831,0,0,0-.6.3v4.03a0.855,0.855,0,0,0,.6.29c0.349,0,.523-0.29.523-0.9v-2.82Zm4.528,0.01c0-.6-0.2-0.91-0.6-0.91s-0.6.31-.6,0.91v0.62h1.206v-0.62Zm-12.942-2.92v7.62h-1.339v-7.62h-1.407v-1.26h4.18v1.26H723.1Zm3.859,7.62v-0.72a1.95,1.95,0,0,1-1.367.82,0.731,0.731,0,0,1-.777-0.5,3.264,3.264,0,0,1-.107-0.98v-5.23H725.9v4.87a2.983,2.983,0,0,0,.014.47,0.27,0.27,0,0,0,.281.28,1.077,1.077,0,0,0,.764-0.56v-5.06h1.192v6.61h-1.192Zm5.747-1.98a4.719,4.719,0,0,1-.121,1.34,0.947,0.947,0,0,1-.951.74,1.642,1.642,0,0,1-1.246-.74v0.64h-1.192v-8.88h1.192v2.91a1.63,1.63,0,0,1,1.246-.72,0.936,0.936,0,0,1,.951.75,4.517,4.517,0,0,1,.121,1.32v2.64Zm4.528-.13a5.259,5.259,0,0,1-.026.77,1.584,1.584,0,0,1-.282.73,1.655,1.655,0,0,1-1.447.71,1.7,1.7,0,0,1-1.447-.69,2.507,2.507,0,0,1-.388-1.55v-2.32a2.527,2.527,0,0,1,.375-1.55,1.837,1.837,0,0,1,2.854,0,2.636,2.636,0,0,1,.361,1.55v1.38h-2.4v1.17c0,0.61.2,0.92,0.616,0.92a0.514,0.514,0,0,0,.536-0.48,6.889,6.889,0,0,0,.027-0.82h1.219v0.18Zm-8.145-12.23c0,0.61-.174.93-0.576,0.93s-0.576-.32-0.576-0.93v-2.82c0-.61.187-0.92,0.576-0.92s0.576,0.31.576,0.92v2.82Zm9.632,10.06a21.04,21.04,0,0,0-.348-4.69,2.521,2.521,0,0,0-2.143-1.96,102.339,102.339,0,0,0-14.858,0,2.537,2.537,0,0,0-2.157,1.96,21.841,21.841,0,0,0-.348,4.69h0a21.129,21.129,0,0,0,.348,4.69,2.5,2.5,0,0,0,2.144,1.94,98.866,98.866,0,0,0,14.871,0,2.514,2.514,0,0,0,2.143-1.94A21.937,21.937,0,0,0,738.716,3856.52Zm-13.37-17.1-0.911,3.53-0.951-3.53h-1.42c0.281,0.83.576,1.68,0.87,2.51a20.953,20.953,0,0,1,.818,2.84v3.63h1.339v-3.63l1.621-5.35h-1.366Zm4.957,4.46a2.567,2.567,0,0,0-.375-1.56,1.793,1.793,0,0,0-2.827,0,2.56,2.56,0,0,0-.375,1.56v2.35a2.67,2.67,0,0,0,.375,1.58,1.809,1.809,0,0,0,2.827,0,2.657,2.657,0,0,0,.375-1.58v-2.35Zm4.488-2.17h-1.219v5.11a1.041,1.041,0,0,1-.764.57,0.28,0.28,0,0,1-.281-0.29,2.9,2.9,0,0,1-.014-0.47v-4.92h-1.219v5.28a3.444,3.444,0,0,0,.108,1.01,0.76,0.76,0,0,0,.79.49,1.93,1.93,0,0,0,1.38-.83v0.74h1.219v-6.69Z" transform="translate(-718.875 -3839.44)"/>
</svg>
