<svg xmlns="http://www.w3.org/2000/svg" width="39.031" height="39" viewBox="0 0 39.031 39">
  <defs>
    <style>
      .cls-1 {
        fill: #2e2929;
        fill-rule: evenodd;
      }
    </style>
  </defs>
  <path class="cls-1" d="M504.491,907.988A19.507,19.507,0,1,0,524,927.5,19.53,19.53,0,0,0,504.491,907.988Zm9.187,33.927-1.7-2.942-1.293.746,1.7,2.948a16.977,16.977,0,0,1-7.151,1.908v-3.4h-1.493v3.4a16.977,16.977,0,0,1-7.151-1.908l1.7-2.948L497,938.973l-1.7,2.942a17.22,17.22,0,0,1-5.233-5.233l2.942-1.7-0.746-1.293-2.948,1.7a17,17,0,0,1-1.909-7.152h3.4v-1.493h-3.4a16.993,16.993,0,0,1,1.909-7.151l2.948,1.7,0.746-1.293-2.942-1.7a17.243,17.243,0,0,1,5.233-5.233l1.7,2.943,1.294-.747-1.7-2.947a16.978,16.978,0,0,1,7.151-1.909v3.4h1.493v-3.4a16.963,16.963,0,0,1,7.151,1.909l-1.7,2.947,1.293,0.747,1.7-2.943a17.231,17.231,0,0,1,5.232,5.234l-2.942,1.7,0.747,1.293,2.948-1.7a16.992,16.992,0,0,1,1.908,7.151h-3.4v1.493h3.4a17,17,0,0,1-1.908,7.152l-2.948-1.7-0.747,1.293,2.943,1.7A17.22,17.22,0,0,1,513.678,941.915ZM508.7,921.229l-3.2,4.108a2.359,2.359,0,0,0-3.022.883l-5.986-3.418-0.641,1.123,6.252,3.57a2.389,2.389,0,1,0,4.661-.7l3.429-4.4Z" transform="translate(-484.969 -908)"/>
</svg>
