<svg xmlns="http://www.w3.org/2000/svg" width="16.937" height="21.25" viewBox="0 0 16.937 21.25">
  <defs>
    <style>
      .cls-1 {
        fill: #faffff;
        fill-rule: evenodd;
      }
    </style>
  </defs>
  <path id="Phone" class="cls-1" d="M646.752,89.689a0.692,0.692,0,0,0,.018-0.291,2.426,2.426,0,0,0-.876-0.924c-0.678-.589-1.373-1.168-2.035-1.767a2.827,2.827,0,0,0-1.071-.867c-0.821-.169-2.522,2.02-3.249,1.87a2.955,2.955,0,0,1-1.049-.764,13.673,13.673,0,0,1-4.37-6.642,2.952,2.952,0,0,1-.286-1.266c0.15-.727,2.833-1.422,3-2.244a2.83,2.83,0,0,0-.372-1.326c-0.289-.846-0.545-1.712-0.818-2.569a2.431,2.431,0,0,0-.5-1.17,0.7,0.7,0,0,0-.275-0.1,6.116,6.116,0,0,0-1.957.031,3.624,3.624,0,0,0-1.766,1.348,5.259,5.259,0,0,0-1.2,2.362,10.6,10.6,0,0,0,.2,3.719,12.865,12.865,0,0,0,.632,2.586,23.211,23.211,0,0,0,5.128,7.795,12.852,12.852,0,0,0,2.126,1.6,10.584,10.584,0,0,0,3.335,1.657,5.255,5.255,0,0,0,2.646-.17,3.624,3.624,0,0,0,1.937-1.088A6.131,6.131,0,0,0,646.752,89.689Z" transform="translate(-629.844 -71.563)"/>
</svg>
