<svg xmlns="http://www.w3.org/2000/svg" width="24.625" height="15.656" viewBox="0 0 24.625 15.656">
  <defs>
    <style>
      .cls-1 {
        fill: #faffff;
        fill-rule: evenodd;
      }
    </style>
  </defs>
  <path id="google" class="cls-1" d="M945.54,421.769a6.615,6.615,0,0,0-.129-1.3h-7.392v2.692h4.444a4.241,4.241,0,0,1-4.444,3.375,4.947,4.947,0,0,1,0-9.892,4.4,4.4,0,0,1,3.119,1.207l2.126-2.04a7.478,7.478,0,0,0-5.245-2.051,7.831,7.831,0,0,0,0,15.661C942.538,429.418,945.54,426.245,945.54,421.769Zm9.262-1.3h-2.233v-2.233h-2.244v2.233h-2.232v2.243h2.232v2.233h2.244v-2.233H954.8v-2.243Z" transform="translate(-930.188 -413.75)"/>
</svg>
