<?xml version="1.0" standalone="no"?>
<!DOCTYPE svg PUBLIC "-//W3C//DTD SVG 1.1//EN" "http://www.w3.org/Graphics/SVG/1.1/DTD/svg11.dtd">
<svg xmlns="http://www.w3.org/2000/svg">
<metadata>Copyright (C) 2016 by original authors @ fontello.com</metadata>
<defs>
<font id="fontello" horiz-adv-x="1000" >
<font-face font-family="fontello" font-weight="400" font-stretch="normal" units-per-em="1000" ascent="850" descent="-150" />
<missing-glyph horiz-adv-x="1000" />
<glyph glyph-name="pin-2" unicode="&#xe800;" d="M375-150c0 0-375 418-375 625 0 207 168 375 375 375 206 0 374-168 374-375 0-207-374-625-374-625z m0 875c-138 0-250-112-250-250 0-138 112-250 250-250 137 0 249 112 249 250 0 138-112 250-249 250z m0-375c-69 0-125 56-125 125 0 69 56 125 125 125 68 0 124-56 124-125 0-69-56-125-124-125z" horiz-adv-x="749" />

<glyph glyph-name="shopping-cart" unicode="&#xe801;" d="M1250 629l0 0-176-392 0 0c-9-19-28-33-50-34l0 0-508-34 29-84 553 0c65 0 118-53 118-118 0-65-53-117-118-117-65 0-117 52-117 117l-549 0c0-65-53-117-118-117-65 0-117 52-117 117 0 65 52 118 117 118l107 0-227 647-134 0c-33 0-59 26-59 58 0 33 26 59 59 59l176 0c26 0 47-16 55-39l0 0 35-98 870 0c33 0 59-26 59-59 0-8-2-17-5-24z m-883-35l109-310 505 34 124 276-738 0z" horiz-adv-x="1256" />

<glyph glyph-name="speech-4" unicode="&#xe802;" d="M984 260l-15 0 0 0-18 0 0-82 0 0c0-3 0-7-1-10-1-2-1-4-2-6 0-1-1-2-1-3-1-2-2-4-3-6 0-1-1-2-2-3-1-2-3-4-5-6 0 0 0-1-1-1-8-9-20-14-34-14 0 0 0 0 0 0l0 0 0 0c-14 0-26 5-35 14l-117 117-6 0 0 0-449 0c-27 0-49 22-49 49l0 492c0 27 22 49 49 49l689 0c27 0 49-22 49-49l0-492c0-27-22-49-49-49z m-254-49l104-104 0 0c17-17 41-27 68-27l0-33c0-27-22-49-49-49l0 0-346 0 0 0-114 0 0 0-49 0 0 0-12 0-133-134c-9-9-21-14-35-14l0 0 0 0c0 0 0 0-1 0-13 0-25 6-34 14 0 1 0 1 0 1-2 2-4 4-6 7 0 1-1 2-1 3-1 1-3 3-3 5-1 1-1 2-1 3-1 2-2 4-2 6-1 3-1 7-1 10l0 0 0 99-8 0 0 0-58 0c-27 0-49 22-49 49l0 557c0 0 0 0 0 0 0 27 22 49 49 49l148 0 0-344c0-54 44-98 98-98l435 0z" horiz-adv-x="1033" />

<glyph glyph-name="pinterest" unicode="&#xe803;" d="M318 201c-8-33-16-67-25-100-8-33-16-66-28-97-20-50-46-98-80-137-22-26-17-16-24-14-5 1-6 6-7 13-5 40-1 86 1 130 2 51 13 94 23 136 18 81 36 160 56 241 1 5 4 14 3 17-9 23-14 43-17 66-3 28 0 53 6 76 11 42 35 78 74 92 24 8 51 4 67-6 17-10 29-26 34-48 6-24 2-53-3-74-10-48-24-83-36-129-7-23-14-46-8-71 5-23 17-38 33-50 17-12 37-18 64-18 48 2 81 33 103 62 36 46 57 108 65 183 3 24 5 51 3 78-3 50-19 91-44 122-23 30-57 53-98 67-40 13-96 17-146 9-91-16-154-67-192-138-20-37-33-80-33-133 0-41 11-73 27-98 5-8 13-14 18-23 7-13-1-32-5-46-4-16-5-39-24-39-8-1-18 5-25 9-51 28-82 79-94 146-8 40-8 87 0 126 7 38 21 73 36 101 32 59 78 105 135 139 44 26 93 44 153 52 19 3 40 5 62 6 65 3 125-12 169-32 47-21 85-49 116-84 33-35 57-77 72-129 8-27 16-56 16-89 0-34-7-63-12-93-19-110-71-200-150-252-19-12-42-24-69-31-26-8-55-14-87-11-31 2-56 10-78 22-21 12-38 27-51 49z" horiz-adv-x="765" />

<glyph glyph-name="twitter" unicode="&#xe804;" d="M838 850c98 1 150-34 200-80 42 4 97 27 129 44 10 6 21 11 31 17-18-50-43-89-82-119-8-6-17-15-27-19 0 0 0-1 0-1 55 1 100 26 143 39 0 0 0 0 0-1-23-36-53-72-86-98-13-10-26-21-39-31 0-58-1-114-12-163-63-283-230-476-495-558-95-30-249-42-357-15-54 13-103 29-149 49-25 11-49 23-71 36-8 5-15 10-23 14 25-1 54-8 81-3 25 4 49 3 72 8 57 12 108 29 152 55 21 12 53 27 68 45-28-1-54 6-75 13-82 29-129 82-160 162 25-3 96-9 113 5-32 1-62 19-83 33-66 41-119 110-119 216 9-4 17-8 26-12 16-7 33-11 53-15 8-2 25-7 34-3 0 0 0 0-1 0-13 15-33 25-46 41-42 52-82 133-57 229 7 24 17 46 27 65 1 0 1 0 2 0 5-10 16-18 22-27 22-26 49-50 76-71 92-73 175-117 308-150 34-8 73-14 114-15-12 34-8 87 1 119 22 81 71 139 143 170 17 7 36 12 56 17 10 1 21 2 31 4z" horiz-adv-x="1231" />

<glyph glyph-name="tumblr" unicode="&#xe805;" d="M624-95c-42-20-80-34-115-42-34-8-72-12-112-12-45 0-72 5-107 17-35 11-64 28-89 49-25 22-42 44-51 68-10 25-15 59-15 105l0 350-135 0 0 142c40 12 85 31 113 55 27 23 50 52 67 85 16 34 28 76 34 128l142 0 0-232 229 0 0-178-229 0 0-256c0-58-1-91 5-108 6-16 21-33 38-43 22-13 47-20 75-20 51 0 101 17 150 50l0-158z" horiz-adv-x="624" />

<glyph glyph-name="users" unicode="&#xe806;" d="M1418-106c0 0 0 0 0 0 0-24-20-44-44-44l-329 0c25 6 43 27 43 54 0 0 0 0 0 0l0 0c0 0 0 200-146 272-63 31-67 25-98 33l1 86c0 0-35 27-45 108-22-6-29 25-30 45-1 19-12 79 14 74-6 40-9 76-8 95 7 67 72 138 172 143 117-5 164-76 170-143 2-19-2-55-7-95 26 5 15-54 13-74-1-20-8-51-29-44-11-82-45-108-45-108l1-87c0 0 21-12 113-50 91-37 62-9 137-46 117-58 117-219 117-219l0 0z m-662 296c100-41 69-10 150-51 130-64 130-240 130-240l0 0c0 0 0 0 0-1 0-26-22-48-49-48l-938 0c-27 0-49 22-49 48 0 1 0 1 0 1l0 0c0 0 0 176 129 240 82 41 51 8 151 49 100 42 124 56 124 56l1 96c0 0-38 28-49 118-24-7-31 28-33 50-1 21-13 87 15 81-6 44-10 83-8 104 7 74 79 151 189 157 129-6 180-83 187-157 2-21-2-60-8-104 28 6 16-60 15-81-2-22-10-56-33-50-12-90-49-118-49-118l0-95c0 0 24-14 125-55z" horiz-adv-x="1418" />

<glyph glyph-name="alarm" unicode="&#xe807;" d="M1008 538c-52 122-149 219-270 271 32 26 74 41 119 41 106 0 192-86 192-193 0-44-15-86-41-119z m-8-213c0-126-50-240-130-326l67-66c8-9 14-21 14-34 0-27-22-49-49-49-13 0-25 5-34 14l-72 72c-77-54-170-86-271-86-101 0-195 32-272 85l-71-71c-9-9-21-14-34-14-28 0-50 22-50 49 0 14 6 26 15 35l66 66c-80 85-130 199-130 325 0 263 213 476 476 476 262 0 475-213 475-476z m-475 378c-209 0-377-169-377-378 0-208 168-377 377-377 208 0 377 169 377 377 0 209-169 378-377 378z m196-427l-196 0c-28 0-50 22-50 49l0 263c0 27 22 49 50 49 27 0 49-22 49-49l0-213 147 0c28 0 50-22 50-50 0-27-22-49-50-49z m-679 256c-26 33-42 75-42 121 0 109 88 197 197 197 46 0 88-16 121-42-123-53-223-152-276-276z" horiz-adv-x="1049" />

<glyph glyph-name="arrow-_-down" unicode="&#xe808;" d="M220 807l655-655 663 663 0 0c23 22 53 35 87 35 69 0 125-56 125-125 0-33-13-64-35-87l0 0-750-750 0 0c-23-23-55-38-90-38 0 0 0 0 0 0 0 0 0 0-1 0-35 0-67 15-89 38l0 0-751 750 1 1c-22 22-35 53-35 86 0 69 56 125 125 125 38 0 72-17 95-43z" horiz-adv-x="1750" />

<glyph glyph-name="arrow-_-up" unicode="&#xe809;" d="M220-106l655 655 663-664 0 0c23-21 53-35 87-35 69 0 125 56 125 125 0 34-13 65-35 87l0 0-750 750 0 0c-23 24-55 38-90 38 0 0 0 0 0 0 0 0 0 0-1 0-35 0-67-14-89-38l0 0-751-750 1 0c-22-23-35-53-35-87 0-69 56-125 125-125 38 0 72 17 95 44z" horiz-adv-x="1750" />

<glyph glyph-name="arrow-_left" unicode="&#xe80a;" d="M547-24l-375 374 380 379-1 0c13 13 20 30 20 50 0 39-31 71-71 71-19 0-37-7-50-20l0 0-428-428 0 0c-14-13-22-32-22-52 0 0 0 0 0 0 0 0 0 0 0 0 0-20 8-39 22-52l0 0 428-428 1 0c12-12 30-20 49-20 40 0 71 32 71 71 0 22-9 42-24 55z" horiz-adv-x="571" />

<glyph glyph-name="arrow-_right" unicode="&#xe80b;" d="M25-24l374 374-379 379 0 0c-12 13-20 30-20 50 0 39 32 71 71 71 20 0 37-7 50-20l0 0 429-428 0 0c13-13 21-32 21-52 0 0 0 0 0 0 0 0 0 0 0 0 0-20-8-39-21-52l0 0-429-428 0 0c-13-12-30-20-50-20-39 0-71 32-71 71 0 22 10 42 25 55z" horiz-adv-x="571" />

<glyph glyph-name="book-2" unicode="&#xe80c;" d="M971 41l-452-187c-6-3-12-4-19-4-7 0-13 1-19 4l-452 187c-17 7-29 24-29 43l0 719c0 26 21 47 47 47 6 0 12-1 18-4l0 0 0 0c0 0 0 0 0 0l435-180 435 180c0 0 0 0 0 0l0 0 0 0c6 3 12 4 18 4 26 0 47-21 47-47l0-719c0-19-12-36-29-43z m-518 543l-359 149 0-617 359-149 0 617z m453 149l-359-149 0-617 359 149 0 617z m-285-215l172 78 0 0c6 3 13 4 20 4 25 0 46-21 46-47 0-19-11-35-27-42l0 0-172-79 0 0c-6-2-12-4-19-4-26 0-47 21-47 47 0 19 11 35 27 43z m0-172l0 0 172 78 0 0c6 3 13 4 20 4 25 0 46-21 46-47 0-19-11-35-27-42l-172-79 0 1c-6-3-12-5-19-5-26 0-47 21-47 47 0 19 11 35 27 43z m0-172l0 0 172 78 0 0c6 3 13 4 20 4 25 0 46-21 46-47 0-19-11-35-27-42l0 0-172-78 0 0c-6-3-12-5-19-5-26 0-47 21-47 47 0 19 11 36 27 43z m-433 426c6 0 13-1 19-4l0 0 172-78 0 0c16-8 27-24 27-43 0-26-21-47-47-47-7 0-13 2-19 4l0 0-172 79 0 0c-16 7-27 23-27 42 0 26 21 47 47 47z m0-172c6 0 13-1 19-4l0 0 172-78 0 0c16-8 27-24 27-43 0-26-21-47-47-47-7 0-13 2-19 5l0-1-172 79 0 0c-16 7-27 23-27 42 0 26 21 47 47 47z m0-172c6 0 13-1 19-4l0 0 172-78 0 0c16-7 27-24 27-43 0-26-21-47-47-47-7 0-13 2-19 5l0 0-172 78 0 0c-16 7-27 23-27 42 0 26 21 47 47 47z" horiz-adv-x="1000" />

<glyph glyph-name="bullseye" unicode="&#xe80d;" d="M500-150c-276 0-500 224-500 500 0 276 224 500 500 500 276 0 500-224 500-500 0-276-224-500-500-500z m0 906c-224 0-406-182-406-406 0-224 182-406 406-406 224 0 406 182 406 406 0 224-182 406-406 406z m0-703c-164 0-297 133-297 297 0 164 133 297 297 297 164 0 297-133 297-297 0-164-133-297-297-297z m0 500c-112 0-203-91-203-203 0-112 91-203 203-203 112 0 203 91 203 203 0 112-91 203-203 203z m0-297c-52 0-94 42-94 94 0 52 42 94 94 94 52 0 94-42 94-94 0-52-42-94-94-94z" horiz-adv-x="1000" />

<glyph glyph-name="computer-_-ok" unicode="&#xe80e;" d="M1054 29l-268 0-72 0 0-90 72-71 0-18-465 0 0 18 72 71 0 90-72 0-267 0c-30 0-54 24-54 53l0 714c0 30 24 54 54 54l1000 0c29 0 53-24 53-54l0-714c0-29-24-53-53-53z m-18 750l-965 0 0-608 965 0 0 608z m-590-250c15 0 29-6 38-16l0 0 34-34 105 105 0 0c10 10 23 16 38 16 29 0 53-24 53-54 0-14-6-28-15-37l0 0-143-143 0 0c-10-10-23-16-38-16-15 0-28 6-38 16l0 0-71 71 0 0c-10 10-16 23-16 38 0 30 24 54 53 54z" horiz-adv-x="1107" />

<glyph glyph-name="dribbble" unicode="&#xe80f;" d="M990 450c-7 32-17 64-29 94-13 29-28 58-46 85-18 26-39 51-61 74-23 22-48 43-74 61-27 18-56 33-85 46-31 13-62 22-94 29-33 7-67 10-101 10-34 0-68-3-101-10-32-7-63-16-94-29-29-13-58-28-85-46-26-18-51-39-74-61-22-23-43-48-61-74-18-27-33-56-46-85-12-30-22-62-29-94-7-33-10-67-10-101 0-34 3-68 10-101 7-32 17-63 29-94 13-29 28-58 46-85 18-26 39-51 61-74 23-22 48-43 74-61 27-18 56-33 85-46 31-12 62-22 94-29 33-7 67-10 101-10 34 0 68 3 101 10 32 7 63 17 94 29 29 13 58 28 85 46 26 18 51 39 74 61 22 23 43 48 61 74 18 27 33 56 46 85 12 31 22 62 29 94 7 33 10 67 10 101 0 34-3 68-10 101z m-63-97c-6 2-151 33-298 14-3 8-6 15-9 22-9 21-18 42-28 62 169 69 237 168 238 169 60-72 96-165 97-267z m-145 317c-1-2-62-95-223-155-73 134-153 241-160 249 33 8 66 12 101 12 108 0 207-40 282-106z m-384 94c0 0 0 0 0 0 0 0-1 0-2-1 1 1 1 1 2 1z m-80-29c6-7 84-114 158-246-205-54-383-52-394-52 28 132 117 242 236 298z m-245-386c0 5 0 9 0 14 8-1 219-5 439 60 12-23 24-48 34-72-5-2-11-3-16-5-231-75-348-282-348-282 0 0 0 0 0 0-68 75-109 175-109 285z m427-427c-103 0-198 37-272 98 6-5 10-8 10-8 0 0 81 179 335 267 1 1 2 1 3 1 60-156 84-287 91-324-51-22-108-34-167-34z m239 73c-5 26-27 151-83 305 137 22 257-16 266-19-19-119-87-221-183-286z" horiz-adv-x="1000" />

<glyph glyph-name="equalizer" unicode="&#xe810;" d="M828 335l-94 0c-25 0-46 20-46 46l0 188c0 26 21 47 46 47l94 0c26 0 47-21 47-47l0-188c0-26-21-46-47-46z m-94 468c0 26 21 47 47 47 26 0 47-21 47-47l0-140-94 0 0 140z m-250-718l-93 0c-26 0-47 20-47 46l0 188c0 26 21 47 47 47l93 0c26 0 47-21 47-47l0-188c0-26-21-46-47-46z m-93 718c0 26 21 47 47 47 25 0 46-21 46-47l0-390-93 0 0 390z m-250-594l-94 0c-26 0-47 21-47 47l0 188c0 26 21 47 47 47l94 0c26 0 47-21 47-47l0-188c0-26-21-47-47-47z m-94 594c0 26 21 47 47 47 26 0 47-21 47-47l0-265-94 0 0 265z m94-906c0-26-21-47-47-47-26 0-47 21-47 47l0 266 94 0 0-266z m343 0c0-26-21-47-46-47-26 0-47 21-47 47l0 141 93 0 0-141z m344 0c0-26-21-47-47-47-26 0-47 21-47 47l0 391 94 0 0-391z" horiz-adv-x="875" />

<glyph glyph-name="facebook" unicode="&#xe811;" d="M468 850c0-58 0-161 0-161 0 0-118 12-148-34-16-25-7-97-8-150 52 0 105 0 157 0-13-61-23-102-32-155-45 0-126 0-126 0l0-500c0 0-148 0-218 0 0 154 0 334 0 498-34 0-59 0-92 0 0 58 0 100 0 157 32 0 58 0 91 0 5 115 7 229 64 287 64 66 125 58 312 58z" horiz-adv-x="470" />

<glyph glyph-name="google-plus" unicode="&#xe812;" d="M980 598l0-177-73 0 0 177-181 0 0 73 181 0 0 177 73 0 0-177 181 0 0-73-181 0z m-502 180c64-36 102-94 102-169 0-64-39-114-90-153-49-38-59-54-59-86 0-27 53-74 81-94 81-56 105-108 105-195 0-109-105-230-299-230-170 0-318 81-318 190 0 110 135 217 305 217 19 0 36 1 54 1-24 22-42 49-42 83 0 20 6 40 15 57-9-1-18 1-28 1-140 0-233 101-233 222 0 118 129 227 266 227 77 0 307 0 307 0l-69-71-97 0z m-140-548c-118 1-223-71-223-157 0-88 85-152 202-152 166 0 223 60 223 148 0 10-1 21-3 31-13 49-59 74-123 118-23 7-49 11-76 12z m132 377c-14 102-92 184-171 186-79 2-132-76-118-177 14-102 88-187 167-189 79-2 136 78 122 180z" horiz-adv-x="1161" />

<glyph glyph-name="image" unicode="&#xe813;" d="M953-150l-906 0c-26 0-47 21-47 47l0 906c0 26 21 47 47 47l906 0c26 0 47-21 47-47l0-906c0-26-21-47-47-47z m-47 906l-812 0 0-812 812 0 0 812z m-703-47l172 0 0 0c26 0 47-21 47-46 0-26-21-47-47-47l0 0-141 0 0-141 0 0c0-26-21-47-46-47-26 0-47 21-47 47l0 0 0 172 0 0 0 62 62 0 0 0z m-62-484l0 0c0 26 21 47 47 47 25 0 46-21 46-47l0 0 0-141 141 0 0 0c26 0 47-21 47-46 0-26-21-47-47-47l0 0-172 0 0 0-62 0 0 62 0 0 0 172z m484 484l0 0 172 0 0 0 62 0 0-62 0 0 0-172 0 0c0-26-21-47-46-47-26 0-47 21-47 47l0 0 0 141-141 0 0 0c-26 0-47 21-47 47 0 25 21 46 47 46z m0-625l0 0 141 0 0 141 0 0c0 26 21 47 47 47 25 0 46-21 46-47l0 0 0-172 0 0 0-62-62 0 0 0-172 0 0 0c-26 0-47 21-47 47 0 25 21 46 47 46z" horiz-adv-x="1000" />

<glyph glyph-name="home" unicode="&#xe814;" d="M1049 325c0-27-22-49-49-49-13 0-25 5-33 14l0-1-441 441 0 0-1 1 0 0-441-441 0 0c-9-8-21-14-35-14-27 0-49 22-49 49 0 14 6 27 15 36l474 474c9 9 22 15 36 15l0 0 0 0c0 0 0 0 0 0 1 0 1 0 2 0 0 0 1 0 1 0 0 0 1 0 2 0 0 0 0 0 0 0 12-2 23-7 31-16l0 0 193-193 0 45c0 27 22 49 49 49 27 0 50-22 50-49l0-143 183-184 0 0c8-9 13-21 13-34z m-98-82l0-147 0-66 0-131c0-27-22-49-49-49l-99 0 0 393-196 0 0-393-459 0c-28 0-50 22-50 49l0 131 0 66 0 147 427 427 426-427z m-508 0l-197 0 0-196 197 0 0 196z" horiz-adv-x="1049" />

<glyph glyph-name="instagram" unicode="&#xe815;" d="M874-150l-750 0c-69 0-125 56-125 125l0 750c0 69 56 125 125 125l750 0c69 0 125-56 125-125l0-750c0-69-56-125-125-125z m-375 694c-78 0-145-46-175-113l-1 0c0 0 0-1 0-2-2-4-4-8-5-12-1-2-2-4-3-6-1-5-2-9-3-14-1-2-2-4-2-6-1-5-2-10-2-14-1-2-1-4-1-6-1-7-1-14-1-21 0-107 86-194 193-194 107 0 194 87 194 194 0 7-1 14-1 21-1 2-1 4-1 6-1 4-2 9-3 14 0 2-1 4-1 6-1 5-3 9-4 14-1 2-1 4-2 6-2 4-3 8-5 12-1 1-1 2-1 2l0 0c-31 67-98 113-176 113z m387 143c0 28-22 50-50 50l-100 0c-27 0-49-22-49-50l0-100c0-27 22-50 49-50l100 0c28 0 50 23 50 50l0 100z m0-256l-92 0c7-26 11-53 11-81 0-169-137-306-306-306-169 0-306 137-306 306 0 28 4 55 11 81l-92 0 0-418c0-28 22-50 50-50l674 0c28 0 50 22 50 50l0 418z" horiz-adv-x="999" />

<glyph glyph-name="magnifying-glass" unicode="&#xe816;" d="M972 11c17-17 27-41 27-67 0-51-42-93-93-93-26 0-50 10-67 27l0 0-274 275c-56-33-121-53-190-53-207 0-374 168-374 375 0 207 167 374 374 374 207 0 375-167 375-374 0-70-20-134-53-190l275-274 0 0z m-597 745c-155 0-281-126-281-281 0-155 126-281 281-281 155 0 281 126 281 281 0 155-126 281-281 281z" horiz-adv-x="1000" />

<glyph glyph-name="line-graph" unicode="&#xe817;" d="M953-150l-906 0c-26 0-47 21-47 47l0 906c0 26 21 47 47 47l906 0c26 0 47-21 47-47l0-906c0-26-21-47-47-47z m-47 906l-812 0 0-812 812 0 0 812z m-743-413l0 0 125 78 0 0c7 4 16 7 25 7 9 0 18-3 26-8l0 0 207-138 239 168c8 6 17 9 28 9 25 0 46-21 46-47 0-15-7-29-19-38l0 0-266-187 0 0c-7-6-17-9-27-9-10 0-19 3-27 9l-208 138-98-61c-8-5-17-8-26-8-26 0-47 21-47 47 0 17 9 31 22 40z" horiz-adv-x="1000" />

<glyph glyph-name="speech-bubble-2" unicode="&#xe818;" d="M593-8c-40 0-80 12-118 17-154-195-396-156-396-156 171 81 168 215 137 233-134 79-215 199-215 334 0 238 261 431 592 431 330 0 531-193 531-431 0-238-201-428-531-428z m-293 525c-58 0-105-47-105-105 0-58 47-105 105-105 58 0 105 47 105 105 0 58-47 105-105 105z m263 0c-58 0-105-47-105-105 0-58 47-105 105-105 58 0 105 47 105 105 0 58-47 105-105 105z m263 0c-58 0-105-47-105-105 0-58 47-105 105-105 58 0 105 47 105 105 0 58-47 105-105 105z" horiz-adv-x="1125" />

<glyph glyph-name="youtube" unicode="&#xe819;" d="M1231 851l-475 0-494 0c-123 0-262-83-262-204l0-601c0-121 139-195 262-195l503 0 466 0c123 0 223 74 223 195l0 601c0 121-100 204-223 204z m-598-731l-3 458 319-231-316-227z" horiz-adv-x="1455" />

<glyph glyph-name="picture" unicode="&#xe81a;" d="M1000 50c0-22-14-40-33-47l0-56c19-7 33-25 33-47 0-28-22-50-50-50-22 0-40 14-47 33l-56 0c-7-19-25-33-47-33-22 0-40 14-47 33l-56 0c-7-19-25-33-47-33-22 0-40 14-47 33l-56 0c-7-19-25-33-47-33-22 0-40 14-47 33l-56 0c-7-19-25-33-47-33-22 0-40 14-47 33l-56 0c-7-19-25-33-47-33-22 0-40 14-47 33l-56 0c-7-19-25-33-47-33-28 0-50 22-50 50 0 22 14 40 33 47l0 56c-19 7-33 25-33 47 0 22 14 40 33 47l0 56c-19 7-33 25-33 47 0 22 14 40 33 47l0 56c-19 7-33 25-33 47 0 22 14 40 33 47l0 56c-19 7-33 25-33 47 0 22 14 40 33 47l0 56c-19 7-33 25-33 47 0 22 14 40 33 47l0 56c-19 7-33 25-33 47 0 28 22 50 50 50 22 0 40-14 47-33l56 0c7 19 25 33 47 33 22 0 40-14 47-33l56 0c7 19 25 33 47 33 22 0 40-14 47-33l56 0c7 19 25 33 47 33 22 0 40-14 47-33l56 0c7 19 25 33 47 33 22 0 40-14 47-33l56 0c7 19 25 33 47 33 22 0 40-14 47-33l56 0c7 19 25 33 47 33 28 0 50-22 50-50 0-22-14-40-33-47l0-56c19-7 33-25 33-47 0-22-14-40-33-47l0-56c19-7 33-25 33-47 0-22-14-40-33-47l0-56c19-7 33-25 33-47 0-22-14-40-33-47l0-56c19-7 33-25 33-47 0-22-14-40-33-47l0-56c19-7 33-25 33-47z m-133 667l-734 0 0-734 734 0 0 734z m-434-534l234 284 150-234 0-200-634 0 200 200 50-50z m-100 234c-55 0-100 45-100 100 0 55 45 100 100 100 56 0 100-45 100-100 0-55-44-100-100-100z" horiz-adv-x="1000" />

<glyph glyph-name="view" unicode="&#xe81b;" d="M1727 348c0-1 0-1 0-2 0 0 0-1 0-1 0-1 0-1 0-2 0 0 0-1-1-1 0-1 0-1 0-1-2-13-8-26-18-36-18-22-38-43-57-63-108-109-232-207-367-278-86-45-179-81-275-99-105-19-210-18-315 5-182 39-346 137-489 254-67 55-133 114-188 181-24 29-24 64 0 93 18 22 38 43 58 63 108 109 231 207 367 277 86 46 178 82 274 100 106 19 211 18 316-5 181-39 345-137 489-254 67-55 132-114 187-181 10-10 16-23 18-36 0 0 0 0 0-1 1 0 1-1 1-1 0-1 0-1 0-2 0 0 0-1 0-1 0-1 0-2 0-2 0-1 0-2 0-4 0-1 0-2 0-3z m-864 341c-179 0-324-145-324-324 0-179 145-324 324-324 179 0 324 145 324 324 0 179-145 324-324 324z m0-486c-89 0-162 72-162 162 0 89 73 162 162 162 90 0 162-73 162-162 0-90-72-162-162-162z" horiz-adv-x="1728" />
</font>
</defs>
</svg>
