<svg xmlns="http://www.w3.org/2000/svg" width="24.625" height="19.344" viewBox="0 0 24.625 19.344">
  <defs>
    <style>
      .cls-1 {
        fill: #faffff;
        fill-rule: evenodd;
      }
    </style>
  </defs>
  <path id="Envelope" class="cls-1" d="M801.877,92.116a0.452,0.452,0,0,1-.44.44H781.2a0.452,0.452,0,0,1-.44-0.44V81.558a7.4,7.4,0,0,0,.948.907c1.966,1.512,3.946,3.052,5.857,4.647,1.031,0.866,2.31,1.925,3.74,1.925h0.027c1.43,0,2.708-1.059,3.74-1.925,1.911-1.595,3.89-3.135,5.856-4.647a7.4,7.4,0,0,0,.949-0.907V92.116Zm0-14.449a5.356,5.356,0,0,1-2.021,3.4q-2.763,2.165-5.513,4.358c-0.729.591-2.049,1.856-3.011,1.856h-0.027c-0.963,0-2.283-1.265-3.011-1.856q-2.743-2.186-5.513-4.358a4.956,4.956,0,0,1-2.021-3.9,0.452,0.452,0,0,1,.44-0.44h20.237C801.959,76.718,801.877,77.323,801.877,77.667Zm1.76-.509a2.206,2.206,0,0,0-2.2-2.2H781.2a2.206,2.206,0,0,0-2.2,2.2V92.116a2.206,2.206,0,0,0,2.2,2.2h20.237a2.206,2.206,0,0,0,2.2-2.2V77.158Z" transform="translate(-779 -74.969)"/>
</svg>
