<svg xmlns="http://www.w3.org/2000/svg" width="22.62" height="21.37" viewBox="0 0 22.62 21.37">
  <defs>
    <style>
      .cls-1 {
        fill: #f79723;
        fill-rule: evenodd;
      }
    </style>
  </defs>
  <path id="_" data-name="ï¢" class="cls-1" d="M1254.8,2215.52a1.949,1.949,0,0,0-.53-1.32l-9.46-9.45a1.835,1.835,0,0,0-1.32-.54,1.789,1.789,0,0,0-1.3.54l-9.46,9.45a1.923,1.923,0,0,0-.55,1.32,1.9,1.9,0,0,0,.55,1.31l1.09,1.08a1.812,1.812,0,0,0,2.62,0l4.27-4.25v10.22a1.734,1.734,0,0,0,1.85,1.7h1.86a1.737,1.737,0,0,0,1.86-1.7v-10.22l4.27,4.25a1.814,1.814,0,0,0,1.31.56,1.889,1.889,0,0,0,1.32-.56l1.09-1.08A1.924,1.924,0,0,0,1254.8,2215.52Z" transform="translate(-1232.19 -2204.22)"/>
</svg>
