<?xml version="1.0" standalone="no"?><svg xmlns="http://www.w3.org/2000/svg" width="500" height="500"><circle fill="#cc0000" cx="250" cy="250" r="250" /><path fill="white" d="M231.4716 60.741266C219.78675 61.0707 208.17099 62.484711 196.81101 65.501968C178.4944 70.231383 162.33617 77.496601 146.73179 88.522466C119.0154 107.61666 102.21585 140.16971 101.07132 173.46341C98.973475 194.47979 102.925 215.95014 115.26774 233.3167C127.72592 250.83141 146.11387 264.38413 165.59768 271.80948C179.24779 278.31978 194.32222 283.19497 209.34648 287.25044C233.97346 296.03172 260.19182 299.82872 284.21461 310.02038C300.64923 315.13836 317.49515 328.98173 316.55613 347.94939C318.78594 370.82053 296.3637 387.44426 275.69048 390.60778C251.54157 394.11019 225.37661 394.9245 202.42063 385.90972C185.63532 380.66565 170.42698 371.06006 154.84851 362.16886C154.62373 362.01853 154.35911 361.98576 154.12772 361.85565C153.4235 361.07564 138.23509 351.05458 135.91994 349.73465C129.11699 344.68914 105.44897 327.76383 103.17101 327.90433L103.09741 387.94466C103.09741 387.94466 115.41984 395.85749 117.52413 396.96583C118.16732 397.9252 149.34314 417.13683 164.72019 424.2459C176.54544 429.94586 188.86312 435.31154 201.48047 438.90385C220.55913 444.58242 241.12779 447.4209 261.33737 446.60867C269.20519 445.96463 277.11817 446.02185 284.7787 443.94644C309.66932 440.56779 331.97586 429.58795 352.47027 415.60147C381.2894 393.58074 405.51799 361.64339 408.75455 324.64701C411.275 296.06286 400.47859 267.63968 381.23918 246.62788C362.75661 227.15104 337.27223 218.59808 312.04336 212.08147C279.6974 203.31449 246.481 196.59345 215.33217 184.30027C196.94493 178.3906 183.41892 159.13887 187.002 139.91925C188.96439 124.49816 201.91039 112.95299 216.39769 109.31922C235.27953 105.88984 255.1294 106.4607 273.77882 110.29015C288.52924 112.187 302.63407 118.14491 315.77267 123.85188C339.39974 135.24452 360.40644 151.71151 382.02265 166.47896C382.17815 147.4473 382.33723 128.41352 382.49273 109.38186C367.70362 99.183263 353.233 89.140184 337.17699 81.663297C322.55847 74.523702 306.35002 69.16101 289.73022 65.815172C270.64341 62.664941 250.94634 60.192209 231.4716 60.741266z" /></svg>
