<?xml version="1.0" standalone="no"?>
<!DOCTYPE svg PUBLIC "-//W3C//DTD SVG 1.1//EN" "http://www.w3.org/Graphics/SVG/1.1/DTD/svg11.dtd" >
<svg xmlns="http://www.w3.org/2000/svg" xmlns:xlink="http://www.w3.org/1999/xlink" version="1.1">
<metadata>
Created by FontForge 20160407 at Mon Dec  5 19:06:10 2016
 By Jimmy Warting
Copyright (c) 2016 by Misti's Fonts. All rights reserved.
</metadata>
<defs>
<font id="BoldStylishCalligraphy" horiz-adv-x="359" >
  <font-face 
    font-family="Bold  Stylish Calligraphy"
    font-weight="400"
    font-stretch="normal"
    units-per-em="1000"
    panose-1="0 0 0 0 0 0 0 0 0 0"
    ascent="800"
    descent="-200"
    x-height="316"
    cap-height="798"
    bbox="-605 -547 1548 1022.25"
    underline-thickness="50"
    underline-position="-100"
    unicode-range="U+000D-20AC"
  />
<missing-glyph horiz-adv-x="500" 
 />
    <glyph glyph-name="t_t" unicode="tt" horiz-adv-x="538" 
d="M594 622q34 -5 55.5 -23.5t21.5 -44.5q0 -16 -11.5 -27t-27.5 -11t-27 11t-11 27q0 8 3 16q-9 3 -21 3h-4q-16 -33 -35.5 -66t-40 -63t-40.5 -55.5t-37 -41.5q-17 -42 -33.5 -84.5t-29.5 -81t-21.5 -70t-8.5 -50.5q0 -10 1.5 -14.5t2.5 -6.5q1 -1 2 -1q9 0 23 9v1
q60 40 101.5 98t83.5 128l6 10q5 13 22 13q11 0 17 -7q2 -2 5.5 -6.5t3.5 -12.5q0 -6 -3 -10q0 -2 -1 -2l-5 -9q-20 -33 -42 -67.5t-47 -67t-54.5 -62t-63.5 -52.5q-34 -22 -66 -22q-41 0 -62 29q-21 25 -21 74q0 19 3 40q-11 -14 -21.5 -27.5t-22.5 -26.5q-79 -89 -145 -89
q-41 0 -62 29q-21 25 -21 74q0 26 6 58q10 47 21.5 86.5t25 78.5t31 81.5t40.5 96.5q-27 1 -47 13q-31 19 -31 52q0 18 10.5 29.5t27.5 11.5q16 0 27.5 -11.5t11.5 -27.5q0 -9 -4 -16q5 -1 10 -1.5t11 -0.5h5q58 128 103.5 187t86.5 59q26 0 41 -20q12 -17 12 -43t-12.5 -64
t-34.5 -83l33 9q17 5 34.5 9t34.5 8q47 95 86.5 139.5t74.5 44.5q24 0 38.5 -17t14.5 -46q0 -18 -6 -43t-17 -51zM86 49q60 41 102 99.5t85 129.5h1q8 26 18.5 55t24.5 63l9 20q8 20 20.5 52t29.5 68l-107 -27q-30 -51 -61.5 -94t-57.5 -68q-17 -42 -33.5 -84.5t-29.5 -81
t-21.5 -70t-8.5 -50.5q0 -10 1.5 -14.5t2.5 -6.5q1 -1 2 -1q9 0 23 9v1zM235 552q28 49 42 85t19 59l-5 -10q-11 -23 -25 -55.5t-34 -78.5h3zM531 619q2 1 7 1q9 20 15 38.5t10 32.5l-3 -5q-14 -30 -29 -67zM512 566q-3 0 -5 -1l-10 -25l1 1zM496 538l1 2q-1 -1 -1 -2z" />
    <glyph glyph-name=".notdef" horiz-adv-x="500" 
 />
    <glyph glyph-name="NULL" horiz-adv-x="0" 
 />
    <glyph glyph-name="NULL" horiz-adv-x="0" 
 />
    <glyph glyph-name="nonmarkingreturn" unicode="&#xd;" horiz-adv-x="500" 
 />
    <glyph glyph-name="space" unicode=" " horiz-adv-x="218" 
 />
    <glyph glyph-name="s" unicode="s" horiz-adv-x="266" 
d="M324 286q8 -8 8 -19q0 -6 -2 -10t-4 -6q-28 -31 -70.5 -57.5t-97.5 -55.5q6 -36 6 -69q0 -45 -10 -84.5t-28 -68.5q-47 -75 -133 -75h-3q-53 0 -92 28q-43 32 -43 78q0 27 16 52t43 49t62 46t74 43l-10 54t-12 53q-7 22 -10.5 34t-5 18t-1 7.5l0.5 1.5q-7 27 -10.5 49
t-3.5 42q0 59 32 102q16 22 36.5 34t43.5 12q22 0 38 -11q22 -16 22 -42q0 -23 -15 -56t-50 -87q4 -16 9 -33t10 -35q6 -21 12.5 -44t11.5 -47q46 25 82.5 48t57.5 47l1 1q8 8 18 8q11 0 17 -7zM-91 -71q17 -33 52 -33q25 0 43 17.5t29.5 44t16.5 56.5t5 55v13
q-23 -12 -49 -28t-48.5 -34t-37.5 -37t-15 -37q0 -10 4 -17zM105 446q6 10 9 20q-4 -7 -9 -20z" />
    <glyph glyph-name="dieresis" unicode="&#xa8;" horiz-adv-x="392" 
d="M129 677q20 0 33.5 -13t13.5 -33q0 -27 -23 -48q-22 -19 -48 -19q-20 0 -33 12t-13 32q0 4 0.5 9t2.5 10q7 21 26 35.5t41 14.5zM287 677q20 0 33.5 -13t13.5 -33q0 -27 -23 -48q-22 -19 -48 -19q-20 0 -33 12t-13 32q0 4 0.5 9t2.5 10q7 21 26 35.5t41 14.5z" />
    <glyph glyph-name="y" unicode="y" horiz-adv-x="481" 
d="M507 295q11 0 18.5 -7t7.5 -18q0 -10 -4 -15q-8 -14 -17 -30.5t-19 -36.5q-20 -40 -45.5 -86.5t-57.5 -85.5q-35 -44 -73 -68q-44 -28 -95 -28h-2q-32 -81 -69 -150t-81 -126q-67 -89 -145 -139q-81 -52 -157 -52q-68 0 -115 39q-48 39 -48 98q0 57 47 127
q21 32 49.5 62.5t62.5 59.5q69 59 146 94q81 39 149 39h11.5t15.5 -1q10 -2 15 -4q10 -3 13 -9q11 28 20.5 55.5t17.5 54.5l-5 -8q-60 -84 -121 -84h-5.5t-7.5 1q-38 6 -58 35q-17 25 -17 63q0 26 7 55t16.5 57t21 52t20.5 41q19 35 65 35q12 0 22 -2t15 -4q1 0 2 -1
q10 -2 13 -10q4 -7 1 -17q-2 -2 -3.5 -6.5t-3.5 -9.5q-8 -17 -20 -44.5t-24 -58.5t-20.5 -61t-8.5 -51q0 -8 1 -11t2 -4h2q2 0 7.5 2t14.5 9.5t22 22.5t30 41q23 35 43 72.5t34 65.5l13 24q2 3 3.5 7t5.5 8q15 19 37 24t36 5h8q9 0 16 -7q5 -7 4 -16q-13 -83 -33.5 -164.5
t-47.5 -158.5q65 9 127 95v1q12 16 24 36t23.5 41t22.5 42.5t20 39.5q7 13 12.5 24l9.5 19q7 11 12.5 19t16.5 8zM-158 -438q45 30 82.5 70.5t69.5 87t58 98t47 103.5q-1 -1 -5 -1h-8t-9 1q-4 0 -7.5 0.5t-7.5 0.5q-59 0 -129.5 -32.5t-138.5 -90.5q-64 -55 -102 -113
t-38 -101q0 -20 8 -32t19 -18.5t24 -8.5t24 -2q28 0 57.5 10t55.5 27v1z" />
    <glyph glyph-name="i" unicode="i" horiz-adv-x="260" 
d="M292 302q11 0 18 -7t7 -18q0 -10 -4 -15l-21 -34q-7 -11 -12.5 -20.5t-11.5 -19.5q-24 -40 -50 -80.5t-61 -83.5q-2 -2 -2.5 -3t-2.5 -2q-14 -16 -29 -33t-32 -30.5t-36 -22.5t-41 -9h-5.5t-8.5 1q-36 6 -54 36q-17 26 -17 68q0 40 12 84t26.5 82t27 63.5t13.5 27.5v1
q19 35 65 35q12 0 22 -2t15 -4q1 0 2 -1q15 -3 15 -19q0 -4 -0.5 -6.5t-4.5 -10.5q-8 -17 -26 -56t-35 -87q-16 -42 -24.5 -76t-8.5 -56q0 -11 1.5 -15.5t2.5 -5.5q2 0 9.5 2.5t21 14.5t35 35.5t51.5 65.5q17 23 34 48t32.5 49.5t29.5 47.5t25 42q7 14 22 14zM87 360
q-20 0 -33 12t-13 32q0 4 0.5 9t3.5 10q7 21 26 35.5t40 14.5t34 -13t13 -33q0 -28 -23 -48q-22 -19 -48 -19z" />
    <glyph glyph-name="c" unicode="c" 
d="M417 297q4 -6 4 -14v-2q0 -5 -3 -11l-19 -28q-24 -38 -56.5 -85t-70.5 -89q-94 -103 -175 -103q-56 0 -94 44q-36 45 -36 115q0 27 5.5 57t15.5 60q21 61 55 113q39 56 82 87q49 36 101 36q30 0 49.5 -15.5t19.5 -39.5q0 -17 -11.5 -29.5t-28.5 -12.5q-14 0 -24 8.5
t-13 21.5l-8.5 -8.5t-9.5 -11.5q-15 -17 -30.5 -41t-30.5 -53q-33 -63 -52.5 -123.5t-19.5 -102.5q0 -35 11.5 -43t25.5 -8q10 0 24 4.5t32.5 16t41.5 32t51 53.5q19 22 37 46t33.5 46.5t28 42t21.5 33.5l3 4q0 2 2 4q7 7 19 7h2q13 0 18 -11z" />
    <glyph glyph-name="a" unicode="a" horiz-adv-x="476" 
d="M516 310q11 0 18 -7t7 -18q0 -7 -5 -14l-21 -35l-24 -39q-23 -40 -49.5 -81t-61.5 -83v-1q-14 -17 -29.5 -34.5t-33 -32t-37.5 -24t-42 -9.5h-6.5t-7.5 2q-36 4 -55 35q-16 26 -16 68q0 11 1 23.5t3 26.5q-42 -42 -80 -42q-41 0 -68 36.5t-27 91.5q0 42 15.5 88.5
t41.5 85.5q29 43 64 66q40 27 83 27q37 0 60 -23q21 -24 21 -57q0 -19 -8 -37q8 5 17.5 6t20.5 1t21.5 -2t15.5 -4h2q15 -3 15 -20q0 -3 -1 -5.5t-5 -10.5q-8 -17 -25.5 -56.5t-34.5 -86.5v-1q-16 -42 -24.5 -76t-8.5 -56q0 -10 1.5 -14.5t2.5 -6.5q6 0 27 14.5t56 57.5
q13 16 27.5 37t29.5 43.5t29.5 45t26.5 42.5q9 15 17 28t15 22q9 14 15.5 21.5t16.5 7.5zM235 297q-14 -8 -30 -9h-1q-16 0 -27 11t-11 27q0 17 11 28t27 11q9 0 14 -2q-1 5 -4 11t-11 6q-9 0 -30.5 -21.5t-49.5 -73.5q-23 -45 -37 -89.5t-14 -73.5q0 -10 1.5 -14t2.5 -6
q1 -1 1.5 -2t4.5 -1q3 0 9 2t16 9.5t23.5 22t30.5 40.5q26 38 40.5 63t23.5 42z" />
    <glyph glyph-name="underscore" unicode="_" horiz-adv-x="704" 
d="M623 -144l3.5 -10.5t5 -17.5t4.5 -20.5t2 -19.5q0 -20 -9.5 -28t-20.5 -8q-1 0 -2 0.5t-2 0.5q-11 3 -41 5t-70.5 3.5t-88 3t-93.5 2.5q-105 3 -168 5.5t-80 6.5q-10 2 -13 11q-2 2 -4 8.5t-2 22.5q0 13 3.5 21.5t8 13t9.5 6.5t8 2h2l529 4q14 0 19 -12z" />
    <glyph glyph-name="b" unicode="b" horiz-adv-x="455" 
d="M492 309q11 0 18 -7t7 -18q0 -9 -4 -14q-20 -33 -50.5 -78t-71.5 -87q-99 -101 -201 -111q-24 -9 -48 -9q-35 0 -59 24q-18 19 -21 47l-10 -22q-6 -14 -20.5 -28.5t-48.5 -14.5q-9 0 -18.5 2t-20.5 5q-8 3 -11 11q-3 5 -2.5 9.5t2.5 13.5l6 25l24 89q14 49 34 118t43 144
q60 186 104 278q27 54 50 78.5t46 24.5q17 0 30.5 -9t20.5 -20q0 -2 0.5 -2.5t0.5 -1.5q4 -6 5.5 -12l2.5 -10v-1q1 -6 1.5 -12.5t0.5 -14.5q0 -35 -15.5 -87.5t-43.5 -111.5q-26 -56 -54.5 -97.5t-51.5 -61.5q-9 -25 -16.5 -50t-14.5 -50q10 17 19 31t18 26q56 75 108 75
q44 0 70 -40q12 -17 18 -40t6 -49q0 -30 -8.5 -64.5t-24.5 -67.5l-7.5 -15t-8.5 -14q28 21 53.5 47t46.5 52t37 49.5t26 38.5l12 18q3 5 8 9.5t13 4.5zM111 63q0 -5 3 -11.5t11 -6.5q9 0 31 21.5t49 74.5q23 45 37 89.5t14 72.5q0 11 -1 15t-2 6q-2 2 -6 2q-3 0 -10 -2.5
t-18.5 -12.5t-28 -30t-38.5 -54q-14 -23 -27.5 -47.5t-26.5 -48.5q12 6 25 6h1q16 0 27 -11t11 -27t-11 -27.5t-27 -11.5q-7 0 -13 3zM180 491q14 24 26 52q29 63 40 114q-15 -31 -31.5 -73t-34.5 -93z" />
    <glyph glyph-name="d" unicode="d" horiz-adv-x="481" 
d="M516 306q11 0 17 -7q2 -2 5.5 -6.5t3.5 -12.5q0 -6 -3 -10q0 -2 -1 -2l-5 -9q-20 -33 -42 -67.5t-47 -67t-54.5 -62t-63.5 -52.5q-34 -22 -66 -22q-41 0 -62 29q-21 25 -21 74v9t1 9q-29 -35 -54 -51.5t-49 -16.5q-41 0 -68 36.5t-27 91.5q0 42 15.5 88t41.5 85
q29 43 64 66q40 28 83 28q37 0 60 -24q9 -11 15 -24l6 16l7 16q6 16 16 40t22 52t26 58.5t30 60.5q42 80 77.5 118t68.5 38q26 0 41 -20q12 -17 12 -43q0 -22 -8.5 -50t-20.5 -55.5t-24.5 -51.5t-20.5 -39q-31 -55 -64.5 -101.5t-59.5 -71.5q-17 -42 -33.5 -84.5t-29.5 -81
t-21.5 -70t-8.5 -50.5q0 -10 1.5 -14.5t2.5 -6.5q1 -1 2 -1q9 0 23 9v1q60 40 101.5 98t83.5 128l6 10q5 13 22 13zM80 95q3 0 9 2t16 9t23.5 21.5t30.5 40.5h1q18 26 31 49.5t19 35.5l11 34q-9 -3 -18 -3h-1q-16 0 -27 11t-11 27t11 27.5t27 11.5q6 0 14 -3q-1 5 -4 11.5
t-11 6.5q-9 0 -30.5 -21.5t-49.5 -74.5q-23 -45 -37 -89t-14 -73q0 -10 1.5 -14.5t2.5 -6.5l1.5 -1.5t4.5 -0.5zM457 574q19 35 32 66t19 54q-11 -25 -26 -59t-33 -76q2 4 4 7.5t4 7.5z" />
    <glyph glyph-name="e" unicode="e" 
d="M417 298q2 -3 3 -6t1 -8v-2q0 -7 -3 -11l-33 -50q-22 -32 -44.5 -65t-48.5 -65q-18 -21 -38.5 -42.5t-44.5 -39.5q-57 -44 -118 -44q-52 0 -86 37q-38 43 -38 121q0 61 24 127q11 29 25.5 57.5t33.5 54.5q36 52 82 83q48 33 94 33q59 0 59 -58q0 -41 -21 -83
q-9 -17 -21.5 -35.5t-29.5 -36.5q-32 -35 -68.5 -64t-65.5 -49q-14 -47 -14 -80q0 -17 3.5 -27.5t9 -16t12.5 -7t15 -1.5q10 0 24 4t32 15.5t40.5 31t49.5 51.5q19 23 37 47t34 47.5t29.5 44.5t24.5 37q0 1 2 3q8 8 19 8h2q13 0 18 -11zM113 241q16 13 31 27t29 29
q61 64 61 117q0 8 -1 9q-3 -1 -12.5 -8.5t-26.5 -30.5q-14 -19 -29.5 -44t-30.5 -54q-5 -11 -10.5 -22.5t-10.5 -22.5z" />
    <glyph glyph-name="g" unicode="g" horiz-adv-x="479" 
d="M514 306q11 0 18.5 -7t7.5 -18q0 -7 -5 -14q-8 -14 -17 -31t-18 -36q-20 -41 -46 -87t-58 -86q-17 -22 -35 -39t-38 -28q-43 -27 -93 -29q-65 -162 -150 -276q-33 -44 -70.5 -79t-75.5 -60q-81 -52 -156 -52q-68 0 -115 39q-48 40 -48 98q0 57 47 128q20 31 48.5 62
t63.5 60t71.5 53t73.5 41q84 38 150 38h10.5t15.5 -1l15 -3q8 -2 14 -10q25 67 44 130q-51 -58 -94 -58q-41 0 -68 36.5t-27 91.5q0 42 15.5 88.5t41.5 85.5q29 43 64 66q40 27 83 27q37 0 60 -23q21 -24 21 -57q0 -22 -9 -37h2q12 5 24 6.5t21 1.5h8q9 0 15 -7q7 -7 5 -16
q-13 -82 -33.5 -163.5t-47.5 -158.5q64 10 124 95q12 16 24 36.5t23.5 41.5t22.5 42t20 39q6 13 11.5 24t10.5 19q6 11 12 19t17 8zM-148 -427q44 30 81.5 69.5t69.5 85.5t58.5 98t48.5 106q-2 0 -3 -0.5t-3 -0.5q-7 0 -17 2h-15q-59 0 -130 -32.5t-139 -90.5
q-63 -55 -101 -112.5t-38 -101.5q0 -20 8 -32t19 -18.5t24 -8.5t24 -2q27 0 57 10t56 28zM79 95q3 0 9 2t16 9.5t23.5 22t30.5 40.5q21 30 36 56.5t18 33.5l5 16q1 5 5 13q-5 -2 -10 -2.5t-10 -1.5h-1q-16 0 -27 11t-11 27q0 17 11 28t27 11q9 0 14 -2q-1 5 -4 11t-11 6
q-9 0 -30.5 -21.5t-49.5 -73.5q-23 -45 -37 -89.5t-14 -73.5q0 -10 1.5 -14t2.5 -6q1 -1 1.5 -2t4.5 -1z" />
    <glyph glyph-name="h" unicode="h" horiz-adv-x="502" 
d="M535 303q11 0 18 -7t7 -18q0 -9 -4 -14l-21 -35l-16 -26q-26 -43 -53.5 -87t-65.5 -90v-1q-14 -17 -29.5 -34.5t-33.5 -32t-38 -24t-42 -9.5q-42 0 -67 33q-20 28 -20 75q0 26 8 57.5t17 63.5q8 27 14.5 52.5t6.5 42.5q0 11 -2 13h-2q-2 0 -7.5 -2t-15 -10t-23.5 -24
t-32 -44q-23 -37 -43.5 -75.5t-34.5 -64.5l-8 -16q-6 -18 -24.5 -29.5t-43.5 -11.5q-9 0 -18.5 2t-20.5 5q-8 3 -11 11q-3 5 -2.5 9.5t2.5 13.5l6 25l24 89q14 49 34 118t43 144q60 186 104 278q27 54 50 78.5t46 24.5q17 0 30.5 -9t20.5 -20q0 -2 1 -2q10 -16 10 -52
q0 -35 -15.5 -87.5t-43.5 -111.5q-26 -56 -54.5 -97.5t-52.5 -61.5q-11 -32 -20.5 -64.5t-17.5 -63.5q29 45 63 76.5t74 31.5q42 0 65 -26t23 -72q0 -37 -19 -94q-14 -44 -22 -75t-8 -51q0 -11 1.5 -14.5t2.5 -5.5q7 0 27.5 14.5t55.5 57.5q13 16 27.5 37t29.5 43.5t29.5 45
t26.5 42.5l32 50q10 14 16 21.5t16 7.5zM177 485q14 24 26 52q29 63 40 114q-15 -31 -31.5 -73t-34.5 -93z" />
    <glyph glyph-name="j" unicode="j" horiz-adv-x="266" 
d="M298 304q11 0 18.5 -7t7.5 -18q0 -8 -5 -15q-8 -14 -17 -30.5t-18 -36.5q-20 -40 -46 -86.5t-58 -85.5q-33 -44 -73 -68q-44 -28 -94 -28h-1q-32 -81 -69.5 -150t-80.5 -126q-33 -44 -70.5 -79t-75.5 -60q-81 -52 -156 -52q-68 0 -115 39q-48 39 -48 98q0 57 47 127
q20 32 48.5 62.5t63.5 59.5t71.5 53t73.5 41q82 39 150 39h10.5t15.5 -1q10 -2 15 -4t8.5 -4.5t5.5 -4.5q32 82 54 161t39 144q7 31 40 45q12 5 24 6.5t21 1.5h8q8 0 15 -7t5 -16q-13 -83 -33.5 -164.5t-47.5 -158.5q65 10 126 95v1q12 16 24 36t23.5 41t22.5 42.5t20 39.5
q6 13 11.5 24t10.5 19q6 11 12 19t17 8zM-366 -430q44 30 81.5 70.5t69.5 87t58 98t48 104.5q-1 -1 -5 -1h-9t-8 1q-4 0 -7.5 0.5t-7.5 0.5q-59 0 -130 -32.5t-139 -90.5q-63 -55 -101 -113t-38 -101q0 -20 8 -32t19 -18.5t24 -8.5t24 -2q27 0 57 10t56 27zM55 362
q-20 0 -33 12t-13 32q0 4 0.5 9t2.5 10q7 21 26 35.5t41 14.5q20 0 33.5 -13t13.5 -33q0 -27 -23 -48q-22 -19 -48 -19z" />
    <glyph glyph-name="l" unicode="l" horiz-adv-x="266" 
d="M299 302q11 0 17 -7q2 -2 5.5 -6.5t3.5 -12.5q0 -6 -3 -10q0 -2 -1 -2l-5 -9q-20 -33 -42 -67.5t-47 -67t-54.5 -62t-63.5 -52.5q-34 -22 -66 -22q-41 0 -62 29q-21 25 -21 74q0 32 7 69t19.5 77t28.5 82.5t33 84.5l7 16q6 16 16 40t22 52t26 58.5t30 60.5
q42 80 77.5 118t68.5 38q26 0 41 -20q12 -17 12 -43q0 -22 -8.5 -50t-20.5 -55.5t-24.5 -51.5t-20.5 -39q-31 -55 -64.5 -101.5t-59.5 -71.5q-17 -42 -33.5 -84.5t-29.5 -81t-21.5 -70t-8.5 -50.5q0 -10 1.5 -14.5t2.5 -6.5q1 -1 2 -1q9 0 23 9v1q60 40 101.5 98t83.5 128
l6 10q5 13 22 13zM240 570q19 35 32 66t19 54q-11 -25 -26 -59t-33 -76q2 4 4 7.5t4 7.5z" />
    <glyph glyph-name="m" unicode="m" horiz-adv-x="717" 
d="M746 296q11 0 18 -7t7 -18q0 -8 -5 -15l-21 -34l-15 -27q-26 -43 -54 -87t-66 -90q-14 -17 -29.5 -34.5t-33 -32t-37.5 -24t-42 -9.5q-44 0 -67 32q-20 29 -20 76q0 26 8 57.5t17 63.5q8 27 14.5 52.5t6.5 42.5q0 7 -1 9.5t-1 3.5h-2q-2 0 -7.5 -2t-14.5 -9t-21.5 -22
t-29.5 -40q-22 -32 -41.5 -68.5t-35.5 -67.5q-9 -21 -17 -33.5t-16 -20.5q-12 -11 -25 -13.5t-24 -2.5q-14 0 -25.5 2.5t-17.5 5.5q-7 4 -10 11t0 14l2 4q42 103 64.5 177t22.5 110q0 12 -2 16q-2 0 -7.5 -3t-14.5 -12t-22 -27t-31 -49q-24 -42 -46 -88t-37 -79l-18 -39
q-1 -2 -1 -3.5t-2 -3.5q-19 -34 -66 -34q-25 0 -41 8q-15 7 -10 23l36 134q8 30 15.5 58.5t18.5 66.5q7 23 25.5 35.5t44.5 12.5q11 0 22 -2t20 -5q17 -7 12 -24l-4 -17q1 3 5 9q62 98 122 98q44 0 65 -36q17 -28 17 -72q0 -8 -0.5 -15.5t-1.5 -15.5l12 15q52 64 104 64
q29 0 45.5 -10.5t24.5 -21.5q19 -25 19 -66q0 -37 -19 -94v-1q-30 -86 -30 -125q0 -11 1.5 -15t1.5 -5h1q6 0 27 14.5t56 57.5q13 16 27.5 36.5t29.5 43t29.5 45t26.5 42.5q9 16 17 28.5t15 22.5q9 14 15.5 21.5t16.5 7.5z" />
    <glyph glyph-name="n" unicode="n" horiz-adv-x="508" 
d="M534 295q11 0 18 -7t7 -18q0 -9 -4 -14l-21 -35l-16 -26q-26 -43 -53.5 -87t-65.5 -90v-1q-14 -17 -29.5 -34.5t-33.5 -32t-38 -24t-42 -9.5q-42 0 -67 33q-20 28 -20 75q0 26 8 57.5t17 63.5q8 27 14.5 52.5t6.5 42.5q0 13 -2 13h-2q-2 0 -7.5 -2t-15 -10t-23.5 -24.5
t-32 -44.5q-24 -37 -44.5 -76t-33.5 -65l-6 -11l-1 -5l-2 -4q-19 -35 -67 -35q-11 0 -22 2.5t-18 6.5q-15 7 -11 23q13 45 21 76.5t15 57.5q8 30 15.5 58t18.5 66q15 48 70 48q25 0 42 -7q8 -2 11.5 -9t1.5 -15l-17 -61q2 4 4 6q61 85 121 85q42 0 65 -26t23 -72
q0 -37 -19 -94q-14 -44 -22 -75t-8 -51q0 -11 1.5 -14.5t2.5 -5.5q7 0 27.5 14.5t55.5 57.5q13 16 27.5 37t29.5 43.5t29.5 45t26.5 42.5l32 50q10 14 16 21.5t16 7.5z" />
    <glyph glyph-name="t" unicode="t" horiz-adv-x="267" 
d="M576 645q5 -5 12 -16t7 -26q0 -16 -11 -27t-28 -11q-16 0 -27 11t-11 27q0 5 1 8.5t3 7.5q-9 3 -22 3q-36 0 -88 -10.5t-104 -23.5q-15 -35 -35.5 -71t-42.5 -68t-43.5 -59t-39.5 -44q-17 -42 -33.5 -84.5t-29.5 -81t-21.5 -70t-8.5 -50.5q0 -10 1.5 -14.5t2.5 -6.5
q1 -1 2 -1q9 0 23 9v1q30 20 55 44.5t47 53.5t42.5 61t41.5 67l5 10q6 13 22 13q11 0 18.5 -7.5t7.5 -18.5q0 -7 -2 -10q-1 -1 -1 -2l-5 -9q-20 -33 -42 -67.5t-47.5 -67t-55 -62t-63.5 -52.5q-34 -22 -66 -22q-39 0 -62 29q-21 25 -21 74q0 33 7.5 71t20.5 78.5t28.5 82
t32.5 81.5l9 22q8 22 21.5 54t30.5 70q-50 -9 -83 -9h-1q-40 0 -64 15q-27 18 -29 48q-1 1 -1 2q0 19 10.5 30.5t27.5 11.5t28 -11.5t11 -27.5q0 -9 -3 -16q5 -1 10 -1.5t10 -0.5h1q37 0 109 15q47 93 85.5 137t73.5 44q24 0 38.5 -17t14.5 -46q0 -30 -14 -70q47 11 91 19
t78 8q23 0 43 -7t33 -20zM272 630q14 36 20 61l-3 -6l-1 -1l-25 -56zM243 571q-2 -1 -5 -1q-4 -8 -7.5 -16.5t-6.5 -17.5z" />
    <glyph glyph-name="u" unicode="u" horiz-adv-x="472" 
d="M501 297q11 0 18 -7t7 -18q0 -7 -5 -14l-21 -35l-24 -39q-23 -40 -49.5 -81t-61.5 -83v-1l-4 -5q-14 -16 -29 -32.5t-32 -30.5t-36.5 -23t-40.5 -9q-43 0 -66 32q-19 29 -19 73v12t1 12q-24 -31 -51 -50.5t-58 -19.5h-6.5t-7.5 2q-40 6 -59 34q-16 23 -16 63
q0 26 6.5 55.5t16.5 57t21 52t20 40.5q20 35 66 35q11 0 21.5 -2t15.5 -4h2q9 -4 13 -11q4 -10 0 -16q-1 -3 -3 -7.5t-4 -9.5q-8 -17 -20 -44.5t-23.5 -58.5t-20 -61t-8.5 -51q0 -11 3 -14v-1h2q2 0 7.5 2t14.5 9.5t22 23t30 41.5q23 34 43 72t34 65l16 32q19 35 66 35
q11 0 21.5 -2t15.5 -4h2q15 -3 15 -20q0 -3 -1 -5.5t-5 -10.5q-8 -17 -25.5 -56.5t-34.5 -86.5v-1q-16 -42 -24.5 -76t-8.5 -56q0 -10 1.5 -14.5t2.5 -6.5q2 0 9 2.5t21 14.5t35.5 35.5t51.5 65.5q17 24 34 49t32.5 49.5t29.5 47.5t25 42q5 13 22 13z" />
    <glyph glyph-name="r" unicode="r" horiz-adv-x="394" 
d="M423 295q11 0 18 -7t7 -18q0 -8 -5 -15l-21 -34l-15 -27q-26 -43 -54 -87t-66 -90q-14 -17 -29.5 -34.5t-33 -32t-37.5 -24t-42 -9.5h-6.5t-7.5 1q-37 6 -55 36q-16 25 -16 68q0 25 6 54.5t15 59t19 56t18 45.5h-8q-35 0 -65 10t-53 30q-51 45 -51 120q0 32 14.5 53.5
t37.5 23.5h2q41 0 64 -40q21 -32 21 -79q0 -30 -9 -58q16 -11 44 -11q14 0 29 3q21 26 60 26q11 0 21.5 -2t15.5 -4q1 0 1 -0.5t1 -0.5q15 -3 15 -19q0 -4 -1 -6.5t-5 -10.5q-8 -17 -25.5 -56t-34.5 -87q-16 -42 -24.5 -76t-8.5 -56q0 -11 1.5 -15.5t2.5 -5.5q6 0 27 14.5
t56 57.5q13 16 27.5 36.5t29.5 43t29.5 45t26.5 42.5q9 16 17 28.5t15 22.5q9 14 15.5 21.5t16.5 7.5zM21 388q0 -18 9 -39v1q0 27 -9 45v-7z" />
    <glyph glyph-name="p" unicode="p" horiz-adv-x="461" 
d="M488 295q11 0 18 -7t7 -18q0 -10 -4 -15q-20 -33 -50.5 -77.5t-71.5 -86.5q-97 -100 -201 -112q-26 -8 -48 -8q-37 0 -59 24q-20 19 -21 48l-8 -17l-6 -12l-2 -4q-37 -113 -88.5 -212t-111.5 -174q-69 -85 -140.5 -128t-143.5 -43q-68 0 -115 39q-48 39 -48 98
q0 57 47 127q21 32 49.5 62.5t62.5 59.5q69 59 146 94q81 39 149 39h11.5t15.5 -1q10 -2 15 -4q9 -2 13 -9q32 82 54 161t39 144q9 31 41 45q12 5 24 6.5t20 1.5h8q9 0 16 -7q5 -7 4 -16q-2 -17 -5 -33t-6 -33q11 18 20.5 34t19.5 29q29 40 54.5 58t53.5 18q44 0 70 -41
q24 -35 24 -88q0 -30 -8.5 -64.5t-24.5 -67.5l-7.5 -15t-8.5 -14q28 21 53.5 47t46.5 52t37 49.5t26 38.5l12 17q3 5 8 10t13 5zM-368 -439q45 30 82.5 70.5t69.5 87t58 98t48 104.5q-2 -1 -6 -1h-8t-9 1q-4 0 -7.5 0.5t-7.5 0.5q-59 0 -129.5 -32.5t-138.5 -90.5
q-64 -55 -102 -113t-38 -101q0 -20 8 -32t19 -18.5t24 -8.5t24 -2q28 0 57.5 10t55.5 27zM107 49q0 -5 3 -11.5t11 -6.5q9 0 31 21.5t49 74.5q23 45 37 89t14 73q0 10 -1 14.5t-2 6.5q-2 2 -7 2q-2 0 -8 -2t-16 -9t-23.5 -22t-31.5 -40q-17 -24 -35 -57t-35 -66q11 5 26 7h1
q16 0 27 -11t11 -27q0 -17 -11 -28t-27 -11q-7 0 -13 3z" />
    <glyph glyph-name="o" unicode="o" horiz-adv-x="507" 
d="M571 287q5 -5 5.5 -10.5t0.5 -7.5q0 -10 -6 -17q-51 -57 -113 -88.5t-122 -31.5h-11t-11 1q-43 -76 -96.5 -116.5t-112.5 -40.5q-68 0 -104 41q-36 39 -36 109q0 40 11.5 84t31.5 80q25 45 58.5 69t71.5 24h12q3 30 12 57.5t24 49.5q19 26 43.5 40.5t52.5 14.5
q53 0 80 -44q24 -39 24 -105q0 -47 -11.5 -101.5t-33.5 -106.5q10 -2 17 -2q21 0 45 8.5t47.5 22.5t44.5 32t38 37l1 1q5 5 10.5 6t7.5 1q12 0 19 -7zM125 34q29 0 68.5 29t70.5 83q-42 17 -71 56q-37 48 -42 115q-14 -12 -27.5 -34t-24.5 -48.5t-17.5 -55.5t-6.5 -57
q0 -48 17 -71q12 -17 33 -17zM268 448q-19 -43 -19 -95q0 -40 13 -74.5t36 -60.5q18 45 28 92t10 88q0 53 -17 78q-8 11 -15 11q-20 0 -36 -39z" />
    <glyph glyph-name="z" unicode="z" horiz-adv-x="555" 
d="M595 291q8 -5 10 -11t2 -10q0 -7 -4 -13q-11 -21 -26.5 -47.5t-34.5 -56t-41.5 -60.5t-46.5 -59q-29 -35 -56.5 -61.5t-53.5 -43.5q-56 -39 -104 -39q-47 0 -90 14t-79 29q-30 -22 -56 -33t-50 -11q-30 0 -52 16q-23 17 -23 45q0 26 19 43q15 12 39 18q20 5 42 6t39 1h6
q35 31 68.5 71.5t66.5 82.5q19 25 38.5 50t39.5 48q-22 3 -41 9.5t-36 13.5t-32 11.5t-29 4.5q-34 0 -65 -54l-3 -5q-2 -2 -7 -5.5t-12 -3.5q-11 0 -18 8t-7 17q0 5 2 9q0 2 2 4q11 21 23.5 36t25.5 25q26 19 62 19q20 0 38.5 -5.5t38.5 -12.5q23 -8 46.5 -15.5t52.5 -7.5
q60 0 121 40q4 3 11 3h2q11 0 18 -7t7 -18q0 -10 -8 -18q-2 0 -2 -2q-37 -26 -77 -74t-80 -99q-34 -44 -68.5 -86t-68.5 -72q28 -12 55 -20.5t59 -8.5q15 0 31 4.5t34.5 16.5t41.5 33t52 55q24 28 45.5 58t39.5 58.5t32.5 54t24.5 45.5q6 14 22 14q9 0 14 -4zM-60 -51
q3 1 9.5 4t17.5 10q-14 0 -20.5 -4.5t-6.5 -8.5v-1z" />
    <glyph glyph-name="q" unicode="q" horiz-adv-x="512" 
d="M542 295q24 0 24 -24q0 -9 -6 -17q-26 -31 -54.5 -62t-60.5 -58q-58 -49 -114 -67q30 -36 50 -91q26 -76 26 -177q0 -67 -12.5 -127.5t-36.5 -107.5q-13 -25 -28.5 -44.5t-34.5 -33.5q-41 -32 -90 -32q-82 0 -128 70q-43 63 -43 163q0 91 36 214q10 35 23 72t28 77
q-29 -19 -52 -19q-41 0 -68 36.5t-27 91.5q0 44 16 90.5t44 85.5q29 41 65 65q41 26 84 26h2q17 -1 30.5 -8t24.5 -18q19 -20 19 -54q0 -25 -11 -44q10 8 21.5 11t23.5 3q21 0 39 -7q9 -3 12 -13q2 -11 -4 -18q-4 -6 -7 -14q-2 -3 -4 -6.5t-4 -7.5q-18 -40 -34.5 -77
t-30.5 -72q6 6 16 6h7q57 3 125 59q33 27 62.5 59.5t52.5 60.5q0 1 0.5 1t0.5 1q3 2 8 4.5t10 2.5zM266 60q-13 3 -15 19q-107 -260 -107 -387q0 -24 5.5 -57t18.5 -62q26 -59 66 -59q21 0 43 22.5t39.5 61.5t29 91t11.5 112q0 96 -27 167q-24 64 -64 92zM223 279q2 2 2 3
q-10 -6 -28 -8h-1q-17 0 -27.5 10.5t-10.5 27.5t11 28t27 11q10 0 14 -2q-1 5 -4 11t-11 6t-30 -21t-49 -74q-23 -45 -37.5 -89.5t-14.5 -73.5q0 -10 1.5 -14.5t2.5 -5.5l2 -2t4 -1q9 0 28.5 13t51.5 61q17 25 32 49q8 19 17 37.5t20 33.5z" />
    <glyph glyph-name="v" unicode="v" horiz-adv-x="362" 
d="M424 281q2 -4 2 -9q0 -15 -12 -22q-47 -32 -91.5 -50t-80.5 -18h-10q-20 -38 -42.5 -79.5t-48.5 -78.5q-71 -102 -133 -102q-38 0 -59.5 27t-21.5 75q0 32 8.5 69.5t20.5 72.5t24.5 64.5t21.5 45.5q21 35 66 35q11 0 21.5 -2t15.5 -4q1 0 1 -0.5t1 -0.5q8 -1 13 -10
t0 -17v-1q-44 -99 -68.5 -173t-24.5 -108q0 -6 0.5 -8.5t1.5 -4.5q1 0 6.5 2.5t14.5 10.5t23 23.5t32 42.5q19 28 39.5 63.5t40.5 73.5q-21 16 -29.5 40.5t-8.5 47.5q0 33 16 60q20 31 51 31q29 0 43 -28q6 -13 8 -26t2 -24q0 -34 -10 -63h4q15 0 32 6t33.5 14.5t32 18
t27.5 17.5q2 2 5.5 3.5t8.5 1.5q11 0 19 -8q3 -4 5 -8z" />
    <glyph glyph-name="w" unicode="w" horiz-adv-x="572" 
d="M609 296q11 0 18.5 -7t7.5 -18q0 -16 -12 -22q-46 -32 -91 -50t-81 -18h-10q-20 -38 -42 -79.5t-48 -78.5q-71 -102 -134 -102q-42 0 -64 34q-17 26 -17 68q0 5 0.5 10t0.5 11q-24 -32 -51.5 -52.5t-59.5 -20.5h-6.5t-7.5 1q-38 6 -58 35q-17 25 -17 63q0 26 7 55
t16.5 57t21 52t20.5 41q19 35 65 35q12 0 22 -2t15 -4q1 0 2 -1q10 -2 13 -10q4 -7 1 -17q-2 -2 -3.5 -6.5t-3.5 -9.5q-8 -17 -20 -44.5t-24 -58.5t-20.5 -61t-8.5 -51q0 -8 1 -11t2 -4h2q2 0 7 1.5t13 8t19.5 19t26.5 34.5q21 30 40.5 65t33.5 62q8 20 14.5 33t14.5 24
q4 6 8 8q22 25 55 25q12 0 22 -2t15 -4q1 0 2 -1q10 -2 13 -10q4 -9 1 -17l-1 -1q-44 -99 -68.5 -173t-24.5 -108q0 -6 0.5 -8.5t1.5 -4.5q2 0 7 2.5t14.5 10.5t23 23.5t31.5 42.5q20 28 40.5 63.5t39.5 73.5q-20 16 -29 40.5t-9 47.5q0 34 17 60q19 31 50 31q29 0 43 -28
q7 -13 8.5 -26t1.5 -24q0 -33 -9 -63h3q15 0 32 6t34 14.5t32.5 18t26.5 17.5q2 2 5.5 3.5t8.5 1.5z" />
    <glyph glyph-name="x" unicode="x" horiz-adv-x="382" 
d="M408 296q11 0 18 -7t7 -18v-2q0 -6 -2 -9q-5 -11 -15 -28.5t-23.5 -40t-30 -47t-35.5 -48.5q-96 -122 -172 -122q-51 0 -87 50q-14 19 -28 51q-36 -85 -41 -156q0 -10 -7 -17t-18 -7t-18 7t-7 18v1q3 50 21.5 109t47.5 114q-7 29 -13 59.5t-6 47.5q0 34 31 57q11 9 22 13
t14 6q7 3 16 -1q7 -4 10 -13l10 -45q0 -3 1 -5q38 41 76.5 63t73.5 22q11 0 18 -7t7 -18q0 -10 -7 -17.5t-18 -7.5q-28 0 -65 -26q-35 -25 -72 -71q22 -88 39 -125q6 -13 14.5 -25.5t17.5 -12.5q4 0 13.5 4.5t23 16t32 31.5t41.5 50q16 21 31 42.5t27 40.5t20 33.5t11 22.5
q0 2 1 3q5 10 11.5 12t9.5 2z" />
    <glyph glyph-name="f" unicode="f" horiz-adv-x="286" 
d="M326 531q-23 -29 -46.5 -56t-45.5 -50t-41.5 -41t-34.5 -28q-31 -62 -59 -122.5t-52 -119.5q4 4 9.5 7t10.5 3t7 -1q32 2 65 19.5t63.5 44t58.5 57t51 59.5l1 1q2 2 6 5t12 3q10 0 17 -7t7 -17t-7 -17q-26 -31 -53.5 -61.5t-59.5 -58.5q-58 -49 -113 -67q31 -36 51 -93
q12 -38 18.5 -82.5t6.5 -92.5q0 -68 -12.5 -128t-36.5 -107q-25 -50 -63 -79q-40 -31 -90 -31q-81 0 -127 67q-22 30 -33 72.5t-11 93.5q0 53 16.5 127.5t48.5 167.5q29 85 68 176t84 180q47 92 93 168.5t91 134.5q46 61 88 95q46 39 83 39q22 0 34 -12.5t12 -34.5
q0 -17 -8.5 -41t-27.5 -56q-15 -26 -35.5 -55.5t-45.5 -61.5zM56 76q-10 5 -12.5 11.5t-2.5 10.5q-25 -61 -45 -122q-29 -86 -45 -154.5t-16 -112.5q0 -24 5.5 -57t18.5 -63q26 -58 66 -58q21 0 42.5 21.5t39.5 60.5q20 42 30.5 95.5t10.5 109.5q0 47 -6.5 89t-20.5 77
q-23 65 -63 91q-1 0 -2 1zM378 700q-32 -33 -69 -85.5t-76 -118.5q15 17 30.5 35t29.5 37q32 42 53 75t32 57z" />
    <glyph glyph-name="k" unicode="k" horiz-adv-x="471" 
d="M506 294q15 -8 15 -23v-2q-1 -8 -12.5 -44t-40.5 -107q-43 -106 -78 -162q-8 -12 -17 -25t-20 -25q-32 -33 -64 -33q-46 0 -67 35q-8 14 -12 31t-6 34q-7 41 -19 57t-42 20h-4q-11 0 -18 7t-7 18t7.5 18t17.5 7h6q17 2 36 12.5t35 28.5q33 38 33 78q0 17 -4.5 27t-7.5 11
q-8 0 -28.5 -14.5t-51.5 -50.5q-28 -34 -56 -78.5t-54 -94.5q-8 -14 -22.5 -27.5t-45.5 -13.5q-19 0 -39 7q-8 3 -11 10q-3 5 -2.5 10t2.5 13q1 5 2.5 11.5t3.5 14.5q5 18 11 41t13 48q14 48 34 117.5t43 144.5q60 186 104 277q27 54 50 79t46 25q34 0 51 -31q7 -13 9 -27
t2 -25q0 -35 -15.5 -87.5t-43.5 -112.5q-26 -55 -54.5 -96.5t-52.5 -61.5q-13 -38 -24 -77t-20 -74q15 20 30 37.5t29 31.5q71 68 127 68q17 0 33 -7.5t28 -21.5q24 -27 24 -68q0 -59 -63 -110q-27 -23 -61 -38q14 -11 31 -32q13 -18 21 -38.5t15 -37.5q2 -8 5.5 -17
t6.5 -15q5 5 14.5 17t24.5 38q17 29 34.5 65.5t34.5 78.5q16 39 25.5 65.5t15 42.5t7.5 23.5t2 8.5q0 2 2 6q7 15 22 15h1q5 0 9 -2zM176 477q7 13 13.5 25.5t12.5 26.5q29 65 40 115q-29 -62 -66 -167z" />
    <glyph glyph-name="grave" unicode="`" horiz-adv-x="224" 
d="M189 618q6 -9 6 -19q0 -23 -26 -35q-6 -2 -9 -2q-6 0 -10 3q-16 9 -27.5 16t-23.5 15q-14 8 -28.5 17.5t-34.5 21.5h-1q-8 5 -10.5 12t-2.5 12q0 17 16.5 28.5t38.5 21.5h1q11 7 22 -4l86 -84l3 -3v0z" />
    <glyph glyph-name="acute" unicode="&#xb4;" horiz-adv-x="223" 
d="M56 565q-17 8 -22.5 17.5t-5.5 17.5q0 12 10 22l86 84q10 10 23 4h1q21 -10 37.5 -21.5t16.5 -28.5q0 -5 -2 -12t-10 -12h-2q-20 -12 -34.5 -21.5t-27.5 -17.5l-51 -31q-6 -3 -11 -3q-4 0 -8 2z" />
    <glyph glyph-name="hungarumlaut" unicode="&#x2dd;" horiz-adv-x="377" 
d="M197 682q0 -5 -1 -8t-3 -6q0 -2 -2 -4q-16 -18 -26.5 -31.5t-19.5 -25.5q-16 -22 -37 -47q-7 -7 -16 -7h-2l-10 2t-10 3q-19 9 -19 29q0 2 0.5 5.5t2.5 8.5l52 108q7 13 20 11h3q6 -1 15.5 -2t18.5 -3q21 -5 27.5 -15t6.5 -18zM303 715q21 -5 27.5 -15t6.5 -18
q0 -5 -1 -8t-3 -6q0 -2 -2 -4q-16 -18 -26.5 -31.5t-19.5 -25.5q-16 -22 -37 -47q-7 -7 -16 -7h-2l-10 2t-10 3q-19 9 -19 29q0 2 0.5 5.5t2.5 8.5l52 108q7 13 20 11h3q6 -1 15.5 -2t18.5 -3z" />
    <glyph glyph-name="dotlessi" unicode="&#x131;" horiz-adv-x="260" 
d="M292 302q11 0 18 -7t7 -18q0 -10 -4 -15l-21 -34q-7 -11 -12.5 -20.5t-11.5 -19.5q-24 -40 -50 -80.5t-61 -83.5q-2 -2 -2.5 -3t-2.5 -2q-14 -16 -29 -33t-32 -30.5t-36 -22.5t-41 -9h-5.5t-8.5 1q-36 6 -54 36q-17 26 -17 68q0 40 12 84t26.5 82t27 63.5t13.5 27.5v1
q19 35 65 35q12 0 22 -2t15 -4q1 0 2 -1q15 -3 15 -19q0 -4 -0.5 -6.5t-4.5 -10.5q-8 -17 -26 -56t-35 -87q-16 -42 -24.5 -76t-8.5 -56q0 -11 1.5 -15.5t2.5 -5.5q2 0 9.5 2.5t21 14.5t35 35.5t51.5 65.5q17 23 34 48t32.5 49.5t29.5 47.5t25 42q7 14 22 14z" />
    <glyph glyph-name="dotaccent" unicode="&#x2d9;" horiz-adv-x="107" 
d="M18 600q5 16 19 26.5t29 10.5q13 0 20 -7.5t7 -18.5q0 -19 -16.5 -33t-34.5 -14q-12 0 -19 6.5t-7 17.5q0 8 2 12z" />
    <glyph glyph-name="caron" unicode="&#x2c7;" horiz-adv-x="256" 
d="M46 639q-3 4 -3 10v2q0 11 7 18t17 7q11 0 17 -6l38 -28l70 31q6 3 13 3q11 0 18 -6.5t7 -17.5q0 -8 -3 -12t-5 -6l-1 -1l-93 -76q-2 -2 -3.5 -2.5t-3.5 -1.5q-2 0 -4 -1t-5 -1h-1q-5 0 -9 3l-6 3t-7 8z" />
    <glyph glyph-name="circumflex" unicode="&#x2c6;" horiz-adv-x="192" 
d="M187 584q3 -5 3 -10v-2q0 -11 -7 -18t-17 -7q-11 0 -18 6l-38 28l-69 -31q-6 -3 -14 -3q-10 0 -17 7t-7 17q0 8 3.5 13t6.5 7l92 75q2 2 3.5 2.5t3.5 1.5q4 2 9 2h1q3 0 9 -2q2 -1 5.5 -3.5t6.5 -7.5l44 -75v0z" />
    <glyph glyph-name="tilde" unicode="&#x2dc;" horiz-adv-x="259" 
d="M27 549q-10 0 -17 7.5t-7 17.5q0 21 7 35t17 22.5t22 12.5t23 4q19 0 39 -6.5t40 -14.5q14 -6 27.5 -11t22.5 -5q2 1 3.5 3t3.5 4q4 4 9.5 8t13.5 4q11 0 18 -7t7 -18v-1q0 -4 -1 -7q-15 -38 -37 -50t-40 -12q-20 0 -39.5 7.5t-36.5 15.5q-13 5 -24.5 9.5t-19.5 4.5
q-3 0 -4.5 -1t-3.5 -6q-1 0 -1 -1q-5 -10 -12 -12.5t-10 -2.5z" />
    <glyph glyph-name="breve" unicode="&#x2d8;" horiz-adv-x="289" 
d="M221 682q9 0 16 -6t7 -19v-3q-8 -47 -40 -76q-14 -12 -31.5 -19t-36.5 -7q-16 0 -30.5 6t-25.5 17q-9 8 -17.5 23.5t-8.5 40.5q0 5 0.5 9t1.5 9l1 2q0 10 7 16.5t16 6.5t16.5 -6t7.5 -20v-7q1 -6 12.5 -11t26.5 -5q17 0 33.5 6.5t19.5 19.5q1 10 8 16.5t17 6.5z" />
    <glyph glyph-name="ogonek" unicode="&#x2db;" horiz-adv-x="197" 
d="M167 -139q8 0 16 -6.5t8 -17.5q0 -5 -2.5 -9.5t-4.5 -7.5q-10 -11 -23 -21.5t-28.5 -19t-32 -14t-32.5 -5.5q-7 0 -13.5 1t-12.5 3q-40 13 -40 57q0 63 81 144q19 19 35 32.5t29 22.5q5 4 13 4q10 0 17 -6.5t7 -16.5q0 -8 -3.5 -13t-7.5 -8l-1 -1q-42 -42 -65 -81.5
t-23 -70.5q0 -9 2 -9v-1h2q11 0 28.5 11t30.5 25l1 1q7 7 19 7z" />
    <glyph glyph-name="cedilla" unicode="&#xb8;" horiz-adv-x="241" 
d="M197 -74q13 -16 13 -43q0 -20 -8.5 -40t-25.5 -37q-36 -38 -83 -38q-13 0 -30 5q-8 1 -16 5q-11 5 -14 12t-3 11q0 11 7.5 18.5t17.5 7.5q8 0 18 -4q2 0 4 -2q19 2 38 26q10 12 15.5 25t5.5 22q0 4 -1 5.5t-9 1.5q-1 0 -3 -0.5t-4 -0.5q-5 -2 -11 -3.5t-14 -1.5
q-11 0 -18 8.5t-7 16.5q0 4 1 7t2 5l24 75l2 3q6 14 22 14q11 0 18 -7t7 -18v-2q0 -4 -1 -6l-12 -39h2q44 0 63 -26z" />
    <glyph glyph-name="comma" unicode="," horiz-adv-x="203" 
d="M169 63q0 -18 -5 -39.5t-17 -42.5t-31.5 -39.5t-47.5 -31.5q-6 -4 -13 -4q-11 0 -18.5 7t-7.5 18q0 8 4 12.5t6 6.5l1 1l2 1q9 6 17.5 21t16 34t12 39t4.5 36q0 8 -2.5 14.5t-4.5 10.5q-2 3 -3.5 5.5t-1.5 7.5q0 10 8 17.5t18 7.5q29 0 48 -31q7 -11 11 -24.5t4 -25.5v-1
z" />
    <glyph glyph-name="ring" unicode="&#x2da;" horiz-adv-x="242" 
d="M138 652q26 0 42.5 -16t16.5 -42q0 -18 -7.5 -35t-21.5 -31q-29 -27 -66 -27q-24 0 -39 16q-16 16 -16 42q0 35 27 64q26 29 64 29zM131 596q0 6 -1 7q-6 -2 -12 -15.5t-6 -28.5q0 -2 0.5 -4.5t0.5 -4.5q8 5 13 18t5 28z" />
    <glyph glyph-name="agrave" unicode="&#xe0;" horiz-adv-x="476" 
d="M516 310q11 0 18 -7t7 -18q0 -7 -5 -14l-21 -35l-24 -39q-23 -40 -49.5 -81t-61.5 -83v-1q-14 -17 -29.5 -34.5t-33 -32t-37.5 -24t-42 -9.5h-6.5t-7.5 2q-36 4 -55 35q-16 26 -16 68q0 11 1 23.5t3 26.5q-42 -42 -80 -42q-41 0 -68 36.5t-27 91.5q0 42 15.5 88.5
t41.5 85.5q29 43 64 66q40 27 83 27q37 0 60 -23q21 -24 21 -57q0 -19 -8 -37q8 5 17.5 6t20.5 1t21.5 -2t15.5 -4h2q15 -3 15 -20q0 -3 -1 -5.5t-5 -10.5q-8 -17 -25.5 -56.5t-34.5 -86.5v-1q-16 -42 -24.5 -76t-8.5 -56q0 -10 1.5 -14.5t2.5 -6.5q6 0 27 14.5t56 57.5
q13 16 27.5 37t29.5 43.5t29.5 45t26.5 42.5q9 15 17 28t15 22q9 14 15.5 21.5t16.5 7.5zM235 297q-14 -8 -30 -9h-1q-16 0 -27 11t-11 27q0 17 11 28t27 11q9 0 14 -2q-1 5 -4 11t-11 6q-9 0 -30.5 -21.5t-49.5 -73.5q-23 -45 -37 -89.5t-14 -73.5q0 -10 1.5 -14t2.5 -6
q1 -1 1.5 -2t4.5 -1q3 0 9 2t16 9.5t23.5 22t30.5 40.5q26 38 40.5 63t23.5 42zM219 528q6 -9 6 -19q0 -23 -26 -35q-6 -2 -9 -2q-6 0 -10 3q-16 9 -27.5 16t-23.5 15q-14 8 -28.5 17.5t-34.5 21.5h-1q-8 5 -10.5 12t-2.5 12q0 17 16.5 28.5t38.5 21.5h1q11 7 22 -4l86 -84z
" />
    <glyph glyph-name="aacute" unicode="&#xe1;" horiz-adv-x="476" 
d="M516 310q11 0 18 -7t7 -18q0 -7 -5 -14l-21 -35l-24 -39q-23 -40 -49.5 -81t-61.5 -83v-1q-14 -17 -29.5 -34.5t-33 -32t-37.5 -24t-42 -9.5h-6.5t-7.5 2q-36 4 -55 35q-16 26 -16 68q0 11 1 23.5t3 26.5q-42 -42 -80 -42q-41 0 -68 36.5t-27 91.5q0 42 15.5 88.5
t41.5 85.5q29 43 64 66q40 27 83 27q37 0 60 -23q21 -24 21 -57q0 -19 -8 -37q8 5 17.5 6t20.5 1t21.5 -2t15.5 -4h2q15 -3 15 -20q0 -3 -1 -5.5t-5 -10.5q-8 -17 -25.5 -56.5t-34.5 -86.5v-1q-16 -42 -24.5 -76t-8.5 -56q0 -10 1.5 -14.5t2.5 -6.5q6 0 27 14.5t56 57.5
q13 16 27.5 37t29.5 43.5t29.5 45t26.5 42.5q9 15 17 28t15 22q9 14 15.5 21.5t16.5 7.5zM235 297q-14 -8 -30 -9h-1q-16 0 -27 11t-11 27q0 17 11 28t27 11q9 0 14 -2q-1 5 -4 11t-11 6q-9 0 -30.5 -21.5t-49.5 -73.5q-23 -45 -37 -89.5t-14 -73.5q0 -10 1.5 -14t2.5 -6
q1 -1 1.5 -2t4.5 -1q3 0 9 2t16 9.5t23.5 22t30.5 40.5q26 38 40.5 63t23.5 42zM166 475q-17 8 -22.5 17.5t-5.5 17.5q0 12 10 22l86 84q10 10 23 4h1q21 -10 37.5 -21.5t16.5 -28.5q0 -5 -2 -12t-10 -12h-2q-20 -12 -34.5 -21.5t-27.5 -17.5l-51 -31q-6 -3 -11 -3
q-4 0 -8 2z" />
    <glyph glyph-name="acircumflex" unicode="&#xe2;" horiz-adv-x="476" 
d="M516 310q11 0 18 -7t7 -18q0 -7 -5 -14l-21 -35l-24 -39q-23 -40 -49.5 -81t-61.5 -83v-1q-14 -17 -29.5 -34.5t-33 -32t-37.5 -24t-42 -9.5h-6.5t-7.5 2q-36 4 -55 35q-16 26 -16 68q0 11 1 23.5t3 26.5q-42 -42 -80 -42q-41 0 -68 36.5t-27 91.5q0 42 15.5 88.5
t41.5 85.5q29 43 64 66q40 27 83 27q37 0 60 -23q21 -24 21 -57q0 -19 -8 -37q8 5 17.5 6t20.5 1t21.5 -2t15.5 -4h2q15 -3 15 -20q0 -3 -1 -5.5t-5 -10.5q-8 -17 -25.5 -56.5t-34.5 -86.5v-1q-16 -42 -24.5 -76t-8.5 -56q0 -10 1.5 -14.5t2.5 -6.5q6 0 27 14.5t56 57.5
q13 16 27.5 37t29.5 43.5t29.5 45t26.5 42.5q9 15 17 28t15 22q9 14 15.5 21.5t16.5 7.5zM235 297q-14 -8 -30 -9h-1q-16 0 -27 11t-11 27q0 17 11 28t27 11q9 0 14 -2q-1 5 -4 11t-11 6q-9 0 -30.5 -21.5t-49.5 -73.5q-23 -45 -37 -89.5t-14 -73.5q0 -10 1.5 -14t2.5 -6
q1 -1 1.5 -2t4.5 -1q3 0 9 2t16 9.5t23.5 22t30.5 40.5q26 38 40.5 63t23.5 42zM269 514q3 -5 3 -10v-2q0 -11 -7 -18t-17 -7q-11 0 -18 6l-38 28l-69 -31q-6 -3 -14 -3q-10 0 -17 7t-7 17q0 8 3.5 13t6.5 7l92 75q2 2 3.5 2.5t3.5 1.5q4 2 9 2h1q3 0 9 -2q2 -1 5.5 -3.5
t6.5 -7.5z" />
    <glyph glyph-name="atilde" unicode="&#xe3;" horiz-adv-x="476" 
d="M516 310q11 0 18 -7t7 -18q0 -7 -5 -14l-21 -35l-24 -39q-23 -40 -49.5 -81t-61.5 -83v-1q-14 -17 -29.5 -34.5t-33 -32t-37.5 -24t-42 -9.5h-6.5t-7.5 2q-36 4 -55 35q-16 26 -16 68q0 11 1 23.5t3 26.5q-42 -42 -80 -42q-41 0 -68 36.5t-27 91.5q0 42 15.5 88.5
t41.5 85.5q29 43 64 66q40 27 83 27q37 0 60 -23q21 -24 21 -57q0 -19 -8 -37q8 5 17.5 6t20.5 1t21.5 -2t15.5 -4h2q15 -3 15 -20q0 -3 -1 -5.5t-5 -10.5q-8 -17 -25.5 -56.5t-34.5 -86.5v-1q-16 -42 -24.5 -76t-8.5 -56q0 -10 1.5 -14.5t2.5 -6.5q6 0 27 14.5t56 57.5
q13 16 27.5 37t29.5 43.5t29.5 45t26.5 42.5q9 15 17 28t15 22q9 14 15.5 21.5t16.5 7.5zM97 477q-10 0 -17 7t-7 18q0 20 7 34t17 23t22 13t23 4q19 0 39 -7t40 -15q14 -5 27.5 -10t22.5 -5q2 0 3.5 2t3.5 4q4 5 9.5 9t13.5 4q11 0 18 -7t7 -18v-1q0 -5 -1 -7
q-15 -38 -37 -50t-40 -12q-20 0 -39.5 7t-36.5 15q-13 5 -24.5 10t-19.5 5q-3 0 -4.5 -1t-3.5 -6q-1 -1 -1 -2q-5 -10 -12 -12t-10 -2zM235 297q-14 -8 -30 -9h-1q-16 0 -27 11t-11 27q0 17 11 28t27 11q9 0 14 -2q-1 5 -4 11t-11 6q-9 0 -30.5 -21.5t-49.5 -73.5
q-23 -45 -37 -89.5t-14 -73.5q0 -10 1.5 -14t2.5 -6q1 -1 1.5 -2t4.5 -1q3 0 9 2t16 9.5t23.5 22t30.5 40.5q26 38 40.5 63t23.5 42z" />
    <glyph glyph-name="adieresis" unicode="&#xe4;" horiz-adv-x="476" 
d="M516 310q11 0 18 -7t7 -18q0 -7 -5 -14l-21 -35l-24 -39q-23 -40 -49.5 -81t-61.5 -83v-1q-14 -17 -29.5 -34.5t-33 -32t-37.5 -24t-42 -9.5h-6.5t-7.5 2q-36 4 -55 35q-16 26 -16 68q0 11 1 23.5t3 26.5q-42 -42 -80 -42q-41 0 -68 36.5t-27 91.5q0 42 15.5 88.5
t41.5 85.5q29 43 64 66q40 27 83 27q37 0 60 -23q21 -24 21 -57q0 -19 -8 -37q8 5 17.5 6t20.5 1t21.5 -2t15.5 -4h2q15 -3 15 -20q0 -3 -1 -5.5t-5 -10.5q-8 -17 -25.5 -56.5t-34.5 -86.5v-1q-16 -42 -24.5 -76t-8.5 -56q0 -10 1.5 -14.5t2.5 -6.5q6 0 27 14.5t56 57.5
q13 16 27.5 37t29.5 43.5t29.5 45t26.5 42.5q9 15 17 28t15 22q9 14 15.5 21.5t16.5 7.5zM235 297q-14 -8 -30 -9h-1q-16 0 -27 11t-11 27q0 17 11 28t27 11q9 0 14 -2q-1 5 -4 11t-11 6q-9 0 -30.5 -21.5t-49.5 -73.5q-23 -45 -37 -89.5t-14 -73.5q0 -10 1.5 -14t2.5 -6
q1 -1 1.5 -2t4.5 -1q3 0 9 2t16 9.5t23.5 22t30.5 40.5q26 38 40.5 63t23.5 42zM129 587q20 0 33.5 -13t13.5 -33q0 -27 -23 -48q-22 -19 -48 -19q-20 0 -33 12t-13 32q0 4 0.5 9t2.5 10q7 21 26 35.5t41 14.5zM287 587q20 0 33.5 -13t13.5 -33q0 -27 -23 -48
q-22 -19 -48 -19q-20 0 -33 12t-13 32q0 4 0.5 9t2.5 10q7 21 26 35.5t41 14.5z" />
    <glyph glyph-name="aring" unicode="&#xe5;" horiz-adv-x="476" 
d="M516 310q11 0 18 -7t7 -18q0 -7 -5 -14l-21 -35l-24 -39q-23 -40 -49.5 -81t-61.5 -83v-1q-14 -17 -29.5 -34.5t-33 -32t-37.5 -24t-42 -9.5h-6.5t-7.5 2q-36 4 -55 35q-16 26 -16 68q0 11 1 23.5t3 26.5q-42 -42 -80 -42q-41 0 -68 36.5t-27 91.5q0 42 15.5 88.5
t41.5 85.5q29 43 64 66q40 27 83 27q37 0 60 -23q21 -24 21 -57q0 -19 -8 -37q8 5 17.5 6t20.5 1t21.5 -2t15.5 -4h2q15 -3 15 -20q0 -3 -1 -5.5t-5 -10.5q-8 -17 -25.5 -56.5t-34.5 -86.5v-1q-16 -42 -24.5 -76t-8.5 -56q0 -10 1.5 -14.5t2.5 -6.5q6 0 27 14.5t56 57.5
q13 16 27.5 37t29.5 43.5t29.5 45t26.5 42.5q9 15 17 28t15 22q9 14 15.5 21.5t16.5 7.5zM235 297q-14 -8 -30 -9h-1q-16 0 -27 11t-11 27q0 17 11 28t27 11q9 0 14 -2q-1 5 -4 11t-11 6q-9 0 -30.5 -21.5t-49.5 -73.5q-23 -45 -37 -89.5t-14 -73.5q0 -10 1.5 -14t2.5 -6
q1 -1 1.5 -2t4.5 -1q3 0 9 2t16 9.5t23.5 22t30.5 40.5q26 38 40.5 63t23.5 42zM226 613q26 0 42.5 -16t16.5 -42q0 -18 -7.5 -35t-21.5 -31q-29 -27 -66 -27q-24 0 -39 16q-16 16 -16 42q0 35 27 64q26 29 64 29zM219 557q0 6 -1 7q-6 -2 -12 -15.5t-6 -28.5q0 -2 0.5 -4.5
t0.5 -4.5q8 5 13 18t5 28z" />
    <glyph glyph-name="egrave" unicode="&#xe8;" 
d="M417 298q2 -3 3 -6t1 -8v-2q0 -7 -3 -11l-33 -50q-22 -32 -44.5 -65t-48.5 -65q-18 -21 -38.5 -42.5t-44.5 -39.5q-57 -44 -118 -44q-52 0 -86 37q-38 43 -38 121q0 61 24 127q11 29 25.5 57.5t33.5 54.5q36 52 82 83q48 33 94 33q59 0 59 -58q0 -41 -21 -83
q-9 -17 -21.5 -35.5t-29.5 -36.5q-32 -35 -68.5 -64t-65.5 -49q-14 -47 -14 -80q0 -17 3.5 -27.5t9 -16t12.5 -7t15 -1.5q10 0 24 4t32 15.5t40.5 31t49.5 51.5q19 23 37 47t34 47.5t29.5 44.5t24.5 37q0 1 2 3q8 8 19 8h2q13 0 18 -11zM249 568q6 -9 6 -19q0 -23 -26 -35
q-6 -2 -9 -2q-6 0 -10 3q-16 9 -27.5 16t-23.5 15q-14 8 -28.5 17.5t-34.5 21.5h-1q-8 5 -10.5 12t-2.5 12q0 17 16.5 28.5t38.5 21.5h1q11 7 22 -4l86 -84zM113 241q16 13 31 27t29 29q61 64 61 117q0 8 -1 9q-3 -1 -12.5 -8.5t-26.5 -30.5q-14 -19 -29.5 -44t-30.5 -54
q-5 -11 -10.5 -22.5t-10.5 -22.5z" />
    <glyph glyph-name="eacute" unicode="&#xe9;" 
d="M417 298q2 -3 3 -6t1 -8v-2q0 -7 -3 -11l-33 -50q-22 -32 -44.5 -65t-48.5 -65q-18 -21 -38.5 -42.5t-44.5 -39.5q-57 -44 -118 -44q-52 0 -86 37q-38 43 -38 121q0 61 24 127q11 29 25.5 57.5t33.5 54.5q36 52 82 83q48 33 94 33q59 0 59 -58q0 -41 -21 -83
q-9 -17 -21.5 -35.5t-29.5 -36.5q-32 -35 -68.5 -64t-65.5 -49q-14 -47 -14 -80q0 -17 3.5 -27.5t9 -16t12.5 -7t15 -1.5q10 0 24 4t32 15.5t40.5 31t49.5 51.5q19 23 37 47t34 47.5t29.5 44.5t24.5 37q0 1 2 3q8 8 19 8h2q13 0 18 -11zM206 524q-17 8 -22.5 17.5t-5.5 17.5
q0 12 10 22l86 84q10 10 23 4h1q21 -10 37.5 -21.5t16.5 -28.5q0 -5 -2 -12t-10 -12h-2q-20 -12 -34.5 -21.5t-27.5 -17.5l-51 -31q-6 -3 -11 -3q-4 0 -8 2zM113 241q16 13 31 27t29 29q61 64 61 117q0 8 -1 9q-3 -1 -12.5 -8.5t-26.5 -30.5q-14 -19 -29.5 -44t-30.5 -54
q-5 -11 -10.5 -22.5t-10.5 -22.5z" />
    <glyph glyph-name="ecircumflex" unicode="&#xea;" 
d="M417 298q2 -3 3 -6t1 -8v-2q0 -7 -3 -11l-33 -50q-22 -32 -44.5 -65t-48.5 -65q-18 -21 -38.5 -42.5t-44.5 -39.5q-57 -44 -118 -44q-52 0 -86 37q-38 43 -38 121q0 61 24 127q11 29 25.5 57.5t33.5 54.5q36 52 82 83q48 33 94 33q59 0 59 -58q0 -41 -21 -83
q-9 -17 -21.5 -35.5t-29.5 -36.5q-32 -35 -68.5 -64t-65.5 -49q-14 -47 -14 -80q0 -17 3.5 -27.5t9 -16t12.5 -7t15 -1.5q10 0 24 4t32 15.5t40.5 31t49.5 51.5q19 23 37 47t34 47.5t29.5 44.5t24.5 37q0 1 2 3q8 8 19 8h2q13 0 18 -11zM298 534q3 -5 3 -10v-2q0 -11 -7 -18
t-17 -7q-11 0 -18 6l-38 28l-69 -31q-6 -3 -14 -3q-10 0 -17 7t-7 17q0 8 3.5 13t6.5 7l92 75q2 2 3.5 2.5t3.5 1.5q4 2 9 2h1q3 0 9 -2q2 -1 5.5 -3.5t6.5 -7.5zM113 241q16 13 31 27t29 29q61 64 61 117q0 8 -1 9q-3 -1 -12.5 -8.5t-26.5 -30.5q-14 -19 -29.5 -44
t-30.5 -54q-5 -11 -10.5 -22.5t-10.5 -22.5z" />
    <glyph glyph-name="edieresis" unicode="&#xeb;" 
d="M417 298q2 -3 3 -6t1 -8v-2q0 -7 -3 -11l-33 -50q-22 -32 -44.5 -65t-48.5 -65q-18 -21 -38.5 -42.5t-44.5 -39.5q-57 -44 -118 -44q-52 0 -86 37q-38 43 -38 121q0 61 24 127q11 29 25.5 57.5t33.5 54.5q36 52 82 83q48 33 94 33q59 0 59 -58q0 -41 -21 -83
q-9 -17 -21.5 -35.5t-29.5 -36.5q-32 -35 -68.5 -64t-65.5 -49q-14 -47 -14 -80q0 -17 3.5 -27.5t9 -16t12.5 -7t15 -1.5q10 0 24 4t32 15.5t40.5 31t49.5 51.5q19 23 37 47t34 47.5t29.5 44.5t24.5 37q0 1 2 3q8 8 19 8h2q13 0 18 -11zM311 627q20 0 33.5 -13t13.5 -33
q0 -27 -23 -48q-22 -19 -48 -19q-20 0 -33 12t-13 32q0 4 0.5 9t2.5 10q7 21 26 35.5t41 14.5zM153 627q20 0 33.5 -13t13.5 -33q0 -27 -23 -48q-22 -19 -48 -19q-20 0 -33 12t-13 32q0 4 0.5 9t2.5 10q7 21 26 35.5t41 14.5zM113 241q16 13 31 27t29 29q61 64 61 117
q0 8 -1 9q-3 -1 -12.5 -8.5t-26.5 -30.5q-14 -19 -29.5 -44t-30.5 -54q-5 -11 -10.5 -22.5t-10.5 -22.5z" />
    <glyph glyph-name="ntilde" unicode="&#xf1;" horiz-adv-x="508" 
d="M534 295q11 0 18 -7t7 -18q0 -9 -4 -14l-21 -35l-16 -26q-26 -43 -53.5 -87t-65.5 -90v-1q-14 -17 -29.5 -34.5t-33.5 -32t-38 -24t-42 -9.5q-42 0 -67 33q-20 28 -20 75q0 26 8 57.5t17 63.5q8 27 14.5 52.5t6.5 42.5q0 13 -2 13h-2q-2 0 -7.5 -2t-15 -10t-23.5 -24.5
t-32 -44.5q-24 -37 -44.5 -76t-33.5 -65l-6 -11l-1 -5l-2 -4q-19 -35 -67 -35q-11 0 -22 2.5t-18 6.5q-15 7 -11 23q13 45 21 76.5t15 57.5q8 30 15.5 58t18.5 66q15 48 70 48q25 0 42 -7q8 -2 11.5 -9t1.5 -15l-17 -61q2 4 4 6q61 85 121 85q42 0 65 -26t23 -72
q0 -37 -19 -94q-14 -44 -22 -75t-8 -51q0 -11 1.5 -14.5t2.5 -5.5q7 0 27.5 14.5t55.5 57.5q13 16 27.5 37t29.5 43.5t29.5 45t26.5 42.5l32 50q10 14 16 21.5t16 7.5zM97 355q-10 0 -17 7t-7 18q0 20 7 34t17 23t22 13t23 4q19 0 39 -7t40 -15q14 -5 27.5 -10t22.5 -5
q2 0 3.5 2t3.5 4q4 5 9.5 9t13.5 4q11 0 18 -7t7 -18v-1q0 -5 -1 -7q-15 -38 -37 -50t-40 -12q-20 0 -39.5 7t-36.5 15q-13 5 -24.5 10t-19.5 5q-3 0 -4.5 -1t-3.5 -6q-1 -1 -1 -2q-5 -10 -12 -12t-10 -2z" />
    <glyph glyph-name="ograve" unicode="&#xf2;" horiz-adv-x="507" 
d="M571 287q5 -5 5.5 -10.5t0.5 -7.5q0 -10 -6 -17q-51 -57 -113 -88.5t-122 -31.5h-11t-11 1q-43 -76 -96.5 -116.5t-112.5 -40.5q-68 0 -104 41q-36 39 -36 109q0 40 11.5 84t31.5 80q25 45 58.5 69t71.5 24h12q3 30 12 57.5t24 49.5q19 26 43.5 40.5t52.5 14.5
q53 0 80 -44q24 -39 24 -105q0 -47 -11.5 -101.5t-33.5 -106.5q10 -2 17 -2q21 0 45 8.5t47.5 22.5t44.5 32t38 37l1 1q5 5 10.5 6t7.5 1q12 0 19 -7zM125 34q29 0 68.5 29t70.5 83q-42 17 -71 56q-37 48 -42 115q-14 -12 -27.5 -34t-24.5 -48.5t-17.5 -55.5t-6.5 -57
q0 -48 17 -71q12 -17 33 -17zM268 448q-19 -43 -19 -95q0 -40 13 -74.5t36 -60.5q18 45 28 92t10 88q0 53 -17 78q-8 11 -15 11q-20 0 -36 -39zM319 628q6 -9 6 -19q0 -23 -26 -35q-6 -2 -9 -2q-6 0 -10 3q-16 9 -27.5 16t-23.5 15q-14 8 -28.5 17.5t-34.5 21.5h-1
q-8 5 -10.5 12t-2.5 12q0 17 16.5 28.5t38.5 21.5h1q11 7 22 -4l86 -84z" />
    <glyph glyph-name="oacute" unicode="&#xf3;" horiz-adv-x="507" 
d="M571 287q5 -5 5.5 -10.5t0.5 -7.5q0 -10 -6 -17q-51 -57 -113 -88.5t-122 -31.5h-11t-11 1q-43 -76 -96.5 -116.5t-112.5 -40.5q-68 0 -104 41q-36 39 -36 109q0 40 11.5 84t31.5 80q25 45 58.5 69t71.5 24h12q3 30 12 57.5t24 49.5q19 26 43.5 40.5t52.5 14.5
q53 0 80 -44q24 -39 24 -105q0 -47 -11.5 -101.5t-33.5 -106.5q10 -2 17 -2q21 0 45 8.5t47.5 22.5t44.5 32t38 37l1 1q5 5 10.5 6t7.5 1q12 0 19 -7zM125 34q29 0 68.5 29t70.5 83q-42 17 -71 56q-37 48 -42 115q-14 -12 -27.5 -34t-24.5 -48.5t-17.5 -55.5t-6.5 -57
q0 -48 17 -71q12 -17 33 -17zM268 448q-19 -43 -19 -95q0 -40 13 -74.5t36 -60.5q18 45 28 92t10 88q0 53 -17 78q-8 11 -15 11q-20 0 -36 -39zM266 595q-17 8 -22.5 17.5t-5.5 17.5q0 12 10 22l86 84q10 10 23 4h1q21 -10 37.5 -21.5t16.5 -28.5q0 -5 -2 -12t-10 -12h-2
q-20 -12 -34.5 -21.5t-27.5 -17.5l-51 -31q-6 -3 -11 -3q-4 0 -8 2z" />
    <glyph glyph-name="ocircumflex" unicode="&#xf4;" horiz-adv-x="507" 
d="M571 287q5 -5 5.5 -10.5t0.5 -7.5q0 -10 -6 -17q-51 -57 -113 -88.5t-122 -31.5h-11t-11 1q-43 -76 -96.5 -116.5t-112.5 -40.5q-68 0 -104 41q-36 39 -36 109q0 40 11.5 84t31.5 80q25 45 58.5 69t71.5 24h12q3 30 12 57.5t24 49.5q19 26 43.5 40.5t52.5 14.5
q53 0 80 -44q24 -39 24 -105q0 -47 -11.5 -101.5t-33.5 -106.5q10 -2 17 -2q21 0 45 8.5t47.5 22.5t44.5 32t38 37l1 1q5 5 10.5 6t7.5 1q12 0 19 -7zM125 34q29 0 68.5 29t70.5 83q-42 17 -71 56q-37 48 -42 115q-14 -12 -27.5 -34t-24.5 -48.5t-17.5 -55.5t-6.5 -57
q0 -48 17 -71q12 -17 33 -17zM268 448q-19 -43 -19 -95q0 -40 13 -74.5t36 -60.5q18 45 28 92t10 88q0 53 -17 78q-8 11 -15 11q-20 0 -36 -39zM365 614q3 -5 3 -10v-2q0 -11 -7 -18t-17 -7q-11 0 -18 6l-38 28l-69 -31q-6 -3 -14 -3q-10 0 -17 7t-7 17q0 8 3.5 13t6.5 7
l92 75q2 2 3.5 2.5t3.5 1.5q4 2 9 2h1q3 0 9 -2q2 -1 5.5 -3.5t6.5 -7.5z" />
    <glyph glyph-name="otilde" unicode="&#xf5;" horiz-adv-x="507" 
d="M571 287q5 -5 5.5 -10.5t0.5 -7.5q0 -10 -6 -17q-51 -57 -113 -88.5t-122 -31.5h-11t-11 1q-43 -76 -96.5 -116.5t-112.5 -40.5q-68 0 -104 41q-36 39 -36 109q0 40 11.5 84t31.5 80q25 45 58.5 69t71.5 24h12q3 30 12 57.5t24 49.5q19 26 43.5 40.5t52.5 14.5
q53 0 80 -44q24 -39 24 -105q0 -47 -11.5 -101.5t-33.5 -106.5q10 -2 17 -2q21 0 45 8.5t47.5 22.5t44.5 32t38 37l1 1q5 5 10.5 6t7.5 1q12 0 19 -7zM125 34q29 0 68.5 29t70.5 83q-42 17 -71 56q-37 48 -42 115q-14 -12 -27.5 -34t-24.5 -48.5t-17.5 -55.5t-6.5 -57
q0 -48 17 -71q12 -17 33 -17zM187 577q-10 0 -17 7t-7 18q0 20 7 34t17 23t22 13t23 4q19 0 39 -7t40 -15q14 -5 27.5 -10t22.5 -5q2 0 3.5 2t3.5 4q4 5 9.5 9t13.5 4q11 0 18 -7t7 -18v-1q0 -5 -1 -7q-15 -38 -37 -50t-40 -12q-20 0 -39.5 7t-36.5 15q-13 5 -24.5 10
t-19.5 5q-3 0 -4.5 -1t-3.5 -6q-1 -1 -1 -2q-5 -10 -12 -12t-10 -2zM268 448q-19 -43 -19 -95q0 -40 13 -74.5t36 -60.5q18 45 28 92t10 88q0 53 -17 78q-8 11 -15 11q-20 0 -36 -39z" />
    <glyph glyph-name="odieresis" unicode="&#xf6;" horiz-adv-x="507" 
d="M571 287q5 -5 5.5 -10.5t0.5 -7.5q0 -10 -6 -17q-51 -57 -113 -88.5t-122 -31.5h-11t-11 1q-43 -76 -96.5 -116.5t-112.5 -40.5q-68 0 -104 41q-36 39 -36 109q0 40 11.5 84t31.5 80q25 45 58.5 69t71.5 24h12q3 30 12 57.5t24 49.5q19 26 43.5 40.5t52.5 14.5
q53 0 80 -44q24 -39 24 -105q0 -47 -11.5 -101.5t-33.5 -106.5q10 -2 17 -2q21 0 45 8.5t47.5 22.5t44.5 32t38 37l1 1q5 5 10.5 6t7.5 1q12 0 19 -7zM125 34q29 0 68.5 29t70.5 83q-42 17 -71 56q-37 48 -42 115q-14 -12 -27.5 -34t-24.5 -48.5t-17.5 -55.5t-6.5 -57
q0 -48 17 -71q12 -17 33 -17zM268 448q-19 -43 -19 -95q0 -40 13 -74.5t36 -60.5q18 45 28 92t10 88q0 53 -17 78q-8 11 -15 11q-20 0 -36 -39zM233 707q20 0 33.5 -13t13.5 -33q0 -27 -23 -48q-22 -19 -48 -19q-20 0 -33 12t-13 32q0 4 0.5 9t2.5 10q7 21 26 35.5t41 14.5z
M391 707q20 0 33.5 -13t13.5 -33q0 -27 -23 -48q-22 -19 -48 -19q-20 0 -33 12t-13 32q0 4 0.5 9t2.5 10q7 21 26 35.5t41 14.5z" />
    <glyph glyph-name="ugrave" unicode="&#xf9;" horiz-adv-x="472" 
d="M501 297q11 0 18 -7t7 -18q0 -7 -5 -14l-21 -35l-24 -39q-23 -40 -49.5 -81t-61.5 -83v-1l-4 -5q-14 -16 -29 -32.5t-32 -30.5t-36.5 -23t-40.5 -9q-43 0 -66 32q-19 29 -19 73v12t1 12q-24 -31 -51 -50.5t-58 -19.5h-6.5t-7.5 2q-40 6 -59 34q-16 23 -16 63
q0 26 6.5 55.5t16.5 57t21 52t20 40.5q20 35 66 35q11 0 21.5 -2t15.5 -4h2q9 -4 13 -11q4 -10 0 -16q-1 -3 -3 -7.5t-4 -9.5q-8 -17 -20 -44.5t-23.5 -58.5t-20 -61t-8.5 -51q0 -11 3 -14v-1h2q2 0 7.5 2t14.5 9.5t22 23t30 41.5q23 34 43 72t34 65l16 32q19 35 66 35
q11 0 21.5 -2t15.5 -4h2q15 -3 15 -20q0 -3 -1 -5.5t-5 -10.5q-8 -17 -25.5 -56.5t-34.5 -86.5v-1q-16 -42 -24.5 -76t-8.5 -56q0 -10 1.5 -14.5t2.5 -6.5q2 0 9 2.5t21 14.5t35.5 35.5t51.5 65.5q17 24 34 49t32.5 49.5t29.5 47.5t25 42q5 13 22 13zM229 408q6 -9 6 -19
q0 -23 -26 -35q-6 -2 -9 -2q-6 0 -10 3q-16 9 -27.5 16t-23.5 15q-14 8 -28.5 17.5t-34.5 21.5h-1q-8 5 -10.5 12t-2.5 12q0 17 16.5 28.5t38.5 21.5h1q11 7 22 -4l86 -84z" />
    <glyph glyph-name="uacute" unicode="&#xfa;" horiz-adv-x="472" 
d="M501 297q11 0 18 -7t7 -18q0 -7 -5 -14l-21 -35l-24 -39q-23 -40 -49.5 -81t-61.5 -83v-1l-4 -5q-14 -16 -29 -32.5t-32 -30.5t-36.5 -23t-40.5 -9q-43 0 -66 32q-19 29 -19 73v12t1 12q-24 -31 -51 -50.5t-58 -19.5h-6.5t-7.5 2q-40 6 -59 34q-16 23 -16 63
q0 26 6.5 55.5t16.5 57t21 52t20 40.5q20 35 66 35q11 0 21.5 -2t15.5 -4h2q9 -4 13 -11q4 -10 0 -16q-1 -3 -3 -7.5t-4 -9.5q-8 -17 -20 -44.5t-23.5 -58.5t-20 -61t-8.5 -51q0 -11 3 -14v-1h2q2 0 7.5 2t14.5 9.5t22 23t30 41.5q23 34 43 72t34 65l16 32q19 35 66 35
q11 0 21.5 -2t15.5 -4h2q15 -3 15 -20q0 -3 -1 -5.5t-5 -10.5q-8 -17 -25.5 -56.5t-34.5 -86.5v-1q-16 -42 -24.5 -76t-8.5 -56q0 -10 1.5 -14.5t2.5 -6.5q2 0 9 2.5t21 14.5t35.5 35.5t51.5 65.5q17 24 34 49t32.5 49.5t29.5 47.5t25 42q5 13 22 13zM166 361
q-17 8 -22.5 17.5t-5.5 17.5q0 12 10 22l86 84q10 10 23 4h1q21 -10 37.5 -21.5t16.5 -28.5q0 -5 -2 -12t-10 -12h-2q-20 -12 -34.5 -21.5t-27.5 -17.5l-51 -31q-6 -3 -11 -3q-4 0 -8 2z" />
    <glyph glyph-name="udieresis" unicode="&#xfc;" horiz-adv-x="472" 
d="M501 297q11 0 18 -7t7 -18q0 -7 -5 -14l-21 -35l-24 -39q-23 -40 -49.5 -81t-61.5 -83v-1l-4 -5q-14 -16 -29 -32.5t-32 -30.5t-36.5 -23t-40.5 -9q-43 0 -66 32q-19 29 -19 73v12t1 12q-24 -31 -51 -50.5t-58 -19.5h-6.5t-7.5 2q-40 6 -59 34q-16 23 -16 63
q0 26 6.5 55.5t16.5 57t21 52t20 40.5q20 35 66 35q11 0 21.5 -2t15.5 -4h2q9 -4 13 -11q4 -10 0 -16q-1 -3 -3 -7.5t-4 -9.5q-8 -17 -20 -44.5t-23.5 -58.5t-20 -61t-8.5 -51q0 -11 3 -14v-1h2q2 0 7.5 2t14.5 9.5t22 23t30 41.5q23 34 43 72t34 65l16 32q19 35 66 35
q11 0 21.5 -2t15.5 -4h2q15 -3 15 -20q0 -3 -1 -5.5t-5 -10.5q-8 -17 -25.5 -56.5t-34.5 -86.5v-1q-16 -42 -24.5 -76t-8.5 -56q0 -10 1.5 -14.5t2.5 -6.5q2 0 9 2.5t21 14.5t35.5 35.5t51.5 65.5q17 24 34 49t32.5 49.5t29.5 47.5t25 42q5 13 22 13zM291 487q20 0 33.5 -13
t13.5 -33q0 -27 -23 -48q-22 -19 -48 -19q-20 0 -33 12t-13 32q0 4 0.5 9t2.5 10q7 21 26 35.5t41 14.5zM133 487q20 0 33.5 -13t13.5 -33q0 -27 -23 -48q-22 -19 -48 -19q-20 0 -33 12t-13 32q0 4 0.5 9t2.5 10q7 21 26 35.5t41 14.5z" />
    <glyph glyph-name="ucircumflex" unicode="&#xfb;" horiz-adv-x="472" 
d="M501 297q11 0 18 -7t7 -18q0 -7 -5 -14l-21 -35l-24 -39q-23 -40 -49.5 -81t-61.5 -83v-1l-4 -5q-14 -16 -29 -32.5t-32 -30.5t-36.5 -23t-40.5 -9q-43 0 -66 32q-19 29 -19 73v12t1 12q-24 -31 -51 -50.5t-58 -19.5h-6.5t-7.5 2q-40 6 -59 34q-16 23 -16 63
q0 26 6.5 55.5t16.5 57t21 52t20 40.5q20 35 66 35q11 0 21.5 -2t15.5 -4h2q9 -4 13 -11q4 -10 0 -16q-1 -3 -3 -7.5t-4 -9.5q-8 -17 -20 -44.5t-23.5 -58.5t-20 -61t-8.5 -51q0 -11 3 -14v-1h2q2 0 7.5 2t14.5 9.5t22 23t30 41.5q23 34 43 72t34 65l16 32q19 35 66 35
q11 0 21.5 -2t15.5 -4h2q15 -3 15 -20q0 -3 -1 -5.5t-5 -10.5q-8 -17 -25.5 -56.5t-34.5 -86.5v-1q-16 -42 -24.5 -76t-8.5 -56q0 -10 1.5 -14.5t2.5 -6.5q2 0 9 2.5t21 14.5t35.5 35.5t51.5 65.5q17 24 34 49t32.5 49.5t29.5 47.5t25 42q5 13 22 13zM278 394q3 -5 3 -10v-2
q0 -11 -7 -18t-17 -7q-11 0 -18 6l-38 28l-69 -31q-6 -3 -14 -3q-10 0 -17 7t-7 17q0 8 3.5 13t6.5 7l92 75q2 2 3.5 2.5t3.5 1.5q4 2 9 2h1q3 0 9 -2q2 -1 5.5 -3.5t6.5 -7.5z" />
    <glyph glyph-name="yacute" unicode="&#xfd;" horiz-adv-x="481" 
d="M507 295q11 0 18.5 -7t7.5 -18q0 -10 -4 -15q-8 -14 -17 -30.5t-19 -36.5q-20 -40 -45.5 -86.5t-57.5 -85.5q-35 -44 -73 -68q-44 -28 -95 -28h-2q-32 -81 -69 -150t-81 -126q-67 -89 -145 -139q-81 -52 -157 -52q-68 0 -115 39q-48 39 -48 98q0 57 47 127
q21 32 49.5 62.5t62.5 59.5q69 59 146 94q81 39 149 39h11.5t15.5 -1q10 -2 15 -4q10 -3 13 -9q11 28 20.5 55.5t17.5 54.5l-5 -8q-60 -84 -121 -84h-5.5t-7.5 1q-38 6 -58 35q-17 25 -17 63q0 26 7 55t16.5 57t21 52t20.5 41q19 35 65 35q12 0 22 -2t15 -4q1 0 2 -1
q10 -2 13 -10q4 -7 1 -17q-2 -2 -3.5 -6.5t-3.5 -9.5q-8 -17 -20 -44.5t-24 -58.5t-20.5 -61t-8.5 -51q0 -8 1 -11t2 -4h2q2 0 7.5 2t14.5 9.5t22 22.5t30 41q23 35 43 72.5t34 65.5l13 24q2 3 3.5 7t5.5 8q15 19 37 24t36 5h8q9 0 16 -7q5 -7 4 -16q-13 -83 -33.5 -164.5
t-47.5 -158.5q65 9 127 95v1q12 16 24 36t23.5 41t22.5 42.5t20 39.5q7 13 12.5 24l9.5 19q7 11 12.5 19t16.5 8zM-158 -438q45 30 82.5 70.5t69.5 87t58 98t47 103.5q-1 -1 -5 -1h-8t-9 1q-4 0 -7.5 0.5t-7.5 0.5q-59 0 -129.5 -32.5t-138.5 -90.5q-64 -55 -102 -113
t-38 -101q0 -20 8 -32t19 -18.5t24 -8.5t24 -2q28 0 57.5 10t55.5 27v1zM166 361q-17 8 -22.5 17.5t-5.5 17.5q0 12 10 22l86 84q10 10 23 4h1q21 -10 37.5 -21.5t16.5 -28.5q0 -5 -2 -12t-10 -12h-2q-20 -12 -34.5 -21.5t-27.5 -17.5l-51 -31q-6 -3 -11 -3q-4 0 -8 2z" />
    <glyph glyph-name="ydieresis" unicode="&#xff;" horiz-adv-x="481" 
d="M507 295q11 0 18.5 -7t7.5 -18q0 -10 -4 -15q-8 -14 -17 -30.5t-19 -36.5q-20 -40 -45.5 -86.5t-57.5 -85.5q-35 -44 -73 -68q-44 -28 -95 -28h-2q-32 -81 -69 -150t-81 -126q-67 -89 -145 -139q-81 -52 -157 -52q-68 0 -115 39q-48 39 -48 98q0 57 47 127
q21 32 49.5 62.5t62.5 59.5q69 59 146 94q81 39 149 39h11.5t15.5 -1q10 -2 15 -4q10 -3 13 -9q11 28 20.5 55.5t17.5 54.5l-5 -8q-60 -84 -121 -84h-5.5t-7.5 1q-38 6 -58 35q-17 25 -17 63q0 26 7 55t16.5 57t21 52t20.5 41q19 35 65 35q12 0 22 -2t15 -4q1 0 2 -1
q10 -2 13 -10q4 -7 1 -17q-2 -2 -3.5 -6.5t-3.5 -9.5q-8 -17 -20 -44.5t-24 -58.5t-20.5 -61t-8.5 -51q0 -8 1 -11t2 -4h2q2 0 7.5 2t14.5 9.5t22 22.5t30 41q23 35 43 72.5t34 65.5l13 24q2 3 3.5 7t5.5 8q15 19 37 24t36 5h8q9 0 16 -7q5 -7 4 -16q-13 -83 -33.5 -164.5
t-47.5 -158.5q65 9 127 95v1q12 16 24 36t23.5 41t22.5 42.5t20 39.5q7 13 12.5 24l9.5 19q7 11 12.5 19t16.5 8zM-158 -438q45 30 82.5 70.5t69.5 87t58 98t47 103.5q-1 -1 -5 -1h-8t-9 1q-4 0 -7.5 0.5t-7.5 0.5q-59 0 -129.5 -32.5t-138.5 -90.5q-64 -55 -102 -113
t-38 -101q0 -20 8 -32t19 -18.5t24 -8.5t24 -2q28 0 57.5 10t55.5 27v1zM119 477q20 0 33.5 -13t13.5 -33q0 -27 -23 -48q-22 -19 -48 -19q-20 0 -33 12t-13 32q0 4 0.5 9t2.5 10q7 21 26 35.5t41 14.5zM277 477q20 0 33.5 -13t13.5 -33q0 -27 -23 -48q-22 -19 -48 -19
q-20 0 -33 12t-13 32q0 4 0.5 9t2.5 10q7 21 26 35.5t41 14.5z" />
    <glyph glyph-name="igrave" unicode="&#xec;" horiz-adv-x="260" 
d="M292 302q11 0 18 -7t7 -18q0 -10 -4 -15l-21 -34q-7 -11 -12.5 -20.5t-11.5 -19.5q-24 -40 -50 -80.5t-61 -83.5q-2 -2 -2.5 -3t-2.5 -2q-14 -16 -29 -33t-32 -30.5t-36 -22.5t-41 -9h-5.5t-8.5 1q-36 6 -54 36q-17 26 -17 68q0 40 12 84t26.5 82t27 63.5t13.5 27.5v1
q19 35 65 35q12 0 22 -2t15 -4q1 0 2 -1q15 -3 15 -19q0 -4 -0.5 -6.5t-4.5 -10.5q-8 -17 -26 -56t-35 -87q-16 -42 -24.5 -76t-8.5 -56q0 -11 1.5 -15.5t2.5 -5.5q2 0 9.5 2.5t21 14.5t35 35.5t51.5 65.5q17 23 34 48t32.5 49.5t29.5 47.5t25 42q7 14 22 14zM149 418
q6 -9 6 -19q0 -23 -26 -35q-6 -2 -9 -2q-6 0 -10 3q-16 9 -27.5 16t-23.5 15q-14 8 -28.5 17.5t-34.5 21.5h-1q-8 5 -10.5 12t-2.5 12q0 17 16.5 28.5t38.5 21.5h1q11 7 22 -4l86 -84z" />
    <glyph glyph-name="iacute" unicode="&#xed;" horiz-adv-x="260" 
d="M292 302q11 0 18 -7t7 -18q0 -10 -4 -15l-21 -34q-7 -11 -12.5 -20.5t-11.5 -19.5q-24 -40 -50 -80.5t-61 -83.5q-2 -2 -2.5 -3t-2.5 -2q-14 -16 -29 -33t-32 -30.5t-36 -22.5t-41 -9h-5.5t-8.5 1q-36 6 -54 36q-17 26 -17 68q0 40 12 84t26.5 82t27 63.5t13.5 27.5v1
q19 35 65 35q12 0 22 -2t15 -4q1 0 2 -1q15 -3 15 -19q0 -4 -0.5 -6.5t-4.5 -10.5q-8 -17 -26 -56t-35 -87q-16 -42 -24.5 -76t-8.5 -56q0 -11 1.5 -15.5t2.5 -5.5q2 0 9.5 2.5t21 14.5t35 35.5t51.5 65.5q17 23 34 48t32.5 49.5t29.5 47.5t25 42q7 14 22 14zM96 374
q-17 8 -22.5 17.5t-5.5 17.5q0 12 10 22l86 84q10 10 23 4h1q21 -10 37.5 -21.5t16.5 -28.5q0 -5 -2 -12t-10 -12h-2q-20 -12 -34.5 -21.5t-27.5 -17.5l-51 -31q-6 -3 -11 -3q-4 0 -8 2z" />
    <glyph glyph-name="icircumflex" unicode="&#xee;" horiz-adv-x="261" 
d="M292 302q11 0 18 -7t7 -18q0 -10 -4 -15l-21 -34q-7 -11 -12.5 -20.5t-11.5 -19.5q-24 -40 -50 -80.5t-61 -83.5q-2 -2 -2.5 -3t-2.5 -2q-14 -16 -29 -33t-32 -30.5t-36 -22.5t-41 -9h-5.5t-8.5 1q-36 6 -54 36q-17 26 -17 68q0 40 12 84t26.5 82t27 63.5t13.5 27.5v1
q19 35 65 35q12 0 22 -2t15 -4q1 0 2 -1q15 -3 15 -19q0 -4 -0.5 -6.5t-4.5 -10.5q-8 -17 -26 -56t-35 -87q-16 -42 -24.5 -76t-8.5 -56q0 -11 1.5 -15.5t2.5 -5.5q2 0 9.5 2.5t21 14.5t35 35.5t51.5 65.5q17 23 34 48t32.5 49.5t29.5 47.5t25 42q7 14 22 14zM179 394
q3 -5 3 -10v-2q0 -11 -7 -18t-17 -7q-11 0 -18 6l-38 28l-69 -31q-6 -3 -14 -3q-10 0 -17 7t-7 17q0 8 3.5 13t6.5 7l92 75q2 2 3.5 2.5t3.5 1.5q4 2 9 2h1q3 0 9 -2q2 -1 5.5 -3.5t6.5 -7.5z" />
    <glyph glyph-name="idieresis" unicode="&#xef;" horiz-adv-x="260" 
d="M292 302q11 0 18 -7t7 -18q0 -10 -4 -15l-21 -34q-7 -11 -12.5 -20.5t-11.5 -19.5q-24 -40 -50 -80.5t-61 -83.5q-2 -2 -2.5 -3t-2.5 -2q-14 -16 -29 -33t-32 -30.5t-36 -22.5t-41 -9h-5.5t-8.5 1q-36 6 -54 36q-17 26 -17 68q0 40 12 84t26.5 82t27 63.5t13.5 27.5v1
q19 35 65 35q12 0 22 -2t15 -4q1 0 2 -1q15 -3 15 -19q0 -4 -0.5 -6.5t-4.5 -10.5q-8 -17 -26 -56t-35 -87q-16 -42 -24.5 -76t-8.5 -56q0 -11 1.5 -15.5t2.5 -5.5q2 0 9.5 2.5t21 14.5t35 35.5t51.5 65.5q17 23 34 48t32.5 49.5t29.5 47.5t25 42q7 14 22 14zM177 477
q20 0 33.5 -13t13.5 -33q0 -27 -23 -48q-22 -19 -48 -19q-20 0 -33 12t-13 32q0 4 0.5 9t2.5 10q7 21 26 35.5t41 14.5zM19 477q20 0 33.5 -13t13.5 -33q0 -27 -23 -48q-22 -19 -48 -19q-20 0 -33 12t-13 32q0 4 0.5 9t2.5 10q7 21 26 35.5t41 14.5z" />
    <glyph glyph-name="ccedilla" unicode="&#xe7;" horiz-adv-x="362" 
d="M410 281q2 -3 3 -6t1 -8v-2q0 -7 -3 -11l-20 -30q-24 -38 -56 -84.5t-70 -88.5q-66 -74 -129 -95q17 -6 28 -20q13 -16 13 -43q0 -20 -9 -41t-26 -38q-36 -36 -82 -36q-5 0 -13.5 1t-16.5 3q-5 2 -9 3t-7 3q-11 5 -14 11.5t-3 11.5q0 11 7.5 18.5t17.5 7.5q8 0 18 -4
q2 -2 4 -2q18 0 38 26q10 11 15.5 24t5.5 23q0 4 -1 5.5t-9 1.5q-1 0 -7 -2q-5 -2 -11 -3t-14 -1q-11 0 -18 8t-7 17q0 4 1 6.5t2 4.5l5 17q-33 12 -55 45q-29 43 -29 106q0 27 5.5 56.5t15.5 60.5q11 29 25 57.5t31 54.5q37 55 81 87q49 36 101 36q30 0 49.5 -16t19.5 -39
q0 -18 -11.5 -30t-28.5 -12q-14 0 -24 8.5t-13 20.5q-4 -3 -8.5 -8t-9.5 -11q-15 -17 -30.5 -41.5t-30.5 -52.5q-33 -63 -52.5 -123.5t-19.5 -102.5q0 -35 11.5 -43t25.5 -8q10 0 24 4t32.5 16t41.5 32.5t51 53.5q19 22 37 46t33.5 46t28 41.5t21.5 33.5l3 5q0 1 2 3
q8 8 19 8h2q13 0 18 -11z" />
    <glyph glyph-name="scaron" unicode="&#x161;" horiz-adv-x="266" 
d="M302 288q8 -8 8 -20q0 -5 -2 -9t-4 -6q-28 -31 -70.5 -57.5t-97.5 -55.5q6 -38 6 -70q0 -45 -10 -84t-28 -69q-47 -75 -133 -75h-3q-26 0 -49.5 7.5t-42.5 21.5q-43 31 -43 77q0 27 16 52.5t43 49t62 45.5t74 43q-5 28 -10 55t-12 53q-11 35 -20.5 73t-9.5 78
q0 59 32 103q33 45 80 45q11 0 20.5 -2.5t17.5 -7.5q22 -16 22 -43q0 -23 -15 -56t-50 -87q4 -15 9 -32t10 -35q6 -21 12.5 -44t11.5 -47q46 24 82.5 47t57.5 48l1 1q3 2 7.5 4.5t10.5 2.5q11 0 17 -6zM-113 -69q8 -16 21.5 -25t30.5 -9q25 0 43 17.5t29.5 44t16.5 56.5
t5 55v14q-23 -12 -49 -28.5t-48.5 -34.5t-37.5 -37t-15 -37q0 -9 4 -16zM90 572l-6 3t-7 8l-46 79v7q0 11 7 18t17 7q11 0 17 -6l38 -28l70 31q6 3 13 3q11 0 18 -6.5t7 -17.5q0 -8 -3 -12t-5 -6h-1l-99 -82h-4q-1 0 -2.5 -0.5t-3.5 -0.5h-6zM92 467q-4 -7 -9 -20z" />
    <glyph glyph-name="zcaron" unicode="&#x17e;" horiz-adv-x="555" 
d="M600 288q8 -5 10 -11t2 -10q0 -7 -4 -13q-11 -21 -26.5 -47.5t-34.5 -56t-41.5 -60.5t-46.5 -59q-29 -35 -56.5 -61.5t-53.5 -43.5q-56 -39 -104 -39q-47 0 -90 14t-79 29q-30 -22 -56 -33t-50 -11q-30 0 -52 16q-23 17 -23 45q0 26 19 43q15 12 39 18q20 5 42 6t39 1h6
q35 31 68.5 71.5t66.5 82.5q19 25 38.5 50t39.5 48q-22 3 -41 9.5t-36 13.5t-32 11.5t-29 4.5q-34 0 -65 -54l-3 -5q-2 -2 -7 -5.5t-12 -3.5q-11 0 -18 8t-7 17q0 5 2 9q0 2 2 4q11 21 23.5 36t25.5 25q26 19 62 19q20 0 38.5 -5.5t38.5 -12.5q23 -8 46.5 -15.5t52.5 -7.5
q60 0 121 40q4 3 11 3h2q11 0 18 -7t7 -18q0 -10 -8 -18q-2 0 -2 -2q-37 -26 -77 -74t-80 -99q-34 -44 -68.5 -86t-68.5 -72q28 -12 55 -20.5t59 -8.5q15 0 31 4.5t34.5 16.5t41.5 33t52 55q24 28 45.5 58t39.5 58.5t32.5 54t24.5 45.5q6 14 22 14q9 0 14 -4zM179 443
q-3 4 -3 10v2q0 11 7 18t17 7q11 0 17 -6l38 -28l70 31q6 3 13 3q11 0 18 -6.5t7 -17.5q0 -8 -3 -12t-5 -6l-1 -1l-93 -76q-2 -2 -3.5 -2.5t-3.5 -1.5q-2 0 -4 -1t-5 -1h-1q-5 0 -9 3l-6 3t-7 8zM-55 -54q3 1 9.5 4t17.5 10q-14 0 -20.5 -4.5t-6.5 -8.5v-1z" />
    <glyph glyph-name="sacute" unicode="&#x15b;" horiz-adv-x="280" 
d="M317 291q8 -8 8 -20q0 -5 -2 -9t-4 -6q-28 -31 -70.5 -57.5t-97.5 -55.5q6 -38 6 -70q0 -45 -10 -84t-28 -69q-47 -75 -133 -75h-3q-26 0 -49.5 7.5t-42.5 21.5q-43 31 -43 77q0 27 16 52.5t43 49t62 45.5t74 43q-5 28 -10 55t-12 53q-11 35 -20.5 73t-9.5 78
q0 59 32 103q33 45 80 45q11 0 20.5 -2.5t17.5 -7.5q22 -16 22 -43q0 -23 -15 -56t-50 -87q4 -15 9 -32t10 -35q6 -21 12.5 -44t11.5 -47q46 24 82.5 47t57.5 48l1 1q3 2 7.5 4.5t10.5 2.5q11 0 17 -6zM-98 -66q8 -16 21.5 -25t30.5 -9q25 0 43 17.5t29.5 44t16.5 56.5t5 55
v14q-23 -12 -49 -28.5t-48.5 -34.5t-37.5 -37t-15 -37q0 -9 4 -16zM95 567q-17 8 -22 17.5t-5 16.5q0 13 10 23l86 84q11 9 22 4l1 -1q22 -9 38.5 -21t16.5 -29q0 -5 -2.5 -11.5t-10.5 -11.5l-1 -1l-63 -38l-51 -32q-5 -3 -10 -3t-9 3zM107 470q-4 -7 -9 -20z" />
    <glyph glyph-name="zacute" unicode="&#x17a;" horiz-adv-x="555" 
d="M599 290q8 -5 10 -11.5t2 -9.5q0 -7 -4 -13q-11 -21 -26.5 -48t-34.5 -56.5t-41.5 -60t-46.5 -59.5q-58 -68 -110 -105q-56 -38 -104 -38q-47 0 -90 14t-79 28q-59 -43 -106 -43q-31 0 -52 15q-23 18 -23 46q0 25 19 42q14 13 39 19q20 5 42 6t39 1h6q35 30 68.5 71
t66.5 83q19 25 38.5 49.5t39.5 47.5q-22 4 -41 10t-36 13t-32 12t-29 5q-34 0 -65 -55l-3 -4q-2 -3 -7 -6t-12 -3q-11 0 -18 8t-7 17q0 5 2 9q0 2 2 4q11 21 23.5 35.5t25.5 24.5q26 20 62 20q20 0 38.5 -5.5t38.5 -13.5q23 -8 46.5 -15t52.5 -7q60 0 121 40q4 3 11 3h2
q11 0 18 -7t7 -18q0 -10 -8 -18l-2 -2q-37 -26 -77 -74t-80 -100q-34 -44 -68.5 -85.5t-68.5 -72.5q28 -11 55 -19.5t59 -8.5q15 0 31 4t34.5 16t41.5 33.5t52 55.5q24 28 45.5 58t39.5 58.5t32.5 54t24.5 45.5q7 14 22 14q6 0 14 -4zM225 364q-17 8 -22 17.5t-5 17.5
q0 13 10 22l86 84q11 11 22 4h1q22 -10 38.5 -21.5t16.5 -28.5q0 -5 -2.5 -12t-10.5 -12h-1q-20 -12 -34.5 -21.5t-28.5 -17.5l-51 -31q-5 -3 -10 -3q-3 0 -9 2zM-56 -52q3 1 9.5 3.5t17.5 9.5l1 1h-1q-14 0 -20.5 -5t-6.5 -8v-1z" />
    <glyph glyph-name="zdotaccent" unicode="&#x17c;" horiz-adv-x="555" 
d="M599 290q8 -5 10 -11.5t2 -9.5q0 -7 -4 -13q-11 -21 -26.5 -48t-34.5 -56.5t-41.5 -60t-46.5 -59.5q-58 -68 -110 -105q-56 -38 -104 -38q-47 0 -90 14t-79 28q-59 -43 -106 -43q-31 0 -52 15q-23 18 -23 46q0 25 19 42q14 13 39 19q20 5 42 6t39 1h6q35 30 68.5 71
t66.5 83q19 25 38.5 49.5t39.5 47.5q-22 4 -41 10t-36 13t-32 12t-29 5q-34 0 -65 -55l-3 -4q-2 -3 -7 -6t-12 -3q-11 0 -18 8t-7 17q0 5 2 9q0 2 2 4q11 21 23.5 35.5t25.5 24.5q26 20 62 20q20 0 38.5 -5.5t38.5 -13.5q23 -8 46.5 -15t52.5 -7q60 0 121 40q4 3 11 3h2
q11 0 18 -7t7 -18q0 -10 -8 -18l-2 -2q-37 -26 -77 -74t-80 -100q-34 -44 -68.5 -85.5t-68.5 -72.5q28 -11 55 -19.5t59 -8.5q15 0 31 4t34.5 16t41.5 33.5t52 55.5q24 28 45.5 58t39.5 58.5t32.5 54t24.5 45.5q7 14 22 14q6 0 14 -4zM248 506q20 0 33.5 -13t13.5 -33
q0 -27 -23 -48q-22 -19 -48 -19q-20 0 -33 12t-13 32q0 4 0.5 9t2.5 10q7 21 26 35.5t41 14.5zM-56 -52q3 1 9.5 3.5t17.5 9.5l1 1h-1q-14 0 -20.5 -5t-6.5 -8v-1z" />
    <glyph glyph-name="aogonek" unicode="&#x105;" horiz-adv-x="481" 
d="M509 292q11 0 18 -7t7 -18q0 -7 -5 -14l-21 -35q-7 -11 -13.5 -22t-12.5 -22q-23 -39 -48.5 -78.5t-60.5 -81.5q-13 -15 -27 -31t-30 -30t-34 -24t-37 -13q-38 -41 -58 -77.5t-20 -65.5q0 -9 2 -9v-1h2q11 0 28.5 11t30.5 25l1 1q7 7 19 7q8 0 16 -6.5t8 -17.5
q0 -5 -2.5 -9.5t-4.5 -7.5q-10 -11 -23 -21.5t-28.5 -19t-32 -14t-32.5 -5.5q-31 0 -48.5 16.5t-17.5 44.5q0 23 11.5 47.5t23.5 41.5q25 37 64 73q-12 6 -22 22q-16 26 -16 68q0 11 1 23.5t3 26.5q-42 -42 -80 -42q-41 0 -68 36.5t-27 91.5q0 42 15.5 88.5t41.5 85.5
q29 43 64 66q40 27 83 27q37 0 60 -23q21 -24 21 -57q0 -19 -8 -37q8 5 17.5 6t20.5 1t21.5 -2t15.5 -4h2q15 -3 15 -20q0 -3 -1 -5.5t-5 -10.5q-8 -17 -25.5 -56.5t-34.5 -86.5v-1q-16 -42 -24.5 -76t-8.5 -56q0 -10 1.5 -14.5t2.5 -6.5q6 0 27 14.5t56 57.5q13 16 27.5 37
t29.5 43.5t29.5 45t26.5 42.5q9 15 17 28t15 22q9 14 15.5 21.5t16.5 7.5zM228 279q-14 -8 -30 -9h-1q-16 0 -27 11t-11 27q0 17 11 28t27 11q9 0 14 -2q-1 5 -4 11t-11 6q-9 0 -30.5 -21.5t-49.5 -73.5q-23 -45 -37 -89.5t-14 -73.5q0 -10 1.5 -14t2.5 -6q1 -1 1.5 -2
t4.5 -1q3 0 9 2t16 9.5t23.5 22t30.5 40.5q26 38 40.5 63t23.5 42z" />
    <glyph glyph-name="racute" unicode="&#x155;" horiz-adv-x="394" 
d="M423 295q11 0 18 -7t7 -18q0 -8 -5 -15l-21 -34l-15 -27q-26 -43 -54 -87t-66 -90q-14 -17 -29.5 -34.5t-33 -32t-37.5 -24t-42 -9.5h-6.5t-7.5 1q-37 6 -55 36q-16 25 -16 68q0 25 6 54.5t15 59t19 56t18 45.5h-8q-35 0 -65 10t-53 30q-51 45 -51 120q0 32 14.5 53.5
t37.5 23.5h2q41 0 64 -40q21 -32 21 -79q0 -30 -9 -58q16 -11 44 -11q14 0 29 3q21 26 60 26q11 0 21.5 -2t15.5 -4q1 0 1 -0.5t1 -0.5q15 -3 15 -19q0 -4 -1 -6.5t-5 -10.5q-8 -17 -25.5 -56t-34.5 -87q-16 -42 -24.5 -76t-8.5 -56q0 -11 1.5 -15.5t2.5 -5.5q6 0 27 14.5
t56 57.5q13 16 27.5 36.5t29.5 43t29.5 45t26.5 42.5q9 16 17 28.5t15 22.5q9 14 15.5 21.5t16.5 7.5zM166 375q-17 8 -22.5 17.5t-5.5 17.5q0 12 10 22l86 84q10 10 23 4h1q21 -10 37.5 -21.5t16.5 -28.5q0 -5 -2 -12t-10 -12h-2q-20 -12 -34.5 -21.5t-27.5 -17.5l-51 -31
q-6 -3 -11 -3q-4 0 -8 2zM21 388q0 -18 9 -39v1q0 27 -9 45v-7z" />
    <glyph glyph-name="abreve" unicode="&#x103;" horiz-adv-x="476" 
d="M516 310q11 0 18 -7t7 -18q0 -7 -5 -14l-21 -35l-24 -39q-23 -40 -49.5 -81t-61.5 -83v-1q-14 -17 -29.5 -34.5t-33 -32t-37.5 -24t-42 -9.5h-6.5t-7.5 2q-36 4 -55 35q-16 26 -16 68q0 11 1 23.5t3 26.5q-42 -42 -80 -42q-41 0 -68 36.5t-27 91.5q0 42 15.5 88.5
t41.5 85.5q29 43 64 66q40 27 83 27q37 0 60 -23q21 -24 21 -57q0 -19 -8 -37q8 5 17.5 6t20.5 1t21.5 -2t15.5 -4h2q15 -3 15 -20q0 -3 -1 -5.5t-5 -10.5q-8 -17 -25.5 -56.5t-34.5 -86.5v-1q-16 -42 -24.5 -76t-8.5 -56q0 -10 1.5 -14.5t2.5 -6.5q6 0 27 14.5t56 57.5
q13 16 27.5 37t29.5 43.5t29.5 45t26.5 42.5q9 15 17 28t15 22q9 14 15.5 21.5t16.5 7.5zM235 297q-14 -8 -30 -9h-1q-16 0 -27 11t-11 27q0 17 11 28t27 11q9 0 14 -2q-1 5 -4 11t-11 6q-9 0 -30.5 -21.5t-49.5 -73.5q-23 -45 -37 -89.5t-14 -73.5q0 -10 1.5 -14t2.5 -6
q1 -1 1.5 -2t4.5 -1q3 0 9 2t16 9.5t23.5 22t30.5 40.5q26 38 40.5 63t23.5 42zM271 602q9 0 16 -6t7 -19v-3q-8 -47 -40 -76q-14 -12 -31.5 -19t-36.5 -7q-16 0 -30.5 6t-25.5 17q-9 8 -17.5 23.5t-8.5 40.5q0 5 0.5 9t1.5 9l1 2q0 10 7 16.5t16 6.5t16.5 -6t7.5 -20v-7
q1 -6 12.5 -11t26.5 -5q17 0 33.5 6.5t19.5 19.5q1 10 8 16.5t17 6.5z" />
    <glyph glyph-name="lacute" unicode="&#x13a;" horiz-adv-x="266" 
d="M299 302q11 0 17 -7q2 -2 5.5 -6.5t3.5 -12.5q0 -6 -3 -10q0 -2 -1 -2l-5 -9q-20 -33 -42 -67.5t-47 -67t-54.5 -62t-63.5 -52.5q-34 -22 -66 -22q-41 0 -62 29q-21 25 -21 74q0 32 7 69t19.5 77t28.5 82.5t33 84.5l7 16q6 16 16 40t22 52t26 58.5t30 60.5
q42 80 77.5 118t68.5 38q26 0 41 -20q12 -17 12 -43q0 -22 -8.5 -50t-20.5 -55.5t-24.5 -51.5t-20.5 -39q-31 -55 -64.5 -101.5t-59.5 -71.5q-17 -42 -33.5 -84.5t-29.5 -81t-21.5 -70t-8.5 -50.5q0 -10 1.5 -14.5t2.5 -6.5q1 -1 2 -1q9 0 23 9v1q60 40 101.5 98t83.5 128
l6 10q5 13 22 13zM316 815q-17 8 -22.5 17.5t-5.5 17.5q0 12 10 22l86 84q10 10 23 4h1q21 -10 37.5 -21.5t16.5 -28.5q0 -5 -2 -12t-10 -12h-2q-20 -12 -34.5 -21.5t-27.5 -17.5l-51 -31q-6 -3 -11 -3q-4 0 -8 2zM240 570q19 35 32 66t19 54q-11 -25 -26 -59t-33 -76
q2 4 4 7.5t4 7.5z" />
    <glyph glyph-name="cacute" unicode="&#x107;" 
d="M417 297q4 -6 4 -14v-2q0 -5 -3 -11l-19 -28q-24 -38 -56.5 -85t-70.5 -89q-94 -103 -175 -103q-56 0 -94 44q-36 45 -36 115q0 27 5.5 57t15.5 60q21 61 55 113q39 56 82 87q49 36 101 36q30 0 49.5 -15.5t19.5 -39.5q0 -17 -11.5 -29.5t-28.5 -12.5q-14 0 -24 8.5
t-13 21.5l-8.5 -8.5t-9.5 -11.5q-15 -17 -30.5 -41t-30.5 -53q-33 -63 -52.5 -123.5t-19.5 -102.5q0 -35 11.5 -43t25.5 -8q10 0 24 4.5t32.5 16t41.5 32t51 53.5q19 22 37 46t33.5 46.5t28 42t21.5 33.5l3 4q0 2 2 4q7 7 19 7h2q13 0 18 -11zM196 515q-17 8 -22.5 17.5
t-5.5 17.5q0 12 10 22l86 84q10 10 23 4h1q21 -10 37.5 -21.5t16.5 -28.5q0 -5 -2 -12t-10 -12h-2q-20 -12 -34.5 -21.5t-27.5 -17.5l-51 -31q-6 -3 -11 -3q-4 0 -8 2z" />
    <glyph glyph-name="ccaron" unicode="&#x10d;" 
d="M417 297q4 -6 4 -14v-2q0 -5 -3 -11l-19 -28q-24 -38 -56.5 -85t-70.5 -89q-94 -103 -175 -103q-56 0 -94 44q-36 45 -36 115q0 27 5.5 57t15.5 60q21 61 55 113q39 56 82 87q49 36 101 36q30 0 49.5 -15.5t19.5 -39.5q0 -17 -11.5 -29.5t-28.5 -12.5q-14 0 -24 8.5
t-13 21.5l-8.5 -8.5t-9.5 -11.5q-15 -17 -30.5 -41t-30.5 -53q-33 -63 -52.5 -123.5t-19.5 -102.5q0 -35 11.5 -43t25.5 -8q10 0 24 4.5t32.5 16t41.5 32t51 53.5q19 22 37 46t33.5 46.5t28 42t21.5 33.5l3 4q0 2 2 4q7 7 19 7h2q13 0 18 -11zM138 604q-3 4 -3 10v2
q0 11 7 18t17 7t18 -6l38 -28l69 30q5 4 13 4q11 0 18 -7t7 -17q0 -8 -2.5 -12t-4.5 -6l-2 -2l-93 -76l-7 -3q-4 -2 -9 -2h-1q-4 0 -8 2h-1q-2 1 -5.5 3.5t-6.5 7.5z" />
    <glyph glyph-name="ecaron" unicode="&#x11b;" 
d="M417 298q2 -3 3 -6t1 -8v-2q0 -7 -3 -11l-33 -50q-22 -32 -44.5 -65t-48.5 -65q-18 -21 -38.5 -42.5t-44.5 -39.5q-57 -44 -118 -44q-52 0 -86 37q-38 43 -38 121q0 61 24 127q11 29 25.5 57.5t33.5 54.5q36 52 82 83q48 33 94 33q59 0 59 -58q0 -41 -21 -83
q-9 -17 -21.5 -35.5t-29.5 -36.5q-32 -35 -68.5 -64t-65.5 -49q-14 -47 -14 -80q0 -17 3.5 -27.5t9 -16t12.5 -7t15 -1.5q10 0 24 4t32 15.5t40.5 31t49.5 51.5q19 23 37 47t34 47.5t29.5 44.5t24.5 37q0 1 2 3q8 8 19 8h2q13 0 18 -11zM138 604q-3 4 -3 10v2q0 11 7 18
t17 7t18 -6l38 -28l69 30q5 4 13 4q11 0 18 -7t7 -17q0 -8 -2.5 -12t-4.5 -6l-2 -2l-93 -76l-7 -3q-4 -2 -9 -2h-1q-4 0 -8 2h-1q-2 1 -5.5 3.5t-6.5 7.5zM113 241q16 13 31 27t29 29q61 64 61 117q0 8 -1 9q-3 -1 -12.5 -8.5t-26.5 -30.5q-14 -19 -29.5 -44t-30.5 -54
q-5 -11 -10.5 -22.5t-10.5 -22.5z" />
    <glyph glyph-name="nacute" unicode="&#x144;" horiz-adv-x="508" 
d="M534 295q11 0 18 -7t7 -18q0 -9 -4 -14l-21 -35l-16 -26q-26 -43 -53.5 -87t-65.5 -90v-1q-14 -17 -29.5 -34.5t-33.5 -32t-38 -24t-42 -9.5q-42 0 -67 33q-20 28 -20 75q0 26 8 57.5t17 63.5q8 27 14.5 52.5t6.5 42.5q0 13 -2 13h-2q-2 0 -7.5 -2t-15 -10t-23.5 -24.5
t-32 -44.5q-24 -37 -44.5 -76t-33.5 -65l-6 -11l-1 -5l-2 -4q-19 -35 -67 -35q-11 0 -22 2.5t-18 6.5q-15 7 -11 23q13 45 21 76.5t15 57.5q8 30 15.5 58t18.5 66q15 48 70 48q25 0 42 -7q8 -2 11.5 -9t1.5 -15l-17 -61q2 4 4 6q61 85 121 85q42 0 65 -26t23 -72
q0 -37 -19 -94q-14 -44 -22 -75t-8 -51q0 -11 1.5 -14.5t2.5 -5.5q7 0 27.5 14.5t55.5 57.5q13 16 27.5 37t29.5 43.5t29.5 45t26.5 42.5l32 50q10 14 16 21.5t16 7.5zM216 375q-17 8 -22.5 17.5t-5.5 17.5q0 12 10 22l86 84q10 10 23 4h1q21 -10 37.5 -21.5t16.5 -28.5
q0 -5 -2 -12t-10 -12h-2q-20 -12 -34.5 -21.5t-27.5 -17.5l-51 -31q-6 -3 -11 -3q-4 0 -8 2z" />
    <glyph glyph-name="ncaron" unicode="&#x148;" horiz-adv-x="508" 
d="M534 295q11 0 18 -7t7 -18q0 -9 -4 -14l-21 -35l-16 -26q-26 -43 -53.5 -87t-65.5 -90v-1q-14 -17 -29.5 -34.5t-33.5 -32t-38 -24t-42 -9.5q-42 0 -67 33q-20 28 -20 75q0 26 8 57.5t17 63.5q8 27 14.5 52.5t6.5 42.5q0 13 -2 13h-2q-2 0 -7.5 -2t-15 -10t-23.5 -24.5
t-32 -44.5q-24 -37 -44.5 -76t-33.5 -65l-6 -11l-1 -5l-2 -4q-19 -35 -67 -35q-11 0 -22 2.5t-18 6.5q-15 7 -11 23q13 45 21 76.5t15 57.5q8 30 15.5 58t18.5 66q15 48 70 48q25 0 42 -7q8 -2 11.5 -9t1.5 -15l-17 -61q2 4 4 6q61 85 121 85q42 0 65 -26t23 -72
q0 -37 -19 -94q-14 -44 -22 -75t-8 -51q0 -11 1.5 -14.5t2.5 -5.5q7 0 27.5 14.5t55.5 57.5q13 16 27.5 37t29.5 43.5t29.5 45t26.5 42.5l32 50q10 14 16 21.5t16 7.5zM158 454q-3 4 -3 10v2q0 11 7 18t17 7t18 -6l38 -28l69 30q5 4 13 4q11 0 18 -7t7 -17q0 -8 -2.5 -12
t-4.5 -6l-2 -2l-93 -76l-7 -3q-4 -2 -9 -2h-1q-4 0 -8 2h-1q-2 1 -5.5 3.5t-6.5 7.5z" />
    <glyph glyph-name="rcaron" unicode="&#x159;" horiz-adv-x="394" 
d="M423 295q11 0 18 -7t7 -18q0 -8 -5 -15l-21 -34l-15 -27q-26 -43 -54 -87t-66 -90q-14 -17 -29.5 -34.5t-33 -32t-37.5 -24t-42 -9.5h-6.5t-7.5 1q-37 6 -55 36q-16 25 -16 68q0 25 6 54.5t15 59t19 56t18 45.5h-8q-35 0 -65 10t-53 30q-51 45 -51 120q0 32 14.5 53.5
t37.5 23.5h2q41 0 64 -40q21 -32 21 -79q0 -30 -9 -58q16 -11 44 -11q14 0 29 3q21 26 60 26q11 0 21.5 -2t15.5 -4q1 0 1 -0.5t1 -0.5q15 -3 15 -19q0 -4 -1 -6.5t-5 -10.5q-8 -17 -25.5 -56t-34.5 -87q-16 -42 -24.5 -76t-8.5 -56q0 -11 1.5 -15.5t2.5 -5.5q6 0 27 14.5
t56 57.5q13 16 27.5 36.5t29.5 43t29.5 45t26.5 42.5q9 16 17 28.5t15 22.5q9 14 15.5 21.5t16.5 7.5zM88 464q-3 4 -3 10v2q0 11 7 18t17 7t18 -6l38 -28l69 30q5 4 13 4q11 0 18 -7t7 -17q0 -8 -2.5 -12t-4.5 -6l-2 -2l-93 -76l-7 -3q-4 -2 -9 -2h-1q-4 0 -8 2h-1
q-2 1 -5.5 3.5t-6.5 7.5zM21 388q0 -18 9 -39v1q0 27 -9 45v-7z" />
    <glyph glyph-name="uring" unicode="&#x16f;" horiz-adv-x="472" 
d="M501 297q11 0 18 -7t7 -18q0 -7 -5 -14l-21 -35l-24 -39q-23 -40 -49.5 -81t-61.5 -83v-1l-4 -5q-14 -16 -29 -32.5t-32 -30.5t-36.5 -23t-40.5 -9q-43 0 -66 32q-19 29 -19 73v12t1 12q-24 -31 -51 -50.5t-58 -19.5h-6.5t-7.5 2q-40 6 -59 34q-16 23 -16 63
q0 26 6.5 55.5t16.5 57t21 52t20 40.5q20 35 66 35q11 0 21.5 -2t15.5 -4h2q9 -4 13 -11q4 -10 0 -16q-1 -3 -3 -7.5t-4 -9.5q-8 -17 -20 -44.5t-23.5 -58.5t-20 -61t-8.5 -51q0 -11 3 -14v-1h2q2 0 7.5 2t14.5 9.5t22 23t30 41.5q23 34 43 72t34 65l16 32q19 35 66 35
q11 0 21.5 -2t15.5 -4h2q15 -3 15 -20q0 -3 -1 -5.5t-5 -10.5q-8 -17 -25.5 -56.5t-34.5 -86.5v-1q-16 -42 -24.5 -76t-8.5 -56q0 -10 1.5 -14.5t2.5 -6.5q2 0 9 2.5t21 14.5t35.5 35.5t51.5 65.5q17 24 34 49t32.5 49.5t29.5 47.5t25 42q5 13 22 13zM208 494q26 0 42.5 -16
t16.5 -42q0 -18 -7.5 -35t-21.5 -31q-29 -27 -66 -27q-24 0 -39 16q-16 16 -16 42q0 35 27 64q26 29 64 29zM201 438q0 6 -1 7q-6 -2 -12 -15.5t-6 -28.5q0 -2 0.5 -4.5t0.5 -4.5q8 5 13 18t5 28z" />
    <glyph glyph-name="uhungarumlaut" unicode="&#x171;" horiz-adv-x="472" 
d="M501 297q11 0 18 -7t7 -18q0 -7 -5 -14l-21 -35l-24 -39q-23 -40 -49.5 -81t-61.5 -83v-1l-4 -5q-14 -16 -29 -32.5t-32 -30.5t-36.5 -23t-40.5 -9q-43 0 -66 32q-19 29 -19 73v12t1 12q-24 -31 -51 -50.5t-58 -19.5h-6.5t-7.5 2q-40 6 -59 34q-16 23 -16 63
q0 26 6.5 55.5t16.5 57t21 52t20 40.5q20 35 66 35q11 0 21.5 -2t15.5 -4h2q9 -4 13 -11q4 -10 0 -16q-1 -3 -3 -7.5t-4 -9.5q-8 -17 -20 -44.5t-23.5 -58.5t-20 -61t-8.5 -51q0 -11 3 -14v-1h2q2 0 7.5 2t14.5 9.5t22 23t30 41.5q23 34 43 72t34 65l16 32q19 35 66 35
q11 0 21.5 -2t15.5 -4h2q15 -3 15 -20q0 -3 -1 -5.5t-5 -10.5q-8 -17 -25.5 -56.5t-34.5 -86.5v-1q-16 -42 -24.5 -76t-8.5 -56q0 -10 1.5 -14.5t2.5 -6.5q2 0 9 2.5t21 14.5t35.5 35.5t51.5 65.5q17 24 34 49t32.5 49.5t29.5 47.5t25 42q5 13 22 13zM343 525
q21 -5 27.5 -15t6.5 -18q0 -5 -1 -8t-3 -6q0 -2 -2 -4q-16 -18 -26.5 -31.5t-19.5 -25.5q-16 -22 -37 -47q-7 -7 -16 -7h-2l-10 2t-10 3q-19 9 -19 29q0 2 0.5 5.5t2.5 8.5l52 108q7 13 20 11h3q6 -1 15.5 -2t18.5 -3zM237 492q0 -5 -1 -8t-3 -6q0 -2 -2 -4
q-16 -18 -26.5 -31.5t-19.5 -25.5q-16 -22 -37 -47q-7 -7 -16 -7h-2l-10 2t-10 3q-19 9 -19 29q0 2 0.5 5.5t2.5 8.5l52 108q7 13 20 11h3q6 -1 15.5 -2t18.5 -3q21 -5 27.5 -15t6.5 -18z" />
    <glyph glyph-name="eogonek" unicode="&#x119;" horiz-adv-x="363" 
d="M411 284q4 -6 4 -14v-2q0 -7 -3 -11q-10 -14 -19 -28t-19 -29q-39 -61 -83 -119t-107 -98v-1l-10 -5q-78 -87 -78 -142q0 -6 1 -7q0 -2 1 -2l2 -1q12 0 29.5 11t29.5 25q1 0 1 1q7 7 19 7q9 0 16.5 -6.5t7.5 -17.5q0 -10 -7 -17q-10 -11 -23 -21.5t-28.5 -19t-32 -14
t-32.5 -5.5q-30 0 -48 16.5t-18 44.5q0 34 28 79q13 22 33 45q-46 3 -76 36q-38 41 -38 120q0 62 24 127q11 30 25.5 58.5t33.5 54.5q18 26 39 46.5t43 35.5q48 33 94 33q59 0 59 -58q0 -40 -21 -82q-17 -35 -51 -73q-32 -35 -68.5 -64t-65.5 -49q-14 -47 -14 -80
q0 -34 12.5 -43t27.5 -9q10 0 24 4t32 15.5t40.5 31.5t49.5 52q19 22 37 46.5t34 47.5t29.5 44t24.5 37q0 2 2 4q7 7 19 7h2q13 0 18 -11zM228 400q0 8 -1 10q-3 -2 -12.5 -9t-26.5 -30q-14 -20 -29.5 -45t-30.5 -54q-5 -11 -10.5 -22.5t-10.5 -22.5q16 14 31 27.5t29 28.5
q61 64 61 117z" />
    <glyph glyph-name="ohungarumlaut" unicode="&#x151;" horiz-adv-x="507" 
d="M571 287q5 -5 5.5 -10.5t0.5 -7.5q0 -10 -6 -17q-51 -57 -113 -88.5t-122 -31.5h-11t-11 1q-43 -76 -96.5 -116.5t-112.5 -40.5q-68 0 -104 41q-36 39 -36 109q0 40 11.5 84t31.5 80q25 45 58.5 69t71.5 24h12q3 30 12 57.5t24 49.5q19 26 43.5 40.5t52.5 14.5
q53 0 80 -44q24 -39 24 -105q0 -47 -11.5 -101.5t-33.5 -106.5q10 -2 17 -2q21 0 45 8.5t47.5 22.5t44.5 32t38 37l1 1q5 5 10.5 6t7.5 1q12 0 19 -7zM125 34q29 0 68.5 29t70.5 83q-42 17 -71 56q-37 48 -42 115q-14 -12 -27.5 -34t-24.5 -48.5t-17.5 -55.5t-6.5 -57
q0 -48 17 -71q12 -17 33 -17zM268 448q-19 -43 -19 -95q0 -40 13 -74.5t36 -60.5q18 45 28 92t10 88q0 53 -17 78q-8 11 -15 11q-20 0 -36 -39zM327 702q0 -5 -1 -8t-3 -6q0 -2 -2 -4q-16 -18 -26.5 -31.5t-19.5 -25.5q-16 -22 -37 -47q-7 -7 -16 -7h-2l-10 2t-10 3
q-19 9 -19 29q0 2 0.5 5.5t2.5 8.5l52 108q7 13 20 11h3q6 -1 15.5 -2t18.5 -3q21 -5 27.5 -15t6.5 -18zM433 735q21 -5 27.5 -15t6.5 -18q0 -5 -1 -8t-3 -6q0 -2 -2 -4q-16 -18 -26.5 -31.5t-19.5 -25.5q-16 -22 -37 -47q-7 -7 -16 -7h-2l-10 2t-10 3q-19 9 -19 29
q0 2 0.5 5.5t2.5 8.5l52 108q7 13 20 11h3q6 -1 15.5 -2t18.5 -3z" />
    <glyph glyph-name="scedilla" unicode="&#x15f;" horiz-adv-x="299" 
d="M317 291q8 -8 8 -20q0 -5 -2 -9t-4 -6q-28 -31 -70.5 -57.5t-97.5 -55.5q6 -38 6 -70q0 -45 -10 -84t-28 -69q-47 -75 -133 -75h-3q-26 0 -49.5 7.5t-42.5 21.5q-43 31 -43 77q0 27 16 52.5t43 49t62 45.5t74 43q-5 28 -10 55t-12 53q-11 35 -20.5 73t-9.5 78
q0 59 32 103q33 45 80 45q11 0 20.5 -2.5t17.5 -7.5q22 -16 22 -43q0 -23 -15 -56t-50 -87q4 -15 9 -32t10 -35q6 -21 12.5 -44t11.5 -47q46 24 82.5 47t57.5 48l1 1q3 2 7.5 4.5t10.5 2.5q11 0 17 -6zM-27 -274q0 -18 -5 -39.5t-17 -42.5t-31.5 -39.5t-47.5 -31.5
q-6 -4 -13 -4q-11 0 -18.5 7t-7.5 18q0 8 4 12.5t6 6.5l1 1l2 1q9 6 17.5 21t16 34t12 39t4.5 36q0 8 -2.5 14.5t-4.5 10.5q-2 3 -3.5 5.5t-1.5 7.5q0 10 8 17.5t18 7.5q29 0 48 -31q7 -11 11 -24.5t4 -25.5v-1zM-98 -66q8 -16 21.5 -25t30.5 -9q25 0 43 17.5t29.5 44
t16.5 56.5t5 55v14q-23 -12 -49 -28.5t-48.5 -34.5t-37.5 -37t-15 -37q0 -9 4 -16zM107 470q-4 -7 -9 -20z" />
    <glyph glyph-name="uni0163" unicode="&#x163;" horiz-adv-x="267" 
d="M576 645q5 -5 12 -16t7 -26q0 -16 -11 -27t-28 -11q-16 0 -27 11t-11 27q0 5 1 8.5t3 7.5q-9 3 -22 3q-36 0 -88 -10.5t-104 -23.5q-15 -35 -35.5 -71t-42.5 -68t-43.5 -59t-39.5 -44q-17 -42 -33.5 -84.5t-29.5 -81t-21.5 -70t-8.5 -50.5q0 -10 1.5 -14.5t2.5 -6.5
q1 -1 2 -1q9 0 23 9v1q30 20 55 44.5t47 53.5t42.5 61t41.5 67l5 10q6 13 22 13q11 0 18.5 -7.5t7.5 -18.5q0 -7 -2 -10q-1 -1 -1 -2l-5 -9q-20 -33 -42 -67.5t-47.5 -67t-55 -62t-63.5 -52.5q-34 -22 -66 -22q-39 0 -62 29q-21 25 -21 74q0 33 7.5 71t20.5 78.5t28.5 82
t32.5 81.5l9 22q8 22 21.5 54t30.5 70q-50 -9 -83 -9h-1q-40 0 -64 15q-27 18 -29 48q-1 1 -1 2q0 19 10.5 30.5t27.5 11.5t28 -11.5t11 -27.5q0 -9 -3 -16q5 -1 10 -1.5t10 -0.5h1q37 0 109 15q47 93 85.5 137t73.5 44q24 0 38.5 -17t14.5 -46q0 -30 -14 -70q47 11 91 19
t78 8q23 0 43 -7t33 -20zM26 -137q0 -18 -5 -39.5t-17 -42.5t-31.5 -39.5t-47.5 -31.5q-6 -4 -13 -4q-11 0 -18.5 7t-7.5 18q0 8 4 12.5t6 6.5l1 1l2 1q9 6 17.5 21t16 34t12 39t4.5 36q0 8 -2.5 14.5t-4.5 10.5q-2 3 -3.5 5.5t-1.5 7.5q0 10 8 17.5t18 7.5q29 0 48 -31
q7 -11 11 -24.5t4 -25.5v-1zM272 630q14 36 20 61l-3 -6l-1 -1l-25 -56zM243 571q-2 -1 -5 -1q-4 -8 -7.5 -16.5t-6.5 -17.5z" />
    <glyph glyph-name="dcaron" unicode="&#x10f;" horiz-adv-x="618" 
d="M516 306q11 0 17 -7q2 -2 5.5 -6.5t3.5 -12.5q0 -6 -3 -10q0 -2 -1 -2l-5 -9q-20 -33 -42 -67.5t-47 -67t-54.5 -62t-63.5 -52.5q-34 -22 -66 -22q-41 0 -62 29q-21 25 -21 74v9t1 9q-29 -35 -54 -51.5t-49 -16.5q-41 0 -68 36.5t-27 91.5q0 42 15.5 88t41.5 85
q29 43 64 66q40 28 83 28q37 0 60 -24q9 -11 15 -24l6 16l7 16q6 16 16 40t22 52t26 58.5t30 60.5q42 80 77.5 118t68.5 38q26 0 41 -20q12 -17 12 -43q0 -22 -8.5 -50t-20.5 -55.5t-24.5 -51.5t-20.5 -39q-31 -55 -64.5 -101.5t-59.5 -71.5q-17 -42 -33.5 -84.5t-29.5 -81
t-21.5 -70t-8.5 -50.5q0 -10 1.5 -14.5t2.5 -6.5q1 -1 2 -1q9 0 23 9v1q60 40 101.5 98t83.5 128l6 10q5 13 22 13zM80 95q3 0 9 2t16 9t23.5 21.5t30.5 40.5h1q18 26 31 49.5t19 35.5l11 34q-9 -3 -18 -3h-1q-16 0 -27 11t-11 27t11 27.5t27 11.5q6 0 14 -3q-1 5 -4 11.5
t-11 6.5q-9 0 -30.5 -21.5t-49.5 -74.5q-23 -45 -37 -89t-14 -73q0 -10 1.5 -14.5t2.5 -6.5l1.5 -1.5t4.5 -0.5zM676 623q0 -18 -5 -39.5t-17 -42.5t-31.5 -39.5t-47.5 -31.5q-6 -4 -13 -4q-11 0 -18.5 7t-7.5 18q0 8 4 12.5t6 6.5l1 1l2 1q9 6 17.5 21t16 34t12 39t4.5 36
q0 8 -2.5 14.5t-4.5 10.5q-2 3 -3.5 5.5t-1.5 7.5q0 10 8 17.5t18 7.5q29 0 48 -31q7 -11 11 -24.5t4 -25.5v-1zM457 574q19 35 32 66t19 54q-11 -25 -26 -59t-33 -76q2 4 4 7.5t4 7.5z" />
    <glyph glyph-name="lcaron" unicode="&#x13e;" horiz-adv-x="412" 
d="M299 302q11 0 17 -7q2 -2 5.5 -6.5t3.5 -12.5q0 -6 -3 -10q0 -2 -1 -2l-5 -9q-20 -33 -42 -67.5t-47 -67t-54.5 -62t-63.5 -52.5q-34 -22 -66 -22q-41 0 -62 29q-21 25 -21 74q0 32 7 69t19.5 77t28.5 82.5t33 84.5l7 16q6 16 16 40t22 52t26 58.5t30 60.5
q42 80 77.5 118t68.5 38q26 0 41 -20q12 -17 12 -43q0 -22 -8.5 -50t-20.5 -55.5t-24.5 -51.5t-20.5 -39q-31 -55 -64.5 -101.5t-59.5 -71.5q-17 -42 -33.5 -84.5t-29.5 -81t-21.5 -70t-8.5 -50.5q0 -10 1.5 -14.5t2.5 -6.5q1 -1 2 -1q9 0 23 9v1q60 40 101.5 98t83.5 128
l6 10q5 13 22 13zM361 480q-11 0 -18.5 7t-7.5 18q0 8 4 12.5t6 6.5l3 2q9 6 17.5 21t16 34t12 39t4.5 36q0 8 -2.5 14.5t-4.5 10.5q-2 3 -3.5 5.5t-1.5 7.5q0 10 8 17.5t18 7.5q29 0 48 -31q7 -11 11 -24.5t4 -25.5v-1q0 -18 -5 -39.5t-17 -42.5t-31.5 -39.5t-47.5 -31.5
q-6 -4 -13 -4zM240 570q19 35 32 66t19 54q-11 -25 -26 -59t-33 -76q2 4 4 7.5t4 7.5z" />
    <glyph glyph-name="tcaron" unicode="&#x165;" horiz-adv-x="370" 
d="M565 649q30 -21 30 -51q0 -16 -11 -27t-28 -11q-16 0 -27 11t-11 27q0 5 1 8.5t3 7.5q-9 3 -21 3q-45 -2 -75 -8t-61 -14l-57 -13q-16 -35 -36.5 -70.5t-42 -68t-43 -59t-39.5 -43.5q-17 -42 -33.5 -84.5t-29.5 -81t-21.5 -70t-8.5 -50.5q0 -10 1.5 -14.5t2.5 -6.5
q1 -1 2 -1q9 0 23 9v1q30 20 55 44.5t47 53.5t42.5 61t41.5 67l5 10q6 13 22 13q11 0 18 -7q2 -2 5 -6.5t3 -12.5q0 -7 -2 -10q-1 -1 -1 -2l-5 -9q-20 -33 -42 -67.5t-47.5 -67t-55 -62t-63.5 -52.5q-34 -22 -66 -22q-39 0 -62 29q-21 25 -21 74q0 33 7.5 71t20.5 78.5
t28.5 82t32.5 81.5l9 22q8 22 21.5 54t30.5 70q-50 -9 -83 -9h-1q-40 0 -64 15q-27 18 -29 48q-1 1 -1 2q0 19 10.5 30.5t27.5 11.5t28 -11.5t11 -27.5q0 -9 -3 -16q5 -1 10 -1.5t10 -0.5h1q37 0 109 15q47 93 85.5 137t73.5 44q24 0 38.5 -17t14.5 -46q0 -31 -15 -71l15 3
l41 9q68 16 114 16q39 0 65 -18zM539 843q0 -18 -5 -39.5t-17 -42.5t-31.5 -39.5t-47.5 -31.5q-6 -4 -13 -4q-11 0 -18.5 7t-7.5 18q0 8 4 12.5t6 6.5l1 1l2 1q9 6 17.5 21t16 34t12 39t4.5 36q0 8 -2.5 14.5t-4.5 10.5q-2 3 -3.5 5.5t-1.5 7.5q0 10 8 17.5t18 7.5
q29 0 48 -31q7 -11 11 -24.5t4 -25.5v-1zM272 625q14 36 20 61l-3 -6l-1 -1l-25 -56zM243 566q-2 -1 -5 -1q-4 -8 -7.5 -16.5t-6.5 -17.5z" />
    <glyph glyph-name="dcroat" unicode="&#x111;" horiz-adv-x="484" 
d="M486 513q-31 -54 -63.5 -98.5t-59.5 -70.5q-17 -42 -33.5 -84.5t-29.5 -81t-21.5 -70t-8.5 -50.5q0 -10 1.5 -14.5t2.5 -6.5q1 -1 2 -1q9 0 23 9v1q30 20 55 44.5t47 53.5t42.5 61t41.5 67l5 10q6 13 22 13q11 0 18 -7q2 -2 5 -6.5t3 -12.5q0 -7 -2 -10q-1 -1 -1 -2
l-5 -9q-20 -33 -42 -67.5t-47.5 -67t-55 -62t-63.5 -52.5q-34 -22 -66 -22q-39 0 -62 29q-21 25 -21 74q0 5 0.5 9t0.5 9q-28 -35 -53 -51.5t-50 -16.5q-41 0 -68 36.5t-27 91.5q0 42 15.5 88t42.5 85q28 42 63 66q40 28 83 28q37 0 60 -24q10 -11 15 -24q4 6 7 16l7 18
q8 20 20 49t26 62q-29 0 -55 -1t-40 -3h-3q-13 0 -21.5 8t-8.5 22q0 11 5.5 24.5t16.5 31.5q6 9 18 9l128 -6q17 34 34 61.5t32 47.5q46 60 87 60q27 0 41 -20q12 -17 12 -43q0 -38 -32 -115l16 -1q3 0 5 -1q24 -6 24 -32q0 -9 -3 -15t-6 -10q-11 -10 -26.5 -11.5
t-35.5 -1.5h-10zM76 84q3 0 9 2t16 9t23.5 21.5t31.5 40.5t31.5 49.5t19.5 35.5q2 8 5 16.5t6 17.5q-9 -3 -19 -3h-1q-16 0 -27 11t-11 27t11 27.5t27 11.5q8 0 14 -3q-1 5 -4 11.5t-11 6.5t-30 -21.5t-49 -74.5q-23 -45 -37.5 -89t-14.5 -73q0 -10 1.5 -14.5t2.5 -6.5
q2 -2 6 -2zM477 621l-4 -10l-4 -10l6 -1q25 52 33 89l-3 -6z" />
    <glyph glyph-name="lslash" unicode="&#x142;" horiz-adv-x="269" 
d="M295 294q11 0 17 -7q2 -2 5.5 -6.5t3.5 -12.5q0 -6 -3 -10q0 -2 -1 -2l-5 -9q-20 -33 -42 -67.5t-47 -67t-54.5 -62t-63.5 -52.5q-34 -22 -66 -22q-41 0 -62 29q-21 25 -21 74q0 37 16 98l-3 -1q-5 -2 -8 -2.5t-6 -0.5q-4 0 -13 3.5t-14 18.5q-3 10 -3 25q0 10 0.5 18
t1.5 13q2 12 14 16l63 21l20 52t20 51l7 17q6 16 16 40t22 52t26 58.5t30 60.5q42 80 77.5 118t68.5 38q26 0 41 -20q12 -17 12 -43q0 -22 -8.5 -50t-20.5 -55.5t-24.5 -51.5t-20.5 -39q-31 -55 -64.5 -101.5t-59.5 -71.5l-4 -9l5 2q2 1 7 1h3q14 0 23.5 -10t9.5 -26
q0 -17 -20 -29t-57 -28l-7 -3l-35 -101q-10 -29 -13.5 -50t-4.5 -33q0 -10 1.5 -14.5t2.5 -6.5q1 -1 2 -1q9 0 23 9v1q60 40 101.5 98t83.5 128l6 10q5 13 22 13zM236 562q19 35 32 66t19 54q-11 -25 -26 -59t-33 -76q2 4 4 7.5t4 7.5z" />
    <glyph glyph-name="oslash" unicode="&#xf8;" horiz-adv-x="507" 
d="M578 303q5 -5 5.5 -10.5t0.5 -7.5q0 -10 -6 -17q-51 -57 -113 -88.5t-122 -31.5h-11t-11 1q-43 -76 -96.5 -116.5t-112.5 -40.5q-46 0 -80 20q-4 -4 -8 -5q-3 -1 -6.5 -2t-8.5 -1q-15 0 -24 11t-11 24q-2 10 5 17l9 9q-16 34 -16 77q0 40 11.5 84t31.5 80q25 45 58.5 69
t71.5 24h12q3 30 12 57.5t24 49.5q19 26 43.5 40.5t52.5 14.5q30 0 48.5 -12.5t29.5 -29.5q13 16 27 16q17 0 25 -13.5t10 -19.5q4 -9 6 -18t3 -14q1 -11 -5 -17l-40 -45q-1 -48 -13 -101t-32 -103q10 -2 17 -2q21 0 45 8.5t47.5 22.5t44.5 32t38 37l1 1q5 5 10.5 6t7.5 1
q12 0 19 -7zM207 85q37 31 64 77q-36 14 -62 44l-117 -128q8 -19 19.5 -23.5t20.5 -4.5q17 0 36 9t39 26zM168 280q-7 26 -10 53q-11 -10 -21.5 -25t-19.5 -35q-11 -22 -18.5 -45t-12.5 -45zM326 492q-8 11 -15 11q-20 0 -36 -39q-8 -17 -12 -37t-6 -40l76 91q-4 10 -7 14z
M275 278q13 -25 30 -44q23 53 32 112z" />
    <glyph glyph-name="ae" unicode="&#xe6;" horiz-adv-x="581" 
d="M630 282q2 -3 3 -6t1 -8v-2q0 -7 -4 -11l-33 -50q-21 -32 -43.5 -65t-49.5 -65q-18 -21 -38 -42.5t-44 -39.5q-59 -44 -118 -44q-22 0 -44 8t-39.5 26.5t-29 48t-11.5 72.5q-60 -76 -110 -76q-41 0 -68 36.5t-27 91.5q0 42 15.5 88t41.5 85q29 43 64 66q40 28 83 28
q37 0 60 -24q19 -21 21 -54q22 32 47 55q32 30 66 46t66 16q59 0 59 -58q0 -41 -21 -83q-9 -17 -22 -35.5t-30 -36.5q-31 -35 -67.5 -64t-65.5 -49q-14 -47 -14 -80q0 -17 3.5 -27.5t9 -16t12.5 -7t15 -1.5q10 0 23.5 4t31.5 15.5t40.5 31t49.5 51.5q19 23 37.5 47
t34.5 47.5t29.5 44.5t23.5 37l3 3q8 8 19 8h2q12 0 18 -11zM75 82q3 0 9 2t16 9t23.5 21.5t30.5 40.5q18 26 31.5 50t20.5 36q3 9 6.5 17.5t7.5 17.5q-12 -5 -22 -5h-1q-16 0 -27 11t-11 27t11 27.5t27 11.5q6 0 14 -3q-1 5 -4 11.5t-11 6.5q-9 0 -30.5 -21.5t-49.5 -74.5
q-23 -45 -37 -89t-14 -73q0 -10 1.5 -14.5t2.5 -6.5l1.5 -1.5t4.5 -0.5zM325 225q16 13 31 27t29 29q62 65 62 117q0 7 -2 9q-3 -1 -12 -8.5t-26 -30.5q-15 -19 -30.5 -44t-29.5 -54q-6 -11 -11.5 -22.5t-10.5 -22.5z" />
    <glyph glyph-name="oe" unicode="&#x153;" horiz-adv-x="675" 
d="M725 280q4 -6 4 -14v-2q0 -7 -3 -11q-8 -12 -16.5 -24.5t-16.5 -25.5q-22 -32 -44.5 -64.5t-48.5 -64.5q-18 -22 -38.5 -43t-44.5 -40q-59 -44 -118 -44q-25 0 -47 9.5t-38 27.5q-31 32 -37 91q-14 -19 -28.5 -34t-29.5 -27q-56 -44 -116 -44q-67 0 -104 42
q-36 39 -36 108q0 41 11.5 85t31.5 79q25 45 58.5 69t71.5 24h12q6 64 36 107q38 55 96 55q53 0 80 -44q24 -38 24 -105v-9q11 11 22 21.5t24 19.5q26 19 53 28.5t51 9.5q59 0 59 -58q0 -40 -21 -82q-17 -35 -51 -73q-32 -35 -68.5 -64t-65.5 -49q-14 -47 -14 -80
q0 -34 12.5 -43t27.5 -9q10 0 24 4t32 15.5t40.5 31.5t49.5 52q19 22 37 46.5t34 47.5t29.5 44t24.5 37q0 2 2 4q7 7 19 7h2q13 0 18 -11zM123 28q29 0 68.5 29.5t70.5 82.5q-42 18 -71 56q-38 50 -42 116q-14 -13 -27.5 -34.5t-24.5 -48t-17.5 -56t-6.5 -57.5q0 -48 17 -70
q12 -18 33 -18zM317 471q-8 10 -15 10q-20 0 -36 -39q-19 -43 -19 -95q0 -38 12 -71.5t35 -59.5q5 17 11 32.5t14 31.5q8 28 11.5 57t3.5 55q0 54 -17 79zM421 223q16 14 31 27.5t29 28.5q61 64 61 117q0 8 -1 10q-3 -2 -12.5 -9t-26.5 -30q-14 -20 -29.5 -45t-30.5 -54
q-5 -11 -10.5 -22.5t-10.5 -22.5z" />
    <glyph glyph-name="thorn" unicode="&#xfe;" horiz-adv-x="462" 
d="M486 293q11 0 18 -7t7 -18q0 -10 -4 -15q-20 -33 -50.5 -77.5t-71.5 -86.5q-97 -100 -201 -112q-26 -8 -48 -8q-37 0 -59 24q-18 18 -21 46l-7 -14q-7 -29 -13.5 -56.5t-11.5 -52.5q-13 -55 -20.5 -85.5t-11 -46t-5.5 -19.5l-3 -6q-20 -31 -64 -31q-19 0 -39 7
q-14 5 -14 19q0 1 0.5 3t2 10t5.5 23.5t11 43.5l43 173q12 45 25.5 97t27 103.5t27 99.5t25.5 85q60 186 104 277q27 54 50 79t46 25q17 0 30.5 -9.5t20.5 -20.5q0 -1 0.5 -1.5t0.5 -2.5q4 -5 5.5 -11.5t2.5 -9.5v-1q1 -6 1.5 -12.5t0.5 -14.5q0 -35 -15.5 -87.5
t-43.5 -112.5q-27 -55 -55 -96.5t-52 -61.5q-7 -20 -14.5 -45.5t-15.5 -54.5q11 17 20 31.5t19 27.5q54 73 106 73q44 0 70 -41q24 -35 24 -88q0 -30 -8.5 -64.5t-24.5 -67.5l-7.5 -15t-8.5 -14q28 21 53.5 47t46.5 52t37 49.5t26 38.5l12 17q3 5 8 10t13 5zM105 47
q0 -5 3 -11.5t11 -6.5q9 0 31 21.5t49 74.5q23 45 37 89t14 73q0 10 -1 14.5t-2 6.5q-2 2 -7 2q-4 0 -11.5 -3t-18 -12.5t-24.5 -27t-32 -45.5q-15 -24 -29.5 -50.5t-30.5 -56.5q10 4 23 6h1q16 0 27 -11t11 -27q0 -17 -11 -28t-27 -11q-7 0 -13 3zM174 474q7 13 13.5 25.5
t12.5 26.5q29 65 40 115q-29 -62 -66 -167z" />
    <glyph glyph-name="A" unicode="A" horiz-adv-x="1268" 
d="M1311 288q8 -8 8 -18q0 -4 -3 -12.5t-21 -39.5q-30 -50 -84 -127q-82 -119 -142.5 -175.5t-107.5 -56.5q-41 0 -63 34q-18 27 -18 73q0 63 27 151.5t65 188.5q-24 -5 -48 -11.5t-47 -12.5q-30 -8 -60.5 -16t-60.5 -14q-44 -72 -83 -121.5t-77 -83.5q-84 -74 -176 -74
q-58 0 -102 26t-70 77q-47 -15 -85 -15q-27 0 -48 5.5t-37 14.5t-27.5 19.5t-19.5 20.5q-16 21 -24.5 48t-8.5 54q0 29 11 54q0 1 1 2l4 7q0 1 1 2q12 15 30 15q16 0 27.5 -11.5t11.5 -27.5q0 -15 -10 -25.5t-25 -12.5v-3q0 -24 8.5 -44.5t24 -35.5t36.5 -23.5t46 -8.5
q30 0 66 12q-12 43 -12 92q0 58 15 110.5t44 94.5q29 43 67.5 66t82.5 23q25 0 48.5 -7t42 -20.5t30 -34t11.5 -47.5v-1q-2 -33 -21 -72.5t-54 -81.5q-32 -38 -71 -71.5t-83 -59.5q44 -85 112 -85q62 0 135 68q29 27 58 64t58 83h-18q-37 0 -62 14q-28 17 -32 48v3
q0 19 10.5 30.5t27.5 11.5q16 0 27.5 -11.5t11.5 -27.5q0 -9 -4 -16q5 -1 10 -1.5t11 -0.5h1q20 0 49 3q27 48 51.5 94.5t45.5 89.5q31 60 58 111.5t56 89.5q66 88 140 88q51 0 81 -27q35 -30 35 -84q0 -23 -6.5 -54.5t-17 -69t-24.5 -80t-29 -87.5q14 -3 28 -10
q36 -19 36 -54q0 -16 -11.5 -27t-27.5 -11t-27 11t-11 27q0 8 3 16q-2 0 -3 0.5t-3 0.5l-6 -17q-15 -47 -33 -103t-33.5 -109t-26 -97.5t-10.5 -68.5v-8q3 2 8 5t12 8l32 28l1 1q53 53 128 158q12 18 25.5 38.5t27 41.5t26 41.5t21.5 38.5q0 2 2 4q5 9 11.5 11t9.5 2
q11 0 17 -7zM1060 717q-39 0 -91 -76q-26 -38 -52.5 -88t-55.5 -106q-17 -34 -35 -68t-37 -69q20 5 41 10.5t42 11.5q7 2 19 5t26 6l75 19q16 43 32.5 89.5t30 89.5t22 79.5t8.5 60.5q0 27 -8 31.5t-17 4.5zM509 400q0 30 -15.5 39t-32.5 9q-36 0 -64 -23t-48 -57.5
t-30.5 -75.5t-10.5 -77q0 -14 1.5 -27t3.5 -26q42 25 77.5 57t61.5 65t41 63t16 53z" />
    <glyph glyph-name="Agrave" unicode="&#xc0;" horiz-adv-x="1268" 
d="M1311 288q8 -8 8 -18q0 -4 -3 -12.5t-21 -39.5q-30 -50 -84 -127q-82 -119 -142.5 -175.5t-107.5 -56.5q-41 0 -63 34q-18 27 -18 73q0 63 27 151.5t65 188.5q-24 -5 -48 -11.5t-47 -12.5q-30 -8 -60.5 -16t-60.5 -14q-44 -72 -83 -121.5t-77 -83.5q-84 -74 -176 -74
q-58 0 -102 26t-70 77q-47 -15 -85 -15q-27 0 -48 5.5t-37 14.5t-27.5 19.5t-19.5 20.5q-16 21 -24.5 48t-8.5 54q0 29 11 54q0 1 1 2l4 7q0 1 1 2q12 15 30 15q16 0 27.5 -11.5t11.5 -27.5q0 -15 -10 -25.5t-25 -12.5v-3q0 -24 8.5 -44.5t24 -35.5t36.5 -23.5t46 -8.5
q30 0 66 12q-12 43 -12 92q0 58 15 110.5t44 94.5q29 43 67.5 66t82.5 23q25 0 48.5 -7t42 -20.5t30 -34t11.5 -47.5v-1q-2 -33 -21 -72.5t-54 -81.5q-32 -38 -71 -71.5t-83 -59.5q44 -85 112 -85q62 0 135 68q29 27 58 64t58 83h-18q-37 0 -62 14q-28 17 -32 48v3
q0 19 10.5 30.5t27.5 11.5q16 0 27.5 -11.5t11.5 -27.5q0 -9 -4 -16q5 -1 10 -1.5t11 -0.5h1q20 0 49 3q27 48 51.5 94.5t45.5 89.5q31 60 58 111.5t56 89.5q66 88 140 88q51 0 81 -27q35 -30 35 -84q0 -23 -6.5 -54.5t-17 -69t-24.5 -80t-29 -87.5q14 -3 28 -10
q36 -19 36 -54q0 -16 -11.5 -27t-27.5 -11t-27 11t-11 27q0 8 3 16q-2 0 -3 0.5t-3 0.5l-6 -17q-15 -47 -33 -103t-33.5 -109t-26 -97.5t-10.5 -68.5v-8q3 2 8 5t12 8l32 28l1 1q53 53 128 158q12 18 25.5 38.5t27 41.5t26 41.5t21.5 38.5q0 2 2 4q5 9 11.5 11t9.5 2
q11 0 17 -7zM1060 717q-39 0 -91 -76q-26 -38 -52.5 -88t-55.5 -106q-17 -34 -35 -68t-37 -69q20 5 41 10.5t42 11.5q7 2 19 5t26 6l75 19q16 43 32.5 89.5t30 89.5t22 79.5t8.5 60.5q0 27 -8 31.5t-17 4.5zM509 400q0 30 -15.5 39t-32.5 9q-36 0 -64 -23t-48 -57.5
t-30.5 -75.5t-10.5 -77q0 -14 1.5 -27t3.5 -26q42 25 77.5 57t61.5 65t41 63t16 53zM1109 870q6 -9 6 -19q0 -23 -26 -35q-6 -2 -9 -2q-6 0 -10 3q-16 9 -27.5 16t-23.5 15q-14 8 -28.5 17.5t-34.5 21.5h-1q-8 5 -10.5 12t-2.5 12q0 17 16.5 28.5t38.5 21.5h1q11 7 22 -4
l86 -84z" />
    <glyph glyph-name="Aacute" unicode="&#xc1;" horiz-adv-x="1268" 
d="M1311 288q8 -8 8 -18q0 -4 -3 -12.5t-21 -39.5q-30 -50 -84 -127q-82 -119 -142.5 -175.5t-107.5 -56.5q-41 0 -63 34q-18 27 -18 73q0 63 27 151.5t65 188.5q-24 -5 -48 -11.5t-47 -12.5q-30 -8 -60.5 -16t-60.5 -14q-44 -72 -83 -121.5t-77 -83.5q-84 -74 -176 -74
q-58 0 -102 26t-70 77q-47 -15 -85 -15q-27 0 -48 5.5t-37 14.5t-27.5 19.5t-19.5 20.5q-16 21 -24.5 48t-8.5 54q0 29 11 54q0 1 1 2l4 7q0 1 1 2q12 15 30 15q16 0 27.5 -11.5t11.5 -27.5q0 -15 -10 -25.5t-25 -12.5v-3q0 -24 8.5 -44.5t24 -35.5t36.5 -23.5t46 -8.5
q30 0 66 12q-12 43 -12 92q0 58 15 110.5t44 94.5q29 43 67.5 66t82.5 23q25 0 48.5 -7t42 -20.5t30 -34t11.5 -47.5v-1q-2 -33 -21 -72.5t-54 -81.5q-32 -38 -71 -71.5t-83 -59.5q44 -85 112 -85q62 0 135 68q29 27 58 64t58 83h-18q-37 0 -62 14q-28 17 -32 48v3
q0 19 10.5 30.5t27.5 11.5q16 0 27.5 -11.5t11.5 -27.5q0 -9 -4 -16q5 -1 10 -1.5t11 -0.5h1q20 0 49 3q27 48 51.5 94.5t45.5 89.5q31 60 58 111.5t56 89.5q66 88 140 88q51 0 81 -27q35 -30 35 -84q0 -23 -6.5 -54.5t-17 -69t-24.5 -80t-29 -87.5q14 -3 28 -10
q36 -19 36 -54q0 -16 -11.5 -27t-27.5 -11t-27 11t-11 27q0 8 3 16q-2 0 -3 0.5t-3 0.5l-6 -17q-15 -47 -33 -103t-33.5 -109t-26 -97.5t-10.5 -68.5v-8q3 2 8 5t12 8l32 28l1 1q53 53 128 158q12 18 25.5 38.5t27 41.5t26 41.5t21.5 38.5q0 2 2 4q5 9 11.5 11t9.5 2
q11 0 17 -7zM1060 717q-39 0 -91 -76q-26 -38 -52.5 -88t-55.5 -106q-17 -34 -35 -68t-37 -69q20 5 41 10.5t42 11.5q7 2 19 5t26 6l75 19q16 43 32.5 89.5t30 89.5t22 79.5t8.5 60.5q0 27 -8 31.5t-17 4.5zM509 400q0 30 -15.5 39t-32.5 9q-36 0 -64 -23t-48 -57.5
t-30.5 -75.5t-10.5 -77q0 -14 1.5 -27t3.5 -26q42 25 77.5 57t61.5 65t41 63t16 53zM1116 815q-17 8 -22.5 17.5t-5.5 17.5q0 12 10 22l86 84q10 10 23 4h1q21 -10 37.5 -21.5t16.5 -28.5q0 -5 -2 -12t-10 -12h-2q-20 -12 -34.5 -21.5t-27.5 -17.5l-51 -31q-6 -3 -11 -3
q-4 0 -8 2z" />
    <glyph glyph-name="Acircumflex" unicode="&#xc2;" horiz-adv-x="1268" 
d="M1311 288q8 -8 8 -18q0 -4 -3 -12.5t-21 -39.5q-30 -50 -84 -127q-82 -119 -142.5 -175.5t-107.5 -56.5q-41 0 -63 34q-18 27 -18 73q0 63 27 151.5t65 188.5q-24 -5 -48 -11.5t-47 -12.5q-30 -8 -60.5 -16t-60.5 -14q-44 -72 -83 -121.5t-77 -83.5q-84 -74 -176 -74
q-58 0 -102 26t-70 77q-47 -15 -85 -15q-27 0 -48 5.5t-37 14.5t-27.5 19.5t-19.5 20.5q-16 21 -24.5 48t-8.5 54q0 29 11 54q0 1 1 2l4 7q0 1 1 2q12 15 30 15q16 0 27.5 -11.5t11.5 -27.5q0 -15 -10 -25.5t-25 -12.5v-3q0 -24 8.5 -44.5t24 -35.5t36.5 -23.5t46 -8.5
q30 0 66 12q-12 43 -12 92q0 58 15 110.5t44 94.5q29 43 67.5 66t82.5 23q25 0 48.5 -7t42 -20.5t30 -34t11.5 -47.5v-1q-2 -33 -21 -72.5t-54 -81.5q-32 -38 -71 -71.5t-83 -59.5q44 -85 112 -85q62 0 135 68q29 27 58 64t58 83h-18q-37 0 -62 14q-28 17 -32 48v3
q0 19 10.5 30.5t27.5 11.5q16 0 27.5 -11.5t11.5 -27.5q0 -9 -4 -16q5 -1 10 -1.5t11 -0.5h1q20 0 49 3q27 48 51.5 94.5t45.5 89.5q31 60 58 111.5t56 89.5q66 88 140 88q51 0 81 -27q35 -30 35 -84q0 -23 -6.5 -54.5t-17 -69t-24.5 -80t-29 -87.5q14 -3 28 -10
q36 -19 36 -54q0 -16 -11.5 -27t-27.5 -11t-27 11t-11 27q0 8 3 16q-2 0 -3 0.5t-3 0.5l-6 -17q-15 -47 -33 -103t-33.5 -109t-26 -97.5t-10.5 -68.5v-8q3 2 8 5t12 8l32 28l1 1q53 53 128 158q12 18 25.5 38.5t27 41.5t26 41.5t21.5 38.5q0 2 2 4q5 9 11.5 11t9.5 2
q11 0 17 -7zM1060 717q-39 0 -91 -76q-26 -38 -52.5 -88t-55.5 -106q-17 -34 -35 -68t-37 -69q20 5 41 10.5t42 11.5q7 2 19 5t26 6l75 19q16 43 32.5 89.5t30 89.5t22 79.5t8.5 60.5q0 27 -8 31.5t-17 4.5zM509 400q0 30 -15.5 39t-32.5 9q-36 0 -64 -23t-48 -57.5
t-30.5 -75.5t-10.5 -77q0 -14 1.5 -27t3.5 -26q42 25 77.5 57t61.5 65t41 63t16 53zM1189 844q3 -5 3 -10v-2q0 -11 -7 -18t-17 -7q-11 0 -18 6l-38 28l-69 -31q-6 -3 -14 -3q-10 0 -17 7t-7 17q0 8 3.5 13t6.5 7l92 75q2 2 3.5 2.5t3.5 1.5q4 2 9 2h1q3 0 9 -2
q2 -1 5.5 -3.5t6.5 -7.5z" />
    <glyph glyph-name="Atilde" unicode="&#xc3;" horiz-adv-x="1268" 
d="M1315 290q8 -8 8 -18q0 -4 -3 -12.5t-21 -39.5q-30 -50 -84 -127q-82 -119 -142.5 -175.5t-107.5 -56.5q-41 0 -63 34q-18 27 -18 73q0 63 27 151.5t65 188.5q-24 -5 -48 -11.5t-47 -12.5q-30 -8 -60.5 -16t-60.5 -14q-44 -72 -83 -121.5t-77 -83.5q-84 -74 -176 -74
q-58 0 -102 26t-70 77q-47 -15 -85 -15q-27 0 -48 5.5t-37 14.5t-27.5 19.5t-19.5 20.5q-16 21 -24.5 48t-8.5 54q0 29 11 54q0 1 1 2l4 7q0 1 1 2q12 15 30 15q16 0 27.5 -11.5t11.5 -27.5q0 -15 -10 -25.5t-25 -12.5v-3q0 -24 8.5 -44.5t24 -35.5t36.5 -23.5t46 -8.5
q30 0 66 12q-12 43 -12 92q0 58 15 110.5t44 94.5q29 43 67.5 66t82.5 23q25 0 48.5 -7t42 -20.5t30 -34t11.5 -47.5v-1q-2 -33 -21 -72.5t-54 -81.5q-32 -38 -71 -71.5t-83 -59.5q44 -85 112 -85q62 0 135 68q29 27 58 64t58 83h-18q-37 0 -62 14q-28 17 -32 48v3
q0 19 10.5 30.5t27.5 11.5q16 0 27.5 -11.5t11.5 -27.5q0 -9 -4 -16q5 -1 10 -1.5t11 -0.5h1q20 0 49 3q27 48 51.5 94.5t45.5 89.5q31 60 58 111.5t56 89.5q66 88 140 88q51 0 81 -27q35 -30 35 -84q0 -23 -6.5 -54.5t-17 -69t-24.5 -80t-29 -87.5q14 -3 28 -10
q36 -19 36 -54q0 -16 -11.5 -27t-27.5 -11t-27 11t-11 27q0 8 3 16q-2 0 -3 0.5t-3 0.5l-6 -17q-15 -47 -33 -103t-33.5 -109t-26 -97.5t-10.5 -68.5v-8q3 2 8 5t12 8l32 28l1 1q53 53 128 158q12 18 25.5 38.5t27 41.5t26 41.5t21.5 38.5q0 2 2 4q5 9 11.5 11t9.5 2
q11 0 17 -7zM1064 719q-39 0 -91 -76q-26 -38 -52.5 -88t-55.5 -106q-17 -34 -35 -68t-37 -69q20 5 41 10.5t42 11.5q7 2 19 5t26 6l75 19q16 43 32.5 89.5t30 89.5t22 79.5t8.5 60.5q0 27 -8 31.5t-17 4.5zM513 402q0 30 -15.5 39t-32.5 9q-36 0 -64 -23t-48 -57.5
t-30.5 -75.5t-10.5 -77q0 -14 1.5 -27t3.5 -26q42 25 77.5 57t61.5 65t41 63t16 53zM1007 817q-10 0 -17 7t-7 18q0 20 7 34t17 23t22 13t23 4q19 0 39 -7t40 -15q14 -5 27.5 -10t22.5 -5q2 0 3.5 2t3.5 4q4 5 9.5 9t13.5 4q11 0 18 -7t7 -18v-1q0 -5 -1 -7q-15 -38 -37 -50
t-40 -12q-20 0 -39.5 7t-36.5 15q-13 5 -24.5 10t-19.5 5q-3 0 -4.5 -1t-3.5 -6q-1 -1 -1 -2q-5 -10 -12 -12t-10 -2z" />
    <glyph glyph-name="Adieresis" unicode="&#xc4;" horiz-adv-x="1268" 
d="M1311 288q8 -8 8 -18q0 -4 -3 -12.5t-21 -39.5q-30 -50 -84 -127q-82 -119 -142.5 -175.5t-107.5 -56.5q-41 0 -63 34q-18 27 -18 73q0 63 27 151.5t65 188.5q-24 -5 -48 -11.5t-47 -12.5q-30 -8 -60.5 -16t-60.5 -14q-44 -72 -83 -121.5t-77 -83.5q-84 -74 -176 -74
q-58 0 -102 26t-70 77q-47 -15 -85 -15q-27 0 -48 5.5t-37 14.5t-27.5 19.5t-19.5 20.5q-16 21 -24.5 48t-8.5 54q0 29 11 54q0 1 1 2l4 7q0 1 1 2q12 15 30 15q16 0 27.5 -11.5t11.5 -27.5q0 -15 -10 -25.5t-25 -12.5v-3q0 -24 8.5 -44.5t24 -35.5t36.5 -23.5t46 -8.5
q30 0 66 12q-12 43 -12 92q0 58 15 110.5t44 94.5q29 43 67.5 66t82.5 23q25 0 48.5 -7t42 -20.5t30 -34t11.5 -47.5v-1q-2 -33 -21 -72.5t-54 -81.5q-32 -38 -71 -71.5t-83 -59.5q44 -85 112 -85q62 0 135 68q29 27 58 64t58 83h-18q-37 0 -62 14q-28 17 -32 48v3
q0 19 10.5 30.5t27.5 11.5q16 0 27.5 -11.5t11.5 -27.5q0 -9 -4 -16q5 -1 10 -1.5t11 -0.5h1q20 0 49 3q27 48 51.5 94.5t45.5 89.5q31 60 58 111.5t56 89.5q66 88 140 88q51 0 81 -27q35 -30 35 -84q0 -23 -6.5 -54.5t-17 -69t-24.5 -80t-29 -87.5q14 -3 28 -10
q36 -19 36 -54q0 -16 -11.5 -27t-27.5 -11t-27 11t-11 27q0 8 3 16q-2 0 -3 0.5t-3 0.5l-6 -17q-15 -47 -33 -103t-33.5 -109t-26 -97.5t-10.5 -68.5v-8q3 2 8 5t12 8l32 28l1 1q53 53 128 158q12 18 25.5 38.5t27 41.5t26 41.5t21.5 38.5q0 2 2 4q5 9 11.5 11t9.5 2
q11 0 17 -7zM1060 717q-39 0 -91 -76q-26 -38 -52.5 -88t-55.5 -106q-17 -34 -35 -68t-37 -69q20 5 41 10.5t42 11.5q7 2 19 5t26 6l75 19q16 43 32.5 89.5t30 89.5t22 79.5t8.5 60.5q0 27 -8 31.5t-17 4.5zM509 400q0 30 -15.5 39t-32.5 9q-36 0 -64 -23t-48 -57.5
t-30.5 -75.5t-10.5 -77q0 -14 1.5 -27t3.5 -26q42 25 77.5 57t61.5 65t41 63t16 53zM1049 927q20 0 33.5 -13t13.5 -33q0 -27 -23 -48q-22 -19 -48 -19q-20 0 -33 12t-13 32q0 4 0.5 9t2.5 10q7 21 26 35.5t41 14.5zM1207 927q20 0 33.5 -13t13.5 -33q0 -27 -23 -48
q-22 -19 -48 -19q-20 0 -33 12t-13 32q0 4 0.5 9t2.5 10q7 21 26 35.5t41 14.5z" />
    <glyph glyph-name="Aring" unicode="&#xc5;" horiz-adv-x="1268" 
d="M1311 288q8 -8 8 -18q0 -4 -3 -12.5t-21 -39.5q-30 -50 -84 -127q-82 -119 -142.5 -175.5t-107.5 -56.5q-41 0 -63 34q-18 27 -18 73q0 63 27 151.5t65 188.5q-24 -5 -48 -11.5t-47 -12.5q-30 -8 -60.5 -16t-60.5 -14q-44 -72 -83 -121.5t-77 -83.5q-84 -74 -176 -74
q-58 0 -102 26t-70 77q-47 -15 -85 -15q-27 0 -48 5.5t-37 14.5t-27.5 19.5t-19.5 20.5q-16 21 -24.5 48t-8.5 54q0 29 11 54q0 1 1 2l4 7q0 1 1 2q12 15 30 15q16 0 27.5 -11.5t11.5 -27.5q0 -15 -10 -25.5t-25 -12.5v-3q0 -24 8.5 -44.5t24 -35.5t36.5 -23.5t46 -8.5
q30 0 66 12q-12 43 -12 92q0 58 15 110.5t44 94.5q29 43 67.5 66t82.5 23q25 0 48.5 -7t42 -20.5t30 -34t11.5 -47.5v-1q-2 -33 -21 -72.5t-54 -81.5q-32 -38 -71 -71.5t-83 -59.5q44 -85 112 -85q62 0 135 68q29 27 58 64t58 83h-18q-37 0 -62 14q-28 17 -32 48v3
q0 19 10.5 30.5t27.5 11.5q16 0 27.5 -11.5t11.5 -27.5q0 -9 -4 -16q5 -1 10 -1.5t11 -0.5h1q20 0 49 3q27 48 51.5 94.5t45.5 89.5q31 60 58 111.5t56 89.5q66 88 140 88q51 0 81 -27q35 -30 35 -84q0 -23 -6.5 -54.5t-17 -69t-24.5 -80t-29 -87.5q14 -3 28 -10
q36 -19 36 -54q0 -16 -11.5 -27t-27.5 -11t-27 11t-11 27q0 8 3 16q-2 0 -3 0.5t-3 0.5l-6 -17q-15 -47 -33 -103t-33.5 -109t-26 -97.5t-10.5 -68.5v-8q3 2 8 5t12 8l32 28l1 1q53 53 128 158q12 18 25.5 38.5t27 41.5t26 41.5t21.5 38.5q0 2 2 4q5 9 11.5 11t9.5 2
q11 0 17 -7zM1060 717q-39 0 -91 -76q-26 -38 -52.5 -88t-55.5 -106q-17 -34 -35 -68t-37 -69q20 5 41 10.5t42 11.5q7 2 19 5t26 6l75 19q16 43 32.5 89.5t30 89.5t22 79.5t8.5 60.5q0 27 -8 31.5t-17 4.5zM509 400q0 30 -15.5 39t-32.5 9q-36 0 -64 -23t-48 -57.5
t-30.5 -75.5t-10.5 -77q0 -14 1.5 -27t3.5 -26q42 25 77.5 57t61.5 65t41 63t16 53zM1128 953q26 0 42.5 -16t16.5 -42q0 -18 -7.5 -35t-21.5 -31q-29 -27 -66 -27q-24 0 -39 16q-16 16 -16 42q0 35 27 64q26 29 64 29zM1121 897q0 6 -1 7q-6 -2 -12 -15.5t-6 -28.5
q0 -2 0.5 -4.5t0.5 -4.5q8 5 13 18t5 28z" />
    <glyph glyph-name="Aogonek" unicode="&#x104;" horiz-adv-x="1268" 
d="M1314 286q8 -8 8 -18q0 -4 -3 -12.5t-21 -39.5q-30 -50 -84 -127q-82 -119 -142.5 -175.5t-107.5 -56.5h-3q-9 -9 -20.5 -23.5t-22.5 -32t-18.5 -37t-7.5 -38.5q0 -8 2 -10h2q11 0 28.5 10.5t30.5 24.5l1 1q8 8 19 8q8 0 16 -6.5t8 -17.5q0 -5 -2.5 -10t-4.5 -8
q-10 -11 -23 -21.5t-28.5 -18.5t-32 -13.5t-32.5 -5.5q-31 0 -48.5 16t-17.5 45q0 66 99 161q-26 28 -26 83q0 63 27 151.5t65 188.5q-24 -5 -48 -11.5t-47 -12.5q-30 -8 -60.5 -16t-60.5 -14q-44 -72 -83 -121.5t-77 -83.5q-84 -74 -176 -74q-58 0 -102 26t-70 77
q-47 -15 -85 -15q-27 0 -48 5.5t-37 14.5t-27.5 19.5t-19.5 20.5q-16 21 -24.5 48t-8.5 54q0 29 11 54q0 1 1 2l4 7q0 1 1 2q12 15 30 15q16 0 27.5 -11.5t11.5 -27.5q0 -15 -10 -25.5t-25 -12.5v-3q0 -24 8.5 -44.5t24 -35.5t36.5 -23.5t46 -8.5q30 0 66 12q-12 43 -12 92
q0 58 15 110.5t44 94.5q29 43 67.5 66t82.5 23q25 0 48.5 -7t42 -20.5t30 -34t11.5 -47.5v-1q-2 -33 -21 -72.5t-54 -81.5q-32 -38 -71 -71.5t-83 -59.5q44 -85 112 -85q62 0 135 68q29 27 58 64t58 83h-18q-37 0 -62 14q-28 17 -32 48v3q0 19 10.5 30.5t27.5 11.5
q16 0 27.5 -11.5t11.5 -27.5q0 -9 -4 -16q5 -1 10 -1.5t11 -0.5h1q20 0 49 3q27 48 51.5 94.5t45.5 89.5q31 60 58 111.5t56 89.5q66 88 140 88q51 0 81 -27q35 -30 35 -84q0 -23 -6.5 -54.5t-17 -69t-24.5 -80t-29 -87.5q14 -3 28 -10q36 -19 36 -54q0 -16 -11.5 -27
t-27.5 -11t-27 11t-11 27q0 8 3 16q-2 0 -3 0.5t-3 0.5l-6 -17q-15 -47 -33 -103t-33.5 -109t-26 -97.5t-10.5 -68.5v-8q3 2 8 5t12 8l32 28l1 1q53 53 128 158q12 18 25.5 38.5t27 41.5t26 41.5t21.5 38.5q0 2 2 4q5 9 11.5 11t9.5 2q11 0 17 -7zM1063 715q-39 0 -91 -76
q-26 -38 -52.5 -88t-55.5 -106q-17 -34 -35 -68t-37 -69q20 5 41 10.5t42 11.5q7 2 19 5t26 6l75 19q16 43 32.5 89.5t30 89.5t22 79.5t8.5 60.5q0 27 -8 31.5t-17 4.5zM512 398q0 30 -15.5 39t-32.5 9q-36 0 -64 -23t-48 -57.5t-30.5 -75.5t-10.5 -77q0 -14 1.5 -27
t3.5 -26q42 25 77.5 57t61.5 65t41 63t16 53z" />
    <glyph glyph-name="Abreve" unicode="&#x102;" horiz-adv-x="1268" 
d="M1311 288q8 -8 8 -18q0 -4 -3 -12.5t-21 -39.5q-30 -50 -84 -127q-82 -119 -142.5 -175.5t-107.5 -56.5q-41 0 -63 34q-18 27 -18 73q0 63 27 151.5t65 188.5q-24 -5 -48 -11.5t-47 -12.5q-30 -8 -60.5 -16t-60.5 -14q-44 -72 -83 -121.5t-77 -83.5q-84 -74 -176 -74
q-58 0 -102 26t-70 77q-47 -15 -85 -15q-27 0 -48 5.5t-37 14.5t-27.5 19.5t-19.5 20.5q-16 21 -24.5 48t-8.5 54q0 29 11 54q0 1 1 2l4 7q0 1 1 2q12 15 30 15q16 0 27.5 -11.5t11.5 -27.5q0 -15 -10 -25.5t-25 -12.5v-3q0 -24 8.5 -44.5t24 -35.5t36.5 -23.5t46 -8.5
q30 0 66 12q-12 43 -12 92q0 58 15 110.5t44 94.5q29 43 67.5 66t82.5 23q25 0 48.5 -7t42 -20.5t30 -34t11.5 -47.5v-1q-2 -33 -21 -72.5t-54 -81.5q-32 -38 -71 -71.5t-83 -59.5q44 -85 112 -85q62 0 135 68q29 27 58 64t58 83h-18q-37 0 -62 14q-28 17 -32 48v3
q0 19 10.5 30.5t27.5 11.5q16 0 27.5 -11.5t11.5 -27.5q0 -9 -4 -16q5 -1 10 -1.5t11 -0.5h1q20 0 49 3q27 48 51.5 94.5t45.5 89.5q31 60 58 111.5t56 89.5q66 88 140 88q51 0 81 -27q35 -30 35 -84q0 -23 -6.5 -54.5t-17 -69t-24.5 -80t-29 -87.5q14 -3 28 -10
q36 -19 36 -54q0 -16 -11.5 -27t-27.5 -11t-27 11t-11 27q0 8 3 16q-2 0 -3 0.5t-3 0.5l-6 -17q-15 -47 -33 -103t-33.5 -109t-26 -97.5t-10.5 -68.5v-8q3 2 8 5t12 8l32 28l1 1q53 53 128 158q12 18 25.5 38.5t27 41.5t26 41.5t21.5 38.5q0 2 2 4q5 9 11.5 11t9.5 2
q11 0 17 -7zM1060 717q-39 0 -91 -76q-26 -38 -52.5 -88t-55.5 -106q-17 -34 -35 -68t-37 -69q20 5 41 10.5t42 11.5q7 2 19 5t26 6l75 19q16 43 32.5 89.5t30 89.5t22 79.5t8.5 60.5q0 27 -8 31.5t-17 4.5zM509 400q0 30 -15.5 39t-32.5 9q-36 0 -64 -23t-48 -57.5
t-30.5 -75.5t-10.5 -77q0 -14 1.5 -27t3.5 -26q42 25 77.5 57t61.5 65t41 63t16 53zM1191 932q9 0 16 -6t7 -19v-3q-8 -47 -40 -76q-14 -12 -31.5 -19t-36.5 -7q-16 0 -30.5 6t-25.5 17q-9 8 -17.5 23.5t-8.5 40.5q0 5 0.5 9t1.5 9l1 2q0 10 7 16.5t16 6.5t16.5 -6t7.5 -20
v-7q1 -6 12.5 -11t26.5 -5q17 0 33.5 6.5t19.5 19.5q1 10 8 16.5t17 6.5z" />
    <glyph glyph-name="H" unicode="H" horiz-adv-x="1253" 
d="M1282 297q11 0 17 -6q2 -2 5.5 -7t3.5 -13q0 -5 -3 -9q0 -2 -1 -3l-5 -8q-20 -33 -42 -67.5t-47 -67.5t-54.5 -62.5t-63.5 -51.5q-35 -23 -66 -23q-41 0 -62 29q-21 27 -21 74q0 36 11.5 87.5t34.5 117.5q-75 -22 -143 -29.5t-128 -9.5q-31 -67 -63 -115.5t-67 -82.5
q-38 -36 -79 -54q-40 -18 -89 -20h-2q-57 0 -100 26.5t-69 77.5q-47 -16 -87 -16q-29 0 -57.5 11t-51.5 31q-27 23 -41 54t-14 66q0 6 1 18.5t6 26.5q8 23 20 29t20 6q16 0 27.5 -11t11.5 -28q0 -14 -10 -24.5t-25 -12.5v-4q0 -22 8 -41.5t22.5 -34.5t33.5 -23.5t40 -8.5
q19 0 38 5.5t36 15.5q-9 36 -9 78q0 59 15.5 112t44.5 95q28 42 65 64q39 24 82 24q72 0 108 -39q17 -20 21.5 -40.5t4.5 -29.5q-1 -38 -27 -85q-25 -43 -64 -87q-38 -42 -82.5 -75.5t-90.5 -56.5q20 -35 52 -54t72 -19q50 0 100 59q24 29 48.5 71.5t50.5 102.5
q-32 15 -37 51v2q0 19 10.5 30.5t27.5 11.5q18 0 31 -15q9 24 18 48.5t17 48.5q25 69 48.5 131t48.5 107q-28 6 -57.5 13t-58.5 15q-65 17 -127 30.5t-105 13.5h-1h-12t-10 -2q4 -10 4 -18q0 -16 -11.5 -27t-27.5 -11q-15 0 -25.5 10t-12.5 24v9q3 29 29 47t66 18h1
q24 0 53.5 -4t62 -11t67 -15t69.5 -17q34 -9 65.5 -16.5t60.5 -14.5q7 8 17 18.5t24 19.5t31 15t38 6q5 0 18.5 -1t27.5 -7q23 -10 29.5 -24t6.5 -23q0 -30 -34 -50q-27 -16 -61 -16h-9.5t-9.5 1q-24 -40 -47 -97t-47 -120q-13 -35 -27 -70.5t-28 -70.5q31 2 66.5 6t70.5 10
t69.5 14t64.5 18q3 9 6.5 18t7.5 17q2 4 3 7l2 6l7 17q6 16 16 40t22 52t26 58.5t30 59.5q42 81 77.5 118.5t68.5 37.5q26 0 41 -20q12 -17 12 -43q0 -22 -8.5 -50t-20.5 -55.5t-24.5 -51.5t-20.5 -39q-31 -54 -64.5 -100.5t-59.5 -71.5q-17 -42 -33.5 -84.5t-29.5 -81.5
t-21.5 -70.5t-8.5 -50.5q0 -10 1.5 -14t2.5 -6t2 -2q8 0 23 10q60 40 101.5 98.5t83.5 128.5l6 9q5 13 22 13zM466 415q0 5 -1.5 13t-6 15.5t-12.5 13t-20 5.5q-54 0 -94 -48q-29 -35 -46.5 -87.5t-17.5 -109.5q0 -12 1 -24.5t3 -25.5q34 24 67 55.5t61 66.5q31 38 48.5 72
t17.5 54zM1223 566q19 35 32 66t19 54v-1q-11 -24 -26 -58t-33 -76q2 4 4 7.5t4 7.5z" />
    <glyph glyph-name="T" unicode="T" horiz-adv-x="809" 
d="M1171 772q3 -6 6 -16t3 -20q0 -17 -10.5 -28.5t-27.5 -11.5q-16 0 -27.5 11.5t-11.5 26.5q0 12 8 23q-9 4 -25 7q-30 6 -80 6h-28.5t-29.5 -1l10 -5q13 -7 13 -23q0 -10 -6.5 -17.5t-17.5 -7.5q-7 0 -15 4h-3q-33 0 -68 -72q-18 -38 -35 -87t-34 -106l-9 -27
q-22 -72 -49 -148.5t-65 -142.5q-43 -72 -95 -111q-62 -45 -136 -45q-58 0 -108 31q-23 14 -40.5 32t-28.5 40q-44 -15 -82 -15q-30 0 -60.5 12t-55.5 32q-29 24 -44 56.5t-15 68.5q0 22 5 40q7 23 19.5 28t18.5 5q15 0 26.5 -10.5t13.5 -26.5v-2q0 -14 -9 -24.5t-23 -12.5
q1 -23 10.5 -43.5t24.5 -35.5t33 -24t35 -9q34 0 81 22q-15 45 -15 101q0 58 14.5 107.5t40 86t60 57t75.5 20.5q78 0 114 -43q17 -20 21 -40t4 -32q0 -39 -23 -84q-11 -21 -26 -43t-33 -43q-35 -40 -76.5 -72.5t-85.5 -54.5q7 -12 17.5 -25t26 -24t36.5 -18t48 -7
q43 0 81 39q32 30 61 89q36 75 61 153.5t46 150.5q19 66 36 121t40 97q23 47 55 71q3 3 6.5 5.5t6.5 4.5q-15 -1 -29.5 -1.5t-29.5 -0.5q-81 0 -120 16q-35 13 -45.5 33.5t-10.5 37.5q0 14 10.5 26t27.5 12t28 -11t11 -28q0 -13 -8 -23q20 -10 49.5 -11.5t54.5 -1.5
q29 0 59 1.5t60 3.5t60.5 3.5t59.5 1.5q24 0 49 -1.5t46.5 -6.5t39 -14t28.5 -25q0 -1 1 -1zM450 452q-12 15 -35 15q-52 0 -89 -47q-25 -32 -39 -78t-14 -97q0 -37 9 -73q32 23 63 54t57 65q28 38 43 71t15 55q0 20 -10 35z" />
    <glyph glyph-name="F" unicode="F" horiz-adv-x="825" 
d="M1173 762q3 -6 6 -16t3 -20q0 -17 -10.5 -28.5t-27.5 -11.5q-16 0 -27.5 11.5t-11.5 26.5q0 12 8 23q-9 4 -25 7q-30 6 -80 6h-27.5t-27.5 -1q8 -4 14 -10.5t6 -17.5q0 -10 -6.5 -17.5t-17.5 -7.5q-7 0 -15 4h-3q-32 0 -65 -66q-17 -34 -33 -80.5t-33 -97.5l-7 -22
l-5 -15q22 5 41 7.5t35 2.5q27 0 43.5 -13t16.5 -35q0 -10 -7 -17.5t-18 -7.5q-10 0 -15 6.5t-7 9.5q-2 4 -4 5.5t-9 1.5h-1q-16 0 -40.5 -5t-51.5 -11q-20 -62 -45.5 -130.5t-61.5 -126.5q-42 -68 -92 -103q-29 -20 -62.5 -31t-69.5 -11q-58 0 -108 31q-23 14 -40.5 32
t-28.5 40q-44 -15 -82 -15q-30 0 -60.5 12t-55.5 32q-29 24 -44 56.5t-15 68.5q0 22 5 40q7 23 19.5 28t18.5 5q15 0 26.5 -10.5t13.5 -26.5v-2q0 -14 -9 -24.5t-23 -12.5q1 -23 10.5 -43.5t24.5 -35.5t33 -24t35 -9q34 0 81 22q-15 45 -15 101q0 58 14.5 107.5t40 86t60 57
t75.5 20.5q78 0 114 -43q17 -20 21 -40t4 -32q0 -39 -23 -84q-11 -21 -26 -43t-33 -43q-35 -40 -76.5 -72.5t-85.5 -54.5q7 -12 17.5 -25t26 -24t36.5 -18t48 -7q42 0 81 39q32 32 61 89q23 46 41.5 98t33.5 100q-17 -3 -30 -3q-33 0 -46.5 15.5t-13.5 32.5q0 11 7 18t18 7
q9 0 14 -5t7 -8q3 -5 6 -7.5t8 -2.5q10 0 21.5 2t24.5 4l11 39q3 9 5.5 18.5t5.5 17.5q18 63 35.5 116t38.5 91q24 44 53 64l9 6q-14 -1 -28.5 -1.5t-28.5 -0.5q-81 0 -120 16q-35 13 -45.5 33.5t-10.5 37.5q0 14 10.5 26t27.5 12t28 -11t11 -28q0 -13 -8 -23
q20 -10 49.5 -11.5t54.5 -1.5q29 0 59 1.5t60 3.5t60.5 3.5t59.5 1.5q24 0 49 -1.5t46.5 -6.5t39 -14t28.5 -25q0 -1 1 -1zM452 442q-12 15 -35 15q-52 0 -89 -47q-25 -32 -39 -78t-14 -97q0 -37 9 -73q32 23 63 54t57 65q28 38 43 71t15 55q0 20 -10 35z" />
    <glyph glyph-name="J" unicode="J" horiz-adv-x="809" 
d="M944 753q11 -12 11 -31q0 -29 -32 -47q-27 -16 -59 -16q-5 0 -8.5 0.5t-8.5 1.5q-17 -33 -33.5 -83.5t-35.5 -124.5q-2 -5 -4 -15q-20 -74 -44.5 -152.5t-60.5 -145.5q-41 -74 -92 -114q-61 -47 -137 -47q-27 0 -55.5 8.5t-54.5 23.5q-24 14 -41.5 32t-28.5 39
q-44 -15 -82 -15q-35 0 -67 13.5t-58 39.5t-40 58.5t-14 67.5q0 11 1.5 19.5t3.5 16.5q7 19 18.5 23t16.5 4q17 0 28.5 -11t11.5 -28q0 -14 -8.5 -24.5t-21.5 -12.5q5 -41 36 -76q17 -17 36 -27t36 -10q20 0 40 7t39 16q-9 28 -14 58.5t-5 63.5q0 52 13.5 97.5t39.5 80.5
q24 34 58 53q32 19 71 19q81 0 117 -45q17 -20 21 -41t4 -33q0 -36 -20.5 -79.5t-58.5 -88.5q-32 -38 -71 -70t-81 -54q10 -14 21.5 -27.5t26.5 -24t35 -17t46 -6.5q77 0 137 127q28 60 49.5 134.5t41.5 150.5t39.5 144t44.5 114l-48 25l-56 30t-56 27t-55 19t-53 7
q-57 0 -87.5 -29.5t-30.5 -83.5q0 -51 30.5 -83t80.5 -32q4 0 7 0.5t6 0.5q-1 2 -1 5q-1 1 -1 2q0 17 10.5 28t25.5 11q13 0 27.5 -10.5t14.5 -28.5q0 -35 -35 -49q-21 -9 -54 -9t-62 12t-52 35t-35 53.5t-12 65.5q0 75 44.5 118.5t121.5 43.5q30 0 60 -7.5t59.5 -19.5
t58.5 -27t58 -31l63 -33q40 41 91 41q2 0 11 -0.5t20 -3t22.5 -8t19.5 -15.5zM448 410q0 7 -2 16.5t-7.5 18t-15 14.5t-23.5 6q-52 0 -86 -46q-1 0 -1 -1q-21 -29 -33 -71t-12 -91q0 -45 11 -87q36 27 67 60.5t53.5 66.5t35.5 63t13 51zM885 712q13 5 17 9q-3 -2 -7.5 -4
t-9.5 -5z" />
    <glyph glyph-name="I" unicode="I" horiz-adv-x="809" 
d="M921 770q26 -10 32.5 -24t6.5 -24q0 -29 -31 -48q-27 -16 -60 -16h-9.5t-9.5 1q-18 -36 -33.5 -86t-32.5 -107l-4 -14l-13 -47q-20 -66 -41.5 -133t-55.5 -130q-87 -161 -227 -164h-2q-28 0 -56.5 8t-53.5 23q-48 27 -70 72q-47 -15 -84 -15q-31 0 -62 12.5t-57 35.5
q-29 25 -44 57.5t-15 68.5q0 8 0.5 18t3.5 20q7 20 19.5 25t18.5 5q15 0 27 -10.5t14 -26.5v-2q0 -14 -9 -24.5t-23 -12.5q1 -23 11 -43t26 -35.5t36 -24.5t43 -9q38 0 70 20q-17 54 -17 116q0 53 13 100t37 82q25 37 59.5 56.5t73.5 19.5q48 0 74.5 -14t39.5 -29
q20 -22 24 -43.5t4 -29.5q0 -39 -22 -83q-21 -44 -56 -86q-33 -39 -74 -72t-84 -55q24 -35 58 -54.5t75 -19.5q36 0 68 29q35 33 67 99q19 40 28 66t16 46q1 5 2 8.5t3 8.5q3 10 8 28t11 41q9 35 20.5 78.5t24.5 87.5t27 84.5t27 70.5q-28 6 -58 13t-59 15q-68 17 -132.5 31
t-108.5 14h-1h-9.5t-9.5 -1q5 -10 5 -19q0 -16 -11.5 -27t-27.5 -11q-15 0 -25.5 10t-12.5 24v6q0 33 28 52q23 16 62 16h1q24 0 54 -4t63.5 -11t69 -15.5t71.5 -17.5q34 -8 66 -15.5t61 -13.5q6 9 16 19t23 18.5t29.5 14.5t36.5 6q9 0 22 -2t25 -7zM451 410q0 7 -2.5 16
t-8 17.5t-14.5 14.5t-22 6q-33 0 -54.5 -15t-33.5 -31v-1q-23 -29 -35 -71.5t-12 -91.5q0 -45 11 -86q35 26 65.5 58.5t53.5 65.5t36.5 64t15.5 54zM906 720q-4 -1 -16 -8q11 3 16 8z" />
    <glyph glyph-name="K" unicode="K" horiz-adv-x="1167" 
d="M1484 706q6 -6 6 -18q0 -11 -7 -18.5t-18 -7.5q-6 0 -10 2.5t-6 4.5q-48 42 -107 42q-33 0 -63.5 -11.5t-57 -28t-48.5 -36t-37 -34.5q-25 -26 -60 -60.5t-75 -66.5q-58 -48 -107 -69q36 -24 58 -63q33 -63 33 -163q0 -21 -1 -39t-2 -35q-2 -18 -3.5 -37t-1.5 -42
q0 -13 2 -19q6 2 16 9q27 24 53.5 56.5t49.5 69t42 73t33 68.5l1 1q5 10 11.5 12t9.5 2q11 0 18 -7t7 -18v-2q0 -5 -1 -8q-17 -38 -45.5 -91t-63.5 -104q-20 -26 -38 -47.5t-35 -36.5q-44 -38 -82 -38q-17 0 -36.5 9.5t-32.5 40.5q-15 33 -15 92q0 19 1 39.5t3 40.5t2.5 41
t0.5 41q0 41 -5 66.5t-14.5 40t-23 19.5t-29.5 5q-9 0 -15.5 5.5t-8.5 14.5q-25 -66 -53 -132t-69 -130q-50 -79 -109 -120q-62 -42 -130 -42h-3q-56 0 -99.5 26.5t-69.5 76.5q-48 -15 -87 -15q-29 0 -57.5 10.5t-51.5 30.5q-26 23 -40.5 54t-14.5 67q0 5 1 18t6 27
q8 23 20 29t20 6q17 0 28 -11.5t11 -27.5q0 -15 -10 -25.5t-25 -12.5v-3q0 -23 8 -42.5t22.5 -34t33.5 -23t40 -8.5q39 0 74 20q-9 37 -9 79q0 59 15.5 112t44.5 95q28 40 66 64q39 24 81 24q74 0 108 -40q18 -20 22 -40t4 -29v-1q-2 -39 -27 -85q-22 -42 -63 -87
q-38 -41 -82.5 -75t-91.5 -57q20 -35 52 -53.5t72 -18.5q72 0 140 115q33 55 64.5 130.5t66.5 173.5l3 9q23 63 45 120t45 99q-28 6 -57.5 13t-58.5 15q-65 17 -127 31t-106 14h-1q-6 0 -11.5 -0.5t-10.5 -1.5q4 -8 4 -18q0 -16 -11 -27t-28 -11q-14 0 -24.5 9.5t-12.5 24.5
q-1 0 -1 2v4q0 1 1 2q3 29 29 47.5t65 18.5h1q48 0 115.5 -15t137.5 -33q34 -8 65 -16t60 -14q7 8 17.5 18.5t24.5 19.5t31 15t37 6q5 0 18.5 -1.5t27.5 -7.5q24 -9 30 -23t6 -23q0 -31 -33 -50q-27 -16 -62 -16h-19q-22 -37 -43 -89t-44 -111l-3 -8l-8 -22q6 4 12 4
q22 3 46.5 18t48.5 36.5t47.5 46.5t44.5 49l15 16l43 48v1q28 29 60.5 52.5t67.5 39.5q35 17 70.5 25t70.5 8q47 0 90 -17t75 -48h1zM466 416q0 5 -1.5 13t-6 15.5t-12.5 13t-20 5.5q-53 0 -93 -48q-30 -35 -47.5 -87.5t-17.5 -109.5q0 -13 1.5 -25.5t3.5 -24.5
q34 23 67 54.5t61 66.5q30 38 47.5 72t17.5 55zM941 714q2 0 3 1q-1 -1 -3 -1z" />
    <glyph glyph-name="C" unicode="C" horiz-adv-x="780" 
d="M803 296q11 0 18 -7.5t7 -17.5q0 -8 -5 -13q-6 -11 -19 -29t-31.5 -40t-41.5 -46t-50 -48q-60 -52 -115 -82q-68 -36 -125 -36q-72 0 -111 44q-39 43 -39 131q0 48 12 104t36 116q19 49 43 94.5t51 85.5l-14 2q-50 9 -100 15.5t-95 6.5q-69 0 -108 -20.5t-57 -65.5
q17 -12 17 -32q0 -16 -11.5 -27t-27.5 -11q-17 0 -27.5 11t-10.5 31v4q15 79 72 120q56 40 154 40q48 0 99 -7t102 -15l41 -7l13 17h1q29 33 61 61t64 49q70 44 124 44q33 0 52.5 -11.5t30.5 -22.5q23 -28 23 -68q0 -75 -71 -110q-32 -17 -69 -21.5t-65 -4.5q-23 0 -46.5 2
t-43.5 4q-30 -43 -56 -92.5t-44.5 -100.5t-29 -100t-10.5 -91q0 -17 2 -38t9 -39.5t19 -31t33 -12.5q39 0 90.5 31t113.5 91q22 22 42 43.5t35.5 39.5t26 30.5t13.5 17.5l-1 -1l1 1q0 1 0.5 1t0.5 1q5 10 17 10zM785 668q0 17 -10 31t-27 14q-20 0 -49 -17.5t-63 -50.5
q-17 -16 -32 -32.5t-27 -30.5q13 -1 25.5 -1.5t25.5 -0.5q66 0 106 17q39 18 49 52q1 5 1.5 9.5t0.5 9.5z" />
    <glyph glyph-name="B" unicode="B" horiz-adv-x="1180" 
d="M778 424q-22 -72 -49 -148.5t-65 -142.5q-43 -72 -95 -111q-62 -45 -136 -45q-58 0 -108 31q-23 14 -40.5 32t-28.5 40q-44 -15 -82 -15q-30 0 -60.5 12t-55.5 32q-29 24 -44 56.5t-15 68.5q0 22 5 40q7 23 19.5 28t18.5 5q15 0 26.5 -10.5t13.5 -26.5v-2q0 -14 -9 -24.5
t-23 -12.5q1 -23 10.5 -43.5t24.5 -35.5t33 -24t35 -9q34 0 81 22q-15 45 -15 101q0 58 14.5 107.5t40 86t60 57t75.5 20.5q78 0 114 -43q17 -20 21 -40t4 -32q0 -39 -23 -84q-11 -21 -26 -43t-33 -43q-35 -40 -76.5 -72.5t-85.5 -54.5q7 -12 17.5 -25t26 -24t36.5 -18
t48 -7q43 0 81 39q32 30 61 89q36 75 61 153.5t46 150.5q19 66 36 121t40 97q23 47 55 71q34 28 79 28q31 0 62 -16q13 -7 13 -23q0 -10 -6.5 -17.5t-17.5 -7.5q-7 0 -15 4h-3q-33 0 -68 -72q-18 -38 -35 -87t-34 -106zM1207 321q9 0 17 -6.5t8 -17.5q0 -5 -3.5 -11
t-14.5 -11l-15 -4q-5 -1 -16 -3t-24 -5t-25 -5t-17 -3l-28 -5v-16q0 -65 -34 -130q-15 -30 -36.5 -59t-47.5 -55q-51 -51 -110 -82q-31 -16 -60.5 -24.5t-56.5 -8.5q-41 0 -63.5 22t-22.5 61q0 51 34 104q15 23 35.5 45t46.5 43q42 34 94 64t108 53q-5 27 -16.5 54t-27.5 50
q-14 20 -39 41t-60 24h-6q-11 0 -18 7t-7 18t7 18t18 7h7q32 0 65 15t61 41q30 27 46 60.5t16 65.5q0 33 -13 57t-34 39.5t-48.5 23t-55.5 7.5q-38 0 -86 -19.5t-89 -51.5q-14 -11 -31 -27.5t-32 -38t-25 -48t-10 -56.5q0 -2 1 -4h2q16 0 27 -11.5t11 -27.5
q0 -17 -11.5 -27.5t-30.5 -10.5l-2 1q-27 3 -38 32q-5 12 -7 25t-2 23q0 63 33 117.5t85.5 94t116.5 62.5t127 23q47 0 87.5 -12.5t70.5 -35.5q31 -25 47.5 -59t16.5 -73q0 -46 -25 -89q-24 -38 -64 -69q-47 -37 -107 -58q20 -11 41.5 -25.5t41 -34t35.5 -43.5t25 -52
q11 2 28.5 5.5t36 7t35.5 6t27 2.5h1zM445 448q-12 15 -35 15q-52 0 -89 -47q-25 -32 -39 -78t-14 -97q0 -37 9 -73q32 23 63 54t57 65q28 38 43 71t15 55q0 20 -10 35zM709 -51q2 -15 7.5 -17.5t8.5 -2.5q14 0 35 10.5t43.5 26t44.5 33.5t37 34q85 86 94 181
q-48 -21 -93.5 -48.5t-86.5 -60.5q-51 -41 -71 -81.5t-20 -66.5l1 -2v-6z" />
    <glyph glyph-name="R" unicode="R" horiz-adv-x="1183" 
d="M927 715q-33 -2 -69 -73q-18 -37 -34.5 -86.5t-34.5 -106.5l-8 -27q-23 -72 -49.5 -149t-64.5 -142q-43 -72 -95 -110q-62 -45 -136 -45q-28 0 -56 8t-53 22q-23 14 -40 32t-28 41q-44 -15 -82 -15q-30 0 -61 11.5t-55 32.5q-59 50 -59 125q0 26 4 39q7 23 19.5 28.5
t19.5 5.5q15 0 26.5 -11t13.5 -26v-2q0 -15 -9.5 -25.5t-23.5 -12.5q1 -23 10.5 -43.5t24.5 -35.5t33.5 -23.5t35.5 -8.5q32 0 80 21q-14 47 -14 102q0 58 14.5 107.5t40 86t60 57t75.5 20.5q77 0 114 -43q17 -20 21 -40.5t4 -31.5q0 -39 -24 -85q-11 -20 -25.5 -42
t-33.5 -43q-35 -40 -76.5 -73t-84.5 -55q7 -12 17.5 -24.5t26 -23.5t36.5 -18t48 -7q41 0 81 38q31 33 60 90q37 74 62 152.5t45 150.5q19 66 36 121t40 98q26 48 55 71q36 28 80 28q29 0 61 -16q14 -8 14 -23q0 -11 -7 -18t-17 -7q-5 0 -9 1t-7 2q-1 0 -1 0.5t-1 0.5z
M1229 296q14 -6 14 -23v-2q0 -3 -2 -9q-38 -77 -82 -149.5t-109 -136.5q-33 -33 -72 -33q-17 0 -37 10t-32 42q-14 34 -14 99q0 23 1 47.5t3 48.5q2 25 3 50t1 48q0 47 -5.5 75t-15 43.5t-21 20.5t-23.5 6h-6q-11 0 -18 7t-7 18t7 18t18 7h6q29 0 62.5 15.5t62.5 43.5
q31 29 47.5 61.5t16.5 64.5q0 30 -13 53.5t-34.5 39t-48.5 23.5t-55 8q-39 0 -86 -19.5t-89 -51.5q-14 -11 -31 -27.5t-32 -38.5t-25 -48t-10 -56v-4h3q15 0 26.5 -11.5t11.5 -27.5t-11 -27t-28 -11q-8 0 -20.5 5t-21.5 25q-6 13 -8 26.5t-2 24.5q0 62 35 120q30 51 86 93
q53 40 116.5 62t124.5 22q47 0 87.5 -12.5t70.5 -36.5q31 -25 47.5 -58.5t16.5 -72.5q0 -48 -27 -91q-23 -39 -65 -70q-52 -40 -117 -60q11 -8 22 -18t20 -24v-1q12 -20 20 -44.5t12.5 -50t6 -50.5t1.5 -47q0 -29 -1.5 -56.5t-3.5 -52.5q-1 -20 -2 -37.5t-1 -32.5
q0 -12 0.5 -19t1.5 -11q6 4 7 6q2 1 2.5 2t1.5 2q30 29 54 59.5t45 64t40.5 70t40.5 77.5q6 14 23 14h2q3 0 9 -2zM447 446q-12 16 -34 16q-53 0 -89 -47q-25 -32 -39 -78t-14 -97q0 -38 9 -74q32 24 63 54.5t56 65.5q28 37 43.5 70t15.5 56q0 20 -11 34z" />
    <glyph glyph-name="P" unicode="P" horiz-adv-x="1102" 
d="M1119 684q25 -61 25 -131q0 -63 -24.5 -118t-67.5 -95.5t-101 -64t-125 -23.5q-7 0 -19.5 0.5t-25.5 2.5q-14 1 -25 5q-15 4 -19.5 11.5t-4.5 13.5v1q-14 -40 -31 -78t-37 -73q-43 -72 -95 -110q-62 -45 -136 -45q-28 0 -56 8t-53 22q-23 14 -40 32t-28 41
q-44 -15 -82 -15q-30 0 -61 11.5t-55 32.5q-59 50 -59 125q0 26 4 39q7 23 19.5 28.5t19.5 5.5q15 0 26.5 -11t13.5 -26v-2q0 -15 -9.5 -25.5t-23.5 -12.5q1 -23 10.5 -43.5t24.5 -35.5t33.5 -23.5t35.5 -8.5q32 0 80 21q-14 47 -14 102q0 58 14.5 107.5t40 86t60 57
t75.5 20.5q77 0 114 -43q17 -20 21 -40.5t4 -31.5q0 -39 -24 -85q-11 -20 -25.5 -42t-33.5 -43q-35 -40 -76.5 -73t-84.5 -55q7 -12 17.5 -24.5t26 -23.5t36.5 -18t48 -7q41 0 81 38q31 33 60 90q37 74 62 152.5t45 150.5q19 66 36 121t40 98q26 48 55 71q36 28 80 28h9
q-24 8 -49 8q-30 0 -55.5 -8.5t-46.5 -21.5t-37 -27t-26 -26q-31 -35 -49.5 -76t-18.5 -75v-2h3q16 0 27 -11.5t11 -28.5q0 -15 -11.5 -26t-27.5 -11q-8 0 -21 5t-22 25q-5 13 -7 26.5t-2 24.5q0 51 25 104q25 48 69 92q88 88 210 88q85 0 149 -41q68 -42 98 -114zM736 297
q7 12 21 12q7 0 13 -0.5t12 -1.5q5 -1 9.5 -1.5t9.5 -0.5q47 0 89.5 20t74.5 54t50.5 79t18.5 95q0 42 -13.5 83.5t-36.5 74.5q-5 6 -9.5 12t-9.5 11q-2 -8 -8.5 -13.5t-14.5 -5.5q-5 0 -9 1t-7 2q-1 0 -1 0.5t-1 0.5q-33 -2 -69 -73q-18 -37 -34.5 -86.5t-34.5 -106.5
l-8 -27q-10 -31 -20.5 -63.5t-21.5 -65.5zM444 450q-12 16 -34 16q-53 0 -89 -47q-25 -32 -39 -78t-14 -97q0 -38 9 -74q32 24 63 54.5t56 65.5q28 37 43.5 70t15.5 56q0 20 -11 34z" />
    <glyph glyph-name="D" unicode="D" horiz-adv-x="1220" 
d="M1282 305q2 -2 2 -9q0 -4 -2.5 -11t-16.5 -11l-16 -3q-5 -1 -17.5 -2.5t-27.5 -3t-28.5 -3t-18.5 -1.5l-28 -3q-20 -68 -59 -136q-20 -35 -42.5 -66t-48.5 -59q-52 -55 -109 -86q-62 -34 -117 -34q-39 0 -64 17q-11 8 -22.5 23.5t-11.5 42.5q0 40 29 89q31 53 94 104
q65 53 126 85.5t122 48.5q12 46 17.5 89.5t5.5 94.5q0 35 -4.5 83.5t-21.5 97.5q-21 64 -57 98q2 -3 2 -11q0 -10 -6.5 -17.5t-17.5 -7.5q-7 0 -15 4h-3q-33 0 -68 -72q-18 -38 -35 -87t-34 -106l-9 -27q-22 -72 -49 -148.5t-65 -142.5q-43 -72 -95 -111q-62 -45 -136 -45
q-58 0 -108 31q-23 14 -40.5 32t-28.5 40q-44 -15 -82 -15q-30 0 -60.5 12t-55.5 32q-29 24 -44 56.5t-15 68.5q0 22 5 40q7 23 19.5 28t18.5 5q15 0 26.5 -10.5t13.5 -26.5v-2q0 -14 -9 -24.5t-23 -12.5q1 -23 10.5 -43.5t24.5 -35.5t33 -24t35 -9q34 0 81 22
q-15 45 -15 101q0 58 14.5 107.5t40 86t60 57t75.5 20.5q78 0 114 -43q17 -20 21 -40t4 -32q0 -39 -23 -84q-11 -21 -26 -43t-33 -43q-35 -40 -76.5 -72.5t-85.5 -54.5q7 -12 17.5 -25t26 -24t36.5 -18t48 -7q43 0 81 39q32 30 61 89q36 75 61 153.5t46 150.5q19 66 36 121
t40 97q23 47 55 71q34 28 79 28q27 0 54 -12q-36 26 -89 26q-45 0 -91.5 -20t-85.5 -58q-38 -36 -59.5 -78.5t-21.5 -81.5v-2h3q16 0 27 -11.5t11 -28.5q0 -15 -11 -26t-28 -11q-8 0 -20.5 5.5t-21.5 25.5q-6 12 -8 25.5t-2 24.5q0 61 34 120q29 50 80 89q45 35 98 56.5
t102 25.5h2q8 1 16 1.5t16 0.5q68 0 120 -31q49 -29 81 -85q30 -49 45 -116.5t15 -148.5q0 -46 -3.5 -82.5t-12.5 -74.5q7 1 23 2.5t33.5 3t32 2.5t20.5 1t15.5 -2t14.5 -13zM706 -46q1 -5 5.5 -14.5t25.5 -9.5h2q21 0 45.5 13t49.5 34t49.5 48t44.5 55q18 24 39.5 61
t40.5 88q-50 -17 -97.5 -45t-100.5 -70q-49 -41 -77 -81.5t-28 -72.5q0 -2 1 -3v-3zM447 450q-12 15 -35 15q-52 0 -89 -47q-25 -32 -39 -78t-14 -97q0 -37 9 -73q32 23 63 54t57 65q28 38 43 71t15 55q0 20 -10 35z" />
    <glyph glyph-name="S" unicode="S" horiz-adv-x="828" 
d="M958 675q1 -5 1.5 -11.5t0.5 -13.5q0 -68 -57 -131q0 -1 -1 -1q-5 -5 -10.5 -6t-7.5 -1q-11 0 -18 7t-7 17q0 8 2.5 12t4.5 6q44 49 44 98q0 20 -6.5 33.5t-11.5 20.5q-7 10 -14 14t-10 4q-38 0 -75 -77q-19 -41 -35.5 -94.5t-32.5 -108.5q-5 -17 -9.5 -37t-9.5 -42
q-7 -29 -14.5 -60t-17 -62.5t-21.5 -62.5t-27 -59q-17 -32 -37 -56t-43 -41q-54 -39 -124 -39q-63 0 -109 30q-43 27 -64 73q-44 -15 -84 -15h-16q-78 6 -118 64q-14 20 -22 46t-8 53q0 12 1.5 24t5.5 21q8 23 19 28.5t19 5.5q16 0 27.5 -11.5t11.5 -27.5q0 -15 -10 -25.5
t-25 -12.5v-4q0 -23 8.5 -43t23 -35t34.5 -23.5t44 -9.5q31 3 69 25q-9 36 -9 78q0 58 14.5 110.5t43.5 94.5q29 44 68 67t83 23q70 0 105 -39q17 -20 21.5 -39.5t4.5 -27.5q0 -36 -22 -79.5t-59 -86t-84 -80.5t-98 -62q7 -13 17.5 -26t25.5 -23t34.5 -16.5t45.5 -6.5h1
q57 0 101 95q22 47 39 107t34 126l21 75l6 24q19 68 36 125t39 100q26 47 56 70q34 27 82 27q11 0 30 -3.5t39 -16.5q42 -27 54 -87v-1zM334 422q-29 -35 -46.5 -87t-17.5 -108q0 -15 1 -28t3 -25q34 24 67 55.5t61 66.5q31 38 48.5 72t17.5 55q0 5 -1.5 13t-6 15.5
t-12.5 13t-20 5.5q-54 0 -94 -48z" />
    <glyph glyph-name="G" unicode="G" horiz-adv-x="1047" 
d="M1070 298q11 0 18.5 -7t7.5 -18q0 -8 -5 -15q-8 -14 -17 -30.5t-18 -36.5q-20 -40 -46 -86.5t-58 -85.5q-33 -44 -73 -68q-44 -28 -94 -28h-1q-32 -81 -69.5 -150t-80.5 -126q-33 -44 -70.5 -79t-75.5 -60q-81 -52 -156 -52q-68 0 -115 39q-48 39 -48 98q0 57 47 127
q20 32 48.5 62.5t63.5 59.5t71.5 53t73.5 41q82 39 150 39h10.5t15.5 -1q10 -2 15 -4t8.5 -4.5t5.5 -4.5q20 52 35.5 101.5t27.5 94.5q-19 -20 -42 -43t-50 -44q-113 -90 -208 -90q-72 0 -111 44q-39 43 -39 131q0 48 12 104t36 116q19 49 43 94.5t51 85.5l-14 2
q-50 9 -100 15.5t-95 6.5q-69 0 -108 -20.5t-57 -65.5q17 -12 17 -32q0 -16 -11.5 -27t-27.5 -11q-17 0 -27.5 11t-10.5 31v4q15 79 72 120q56 40 154 40q48 0 99 -7t102 -15l41 -7l13 17h1q29 33 61 61t64 49q70 44 124 44q33 0 52.5 -11.5t30.5 -22.5q23 -28 23 -68
q0 -75 -71 -110q-32 -17 -69 -21.5t-65 -4.5q-23 0 -46.5 2t-43.5 4q-30 -43 -56 -92.5t-44.5 -100.5t-29 -100t-10.5 -91q0 -17 2 -38t9 -39.5t19 -31t33 -12.5q35 0 81 24.5t99 72.5q22 20 42.5 41t37 40t29 34.5t20.5 26.5q8 22 29.5 34t53.5 12h8q8 0 15 -7t5 -16
q-13 -83 -33.5 -164.5t-47.5 -158.5q65 10 126 95v1q12 16 24 36t23.5 41t22.5 42.5t20 39.5q6 13 11.5 24t10.5 19q6 11 12 19t17 8zM406 -435q44 30 82 70t69.5 87t58 98t47.5 104q-2 -1 -5 -1h-9t-8 1q-4 0 -7.5 0.5t-7.5 0.5q-59 0 -130 -32.5t-139 -90.5
q-63 -55 -101 -113t-38 -101q0 -20 8 -32t19 -18.5t24 -8.5t24 -2q27 0 57 10t56 27v1zM785 671q0 17 -10 31t-27 14q-20 0 -49 -17.5t-63 -50.5q-17 -16 -32 -32.5t-27 -30.5q13 -1 25.5 -1.5t25.5 -0.5q66 0 106 17q39 18 49 52q1 5 1.5 9.5t0.5 9.5z" />
    <glyph glyph-name="O" unicode="O" horiz-adv-x="890" 
d="M907 712q39 -54 39 -142q0 -42 -7.5 -87t-24.5 -95q-27 -83 -70.5 -156.5t-99.5 -128.5q-58 -56 -120 -86q-66 -33 -134 -33q-122 0 -182 65q-55 60 -55 163q0 57 18.5 127t53.5 145q26 57 57 107t63 85q-32 7 -65 15.5t-65 17.5q-62 17 -116.5 30t-93.5 13q-14 0 -26 -3
q4 -8 4 -19q0 -16 -11 -27t-28 -11q-16 0 -27 11t-11 27q0 2 0.5 4t0.5 4q5 29 32 46.5t67 17.5q44 0 99.5 -13t117.5 -30q43 -12 85.5 -23t80.5 -17q34 26 63.5 37t60.5 11q27 0 39.5 -13.5t12.5 -29.5q0 -10 -5 -20q29 33 63 50.5t68 17.5q38 0 67 -16q30 -16 49 -44z
M592 537q0 38 14.5 77.5t40.5 73.5q-7 -7 -19 -12q-30 -14 -70 -14q-32 -31 -65.5 -83t-61.5 -113q-33 -72 -51 -137t-18 -117q0 -80 41 -127.5t110 -47.5q66 0 134 48t128 136q28 41 50.5 86t38 90t24 89t8.5 83q0 72 -28 114q-29 39 -77 39q-26 0 -52.5 -15t-48.5 -43
q-22 -27 -34.5 -60t-12.5 -65q0 -5 1 -19t6 -30.5t14.5 -32.5t26.5 -25q13 18 33 18q16 0 26.5 -10.5t10.5 -26.5q0 -17 -12 -28.5t-30 -11.5q-71 0 -105 65q-14 29 -18 57.5t-4 41.5z" />
    <glyph glyph-name="Q" unicode="Q" horiz-adv-x="890" 
d="M1409 -79q3 -8 4 -17t1 -17q0 -74 -54 -117q-49 -40 -131 -40q-41 0 -84.5 12.5t-93.5 37.5q-43 22 -85.5 49.5t-84.5 55.5q-59 40 -119 77.5t-121 58.5q-39 -23 -77 -34t-79 -11q-26 0 -52 4t-47 12q-34 -22 -53 -49q0 -1 -2 -3q-8 -8 -19 -8q-10 0 -17 7.5t-7 17.5
t8 23.5t37 35.5q-38 25 -59 65q-26 46 -26 123q0 57 18.5 127t53.5 145q26 57 57 107t62 85q-32 7 -64.5 15.5t-65.5 17.5q-61 17 -116 30t-93 13q-15 0 -27 -3q5 -10 5 -19q0 -16 -11.5 -27t-27.5 -11t-27 11t-11 27q0 5 1 8q5 29 31.5 46.5t67.5 17.5q43 0 99 -13t118 -30
q42 -12 85 -23t81 -17q34 26 63 37t61 11q27 0 39.5 -13.5t12.5 -29.5q0 -10 -5 -20q29 33 62.5 50.5t68.5 17.5q37 0 66 -16q29 -15 50 -44q39 -56 39 -142q0 -67 -21 -143q-19 -72 -56 -146q-32 -63 -71 -115t-82 -88q72 -23 134.5 -61.5t122.5 -79.5l11 -8l26 -18
q33 -23 65 -44.5t63.5 -38t62.5 -26.5t63 -10q26 0 44.5 8t31.5 21t19.5 28t8.5 30q-12 3 -20 13.5t-8 23.5q0 16 11 27t27 11q27 0 36 -25zM587 529q0 38 14 77.5t40 73.5q-8 -8 -19 -12q-28 -14 -70 -14q-31 -31 -64.5 -83t-62.5 -113q-33 -72 -50.5 -137t-17.5 -117
q0 -96 56 -142q40 17 77 24t79 7q21 0 41 -1.5t40 -5.5q49 36 93 91.5t77 120t52 133t19 130.5q0 73 -29 114q-27 39 -76 39q-26 0 -52.5 -15t-49.5 -43q-22 -27 -34 -60t-12 -65q0 -5 1 -19t5.5 -30.5t14.5 -32.5t27 -25q11 18 33 18q15 0 26 -10.5t11 -26.5
q0 -17 -12 -28.5t-30 -11.5q-71 0 -105 65q-15 29 -18.5 57.5t-3.5 41.5zM541 39q-31 0 -60 -7q12 -3 26 -3q29 0 56 9q-6 1 -11.5 1h-10.5z" />
    <glyph glyph-name="Ccedilla" unicode="&#xc7;" horiz-adv-x="780" 
d="M807 295q11 0 18 -7.5t7 -17.5q0 -8 -5 -13q-6 -11 -19 -29t-31.5 -40t-41.5 -46t-50 -48q-60 -52 -115 -82q-68 -36 -125 -36q-9 0 -16.5 0.5t-14.5 1.5l-7 -24h3q42 0 63 -26q13 -18 13 -43q0 -43 -36 -79t-81 -36q-6 0 -14 1t-16 3q-5 2 -9 3t-8 3q-11 5 -13.5 11.5
t-2.5 11.5q0 11 7.5 18.5t17.5 7.5q9 0 17 -4q4 -2 5 -2q17 0 38 26q9 11 15 24t6 23q0 4 -1 5.5t-9 1.5q-2 0 -8 -2q-5 -2 -10.5 -3t-13.5 -1q-11 0 -18 8t-7 17q0 6 3 11l18 60q-30 15 -49 51q-22 41 -22 107q0 48 12 104t36 116q19 49 43 94.5t51 85.5l-14 2
q-50 9 -100 15.5t-95 6.5q-69 0 -108 -20.5t-57 -65.5q17 -12 17 -32q0 -16 -11.5 -27t-27.5 -11q-17 0 -27.5 11t-10.5 31v4q15 79 72 120q56 40 154 40q48 0 99 -7t102 -15l41 -7l13 17h1q29 33 61 61t64 49q70 44 124 44q33 0 52.5 -11.5t30.5 -22.5q23 -28 23 -68
q0 -75 -71 -110q-32 -17 -69 -21.5t-65 -4.5q-23 0 -46.5 2t-43.5 4q-30 -43 -56 -92.5t-44.5 -100.5t-29 -100t-10.5 -91q0 -17 2 -38t9 -39.5t19 -31t33 -12.5q39 0 90.5 31t113.5 91q22 22 42 43.5t35.5 39.5t26 30.5t13.5 17.5l-1 -1l1 1q0 1 0.5 1t0.5 1q5 10 17 10z
M789 667q0 17 -10 31t-27 14q-20 0 -49 -17.5t-63 -50.5q-17 -16 -32 -32.5t-27 -30.5q13 -1 25.5 -1.5t25.5 -0.5q66 0 106 17q39 18 49 52q1 5 1.5 9.5t0.5 9.5z" />
    <glyph glyph-name="Igrave" unicode="&#xcc;" horiz-adv-x="809" 
d="M920 773q26 -10 32.5 -24t6.5 -24q0 -29 -31 -48q-27 -16 -60 -16h-9.5t-9.5 1q-18 -36 -33.5 -86t-32.5 -107l-4 -14l-13 -47q-20 -66 -41.5 -133t-55.5 -130q-87 -161 -227 -164h-2q-28 0 -56.5 8t-53.5 23q-48 27 -70 72q-47 -15 -84 -15q-31 0 -62 12.5t-57 35.5
q-29 25 -44 57.5t-15 68.5q0 8 0.5 18t3.5 20q7 20 19.5 25t18.5 5q15 0 27 -10.5t14 -26.5v-2q0 -14 -9 -24.5t-23 -12.5q1 -23 11 -43t26 -35.5t36 -24.5t43 -9q38 0 70 20q-17 54 -17 116q0 53 13 100t37 82q25 37 59.5 56.5t73.5 19.5q48 0 74.5 -14t39.5 -29
q20 -22 24 -43.5t4 -29.5q0 -39 -22 -83q-21 -44 -56 -86q-33 -39 -74 -72t-84 -55q24 -35 58 -54.5t75 -19.5q36 0 68 29q35 33 67 99q19 40 28 66t16 46q1 5 2 8.5t3 8.5q3 10 8 28t11 41q9 35 20.5 78.5t24.5 87.5t27 84.5t27 70.5q-28 6 -58 13t-59 15q-68 17 -132.5 31
t-108.5 14h-1h-9.5t-9.5 -1q5 -10 5 -19q0 -16 -11.5 -27t-27.5 -11q-15 0 -25.5 10t-12.5 24v6q0 33 28 52q23 16 62 16h1q24 0 54 -4t63.5 -11t69 -15.5t71.5 -17.5q34 -8 66 -15.5t61 -13.5q6 9 16 19t23 18.5t29.5 14.5t36.5 6q9 0 22 -2t25 -7zM450 413q0 7 -2.5 16
t-8 17.5t-14.5 14.5t-22 6q-33 0 -54.5 -15t-33.5 -31v-1q-23 -29 -35 -71.5t-12 -91.5q0 -45 11 -86q35 26 65.5 58.5t53.5 65.5t36.5 64t15.5 54zM542 882q-8 5 -10.5 11.5t-2.5 11.5q0 17 16.5 29t38.5 21l1 1q11 5 22 -4l86 -84l3 -3q6 -11 6 -20q0 -22 -26 -34
q-5 -3 -9 -3q-6 0 -10 3q-16 9 -27.5 16.5t-23.5 15.5l-63 38zM905 723q-4 -1 -16 -8q11 3 16 8z" />
    <glyph glyph-name="Iacute" unicode="&#xcd;" horiz-adv-x="809" 
d="M921 770q26 -10 32.5 -24t6.5 -24q0 -29 -31 -48q-27 -16 -60 -16h-9.5t-9.5 1q-18 -36 -33.5 -86t-32.5 -107l-4 -14l-13 -47q-20 -66 -41.5 -133t-55.5 -130q-87 -161 -227 -164h-2q-28 0 -56.5 8t-53.5 23q-48 27 -70 72q-47 -15 -84 -15q-31 0 -62 12.5t-57 35.5
q-29 25 -44 57.5t-15 68.5q0 8 0.5 18t3.5 20q7 20 19.5 25t18.5 5q15 0 27 -10.5t14 -26.5v-2q0 -14 -9 -24.5t-23 -12.5q1 -23 11 -43t26 -35.5t36 -24.5t43 -9q38 0 70 20q-17 54 -17 116q0 53 13 100t37 82q25 37 59.5 56.5t73.5 19.5q48 0 74.5 -14t39.5 -29
q20 -22 24 -43.5t4 -29.5q0 -39 -22 -83q-21 -44 -56 -86q-33 -39 -74 -72t-84 -55q24 -35 58 -54.5t75 -19.5q36 0 68 29q35 33 67 99q19 40 28 66t16 46q1 5 2 8.5t3 8.5q3 10 8 28t11 41q9 35 20.5 78.5t24.5 87.5t27 84.5t27 70.5q-28 6 -58 13t-59 15q-68 17 -132.5 31
t-108.5 14h-1h-9.5t-9.5 -1q5 -10 5 -19q0 -16 -11.5 -27t-27.5 -11q-15 0 -25.5 10t-12.5 24v6q0 33 28 52q23 16 62 16h1q24 0 54 -4t63.5 -11t69 -15.5t71.5 -17.5q34 -8 66 -15.5t61 -13.5q6 9 16 19t23 18.5t29.5 14.5t36.5 6q9 0 22 -2t25 -7zM451 410q0 7 -2.5 16
t-8 17.5t-14.5 14.5t-22 6q-33 0 -54.5 -15t-33.5 -31v-1q-23 -29 -35 -71.5t-12 -91.5q0 -45 11 -86q35 26 65.5 58.5t53.5 65.5t36.5 64t15.5 54zM666 805q-17 8 -22.5 17.5t-5.5 17.5q0 12 10 22l86 84q10 10 23 4h1q21 -10 37.5 -21.5t16.5 -28.5q0 -5 -2 -12t-10 -12
h-2q-20 -12 -34.5 -21.5t-27.5 -17.5l-51 -31q-6 -3 -11 -3q-4 0 -8 2zM906 720q-4 -1 -16 -8q11 3 16 8z" />
    <glyph glyph-name="Icircumflex" unicode="&#xce;" horiz-adv-x="809" 
d="M921 770q26 -10 32.5 -24t6.5 -24q0 -29 -31 -48q-27 -16 -60 -16h-9.5t-9.5 1q-18 -36 -33.5 -86t-32.5 -107l-4 -14l-13 -47q-20 -66 -41.5 -133t-55.5 -130q-87 -161 -227 -164h-2q-28 0 -56.5 8t-53.5 23q-48 27 -70 72q-47 -15 -84 -15q-31 0 -62 12.5t-57 35.5
q-29 25 -44 57.5t-15 68.5q0 8 0.5 18t3.5 20q7 20 19.5 25t18.5 5q15 0 27 -10.5t14 -26.5v-2q0 -14 -9 -24.5t-23 -12.5q1 -23 11 -43t26 -35.5t36 -24.5t43 -9q38 0 70 20q-17 54 -17 116q0 53 13 100t37 82q25 37 59.5 56.5t73.5 19.5q48 0 74.5 -14t39.5 -29
q20 -22 24 -43.5t4 -29.5q0 -39 -22 -83q-21 -44 -56 -86q-33 -39 -74 -72t-84 -55q24 -35 58 -54.5t75 -19.5q36 0 68 29q35 33 67 99q19 40 28 66t16 46q1 5 2 8.5t3 8.5q3 10 8 28t11 41q9 35 20.5 78.5t24.5 87.5t27 84.5t27 70.5q-28 6 -58 13t-59 15q-68 17 -132.5 31
t-108.5 14h-1h-9.5t-9.5 -1q5 -10 5 -19q0 -16 -11.5 -27t-27.5 -11q-15 0 -25.5 10t-12.5 24v6q0 33 28 52q23 16 62 16h1q24 0 54 -4t63.5 -11t69 -15.5t71.5 -17.5q34 -8 66 -15.5t61 -13.5q6 9 16 19t23 18.5t29.5 14.5t36.5 6q9 0 22 -2t25 -7zM451 410q0 7 -2.5 16
t-8 17.5t-14.5 14.5t-22 6q-33 0 -54.5 -15t-33.5 -31v-1q-23 -29 -35 -71.5t-12 -91.5q0 -45 11 -86q35 26 65.5 58.5t53.5 65.5t36.5 64t15.5 54zM719 844q3 -5 3 -10v-2q0 -11 -7 -18t-17 -7q-11 0 -18 6l-38 28l-69 -31q-6 -3 -14 -3q-10 0 -17 7t-7 17q0 8 3.5 13
t6.5 7l92 75q2 2 3.5 2.5t3.5 1.5q4 2 9 2h1q3 0 9 -2q2 -1 5.5 -3.5t6.5 -7.5zM906 720q-4 -1 -16 -8q11 3 16 8z" />
    <glyph glyph-name="Idieresis" unicode="&#xcf;" horiz-adv-x="809" 
d="M921 770q26 -10 32.5 -24t6.5 -24q0 -29 -31 -48q-27 -16 -60 -16h-9.5t-9.5 1q-18 -36 -33.5 -86t-32.5 -107l-4 -14l-13 -47q-20 -66 -41.5 -133t-55.5 -130q-87 -161 -227 -164h-2q-28 0 -56.5 8t-53.5 23q-48 27 -70 72q-47 -15 -84 -15q-31 0 -62 12.5t-57 35.5
q-29 25 -44 57.5t-15 68.5q0 8 0.5 18t3.5 20q7 20 19.5 25t18.5 5q15 0 27 -10.5t14 -26.5v-2q0 -14 -9 -24.5t-23 -12.5q1 -23 11 -43t26 -35.5t36 -24.5t43 -9q38 0 70 20q-17 54 -17 116q0 53 13 100t37 82q25 37 59.5 56.5t73.5 19.5q48 0 74.5 -14t39.5 -29
q20 -22 24 -43.5t4 -29.5q0 -39 -22 -83q-21 -44 -56 -86q-33 -39 -74 -72t-84 -55q24 -35 58 -54.5t75 -19.5q36 0 68 29q35 33 67 99q19 40 28 66t16 46q1 5 2 8.5t3 8.5q3 10 8 28t11 41q9 35 20.5 78.5t24.5 87.5t27 84.5t27 70.5q-28 6 -58 13t-59 15q-68 17 -132.5 31
t-108.5 14h-1h-9.5t-9.5 -1q5 -10 5 -19q0 -16 -11.5 -27t-27.5 -11q-15 0 -25.5 10t-12.5 24v6q0 33 28 52q23 16 62 16h1q24 0 54 -4t63.5 -11t69 -15.5t71.5 -17.5q34 -8 66 -15.5t61 -13.5q6 9 16 19t23 18.5t29.5 14.5t36.5 6q9 0 22 -2t25 -7zM451 410q0 7 -2.5 16
t-8 17.5t-14.5 14.5t-22 6q-33 0 -54.5 -15t-33.5 -31v-1q-23 -29 -35 -71.5t-12 -91.5q0 -45 11 -86q35 26 65.5 58.5t53.5 65.5t36.5 64t15.5 54zM539 937q20 0 33.5 -13t13.5 -33q0 -27 -23 -48q-22 -19 -48 -19q-20 0 -33 12t-13 32q0 4 0.5 9t2.5 10q7 21 26 35.5
t41 14.5zM697 937q20 0 33.5 -13t13.5 -33q0 -27 -23 -48q-22 -19 -48 -19q-20 0 -33 12t-13 32q0 4 0.5 9t2.5 10q7 21 26 35.5t41 14.5zM906 720q-4 -1 -16 -8q11 3 16 8z" />
    <glyph glyph-name="Ograve" unicode="&#xd2;" horiz-adv-x="890" 
d="M907 712q39 -54 39 -142q0 -42 -7.5 -87t-24.5 -95q-27 -83 -70.5 -156.5t-99.5 -128.5q-58 -56 -120 -86q-66 -33 -134 -33q-122 0 -182 65q-55 60 -55 163q0 57 18.5 127t53.5 145q26 57 57 107t63 85q-32 7 -65 15.5t-65 17.5q-62 17 -116.5 30t-93.5 13q-14 0 -26 -3
q4 -8 4 -19q0 -16 -11 -27t-28 -11q-16 0 -27 11t-11 27q0 2 0.5 4t0.5 4q5 29 32 46.5t67 17.5q44 0 99.5 -13t117.5 -30q43 -12 85.5 -23t80.5 -17q34 26 63.5 37t60.5 11q27 0 39.5 -13.5t12.5 -29.5q0 -10 -5 -20q29 33 63 50.5t68 17.5q38 0 67 -16q30 -16 49 -44z
M592 537q0 38 14.5 77.5t40.5 73.5q-7 -7 -19 -12q-30 -14 -70 -14q-32 -31 -65.5 -83t-61.5 -113q-33 -72 -51 -137t-18 -117q0 -80 41 -127.5t110 -47.5q66 0 134 48t128 136q28 41 50.5 86t38 90t24 89t8.5 83q0 72 -28 114q-29 39 -77 39q-26 0 -52.5 -15t-48.5 -43
q-22 -27 -34.5 -60t-12.5 -65q0 -5 1 -19t6 -30.5t14.5 -32.5t26.5 -25q13 18 33 18q16 0 26.5 -10.5t10.5 -26.5q0 -17 -12 -28.5t-30 -11.5q-71 0 -105 65q-14 29 -18 57.5t-4 41.5zM652 892q-8 5 -10.5 11.5t-2.5 11.5q0 17 16.5 29t38.5 21l1 1q11 5 22 -4l86 -84l3 -3
q6 -11 6 -20q0 -22 -26 -34q-5 -3 -9 -3q-6 0 -10 3q-16 9 -27.5 16.5t-23.5 15.5l-63 38z" />
    <glyph glyph-name="Oacute" unicode="&#xd3;" horiz-adv-x="890" 
d="M907 712q39 -54 39 -142q0 -42 -7.5 -87t-24.5 -95q-27 -83 -70.5 -156.5t-99.5 -128.5q-58 -56 -120 -86q-66 -33 -134 -33q-122 0 -182 65q-55 60 -55 163q0 57 18.5 127t53.5 145q26 57 57 107t63 85q-32 7 -65 15.5t-65 17.5q-62 17 -116.5 30t-93.5 13q-14 0 -26 -3
q4 -8 4 -19q0 -16 -11 -27t-28 -11q-16 0 -27 11t-11 27q0 2 0.5 4t0.5 4q5 29 32 46.5t67 17.5q44 0 99.5 -13t117.5 -30q43 -12 85.5 -23t80.5 -17q34 26 63.5 37t60.5 11q27 0 39.5 -13.5t12.5 -29.5q0 -10 -5 -20q29 33 63 50.5t68 17.5q38 0 67 -16q30 -16 49 -44z
M592 537q0 38 14.5 77.5t40.5 73.5q-7 -7 -19 -12q-30 -14 -70 -14q-32 -31 -65.5 -83t-61.5 -113q-33 -72 -51 -137t-18 -117q0 -80 41 -127.5t110 -47.5q66 0 134 48t128 136q28 41 50.5 86t38 90t24 89t8.5 83q0 72 -28 114q-29 39 -77 39q-26 0 -52.5 -15t-48.5 -43
q-22 -27 -34.5 -60t-12.5 -65q0 -5 1 -19t6 -30.5t14.5 -32.5t26.5 -25q13 18 33 18q16 0 26.5 -10.5t10.5 -26.5q0 -17 -12 -28.5t-30 -11.5q-71 0 -105 65q-14 29 -18 57.5t-4 41.5zM726 805q-17 8 -22.5 17.5t-5.5 17.5q0 12 10 22l86 84q10 10 23 4h1q21 -10 37.5 -21.5
t16.5 -28.5q0 -5 -2 -12t-10 -12h-2q-20 -12 -34.5 -21.5t-27.5 -17.5l-51 -31q-6 -3 -11 -3q-4 0 -8 2z" />
    <glyph glyph-name="Ocircumflex" unicode="&#xd4;" horiz-adv-x="890" 
d="M907 712q39 -54 39 -142q0 -42 -7.5 -87t-24.5 -95q-27 -83 -70.5 -156.5t-99.5 -128.5q-58 -56 -120 -86q-66 -33 -134 -33q-122 0 -182 65q-55 60 -55 163q0 57 18.5 127t53.5 145q26 57 57 107t63 85q-32 7 -65 15.5t-65 17.5q-62 17 -116.5 30t-93.5 13q-14 0 -26 -3
q4 -8 4 -19q0 -16 -11 -27t-28 -11q-16 0 -27 11t-11 27q0 2 0.5 4t0.5 4q5 29 32 46.5t67 17.5q44 0 99.5 -13t117.5 -30q43 -12 85.5 -23t80.5 -17q34 26 63.5 37t60.5 11q27 0 39.5 -13.5t12.5 -29.5q0 -10 -5 -20q29 33 63 50.5t68 17.5q38 0 67 -16q30 -16 49 -44z
M592 537q0 38 14.5 77.5t40.5 73.5q-7 -7 -19 -12q-30 -14 -70 -14q-32 -31 -65.5 -83t-61.5 -113q-33 -72 -51 -137t-18 -117q0 -80 41 -127.5t110 -47.5q66 0 134 48t128 136q28 41 50.5 86t38 90t24 89t8.5 83q0 72 -28 114q-29 39 -77 39q-26 0 -52.5 -15t-48.5 -43
q-22 -27 -34.5 -60t-12.5 -65q0 -5 1 -19t6 -30.5t14.5 -32.5t26.5 -25q13 18 33 18q16 0 26.5 -10.5t10.5 -26.5q0 -17 -12 -28.5t-30 -11.5q-71 0 -105 65q-14 29 -18 57.5t-4 41.5zM829 844q3 -5 3 -10v-2q0 -11 -7 -18t-17 -7q-11 0 -18 6l-38 28l-69 -31q-6 -3 -14 -3
q-10 0 -17 7t-7 17q0 8 3.5 13t6.5 7l92 75q2 2 3.5 2.5t3.5 1.5q4 2 9 2h1q3 0 9 -2q2 -1 5.5 -3.5t6.5 -7.5z" />
    <glyph glyph-name="Otilde" unicode="&#xd5;" horiz-adv-x="890" 
d="M907 712q39 -54 39 -142q0 -42 -7.5 -87t-24.5 -95q-27 -83 -70.5 -156.5t-99.5 -128.5q-58 -56 -120 -86q-66 -33 -134 -33q-122 0 -182 65q-55 60 -55 163q0 57 18.5 127t53.5 145q26 57 57 107t63 85q-32 7 -65 15.5t-65 17.5q-62 17 -116.5 30t-93.5 13q-14 0 -26 -3
q4 -8 4 -19q0 -16 -11 -27t-28 -11q-16 0 -27 11t-11 27q0 2 0.5 4t0.5 4q5 29 32 46.5t67 17.5q44 0 99.5 -13t117.5 -30q43 -12 85.5 -23t80.5 -17q34 26 63.5 37t60.5 11q27 0 39.5 -13.5t12.5 -29.5q0 -10 -5 -20q29 33 63 50.5t68 17.5q38 0 67 -16q30 -16 49 -44z
M592 537q0 38 14.5 77.5t40.5 73.5q-7 -7 -19 -12q-30 -14 -70 -14q-32 -31 -65.5 -83t-61.5 -113q-33 -72 -51 -137t-18 -117q0 -80 41 -127.5t110 -47.5q66 0 134 48t128 136q28 41 50.5 86t38 90t24 89t8.5 83q0 72 -28 114q-29 39 -77 39q-26 0 -52.5 -15t-48.5 -43
q-22 -27 -34.5 -60t-12.5 -65q0 -5 1 -19t6 -30.5t14.5 -32.5t26.5 -25q13 18 33 18q16 0 26.5 -10.5t10.5 -26.5q0 -17 -12 -28.5t-30 -11.5q-71 0 -105 65q-14 29 -18 57.5t-4 41.5zM627 827q-10 0 -17 7t-7 18q0 20 7 34t17 23t22 13t23 4q19 0 39 -7t40 -15
q14 -5 27.5 -10t22.5 -5q2 0 3.5 2t3.5 4q4 5 9.5 9t13.5 4q11 0 18 -7t7 -18v-1q0 -5 -1 -7q-15 -38 -37 -50t-40 -12q-20 0 -39.5 7t-36.5 15q-13 5 -24.5 10t-19.5 5q-3 0 -4.5 -1t-3.5 -6q-1 -1 -1 -2q-5 -10 -12 -12t-10 -2z" />
    <glyph glyph-name="Odieresis" unicode="&#xd6;" horiz-adv-x="890" 
d="M907 712q39 -54 39 -142q0 -42 -7.5 -87t-24.5 -95q-27 -83 -70.5 -156.5t-99.5 -128.5q-58 -56 -120 -86q-66 -33 -134 -33q-122 0 -182 65q-55 60 -55 163q0 57 18.5 127t53.5 145q26 57 57 107t63 85q-32 7 -65 15.5t-65 17.5q-62 17 -116.5 30t-93.5 13q-14 0 -26 -3
q4 -8 4 -19q0 -16 -11 -27t-28 -11q-16 0 -27 11t-11 27q0 2 0.5 4t0.5 4q5 29 32 46.5t67 17.5q44 0 99.5 -13t117.5 -30q43 -12 85.5 -23t80.5 -17q34 26 63.5 37t60.5 11q27 0 39.5 -13.5t12.5 -29.5q0 -10 -5 -20q29 33 63 50.5t68 17.5q38 0 67 -16q30 -16 49 -44z
M592 537q0 38 14.5 77.5t40.5 73.5q-7 -7 -19 -12q-30 -14 -70 -14q-32 -31 -65.5 -83t-61.5 -113q-33 -72 -51 -137t-18 -117q0 -80 41 -127.5t110 -47.5q66 0 134 48t128 136q28 41 50.5 86t38 90t24 89t8.5 83q0 72 -28 114q-29 39 -77 39q-26 0 -52.5 -15t-48.5 -43
q-22 -27 -34.5 -60t-12.5 -65q0 -5 1 -19t6 -30.5t14.5 -32.5t26.5 -25q13 18 33 18q16 0 26.5 -10.5t10.5 -26.5q0 -17 -12 -28.5t-30 -11.5q-71 0 -105 65q-14 29 -18 57.5t-4 41.5zM668 927q20 0 33.5 -13t13.5 -33q0 -27 -23 -48q-22 -19 -48 -19q-20 0 -33 12t-13 32
q0 4 0.5 9t2.5 10q7 21 26 35.5t41 14.5zM826 927q20 0 33.5 -13t13.5 -33q0 -27 -23 -48q-22 -19 -48 -19q-20 0 -33 12t-13 32q0 4 0.5 9t2.5 10q7 21 26 35.5t41 14.5z" />
    <glyph glyph-name="Scaron" unicode="&#x160;" horiz-adv-x="828" 
d="M952 694q1 -5 1.5 -11t0.5 -14q0 -67 -57 -131v-1q-5 -5 -10.5 -6t-8.5 -1q-10 0 -17.5 7t-7.5 17q0 8 3 12t5 6q43 51 43 98q0 21 -6 34.5t-11 20.5q-8 10 -14.5 13.5t-10.5 3.5q-38 0 -74 -77q-19 -41 -35.5 -94t-32.5 -108q-5 -17 -10 -37t-10 -42q-6 -29 -13.5 -60
t-17.5 -63t-22 -63t-27 -59q-32 -62 -79 -96q-55 -40 -125 -40q-61 0 -109 31q-41 25 -63 72q-22 -7 -43.5 -11t-41.5 -4h-14l-1 1q-80 6 -119 63q-14 20 -22 46.5t-8 52.5q0 13 2 24.5t5 21.5q8 22 19.5 27.5t18.5 5.5q17 0 28 -11t11 -28q0 -14 -10 -24.5t-24 -12.5
q0 -2 -0.5 -2.5t-0.5 -2.5q0 -46 31.5 -77.5t79.5 -33.5q27 3 68 25q-9 37 -9 78q0 59 15 111.5t43 94.5q30 44 68.5 66.5t82.5 22.5q70 0 106 -39q17 -20 21 -39t4 -28q0 -36 -22 -79t-58.5 -86t-84 -80.5t-98.5 -61.5q7 -13 17.5 -26t25.5 -23.5t34.5 -17t45.5 -6.5h1
q56 0 101 95q22 48 39.5 107.5t34.5 125.5l20 76q3 13 7 23q18 68 35 125.5t40 99.5q25 49 55 70q36 27 82 27q11 0 30 -3t39 -16q42 -29 54 -88v-1zM329 441q-30 -34 -47.5 -86t-17.5 -109q0 -14 1 -27t3 -25q35 24 67.5 55.5t61.5 66.5q30 38 47.5 72t17.5 54q0 5 -1.5 13
t-6 15.5t-12.5 13t-20 5.5q-53 0 -93 -48zM944 939q11 0 18 -6.5t7 -17.5q0 -8 -2.5 -12t-4.5 -6q-1 0 -1 -0.5t-1 -0.5l-93 -76q-3 -3 -7 -4q-2 0 -4 -1t-5 -1h-1q-5 0 -8 3h-1q-2 1 -5.5 3t-6.5 8l-44 74q-3 4 -3 10v2q0 11 7 18t17 7t18 -6l38 -28l69 31q6 3 13 3z" />
    <glyph glyph-name="Oslash" unicode="&#xd8;" horiz-adv-x="890" 
d="M930 648q10 -36 10 -82q-2 -88 -31 -182h-1q-27 -83 -70.5 -156.5t-99.5 -128.5q-58 -56 -120 -86q-66 -33 -134 -33q-60 0 -115 22q-39 16 -65 41l-38 -41q-2 -2 -4 -3t-4 -3q-3 -1 -6.5 -2t-8.5 -1q-15 0 -24 11t-11 25q-1 7 4 16l52 59q-18 45 -18 103q0 57 19 127.5
t54 145.5q26 57 57 107t63 85q-32 7 -65 15.5t-65 17.5q-62 17 -116.5 30t-93.5 13q-14 0 -26 -3q4 -8 4 -19q0 -16 -11 -27t-28 -11q-16 0 -27 11t-11 27v3l1 1q2 31 33 51q28 17 66 17q44 0 99.5 -13t117.5 -30q43 -12 85.5 -23t80.5 -17q34 26 63.5 37t60.5 11
q27 0 39.5 -13.5t12.5 -29.5q0 -10 -5 -20q29 33 63 50.5t68 17.5h8q8 -1 17.5 -2t19.5 -5l8 -3l8 9q1 1 1 2q10 8 21 8q17 0 25 -13.5t10 -19.5q4 -8 6 -17t3 -15q1 -8 -3 -15q6 -10 11.5 -22.5t9.5 -26.5zM507 33q66 0 134 48t128 136q28 41 50.5 86t38 90t24 89t8.5 83
q0 58 -17 93l-203 -219q8 -8 15 -11q11 18 33 18q16 0 26.5 -10.5t10.5 -26.5q0 -17 -12 -28.5t-32 -11.5l-2 1q-45 5 -73 31l-262 -283q17 -39 52 -62t81 -23zM586 531q0 38 14.5 78t40.5 75q-8 -7 -19 -12q-30 -14 -70 -14q-32 -31 -65.5 -83.5t-62.5 -114.5
q-32 -69 -49.5 -134.5t-18.5 -116.5l237 269q-3 13 -5 26t-2 27zM785 718q-30 0 -57 -17t-47.5 -44t-32.5 -60t-12 -64q0 -3 1 -5l74 84l92 105q-5 1 -9 1h-9z" />
    <glyph glyph-name="Eth" unicode="&#xd0;" horiz-adv-x="1227" 
d="M1291 296q2 -2 2 -9q0 -4 -2.5 -11t-16.5 -11l-16 -3q-5 -1 -19 -1.5t-30.5 -1.5t-31.5 -1.5t-20 -0.5l-28 -3q-20 -68 -59 -136q-20 -35 -42.5 -66t-48.5 -59q-52 -55 -109 -86q-62 -34 -117 -34q-39 0 -64 17q-11 8 -22.5 23.5t-11.5 42.5q0 40 29 89q31 53 94 104
q65 53 126 85.5t122 48.5q12 46 17.5 89.5t5.5 94.5q0 35 -4.5 83.5t-21.5 97.5q-21 64 -57 98q2 -3 2 -11q0 -10 -6.5 -17.5t-17.5 -7.5q-7 0 -15 4h-3q-33 0 -68 -72q-18 -38 -35 -87t-34 -106l-8 -25l86 -6h4q24 -8 24 -33q0 -8 -3 -15.5t-5 -9.5q-5 -8 -14 -8
q-15 -2 -39.5 -3t-53.5 -2q-6 0 -12 -0.5t-12 -0.5q-22 -65 -46 -125t-58 -111q-40 -62 -89 -96q-29 -19 -61 -29t-67 -10q-58 0 -108 31q-23 14 -40.5 32t-28.5 40q-44 -15 -82 -15q-30 0 -60.5 12t-55.5 32q-29 24 -44 56.5t-15 68.5q0 22 5 40q7 23 19.5 28t18.5 5
q15 0 26.5 -10.5t13.5 -26.5v-2q0 -14 -9 -24.5t-23 -12.5q1 -23 10.5 -43.5t24.5 -35.5t33 -24t35 -9q34 0 81 22q-15 45 -15 101q0 58 14.5 107.5t40 86t60 57t75.5 20.5q78 0 114 -43q17 -20 21 -40t4 -32q0 -39 -23 -84q-11 -21 -26 -43t-33 -43q-35 -40 -76.5 -72.5
t-85.5 -54.5q7 -12 17.5 -25t26 -24t36.5 -18t48 -7q42 0 81 39q32 32 61 89q18 37 35.5 83.5t36.5 105.5q-11 0 -20.5 -0.5t-16.5 -1.5q-1 0 -1.5 -0.5t-1.5 -0.5q-13 0 -21.5 8.5t-8.5 21.5q0 11 5.5 24.5t16.5 31.5q7 10 19 9l55 -3q2 4 4 12l11 36q18 63 35.5 116
t38.5 91q24 44 53 64q34 24 77 24q5 0 15 -1t21 -4l13 -4q-35 23 -84 23q-45 0 -91.5 -20t-85.5 -58q-38 -36 -59.5 -78.5t-21.5 -81.5v-2h3q16 0 27 -11.5t11 -28.5q0 -15 -11 -26t-28 -11q-8 0 -20.5 5.5t-21.5 25.5q-6 12 -8 25.5t-2 24.5q0 61 34 120q29 50 80 89
q45 35 98 56.5t102 25.5h2q8 1 16 1.5t16 0.5q68 0 120 -31q49 -29 81 -85q30 -49 45 -116.5t15 -148.5q0 -46 -3.5 -82.5t-12.5 -74.5q7 1 24.5 1.5t36.5 1t35 1t22 0.5t15.5 -2t14.5 -13zM706 -50q1 -5 5.5 -14.5t25.5 -9.5h2q21 0 45.5 13t49.5 34t49.5 48t44.5 55
q18 24 39.5 61t40.5 88q-50 -17 -97.5 -45t-100.5 -70q-49 -41 -77 -81.5t-28 -72.5q0 -2 1 -3v-3zM447 446q-12 15 -35 15q-52 0 -89 -47q-25 -32 -39 -78t-14 -97q0 -37 9 -73q32 23 63 54t57 65q28 38 43 71t15 55q0 20 -10 35z" />
    <glyph glyph-name="Cacute" unicode="&#x106;" horiz-adv-x="780" 
d="M803 296q11 0 18 -7.5t7 -17.5q0 -8 -5 -13q-6 -11 -19 -29t-31.5 -40t-41.5 -46t-50 -48q-60 -52 -115 -82q-68 -36 -125 -36q-72 0 -111 44q-39 43 -39 131q0 48 12 104t36 116q19 49 43 94.5t51 85.5l-14 2q-50 9 -100 15.5t-95 6.5q-69 0 -108 -20.5t-57 -65.5
q17 -12 17 -32q0 -16 -11.5 -27t-27.5 -11q-17 0 -27.5 11t-10.5 31v4q15 79 72 120q56 40 154 40q48 0 99 -7t102 -15l41 -7l13 17h1q29 33 61 61t64 49q70 44 124 44q33 0 52.5 -11.5t30.5 -22.5q23 -28 23 -68q0 -75 -71 -110q-32 -17 -69 -21.5t-65 -4.5q-23 0 -46.5 2
t-43.5 4q-30 -43 -56 -92.5t-44.5 -100.5t-29 -100t-10.5 -91q0 -17 2 -38t9 -39.5t19 -31t33 -12.5q39 0 90.5 31t113.5 91q22 22 42 43.5t35.5 39.5t26 30.5t13.5 17.5l-1 -1l1 1q0 1 0.5 1t0.5 1q5 10 17 10zM785 668q0 17 -10 31t-27 14q-20 0 -49 -17.5t-63 -50.5
q-17 -16 -32 -32.5t-27 -30.5q13 -1 25.5 -1.5t25.5 -0.5q66 0 106 17q39 18 49 52q1 5 1.5 9.5t0.5 9.5zM756 805q-17 8 -22.5 17.5t-5.5 17.5q0 12 10 22l86 84q10 10 23 4h1q21 -10 37.5 -21.5t16.5 -28.5q0 -5 -2 -12t-10 -12h-2q-20 -12 -34.5 -21.5t-27.5 -17.5
l-51 -31q-6 -3 -11 -3q-4 0 -8 2z" />
    <glyph glyph-name="Ccaron" unicode="&#x10c;" horiz-adv-x="780" 
d="M803 296q11 0 18 -7.5t7 -17.5q0 -8 -5 -13q-6 -11 -19 -29t-31.5 -40t-41.5 -46t-50 -48q-60 -52 -115 -82q-68 -36 -125 -36q-72 0 -111 44q-39 43 -39 131q0 48 12 104t36 116q19 49 43 94.5t51 85.5l-14 2q-50 9 -100 15.5t-95 6.5q-69 0 -108 -20.5t-57 -65.5
q17 -12 17 -32q0 -16 -11.5 -27t-27.5 -11q-17 0 -27.5 11t-10.5 31v4q15 79 72 120q56 40 154 40q48 0 99 -7t102 -15l41 -7l13 17h1q29 33 61 61t64 49q70 44 124 44q33 0 52.5 -11.5t30.5 -22.5q23 -28 23 -68q0 -75 -71 -110q-32 -17 -69 -21.5t-65 -4.5q-23 0 -46.5 2
t-43.5 4q-30 -43 -56 -92.5t-44.5 -100.5t-29 -100t-10.5 -91q0 -17 2 -38t9 -39.5t19 -31t33 -12.5q39 0 90.5 31t113.5 91q22 22 42 43.5t35.5 39.5t26 30.5t13.5 17.5l-1 -1l1 1q0 1 0.5 1t0.5 1q5 10 17 10zM785 668q0 17 -10 31t-27 14q-20 0 -49 -17.5t-63 -50.5
q-17 -16 -32 -32.5t-27 -30.5q13 -1 25.5 -1.5t25.5 -0.5q66 0 106 17q39 18 49 52q1 5 1.5 9.5t0.5 9.5zM674 894q-3 4 -3 10v2q0 11 7 18t17 7t18 -6l38 -28l69 30q5 4 13 4q11 0 18 -7t7 -17q0 -8 -2.5 -12t-4.5 -6l-2 -2l-93 -76l-7 -3q-4 -2 -9 -2h-1q-4 0 -8 2h-1
q-2 1 -5.5 3.5t-6.5 7.5z" />
    <glyph glyph-name="Dcaron" unicode="&#x10e;" horiz-adv-x="1220" 
d="M1282 305q2 -2 2 -9q0 -4 -2.5 -11t-16.5 -11l-16 -3q-5 -1 -17.5 -2.5t-27.5 -3t-28.5 -3t-18.5 -1.5l-28 -3q-20 -68 -59 -136q-20 -35 -42.5 -66t-48.5 -59q-52 -55 -109 -86q-62 -34 -117 -34q-39 0 -64 17q-11 8 -22.5 23.5t-11.5 42.5q0 40 29 89q31 53 94 104
q65 53 126 85.5t122 48.5q12 46 17.5 89.5t5.5 94.5q0 35 -4.5 83.5t-21.5 97.5q-21 64 -57 98q2 -3 2 -11q0 -10 -6.5 -17.5t-17.5 -7.5q-7 0 -15 4h-3q-33 0 -68 -72q-18 -38 -35 -87t-34 -106l-9 -27q-22 -72 -49 -148.5t-65 -142.5q-43 -72 -95 -111q-62 -45 -136 -45
q-58 0 -108 31q-23 14 -40.5 32t-28.5 40q-44 -15 -82 -15q-30 0 -60.5 12t-55.5 32q-29 24 -44 56.5t-15 68.5q0 22 5 40q7 23 19.5 28t18.5 5q15 0 26.5 -10.5t13.5 -26.5v-2q0 -14 -9 -24.5t-23 -12.5q1 -23 10.5 -43.5t24.5 -35.5t33 -24t35 -9q34 0 81 22
q-15 45 -15 101q0 58 14.5 107.5t40 86t60 57t75.5 20.5q78 0 114 -43q17 -20 21 -40t4 -32q0 -39 -23 -84q-11 -21 -26 -43t-33 -43q-35 -40 -76.5 -72.5t-85.5 -54.5q7 -12 17.5 -25t26 -24t36.5 -18t48 -7q43 0 81 39q32 30 61 89q36 75 61 153.5t46 150.5q19 66 36 121
t40 97q23 47 55 71q34 28 79 28q27 0 54 -12q-36 26 -89 26q-45 0 -91.5 -20t-85.5 -58q-38 -36 -59.5 -78.5t-21.5 -81.5v-2h3q16 0 27 -11.5t11 -28.5q0 -15 -11 -26t-28 -11q-8 0 -20.5 5.5t-21.5 25.5q-6 12 -8 25.5t-2 24.5q0 61 34 120q29 50 80 89q45 35 98 56.5
t102 25.5h2q8 1 16 1.5t16 0.5q68 0 120 -31q49 -29 81 -85q30 -49 45 -116.5t15 -148.5q0 -46 -3.5 -82.5t-12.5 -74.5q7 1 23 2.5t33.5 3t32 2.5t20.5 1t15.5 -2t14.5 -13zM706 -46q1 -5 5.5 -14.5t25.5 -9.5h2q21 0 45.5 13t49.5 34t49.5 48t44.5 55q18 24 39.5 61
t40.5 88q-50 -17 -97.5 -45t-100.5 -70q-49 -41 -77 -81.5t-28 -72.5q0 -2 1 -3v-3zM447 450q-12 15 -35 15q-52 0 -89 -47q-25 -32 -39 -78t-14 -97q0 -37 9 -73q32 23 63 54t57 65q28 38 43 71t15 55q0 20 -10 35zM884 974q-3 4 -3 10v2q0 11 7 18t17 7t18 -6l38 -28
l69 30q5 4 13 4q11 0 18 -7t7 -17q0 -8 -2.5 -12t-4.5 -6l-2 -2l-93 -76l-7 -3q-4 -2 -9 -2h-1q-4 0 -8 2h-1q-2 1 -5.5 3.5t-6.5 7.5z" />
    <glyph glyph-name="Dcroat" unicode="&#x110;" horiz-adv-x="1235" 
d="M1288 293q2 -2 2 -9q0 -4 -2.5 -11t-16.5 -11l-16 -3q-5 -1 -19 -1.5t-30.5 -1.5t-31.5 -1.5t-20 -0.5l-28 -3q-20 -68 -59 -136q-20 -35 -42.5 -66t-48.5 -59q-52 -55 -109 -86q-62 -34 -117 -34q-39 0 -64 17q-11 8 -22.5 23.5t-11.5 42.5q0 40 29 89q31 53 94 104
q65 53 126 85.5t122 48.5q12 46 17.5 89.5t5.5 94.5q0 35 -4.5 83.5t-21.5 97.5q-21 64 -57 98q2 -3 2 -11q0 -10 -6.5 -17.5t-17.5 -7.5q-7 0 -15 4h-3q-33 0 -68 -72q-18 -38 -35 -87t-34 -106l-8 -25l86 -6h4q24 -8 24 -33q0 -8 -3 -15.5t-5 -9.5q-5 -8 -14 -8
q-15 -2 -39.5 -3t-53.5 -2q-6 0 -12 -0.5t-12 -0.5q-22 -65 -46 -125t-58 -111q-40 -62 -89 -96q-29 -19 -61 -29t-67 -10q-58 0 -108 31q-23 14 -40.5 32t-28.5 40q-44 -15 -82 -15q-30 0 -60.5 12t-55.5 32q-29 24 -44 56.5t-15 68.5q0 22 5 40q7 23 19.5 28t18.5 5
q15 0 26.5 -10.5t13.5 -26.5v-2q0 -14 -9 -24.5t-23 -12.5q1 -23 10.5 -43.5t24.5 -35.5t33 -24t35 -9q34 0 81 22q-15 45 -15 101q0 58 14.5 107.5t40 86t60 57t75.5 20.5q78 0 114 -43q17 -20 21 -40t4 -32q0 -39 -23 -84q-11 -21 -26 -43t-33 -43q-35 -40 -76.5 -72.5
t-85.5 -54.5q7 -12 17.5 -25t26 -24t36.5 -18t48 -7q42 0 81 39q32 32 61 89q18 37 35.5 83.5t36.5 105.5q-11 0 -20.5 -0.5t-16.5 -1.5q-1 0 -1.5 -0.5t-1.5 -0.5q-13 0 -21.5 8.5t-8.5 21.5q0 11 5.5 24.5t16.5 31.5q7 10 19 9l55 -3q2 4 4 12l11 36q18 63 35.5 116
t38.5 91q24 44 53 64q34 24 77 24q27 0 54 -12q-36 26 -89 26q-45 0 -91.5 -20t-85.5 -58q-38 -36 -59.5 -78.5t-21.5 -81.5v-2h3q16 0 27 -11.5t11 -28.5q0 -15 -11 -26t-28 -11q-8 0 -20.5 5.5t-21.5 25.5q-6 12 -8 25.5t-2 24.5q0 61 34 120q29 50 80 89q45 35 98 56.5
t102 25.5h2q8 1 16 1.5t16 0.5q68 0 120 -31q49 -29 81 -85q30 -49 45 -116.5t15 -148.5q0 -46 -3.5 -82.5t-12.5 -74.5q7 1 24.5 1.5t36.5 1t35 1t22 0.5t15.5 -2t14.5 -13zM703 -53q1 -5 5.5 -14.5t25.5 -9.5h2q21 0 45.5 13t49.5 34t49.5 48t44.5 55q18 24 39.5 61
t40.5 88q-50 -17 -97.5 -45t-100.5 -70q-49 -41 -77 -81.5t-28 -72.5q0 -2 1 -3v-3zM444 443q-12 15 -35 15q-52 0 -89 -47q-25 -32 -39 -78t-14 -97q0 -37 9 -73q32 23 63 54t57 65q28 38 43 71t15 55q0 20 -10 35z" />
    <glyph glyph-name="Ohungarumlaut" unicode="&#x150;" horiz-adv-x="890" 
d="M907 712q39 -54 39 -142q0 -42 -7.5 -87t-24.5 -95q-27 -83 -70.5 -156.5t-99.5 -128.5q-58 -56 -120 -86q-66 -33 -134 -33q-122 0 -182 65q-55 60 -55 163q0 57 18.5 127t53.5 145q26 57 57 107t63 85q-32 7 -65 15.5t-65 17.5q-62 17 -116.5 30t-93.5 13q-14 0 -26 -3
q4 -8 4 -19q0 -16 -11 -27t-28 -11q-16 0 -27 11t-11 27q0 2 0.5 4t0.5 4q5 29 32 46.5t67 17.5q44 0 99.5 -13t117.5 -30q43 -12 85.5 -23t80.5 -17q34 26 63.5 37t60.5 11q27 0 39.5 -13.5t12.5 -29.5q0 -10 -5 -20q29 33 63 50.5t68 17.5q38 0 67 -16q30 -16 49 -44z
M592 537q0 38 14.5 77.5t40.5 73.5q-7 -7 -19 -12q-30 -14 -70 -14q-32 -31 -65.5 -83t-61.5 -113q-33 -72 -51 -137t-18 -117q0 -80 41 -127.5t110 -47.5q66 0 134 48t128 136q28 41 50.5 86t38 90t24 89t8.5 83q0 72 -28 114q-29 39 -77 39q-26 0 -52.5 -15t-48.5 -43
q-22 -27 -34.5 -60t-12.5 -65q0 -5 1 -19t6 -30.5t14.5 -32.5t26.5 -25q13 18 33 18q16 0 26.5 -10.5t10.5 -26.5q0 -17 -12 -28.5t-30 -11.5q-71 0 -105 65q-14 29 -18 57.5t-4 41.5zM777 942q0 -5 -1 -8t-3 -6q0 -2 -2 -4q-16 -18 -26.5 -31.5t-19.5 -25.5
q-16 -22 -37 -47q-7 -7 -16 -7h-2l-10 2t-10 3q-19 9 -19 29q0 2 0.5 5.5t2.5 8.5l52 108q7 13 20 11h3q6 -1 15.5 -2t18.5 -3q21 -5 27.5 -15t6.5 -18zM883 975q21 -5 27.5 -15t6.5 -18q0 -5 -1 -8t-3 -6q0 -2 -2 -4q-16 -18 -26.5 -31.5t-19.5 -25.5q-16 -22 -37 -47
q-7 -7 -16 -7h-2l-10 2t-10 3q-19 9 -19 29q0 2 0.5 5.5t2.5 8.5l52 108q7 13 20 11h3q6 -1 15.5 -2t18.5 -3z" />
    <glyph glyph-name="Rcaron" unicode="&#x158;" horiz-adv-x="1183" 
d="M927 715q-33 -2 -69 -73q-18 -37 -34.5 -86.5t-34.5 -106.5l-8 -27q-23 -72 -49.5 -149t-64.5 -142q-43 -72 -95 -110q-62 -45 -136 -45q-28 0 -56 8t-53 22q-23 14 -40 32t-28 41q-44 -15 -82 -15q-30 0 -61 11.5t-55 32.5q-59 50 -59 125q0 26 4 39q7 23 19.5 28.5
t19.5 5.5q15 0 26.5 -11t13.5 -26v-2q0 -15 -9.5 -25.5t-23.5 -12.5q1 -23 10.5 -43.5t24.5 -35.5t33.5 -23.5t35.5 -8.5q32 0 80 21q-14 47 -14 102q0 58 14.5 107.5t40 86t60 57t75.5 20.5q77 0 114 -43q17 -20 21 -40.5t4 -31.5q0 -39 -24 -85q-11 -20 -25.5 -42
t-33.5 -43q-35 -40 -76.5 -73t-84.5 -55q7 -12 17.5 -24.5t26 -23.5t36.5 -18t48 -7q41 0 81 38q31 33 60 90q37 74 62 152.5t45 150.5q19 66 36 121t40 98q26 48 55 71q36 28 80 28q29 0 61 -16q14 -8 14 -23q0 -11 -7 -18t-17 -7q-5 0 -9 1t-7 2q-1 0 -1 0.5t-1 0.5z
M1229 296q14 -6 14 -23v-2q0 -3 -2 -9q-38 -77 -82 -149.5t-109 -136.5q-33 -33 -72 -33q-17 0 -37 10t-32 42q-14 34 -14 99q0 23 1 47.5t3 48.5q2 25 3 50t1 48q0 47 -5.5 75t-15 43.5t-21 20.5t-23.5 6h-6q-11 0 -18 7t-7 18t7 18t18 7h6q29 0 62.5 15.5t62.5 43.5
q31 29 47.5 61.5t16.5 64.5q0 30 -13 53.5t-34.5 39t-48.5 23.5t-55 8q-39 0 -86 -19.5t-89 -51.5q-14 -11 -31 -27.5t-32 -38.5t-25 -48t-10 -56v-4h3q15 0 26.5 -11.5t11.5 -27.5t-11 -27t-28 -11q-8 0 -20.5 5t-21.5 25q-6 13 -8 26.5t-2 24.5q0 62 35 120q30 51 86 93
q53 40 116.5 62t124.5 22q47 0 87.5 -12.5t70.5 -36.5q31 -25 47.5 -58.5t16.5 -72.5q0 -48 -27 -91q-23 -39 -65 -70q-52 -40 -117 -60q11 -8 22 -18t20 -24v-1q12 -20 20 -44.5t12.5 -50t6 -50.5t1.5 -47q0 -29 -1.5 -56.5t-3.5 -52.5q-1 -20 -2 -37.5t-1 -32.5
q0 -12 0.5 -19t1.5 -11q6 4 7 6q2 1 2.5 2t1.5 2q30 29 54 59.5t45 64t40.5 70t40.5 77.5q6 14 23 14h2q3 0 9 -2zM447 446q-12 16 -34 16q-53 0 -89 -47q-25 -32 -39 -78t-14 -97q0 -38 9 -74q32 24 63 54.5t56 65.5q28 37 43.5 70t15.5 56q0 20 -11 34zM864 974
q-3 4 -3 10v2q0 11 7 18t17 7t18 -6l38 -28l69 30q5 4 13 4q11 0 18 -7t7 -17q0 -8 -2.5 -12t-4.5 -6l-2 -2l-93 -76l-7 -3q-4 -2 -9 -2h-1q-4 0 -8 2h-1q-2 1 -5.5 3.5t-6.5 7.5z" />
    <glyph glyph-name="Scedilla" unicode="&#x15e;" horiz-adv-x="828" 
d="M953 691q1 -5 1.5 -11t0.5 -14q0 -67 -57 -131v-1q-5 -5 -10.5 -6t-8.5 -1q-10 0 -17.5 7t-7.5 17q0 8 3 12t5 6q43 51 43 98q0 21 -6 34.5t-11 20.5q-8 10 -14.5 13.5t-10.5 3.5q-38 0 -74 -77q-19 -41 -35.5 -94t-32.5 -108q-5 -17 -10 -37t-10 -42q-6 -29 -13.5 -60
t-17.5 -63t-22 -63t-27 -59q-32 -62 -79 -96q-55 -40 -125 -40q-61 0 -109 31q-41 25 -63 72q-22 -7 -43.5 -11t-41.5 -4h-14l-1 1q-80 6 -119 63q-14 20 -22 46.5t-8 52.5q0 13 2 24.5t5 21.5q8 22 19.5 27.5t18.5 5.5q17 0 28 -11t11 -28q0 -14 -10 -24.5t-24 -12.5
q0 -2 -0.5 -2.5t-0.5 -2.5q0 -46 31.5 -77.5t79.5 -33.5q27 3 68 25q-9 37 -9 78q0 59 15 111.5t43 94.5q30 44 68.5 66.5t82.5 22.5q70 0 106 -39q17 -20 21 -39t4 -28q0 -36 -22 -79t-58.5 -86t-84 -80.5t-98.5 -61.5q7 -13 17.5 -26t25.5 -23.5t34.5 -17t45.5 -6.5h1
q56 0 101 95q22 48 39.5 107.5t34.5 125.5l20 76q3 13 7 23q18 68 35 125.5t40 99.5q25 49 55 70q36 27 82 27q11 0 30 -3t39 -16q42 -29 54 -88v-1zM330 438q-30 -34 -47.5 -86t-17.5 -109q0 -14 1 -27t3 -25q35 24 67.5 55.5t61.5 66.5q30 38 47.5 72t17.5 54q0 5 -1.5 13
t-6 15.5t-12.5 13t-20 5.5q-53 0 -93 -48zM413 -134q0 -18 -5 -39.5t-17 -42.5t-31.5 -39.5t-47.5 -31.5q-6 -4 -13 -4q-11 0 -18.5 7t-7.5 18q0 8 4 12.5t6 6.5l1 1l2 1q9 6 17.5 21t16 34t12 39t4.5 36q0 8 -2.5 14.5t-4.5 10.5q-2 3 -3.5 5.5t-1.5 7.5q0 10 8 17.5
t18 7.5q29 0 48 -31q7 -11 11 -24.5t4 -25.5v-1z" />
    <glyph glyph-name="uni0162" unicode="&#x162;" horiz-adv-x="809" 
d="M1171 772q3 -6 6 -16t3 -20q0 -17 -10.5 -28.5t-27.5 -11.5q-16 0 -27.5 11.5t-11.5 26.5q0 12 8 23q-9 4 -25 7q-30 6 -80 6h-28.5t-29.5 -1l10 -5q13 -7 13 -23q0 -10 -6.5 -17.5t-17.5 -7.5q-7 0 -15 4h-3q-33 0 -68 -72q-18 -38 -35 -87t-34 -106l-9 -27
q-22 -72 -49 -148.5t-65 -142.5q-43 -72 -95 -111q-62 -45 -136 -45q-58 0 -108 31q-23 14 -40.5 32t-28.5 40q-44 -15 -82 -15q-30 0 -60.5 12t-55.5 32q-29 24 -44 56.5t-15 68.5q0 22 5 40q7 23 19.5 28t18.5 5q15 0 26.5 -10.5t13.5 -26.5v-2q0 -14 -9 -24.5t-23 -12.5
q1 -23 10.5 -43.5t24.5 -35.5t33 -24t35 -9q34 0 81 22q-15 45 -15 101q0 58 14.5 107.5t40 86t60 57t75.5 20.5q78 0 114 -43q17 -20 21 -40t4 -32q0 -39 -23 -84q-11 -21 -26 -43t-33 -43q-35 -40 -76.5 -72.5t-85.5 -54.5q7 -12 17.5 -25t26 -24t36.5 -18t48 -7
q43 0 81 39q32 30 61 89q36 75 61 153.5t46 150.5q19 66 36 121t40 97q23 47 55 71q3 3 6.5 5.5t6.5 4.5q-15 -1 -29.5 -1.5t-29.5 -0.5q-81 0 -120 16q-35 13 -45.5 33.5t-10.5 37.5q0 14 10.5 26t27.5 12t28 -11t11 -28q0 -13 -8 -23q20 -10 49.5 -11.5t54.5 -1.5
q29 0 59 1.5t60 3.5t60.5 3.5t59.5 1.5q24 0 49 -1.5t46.5 -6.5t39 -14t28.5 -25q0 -1 1 -1zM450 452q-12 15 -35 15q-52 0 -89 -47q-25 -32 -39 -78t-14 -97q0 -37 9 -73q32 23 63 54t57 65q28 38 43 71t15 55q0 20 -10 35zM446 -137q0 -18 -5 -39.5t-17 -42.5t-31.5 -39.5
t-47.5 -31.5q-6 -4 -13 -4q-11 0 -18.5 7t-7.5 18q0 8 4 12.5t6 6.5l1 1l2 1q9 6 17.5 21t16 34t12 39t4.5 36q0 8 -2.5 14.5t-4.5 10.5q-2 3 -3.5 5.5t-1.5 7.5q0 10 8 17.5t18 7.5q29 0 48 -31q7 -11 11 -24.5t4 -25.5v-1z" />
    <glyph glyph-name="Racute" unicode="&#x154;" horiz-adv-x="1183" 
d="M924 711q-33 -2 -69 -73q-18 -37 -34.5 -86.5t-34.5 -106.5l-8 -27q-23 -72 -49.5 -149t-64.5 -142q-43 -72 -95 -110q-62 -45 -136 -45q-28 0 -56 8t-53 22q-23 14 -40 32t-28 41q-44 -15 -82 -15q-30 0 -61 11.5t-55 32.5q-59 50 -59 125q0 26 4 39q7 23 19.5 28.5
t19.5 5.5q15 0 26.5 -11t13.5 -26v-2q0 -15 -9.5 -25.5t-23.5 -12.5q1 -23 10.5 -43.5t24.5 -35.5t33.5 -23.5t35.5 -8.5q32 0 80 21q-14 47 -14 102q0 58 14.5 107.5t40 86t60 57t75.5 20.5q77 0 114 -43q17 -20 21 -40.5t4 -31.5q0 -39 -24 -85q-11 -20 -25.5 -42
t-33.5 -43q-35 -40 -76.5 -73t-84.5 -55q7 -12 17.5 -24.5t26 -23.5t36.5 -18t48 -7q41 0 81 38q31 33 60 90q37 74 62 152.5t45 150.5q19 66 36 121t40 98q26 48 55 71q36 28 80 28q29 0 61 -16q14 -8 14 -23q0 -11 -7 -18t-17 -7q-5 0 -9 1t-7 2q-1 0 -1 0.5t-1 0.5z
M1226 292q14 -6 14 -23v-2q0 -3 -2 -9q-38 -77 -82 -149.5t-109 -136.5q-33 -33 -72 -33q-17 0 -37 10t-32 42q-14 34 -14 99q0 23 1 47.5t3 48.5q2 25 3 50t1 48q0 47 -5.5 75t-15 43.5t-21 20.5t-23.5 6h-6q-11 0 -18 7t-7 18t7 18t18 7h6q29 0 62.5 15.5t62.5 43.5
q31 29 47.5 61.5t16.5 64.5q0 30 -13 53.5t-34.5 39t-48.5 23.5t-55 8q-39 0 -86 -19.5t-89 -51.5q-14 -11 -31 -27.5t-32 -38.5t-25 -48t-10 -56v-4h3q15 0 26.5 -11.5t11.5 -27.5t-11 -27t-28 -11q-8 0 -20.5 5t-21.5 25q-6 13 -8 26.5t-2 24.5q0 62 35 120q30 51 86 93
q53 40 116.5 62t124.5 22q47 0 87.5 -12.5t70.5 -36.5q31 -25 47.5 -58.5t16.5 -72.5q0 -48 -27 -91q-23 -39 -65 -70q-52 -40 -117 -60q11 -8 22 -18t20 -24v-1q12 -20 20 -44.5t12.5 -50t6 -50.5t1.5 -47q0 -29 -1.5 -56.5t-3.5 -52.5q-1 -20 -2 -37.5t-1 -32.5
q0 -12 0.5 -19t1.5 -11q6 4 7 6q2 1 2.5 2t1.5 2q30 29 54 59.5t45 64t40.5 70t40.5 77.5q6 14 23 14h2q3 0 9 -2zM444 442q-12 16 -34 16q-53 0 -89 -47q-25 -32 -39 -78t-14 -97q0 -38 9 -74q32 24 63 54.5t56 65.5q28 37 43.5 70t15.5 56q0 20 -11 34zM926 875
q-17 8 -22.5 17.5t-5.5 17.5q0 12 10 22l86 84q10 10 23 4h1q21 -10 37.5 -21.5t16.5 -28.5q0 -5 -2 -12t-10 -12h-2q-20 -12 -34.5 -21.5t-27.5 -17.5l-51 -31q-6 -3 -11 -3q-4 0 -8 2z" />
    <glyph glyph-name="Sacute" unicode="&#x15a;" horiz-adv-x="828" 
d="M953 691q1 -5 1.5 -11t0.5 -14q0 -67 -57 -131v-1q-5 -5 -10.5 -6t-8.5 -1q-10 0 -17.5 7t-7.5 17q0 8 3 12t5 6q43 51 43 98q0 21 -6 34.5t-11 20.5q-8 10 -14.5 13.5t-10.5 3.5q-38 0 -74 -77q-19 -41 -35.5 -94t-32.5 -108q-5 -17 -10 -37t-10 -42q-6 -29 -13.5 -60
t-17.5 -63t-22 -63t-27 -59q-32 -62 -79 -96q-55 -40 -125 -40q-61 0 -109 31q-41 25 -63 72q-22 -7 -43.5 -11t-41.5 -4h-14l-1 1q-80 6 -119 63q-14 20 -22 46.5t-8 52.5q0 13 2 24.5t5 21.5q8 22 19.5 27.5t18.5 5.5q17 0 28 -11t11 -28q0 -14 -10 -24.5t-24 -12.5
q0 -2 -0.5 -2.5t-0.5 -2.5q0 -46 31.5 -77.5t79.5 -33.5q27 3 68 25q-9 37 -9 78q0 59 15 111.5t43 94.5q30 44 68.5 66.5t82.5 22.5q70 0 106 -39q17 -20 21 -39t4 -28q0 -36 -22 -79t-58.5 -86t-84 -80.5t-98.5 -61.5q7 -13 17.5 -26t25.5 -23.5t34.5 -17t45.5 -6.5h1
q56 0 101 95q22 48 39.5 107.5t34.5 125.5l20 76q3 13 7 23q18 68 35 125.5t40 99.5q25 49 55 70q36 27 82 27q11 0 30 -3t39 -16q42 -29 54 -88v-1zM330 438q-30 -34 -47.5 -86t-17.5 -109q0 -14 1 -27t3 -25q35 24 67.5 55.5t61.5 66.5q30 38 47.5 72t17.5 54q0 5 -1.5 13
t-6 15.5t-12.5 13t-20 5.5q-53 0 -93 -48zM986 960q21 -9 37.5 -21t16.5 -29q0 -5 -2 -11.5t-10 -11.5q-1 0 -1 -0.5t-1 -0.5l-62 -38l-51 -32q-6 -3 -11 -3t-8 3q-17 8 -22.5 17.5t-5.5 16.5q0 11 10 23l86 84q10 9 23 4z" />
    <glyph glyph-name="Tcaron" unicode="&#x164;" horiz-adv-x="809" 
d="M1171 793q3 -6 6 -15.5t3 -19.5q0 -17 -10.5 -28.5t-27.5 -11.5q-16 0 -27.5 11t-11.5 27q0 12 8 22q-5 2 -11 4t-14 4q-30 6 -80 6q-14 0 -28.5 -0.5t-29.5 -1.5q2 -1 4.5 -2t5.5 -2q13 -8 13 -23q0 -11 -6.5 -18t-17.5 -7q-5 0 -8.5 1t-6.5 2q-1 0 -1.5 0.5t-1.5 0.5
q-34 -2 -68 -73q-18 -37 -35 -86.5t-34 -106.5l-9 -27q-22 -72 -49 -148.5t-65 -142.5q-43 -72 -95 -110q-60 -45 -136 -45q-28 0 -56 8t-52 22q-47 29 -69 73q-44 -15 -82 -15q-30 0 -60.5 11.5t-55.5 32.5q-59 50 -59 125q0 22 5 39q7 23 19.5 28.5t18.5 5.5
q15 0 26.5 -11t13.5 -26v-2q0 -15 -9 -25.5t-23 -12.5q1 -23 10.5 -43.5t24.5 -35.5t33 -23.5t35 -8.5q33 0 81 21q-15 45 -15 102q0 58 14.5 107.5t40 86t60 57t75.5 20.5q77 0 114 -43q17 -20 21 -40.5t4 -31.5q0 -40 -23 -85q-21 -41 -59 -85q-35 -40 -76.5 -73
t-85.5 -55q7 -12 17.5 -24.5t26 -23.5t36.5 -18t48 -7q43 0 81 38q32 32 61 90q36 74 61 152.5t46 150.5q19 66 36 121t40 98q25 48 55 71l13 10q-15 -1 -29.5 -1.5t-29.5 -0.5q-80 0 -120 15q-35 14 -45.5 34.5t-10.5 37.5q0 14 10.5 26t27.5 12t28 -11.5t11 -27.5
q0 -13 -8 -24q20 -9 49.5 -10.5t54.5 -1.5q29 0 59 1.5t60 3.5t60.5 3.5t59.5 1.5q24 0 49 -1.5t46.5 -6.5t39 -14.5t28.5 -25.5zM450 473q-12 16 -35 16q-51 0 -89 -47q-25 -32 -39 -78t-14 -97q0 -38 9 -74q32 24 63 54.5t57 65.5q28 37 43 70t15 56q0 19 -10 34zM820 943
q-3 4 -3 10v2q0 11 7 18t17 7t18 -6l38 -28l69 30q5 4 13 4q11 0 18 -7t7 -17q0 -8 -2.5 -12t-4.5 -6l-2 -2l-93 -76l-7 -3q-4 -2 -9 -2h-1q-4 0 -8 2h-1q-2 1 -5.5 3.5t-6.5 7.5z" />
    <glyph glyph-name="L" unicode="L" horiz-adv-x="922" 
d="M949 301q11 0 18 -7.5t7 -18.5q0 -9 -2 -12q-44 -77 -85 -134.5t-81 -95.5q-34 -34 -71 -54q-46 -25 -92 -25q-51 0 -103 21.5t-108 47.5q-16 8 -31 15t-31 14q-21 -25 -44 -39.5t-47 -22t-47 -10t-42 -2.5q-14 0 -33 1.5t-37 6.5q-34 11 -43 29.5t-9 31.5q0 22 12 40
t34 31t52 20t66 7q17 0 33.5 -1t36.5 -3q26 54 43 122.5t31 138.5q9 43 18 83.5t20 76.5l-71 21q-55 17 -105.5 30t-92.5 13q-50 0 -75 -21q7 -10 7 -23q0 -16 -11 -27t-28 -11q-16 0 -27 11t-11 27q0 22 13 39.5t33.5 29.5t46.5 18.5t52 6.5q52 0 114 -16.5t125 -35.5l9 -3
l37 -11q35 93 106 132q48 27 109 27q32 0 60 -9t48 -26q21 -16 32 -37.5t11 -44.5q0 -58 -46 -96t-117 -38q-24 0 -53 4t-62 12q-8 -32 -15 -67t-15 -73q-14 -73 -31 -144.5t-46 -130.5q48 -14 86.5 -31.5t70.5 -32.5q35 -16 62 -27t47 -11q47 0 111 69q33 35 68 85t72 116
q5 10 11.5 12t9.5 2zM744 668q-7 19 -30.5 33.5t-47.5 14.5q-26 0 -47.5 -14.5t-38 -35t-28.5 -44t-19 -41.5q64 -14 102 -14q51 0 83 27q29 23 29 58q0 7 -3 16zM118 49q0 -5 4 -8q4 -5 12.5 -7t19.5 -2q10 0 23.5 2t29 8t31.5 17t31 29q-27 6 -52 6q-32 0 -51 -6.5
t-29 -14.5q-11 -8 -15 -15t-4 -9z" />
    <glyph glyph-name="Lacute" unicode="&#x139;" horiz-adv-x="922" 
d="M949 301q11 0 18 -7.5t7 -18.5q0 -9 -2 -12q-44 -77 -85 -134.5t-81 -95.5q-34 -34 -71 -54q-46 -25 -92 -25q-51 0 -103 21.5t-108 47.5q-16 8 -31 15t-31 14q-21 -25 -44 -39.5t-47 -22t-47 -10t-42 -2.5q-14 0 -33 1.5t-37 6.5q-34 11 -43 29.5t-9 31.5q0 22 12 40
t34 31t52 20t66 7q17 0 33.5 -1t36.5 -3q26 54 43 122.5t31 138.5q9 43 18 83.5t20 76.5l-71 21q-55 17 -105.5 30t-92.5 13q-50 0 -75 -21q7 -10 7 -23q0 -16 -11 -27t-28 -11q-16 0 -27 11t-11 27q0 22 13 39.5t33.5 29.5t46.5 18.5t52 6.5q52 0 114 -16.5t125 -35.5l9 -3
l37 -11q35 93 106 132q48 27 109 27q32 0 60 -9t48 -26q21 -16 32 -37.5t11 -44.5q0 -58 -46 -96t-117 -38q-24 0 -53 4t-62 12q-8 -32 -15 -67t-15 -73q-14 -73 -31 -144.5t-46 -130.5q48 -14 86.5 -31.5t70.5 -32.5q35 -16 62 -27t47 -11q47 0 111 69q33 35 68 85t72 116
q5 10 11.5 12t9.5 2zM744 668q-7 19 -30.5 33.5t-47.5 14.5q-26 0 -47.5 -14.5t-38 -35t-28.5 -44t-19 -41.5q64 -14 102 -14q51 0 83 27q29 23 29 58q0 7 -3 16zM676 805q-17 8 -22.5 17.5t-5.5 17.5q0 12 10 22l86 84q10 10 23 4h1q21 -10 37.5 -21.5t16.5 -28.5
q0 -5 -2 -12t-10 -12h-2q-20 -12 -34.5 -21.5t-27.5 -17.5l-51 -31q-6 -3 -11 -3q-4 0 -8 2zM118 49q0 -5 4 -8q4 -5 12.5 -7t19.5 -2q10 0 23.5 2t29 8t31.5 17t31 29q-27 6 -52 6q-32 0 -51 -6.5t-29 -14.5q-11 -8 -15 -15t-4 -9z" />
    <glyph glyph-name="Lcaron" unicode="&#x13d;" horiz-adv-x="922" 
d="M951 295q11 0 18 -7.5t7 -18.5v-2q0 -7 -2 -10q-44 -77 -85 -134.5t-81 -95.5q-34 -34 -71 -54q-46 -25 -92 -25q-51 0 -103 21.5t-108 47.5q-16 8 -31 15t-31 14q-21 -25 -44 -39.5t-47 -22t-47 -10t-42 -2.5q-14 0 -33 1.5t-37 6.5q-34 11 -43 29.5t-9 31.5q0 22 12 40
t34 31t52 20t66 7q17 0 33.5 -1t36.5 -3q26 54 43 122.5t31 138.5q9 43 18 83.5t20 76.5l-71 21q-55 17 -105.5 30t-92.5 13q-50 0 -75 -21q7 -10 7 -23q0 -16 -11 -27t-28 -11q-16 0 -27 11t-11 27q0 22 13 39.5t33.5 29.5t46.5 18.5t52 6.5q52 0 114 -16.5t125 -35.5l9 -3
l37 -11q35 93 106 132q48 27 109 27q32 0 60 -9t48 -26q21 -16 32 -37.5t11 -44.5q0 -58 -46 -96t-117 -38q-24 0 -53 4t-62 12q-8 -32 -15 -67t-15 -73q-14 -73 -31 -144.5t-46 -130.5q48 -14 86.5 -31.5t70.5 -32.5q35 -16 62 -27t47 -11q47 0 111 69q33 35 68 85t72 116
q5 10 11.5 12t9.5 2zM746 662q-7 19 -30.5 33.5t-47.5 14.5q-26 0 -47.5 -14.5t-38 -35t-28.5 -44t-19 -41.5q64 -14 102 -14q51 0 83 27q29 23 29 58q0 7 -3 16zM831 480q-11 0 -18.5 7t-7.5 18q0 8 4 12.5t6 6.5l3 2q9 6 17.5 21t16 34t12 39t4.5 36q0 8 -2.5 14.5
t-4.5 10.5q-2 3 -3.5 5.5t-1.5 7.5q0 10 8 17.5t18 7.5q29 0 48 -31q7 -11 11 -24.5t4 -25.5v-1q0 -18 -5 -39.5t-17 -42.5t-31.5 -39.5t-47.5 -31.5q-6 -4 -13 -4zM120 43q0 -5 4 -8q4 -5 12.5 -7t19.5 -2q10 0 23.5 2t29 8t31.5 17t31 29q-27 6 -52 6q-32 0 -51 -6.5
t-29 -14.5q-11 -8 -15 -15t-4 -9z" />
    <glyph glyph-name="Lslash" unicode="&#x141;" horiz-adv-x="922" 
d="M950 292q11 0 18 -7.5t7 -18.5v-2q0 -7 -2 -10q-44 -77 -85 -134.5t-81 -95.5q-34 -34 -71 -54q-46 -25 -92 -25q-51 0 -103 21.5t-108 47.5q-16 8 -31 15t-31 14q-21 -25 -44 -39.5t-47 -22t-47 -10t-42 -2.5q-14 0 -33 1.5t-37 6.5q-34 11 -43 29.5t-9 31.5q0 22 12 40
t34 31t52 20t66 7q17 0 33.5 -1t36.5 -3q11 23 20 50t17 53l-8 -4q-4 -2 -7.5 -2.5t-6.5 -0.5t-12.5 3.5t-14.5 18.5q-3 10 -3 25q0 10 1 18t2 13q2 13 13 16l62 20l12 54l3 13q8 38 15.5 74.5t18.5 69.5l-71 21q-55 17 -105.5 30t-92.5 13q-50 0 -75 -21q7 -10 7 -23
q0 -16 -11 -27t-28 -11q-16 0 -27 11t-11 27q0 22 13 39.5t33.5 29.5t46.5 18.5t52 6.5q52 0 114 -16.5t125 -35.5l9 -3l37 -11q35 93 106 132q48 27 109 27q32 0 60 -9t48 -26q21 -16 32 -37.5t11 -44.5q0 -58 -46 -96t-117 -38q-24 0 -53 4t-61 12q-5 -20 -9.5 -41.5
t-9.5 -44.5l-12 -56l22 8q2 1 6 1h3q15 0 24 -10t9 -26q0 -13 -9.5 -21t-20.5 -15l-43 -20q-3 -1 -5.5 -2t-4.5 -2q-13 -60 -27 -105.5t-31 -80.5q48 -14 86.5 -31.5t70.5 -32.5q35 -16 62 -27t47 -11q47 0 111 69q33 35 68 85t72 116q5 10 11.5 12t9.5 2zM745 659
q-7 19 -30.5 33.5t-47.5 14.5q-26 0 -47.5 -14.5t-38 -35t-28.5 -44t-19 -41.5q64 -14 102 -14q51 0 83 27q29 23 29 58q0 7 -3 16zM119 40q0 -5 4 -8q4 -5 12.5 -7t19.5 -2q10 0 23.5 2t29 8t31.5 17t31 29q-27 6 -52 6q-32 0 -51 -6.5t-29 -14.5q-11 -8 -15 -15t-4 -9z
" />
    <glyph glyph-name="U" unicode="U" horiz-adv-x="1027" 
d="M1061 306q10 0 18 -6q2 -2 5 -7t3 -13q0 -6 -2 -9q-1 -1 -1 -3l-5 -8q-20 -33 -42 -67.5t-47.5 -67.5t-55 -62.5t-63.5 -51.5q-35 -23 -66 -23q-39 0 -62 29q-21 27 -21 74q0 10 1 20.5t3 21.5l-8 -12q-15 -20 -34.5 -44t-42.5 -44q-56 -47 -113 -47q-41 0 -63 24
q-20 22 -20 59q0 38 16 87.5t38 109.5q12 35 25 71.5t23 73.5t16.5 73t6.5 69q0 31 -8 62.5t-27 57t-49 41.5t-73 16q-41 0 -75 -18q20 -28 36 -62t29 -71q15 -43 22.5 -85t7.5 -78q0 -62 -19 -97q-28 -51 -88 -51q-71 0 -119 53q-51 56 -51 142q0 69 31 142q27 61 72 108
q-17 27 -45 48.5t-62 21.5q-32 0 -57 -18t-38 -42q16 -11 16 -32q0 -15 -11 -26t-28 -11q-16 0 -27 11t-11 26v2q0 27 13.5 53t38.5 47q23 20 50.5 30.5t54.5 10.5q47 0 95 -30q15 -10 30 -23t29 -29q28 17 62 26t72 9q111 0 176 -65q63 -63 63 -166q0 -36 -7 -74.5
t-17.5 -77.5t-24 -77.5t-26.5 -74.5q-19 -53 -34.5 -99.5t-15.5 -77.5q0 -11 3 -19t8 -8q4 0 17.5 6t40.5 33q17 17 31 34.5t22 28.5q50 69 80.5 133t53.5 121l7 17q6 16 15.5 40t21.5 52t26.5 58.5t29.5 59.5q42 81 78 118.5t68 37.5q27 0 41 -20q12 -17 12 -43
q0 -22 -8.5 -50t-20 -55.5t-24 -51.5t-20.5 -39q-31 -54 -65 -100.5t-60 -71.5q-17 -42 -33.5 -84.5t-29.5 -81.5t-21.5 -70.5t-8.5 -50.5q0 -10 1.5 -14t2.5 -6t2 -2q8 0 23 10q30 20 55 45t47 53.5t42.5 61t41.5 67.5l5 9q6 13 22 13zM283 665q-35 -41 -56 -95t-21 -107
q0 -10 1.5 -20.5t3.5 -22.5q1 -6 5.5 -20.5t14 -30.5t25 -28t38.5 -12q7 0 15 4t16 18q14 26 14 76q0 23 -3.5 52t-11 61t-18 64t-23.5 61zM1003 575q19 36 32.5 67.5t19.5 54.5q-1 -1 -1 -3q-11 -24 -26.5 -58t-32.5 -76q2 4 4 7.5t4 7.5z" />
    <glyph glyph-name="Ugrave" unicode="&#xd9;" horiz-adv-x="1042" 
d="M1066 299q11 0 18 -7q2 -2 5 -6.5t3 -12.5q0 -7 -2 -10q-1 -1 -1 -2l-5 -9q-20 -33 -42 -67.5t-47.5 -67t-55 -62t-63.5 -52.5q-34 -22 -66 -22q-39 0 -62 29q-21 25 -21 74q0 10 1 20t3 21l-8 -12q-15 -20 -34.5 -44t-42.5 -44q-57 -46 -113 -46q-40 0 -63 23
q-20 22 -20 60t16 87.5t38 108.5q12 35 25 72t23 73.5t16.5 73t6.5 69.5q0 31 -8 62.5t-27 57t-49 41.5t-73 16q-39 0 -75 -19q20 -28 36 -61.5t29 -71.5q15 -43 22.5 -84.5t7.5 -77.5q0 -63 -19 -98q-27 -50 -88 -50q-71 0 -119 53q-51 56 -51 142q0 70 31 141
q27 62 72 109q-17 26 -45 48t-62 22q-32 0 -57 -18t-38 -42q16 -11 16 -32q0 -15 -11 -26t-28 -11q-16 0 -27 10.5t-11 26.5v2q0 26 13.5 52t38.5 47q23 20 50.5 31t54.5 11q47 0 95 -30q15 -10 30 -23t29 -29q28 17 62 26t72 9q110 0 176 -66q63 -62 63 -165
q0 -36 -7 -74.5t-17.5 -77.5t-24 -77.5t-26.5 -75.5q-19 -53 -34.5 -99.5t-15.5 -76.5q0 -12 3 -19.5t8 -7.5q4 0 17.5 6t40.5 33q17 17 31 34t22 28v1q50 69 80.5 133t53.5 120l7 17q6 16 15.5 40t21.5 52t26.5 58.5t29.5 60.5q42 80 78 118t68 38q27 0 41 -20
q12 -17 12 -43q0 -22 -8.5 -50t-20 -55.5t-24 -51.5t-20.5 -39q-31 -55 -65 -101.5t-60 -71.5q-17 -42 -33.5 -84.5t-29.5 -81t-21.5 -70t-8.5 -50.5q0 -10 1.5 -14.5t2.5 -6.5q1 -1 2 -1q9 0 23 9v1q30 20 55 44.5t47 53.5t42.5 61t41.5 67l5 10q6 13 22 13zM288 658
q-35 -41 -56 -95t-21 -107q0 -18 5 -43q1 -6 5.5 -20.5t14 -30.5t25 -28t38.5 -12q7 0 15 3.5t16 17.5q14 28 14 77q0 22 -3.5 51.5t-11 61t-18 64t-23.5 61.5zM718 864q-8 5 -10.5 12t-2.5 12q0 17 17 28.5t38 21.5h1q13 7 22 -4l86 -84l3 -3q6 -9 6 -19q0 -23 -26 -35
q-4 -2 -9 -2q-6 0 -10 3l-51 31q-13 8 -27.5 17.5t-35.5 21.5h-1zM1008 567q19 36 32.5 67.5t19.5 54.5q-1 -1 -1 -2q-11 -25 -26.5 -59t-32.5 -76q2 4 4 7.5t4 7.5z" />
    <glyph glyph-name="Uacute" unicode="&#xda;" horiz-adv-x="1027" 
d="M1061 306q10 0 18 -6q2 -2 5 -7t3 -13q0 -6 -2 -9q-1 -1 -1 -3l-5 -8q-20 -33 -42 -67.5t-47.5 -67.5t-55 -62.5t-63.5 -51.5q-35 -23 -66 -23q-39 0 -62 29q-21 27 -21 74q0 10 1 20.5t3 21.5l-8 -12q-15 -20 -34.5 -44t-42.5 -44q-56 -47 -113 -47q-41 0 -63 24
q-20 22 -20 59q0 38 16 87.5t38 109.5q12 35 25 71.5t23 73.5t16.5 73t6.5 69q0 31 -8 62.5t-27 57t-49 41.5t-73 16q-41 0 -75 -18q20 -28 36 -62t29 -71q15 -43 22.5 -85t7.5 -78q0 -62 -19 -97q-28 -51 -88 -51q-71 0 -119 53q-51 56 -51 142q0 69 31 142q27 61 72 108
q-17 27 -45 48.5t-62 21.5q-32 0 -57 -18t-38 -42q16 -11 16 -32q0 -15 -11 -26t-28 -11q-16 0 -27 11t-11 26v2q0 27 13.5 53t38.5 47q23 20 50.5 30.5t54.5 10.5q47 0 95 -30q15 -10 30 -23t29 -29q28 17 62 26t72 9q111 0 176 -65q63 -63 63 -166q0 -36 -7 -74.5
t-17.5 -77.5t-24 -77.5t-26.5 -74.5q-19 -53 -34.5 -99.5t-15.5 -77.5q0 -11 3 -19t8 -8q4 0 17.5 6t40.5 33q17 17 31 34.5t22 28.5q50 69 80.5 133t53.5 121l7 17q6 16 15.5 40t21.5 52t26.5 58.5t29.5 59.5q42 81 78 118.5t68 37.5q27 0 41 -20q12 -17 12 -43
q0 -22 -8.5 -50t-20 -55.5t-24 -51.5t-20.5 -39q-31 -54 -65 -100.5t-60 -71.5q-17 -42 -33.5 -84.5t-29.5 -81.5t-21.5 -70.5t-8.5 -50.5q0 -10 1.5 -14t2.5 -6t2 -2q8 0 23 10q30 20 55 45t47 53.5t42.5 61t41.5 67.5l5 9q6 13 22 13zM283 665q-35 -41 -56 -95t-21 -107
q0 -10 1.5 -20.5t3.5 -22.5q1 -6 5.5 -20.5t14 -30.5t25 -28t38.5 -12q7 0 15 4t16 18q14 26 14 76q0 23 -3.5 52t-11 61t-18 64t-23.5 61zM756 805q-17 8 -22.5 17.5t-5.5 17.5q0 12 10 22l86 84q10 10 23 4h1q21 -10 37.5 -21.5t16.5 -28.5q0 -5 -2 -12t-10 -12h-2
q-20 -12 -34.5 -21.5t-27.5 -17.5l-51 -31q-6 -3 -11 -3q-4 0 -8 2zM1003 575q19 36 32.5 67.5t19.5 54.5q-1 -1 -1 -3q-11 -24 -26.5 -58t-32.5 -76q2 4 4 7.5t4 7.5z" />
    <glyph glyph-name="Ucircumflex" unicode="&#xdb;" horiz-adv-x="1027" 
d="M1061 306q10 0 18 -6q2 -2 5 -7t3 -13q0 -6 -2 -9q-1 -1 -1 -3l-5 -8q-20 -33 -42 -67.5t-47.5 -67.5t-55 -62.5t-63.5 -51.5q-35 -23 -66 -23q-39 0 -62 29q-21 27 -21 74q0 10 1 20.5t3 21.5l-8 -12q-15 -20 -34.5 -44t-42.5 -44q-56 -47 -113 -47q-41 0 -63 24
q-20 22 -20 59q0 38 16 87.5t38 109.5q12 35 25 71.5t23 73.5t16.5 73t6.5 69q0 31 -8 62.5t-27 57t-49 41.5t-73 16q-41 0 -75 -18q20 -28 36 -62t29 -71q15 -43 22.5 -85t7.5 -78q0 -62 -19 -97q-28 -51 -88 -51q-71 0 -119 53q-51 56 -51 142q0 69 31 142q27 61 72 108
q-17 27 -45 48.5t-62 21.5q-32 0 -57 -18t-38 -42q16 -11 16 -32q0 -15 -11 -26t-28 -11q-16 0 -27 11t-11 26v2q0 27 13.5 53t38.5 47q23 20 50.5 30.5t54.5 10.5q47 0 95 -30q15 -10 30 -23t29 -29q28 17 62 26t72 9q111 0 176 -65q63 -63 63 -166q0 -36 -7 -74.5
t-17.5 -77.5t-24 -77.5t-26.5 -74.5q-19 -53 -34.5 -99.5t-15.5 -77.5q0 -11 3 -19t8 -8q4 0 17.5 6t40.5 33q17 17 31 34.5t22 28.5q50 69 80.5 133t53.5 121l7 17q6 16 15.5 40t21.5 52t26.5 58.5t29.5 59.5q42 81 78 118.5t68 37.5q27 0 41 -20q12 -17 12 -43
q0 -22 -8.5 -50t-20 -55.5t-24 -51.5t-20.5 -39q-31 -54 -65 -100.5t-60 -71.5q-17 -42 -33.5 -84.5t-29.5 -81.5t-21.5 -70.5t-8.5 -50.5q0 -10 1.5 -14t2.5 -6t2 -2q8 0 23 10q30 20 55 45t47 53.5t42.5 61t41.5 67.5l5 9q6 13 22 13zM283 665q-35 -41 -56 -95t-21 -107
q0 -10 1.5 -20.5t3.5 -22.5q1 -6 5.5 -20.5t14 -30.5t25 -28t38.5 -12q7 0 15 4t16 18q14 26 14 76q0 23 -3.5 52t-11 61t-18 64t-23.5 61zM891 807q3 -5 3 -10v-2q0 -11 -7 -18t-17 -7q-11 0 -18 6l-38 28l-69 -31q-6 -3 -14 -3q-10 0 -17 7t-7 17q0 8 3.5 13t6.5 7l92 75
q2 2 3.5 2.5t3.5 1.5q4 2 9 2h1q3 0 9 -2q2 -1 5.5 -3.5t6.5 -7.5zM1003 575q19 36 32.5 67.5t19.5 54.5q-1 -1 -1 -3q-11 -24 -26.5 -58t-32.5 -76q2 4 4 7.5t4 7.5z" />
    <glyph glyph-name="Udieresis" unicode="&#xdc;" horiz-adv-x="1027" 
d="M1061 306q10 0 18 -6q2 -2 5 -7t3 -13q0 -6 -2 -9q-1 -1 -1 -3l-5 -8q-20 -33 -42 -67.5t-47.5 -67.5t-55 -62.5t-63.5 -51.5q-35 -23 -66 -23q-39 0 -62 29q-21 27 -21 74q0 10 1 20.5t3 21.5l-8 -12q-15 -20 -34.5 -44t-42.5 -44q-56 -47 -113 -47q-41 0 -63 24
q-20 22 -20 59q0 38 16 87.5t38 109.5q12 35 25 71.5t23 73.5t16.5 73t6.5 69q0 31 -8 62.5t-27 57t-49 41.5t-73 16q-41 0 -75 -18q20 -28 36 -62t29 -71q15 -43 22.5 -85t7.5 -78q0 -62 -19 -97q-28 -51 -88 -51q-71 0 -119 53q-51 56 -51 142q0 69 31 142q27 61 72 108
q-17 27 -45 48.5t-62 21.5q-32 0 -57 -18t-38 -42q16 -11 16 -32q0 -15 -11 -26t-28 -11q-16 0 -27 11t-11 26v2q0 27 13.5 53t38.5 47q23 20 50.5 30.5t54.5 10.5q47 0 95 -30q15 -10 30 -23t29 -29q28 17 62 26t72 9q111 0 176 -65q63 -63 63 -166q0 -36 -7 -74.5
t-17.5 -77.5t-24 -77.5t-26.5 -74.5q-19 -53 -34.5 -99.5t-15.5 -77.5q0 -11 3 -19t8 -8q4 0 17.5 6t40.5 33q17 17 31 34.5t22 28.5q50 69 80.5 133t53.5 121l7 17q6 16 15.5 40t21.5 52t26.5 58.5t29.5 59.5q42 81 78 118.5t68 37.5q27 0 41 -20q12 -17 12 -43
q0 -22 -8.5 -50t-20 -55.5t-24 -51.5t-20.5 -39q-31 -54 -65 -100.5t-60 -71.5q-17 -42 -33.5 -84.5t-29.5 -81.5t-21.5 -70.5t-8.5 -50.5q0 -10 1.5 -14t2.5 -6t2 -2q8 0 23 10q30 20 55 45t47 53.5t42.5 61t41.5 67.5l5 9q6 13 22 13zM283 665q-35 -41 -56 -95t-21 -107
q0 -10 1.5 -20.5t3.5 -22.5q1 -6 5.5 -20.5t14 -30.5t25 -28t38.5 -12q7 0 15 4t16 18q14 26 14 76q0 23 -3.5 52t-11 61t-18 64t-23.5 61zM738 927q20 0 33.5 -13t13.5 -33q0 -27 -23 -48q-22 -19 -48 -19q-20 0 -33 12t-13 32q0 4 0.5 9t2.5 10q7 21 26 35.5t41 14.5z
M896 927q20 0 33.5 -13t13.5 -33q0 -27 -23 -48q-22 -19 -48 -19q-20 0 -33 12t-13 32q0 4 0.5 9t2.5 10q7 21 26 35.5t41 14.5zM1003 575q19 36 32.5 67.5t19.5 54.5q-1 -1 -1 -3q-11 -24 -26.5 -58t-32.5 -76q2 4 4 7.5t4 7.5z" />
    <glyph glyph-name="Uring" unicode="&#x16e;" horiz-adv-x="1027" 
d="M1061 306q10 0 18 -6q2 -2 5 -7t3 -13q0 -6 -2 -9q-1 -1 -1 -3l-5 -8q-20 -33 -42 -67.5t-47.5 -67.5t-55 -62.5t-63.5 -51.5q-35 -23 -66 -23q-39 0 -62 29q-21 27 -21 74q0 10 1 20.5t3 21.5l-8 -12q-15 -20 -34.5 -44t-42.5 -44q-56 -47 -113 -47q-41 0 -63 24
q-20 22 -20 59q0 38 16 87.5t38 109.5q12 35 25 71.5t23 73.5t16.5 73t6.5 69q0 31 -8 62.5t-27 57t-49 41.5t-73 16q-41 0 -75 -18q20 -28 36 -62t29 -71q15 -43 22.5 -85t7.5 -78q0 -62 -19 -97q-28 -51 -88 -51q-71 0 -119 53q-51 56 -51 142q0 69 31 142q27 61 72 108
q-17 27 -45 48.5t-62 21.5q-32 0 -57 -18t-38 -42q16 -11 16 -32q0 -15 -11 -26t-28 -11q-16 0 -27 11t-11 26v2q0 27 13.5 53t38.5 47q23 20 50.5 30.5t54.5 10.5q47 0 95 -30q15 -10 30 -23t29 -29q28 17 62 26t72 9q111 0 176 -65q63 -63 63 -166q0 -36 -7 -74.5
t-17.5 -77.5t-24 -77.5t-26.5 -74.5q-19 -53 -34.5 -99.5t-15.5 -77.5q0 -11 3 -19t8 -8q4 0 17.5 6t40.5 33q17 17 31 34.5t22 28.5q50 69 80.5 133t53.5 121l7 17q6 16 15.5 40t21.5 52t26.5 58.5t29.5 59.5q42 81 78 118.5t68 37.5q27 0 41 -20q12 -17 12 -43
q0 -22 -8.5 -50t-20 -55.5t-24 -51.5t-20.5 -39q-31 -54 -65 -100.5t-60 -71.5q-17 -42 -33.5 -84.5t-29.5 -81.5t-21.5 -70.5t-8.5 -50.5q0 -10 1.5 -14t2.5 -6t2 -2q8 0 23 10q30 20 55 45t47 53.5t42.5 61t41.5 67.5l5 9q6 13 22 13zM283 665q-35 -41 -56 -95t-21 -107
q0 -10 1.5 -20.5t3.5 -22.5q1 -6 5.5 -20.5t14 -30.5t25 -28t38.5 -12q7 0 15 4t16 18q14 26 14 76q0 23 -3.5 52t-11 61t-18 64t-23.5 61zM818 912q26 0 42.5 -16t16.5 -42q0 -18 -7.5 -35t-21.5 -31q-29 -27 -66 -27q-24 0 -39 16q-16 16 -16 42q0 35 27 64q26 29 64 29z
M811 856q0 6 -1 7q-6 -2 -12 -15.5t-6 -28.5q0 -2 0.5 -4.5t0.5 -4.5q8 5 13 18t5 28zM1003 575q19 36 32.5 67.5t19.5 54.5q-1 -1 -1 -3q-11 -24 -26.5 -58t-32.5 -76q2 4 4 7.5t4 7.5z" />
    <glyph glyph-name="Uhungarumlaut" unicode="&#x170;" horiz-adv-x="1027" 
d="M1061 306q10 0 18 -6q2 -2 5 -7t3 -13q0 -6 -2 -9q-1 -1 -1 -3l-5 -8q-20 -33 -42 -67.5t-47.5 -67.5t-55 -62.5t-63.5 -51.5q-35 -23 -66 -23q-39 0 -62 29q-21 27 -21 74q0 10 1 20.5t3 21.5l-8 -12q-15 -20 -34.5 -44t-42.5 -44q-56 -47 -113 -47q-41 0 -63 24
q-20 22 -20 59q0 38 16 87.5t38 109.5q12 35 25 71.5t23 73.5t16.5 73t6.5 69q0 31 -8 62.5t-27 57t-49 41.5t-73 16q-41 0 -75 -18q20 -28 36 -62t29 -71q15 -43 22.5 -85t7.5 -78q0 -62 -19 -97q-28 -51 -88 -51q-71 0 -119 53q-51 56 -51 142q0 69 31 142q27 61 72 108
q-17 27 -45 48.5t-62 21.5q-32 0 -57 -18t-38 -42q16 -11 16 -32q0 -15 -11 -26t-28 -11q-16 0 -27 11t-11 26v2q0 27 13.5 53t38.5 47q23 20 50.5 30.5t54.5 10.5q47 0 95 -30q15 -10 30 -23t29 -29q28 17 62 26t72 9q111 0 176 -65q63 -63 63 -166q0 -36 -7 -74.5
t-17.5 -77.5t-24 -77.5t-26.5 -74.5q-19 -53 -34.5 -99.5t-15.5 -77.5q0 -11 3 -19t8 -8q4 0 17.5 6t40.5 33q17 17 31 34.5t22 28.5q50 69 80.5 133t53.5 121l7 17q6 16 15.5 40t21.5 52t26.5 58.5t29.5 59.5q42 81 78 118.5t68 37.5q27 0 41 -20q12 -17 12 -43
q0 -22 -8.5 -50t-20 -55.5t-24 -51.5t-20.5 -39q-31 -54 -65 -100.5t-60 -71.5q-17 -42 -33.5 -84.5t-29.5 -81.5t-21.5 -70.5t-8.5 -50.5q0 -10 1.5 -14t2.5 -6t2 -2q8 0 23 10q30 20 55 45t47 53.5t42.5 61t41.5 67.5l5 9q6 13 22 13zM283 665q-35 -41 -56 -95t-21 -107
q0 -10 1.5 -20.5t3.5 -22.5q1 -6 5.5 -20.5t14 -30.5t25 -28t38.5 -12q7 0 15 4t16 18q14 26 14 76q0 23 -3.5 52t-11 61t-18 64t-23.5 61zM867 942q0 -5 -1 -8t-3 -6q0 -2 -2 -4q-16 -18 -26.5 -31.5t-19.5 -25.5q-16 -22 -37 -47q-7 -7 -16 -7h-2l-10 2t-10 3
q-19 9 -19 29q0 2 0.5 5.5t2.5 8.5l52 108q7 13 20 11h3q6 -1 15.5 -2t18.5 -3q21 -5 27.5 -15t6.5 -18zM973 975q21 -5 27.5 -15t6.5 -18q0 -5 -1 -8t-3 -6q0 -2 -2 -4q-16 -18 -26.5 -31.5t-19.5 -25.5q-16 -22 -37 -47q-7 -7 -16 -7h-2l-10 2t-10 3q-19 9 -19 29
q0 2 0.5 5.5t2.5 8.5l52 108q7 13 20 11h3q6 -1 15.5 -2t18.5 -3zM1003 575q19 36 32.5 67.5t19.5 54.5q-1 -1 -1 -3q-11 -24 -26.5 -58t-32.5 -76q2 4 4 7.5t4 7.5z" />
    <glyph glyph-name="Y" unicode="Y" horiz-adv-x="1170" 
d="M1195 297q11 0 18.5 -7t7.5 -18q0 -10 -4 -15q-8 -14 -17 -30.5t-19 -36.5q-20 -40 -45.5 -86.5t-57.5 -85.5q-35 -44 -73 -68q-44 -28 -95 -28q-3 0 -4 1l-8 -21q-34 -93 -86 -177q-25 -39 -52 -74t-57 -65q-59 -60 -120 -93t-117 -37h-15q-35 0 -64.5 10t-51 28
t-34 42.5t-12.5 53.5q0 58 47 129q42 63 113 123q71 59 146 94q82 38 150 38h12t14 -1l15 -3q11 -5 13.5 -12.5t2.5 -10.5v-1q32 81 55 164.5t39 162.5t26 149.5t16 125.5l-110 -241l-13 -26q-21 -45 -47.5 -98.5t-61 -99t-77 -76t-94.5 -30.5q-40 0 -61.5 21t-21.5 62
q0 38 16 87.5t38 108.5q12 35 25 72t23 73.5t16.5 73t6.5 69.5q0 31 -8 62.5t-27 57t-49 41.5t-73 16q-39 0 -75 -19q20 -28 36 -61.5t29 -71.5q15 -43 22.5 -84.5t7.5 -77.5q0 -63 -19 -98q-27 -50 -88 -50q-71 0 -119 53q-51 56 -51 142q0 70 31 141q27 62 72 109
q-17 26 -45 48t-62 22q-32 0 -57 -18t-38 -42q16 -11 16 -32q0 -15 -11 -26t-28 -11q-16 0 -27 10.5t-11 26.5v2q0 26 13.5 52t38.5 47q23 20 50.5 31t54.5 11q47 0 95 -30q15 -10 30 -23t29 -29q28 17 62 26t72 9q110 0 176 -66q63 -62 63 -165q0 -36 -7 -74.5t-17.5 -77.5
t-24 -77.5t-26.5 -75.5q-19 -53 -34.5 -99.5t-15.5 -76.5q0 -13 3.5 -20t7.5 -7q2 0 7.5 1.5t15.5 8.5h1q29 19 53 46.5t44.5 60t38 69t34.5 72.5l15 32q18 39 37.5 81t37.5 82t34.5 76t29.5 64l30 66q5 14 21 27t54 13h15q9 0 15 -7q6 -6 5 -15q0 -6 -0.5 -12.5t-1.5 -14.5
q-2 -31 -6.5 -77t-13.5 -121q-11 -100 -35.5 -226.5t-80.5 -292.5q68 6 131 95v1q12 16 24 36t23.5 41t22.5 42.5t20 39.5q7 13 12.5 24l9.5 19q7 11 12.5 19t16.5 8zM655 -324q43 55 77.5 119.5t62.5 133.5q-7 -7 -17 -7h-8t-9 1q-4 0 -7.5 0.5t-7.5 0.5q-56 0 -127 -32
t-138 -88q-32 -26 -57.5 -54.5t-44.5 -56.5q-40 -58 -40 -101q0 -10 4 -23.5t15 -26.5q24 -30 68 -30q49 0 116 50q28 21 56.5 50t56.5 64zM290 656q-35 -41 -56 -95t-21 -107q0 -18 5 -43q1 -6 5.5 -20.5t14 -30.5t25 -28t38.5 -12q7 0 15 3.5t16 17.5q14 28 14 77
q0 22 -3.5 51.5t-11 61t-18 64t-23.5 61.5z" />
    <glyph glyph-name="Yacute" unicode="&#xdd;" horiz-adv-x="1170" 
d="M1195 297q11 0 18.5 -7t7.5 -18q0 -10 -4 -15q-8 -14 -17 -30.5t-19 -36.5q-20 -40 -45.5 -86.5t-57.5 -85.5q-35 -44 -73 -68q-44 -28 -95 -28q-3 0 -4 1l-8 -21q-34 -93 -86 -177q-25 -39 -52 -74t-57 -65q-59 -60 -120 -93t-117 -37h-15q-35 0 -64.5 10t-51 28
t-34 42.5t-12.5 53.5q0 58 47 129q42 63 113 123q71 59 146 94q82 38 150 38h12t14 -1l15 -3q11 -5 13.5 -12.5t2.5 -10.5v-1q32 81 55 164.5t39 162.5t26 149.5t16 125.5l-110 -241l-13 -26q-21 -45 -47.5 -98.5t-61 -99t-77 -76t-94.5 -30.5q-40 0 -61.5 21t-21.5 62
q0 38 16 87.5t38 108.5q12 35 25 72t23 73.5t16.5 73t6.5 69.5q0 31 -8 62.5t-27 57t-49 41.5t-73 16q-39 0 -75 -19q20 -28 36 -61.5t29 -71.5q15 -43 22.5 -84.5t7.5 -77.5q0 -63 -19 -98q-27 -50 -88 -50q-71 0 -119 53q-51 56 -51 142q0 70 31 141q27 62 72 109
q-17 26 -45 48t-62 22q-32 0 -57 -18t-38 -42q16 -11 16 -32q0 -15 -11 -26t-28 -11q-16 0 -27 10.5t-11 26.5v2q0 26 13.5 52t38.5 47q23 20 50.5 31t54.5 11q47 0 95 -30q15 -10 30 -23t29 -29q28 17 62 26t72 9q110 0 176 -66q63 -62 63 -165q0 -36 -7 -74.5t-17.5 -77.5
t-24 -77.5t-26.5 -75.5q-19 -53 -34.5 -99.5t-15.5 -76.5q0 -13 3.5 -20t7.5 -7q2 0 7.5 1.5t15.5 8.5h1q29 19 53 46.5t44.5 60t38 69t34.5 72.5l15 32q18 39 37.5 81t37.5 82t34.5 76t29.5 64l30 66q5 14 21 27t54 13h15q9 0 15 -7q6 -6 5 -15q0 -6 -0.5 -12.5t-1.5 -14.5
q-2 -31 -6.5 -77t-13.5 -121q-11 -100 -35.5 -226.5t-80.5 -292.5q68 6 131 95v1q12 16 24 36t23.5 41t22.5 42.5t20 39.5q7 13 12.5 24l9.5 19q7 11 12.5 19t16.5 8zM655 -324q43 55 77.5 119.5t62.5 133.5q-7 -7 -17 -7h-8t-9 1q-4 0 -7.5 0.5t-7.5 0.5q-56 0 -127 -32
t-138 -88q-32 -26 -57.5 -54.5t-44.5 -56.5q-40 -58 -40 -101q0 -10 4 -23.5t15 -26.5q24 -30 68 -30q49 0 116 50q28 21 56.5 50t56.5 64zM290 656q-35 -41 -56 -95t-21 -107q0 -18 5 -43q1 -6 5.5 -20.5t14 -30.5t25 -28t38.5 -12q7 0 15 3.5t16 17.5q14 28 14 77
q0 22 -3.5 51.5t-11 61t-18 64t-23.5 61.5zM756 805q-17 8 -22.5 17.5t-5.5 17.5q0 12 10 22l86 84q10 10 23 4h1q21 -10 37.5 -21.5t16.5 -28.5q0 -5 -2 -12t-10 -12h-2q-20 -12 -34.5 -21.5t-27.5 -17.5l-51 -31q-6 -3 -11 -3q-4 0 -8 2z" />
    <glyph glyph-name="Ydieresis" unicode="&#x178;" horiz-adv-x="1170" 
d="M1195 297q11 0 18.5 -7t7.5 -18q0 -10 -4 -15q-8 -14 -17 -30.5t-19 -36.5q-20 -40 -45.5 -86.5t-57.5 -85.5q-35 -44 -73 -68q-44 -28 -95 -28q-3 0 -4 1l-8 -21q-34 -93 -86 -177q-25 -39 -52 -74t-57 -65q-59 -60 -120 -93t-117 -37h-15q-35 0 -64.5 10t-51 28
t-34 42.5t-12.5 53.5q0 58 47 129q42 63 113 123q71 59 146 94q82 38 150 38h12t14 -1l15 -3q11 -5 13.5 -12.5t2.5 -10.5v-1q32 81 55 164.5t39 162.5t26 149.5t16 125.5l-110 -241l-13 -26q-21 -45 -47.5 -98.5t-61 -99t-77 -76t-94.5 -30.5q-40 0 -61.5 21t-21.5 62
q0 38 16 87.5t38 108.5q12 35 25 72t23 73.5t16.5 73t6.5 69.5q0 31 -8 62.5t-27 57t-49 41.5t-73 16q-39 0 -75 -19q20 -28 36 -61.5t29 -71.5q15 -43 22.5 -84.5t7.5 -77.5q0 -63 -19 -98q-27 -50 -88 -50q-71 0 -119 53q-51 56 -51 142q0 70 31 141q27 62 72 109
q-17 26 -45 48t-62 22q-32 0 -57 -18t-38 -42q16 -11 16 -32q0 -15 -11 -26t-28 -11q-16 0 -27 10.5t-11 26.5v2q0 26 13.5 52t38.5 47q23 20 50.5 31t54.5 11q47 0 95 -30q15 -10 30 -23t29 -29q28 17 62 26t72 9q110 0 176 -66q63 -62 63 -165q0 -36 -7 -74.5t-17.5 -77.5
t-24 -77.5t-26.5 -75.5q-19 -53 -34.5 -99.5t-15.5 -76.5q0 -13 3.5 -20t7.5 -7q2 0 7.5 1.5t15.5 8.5h1q29 19 53 46.5t44.5 60t38 69t34.5 72.5l15 32q18 39 37.5 81t37.5 82t34.5 76t29.5 64l30 66q5 14 21 27t54 13h15q9 0 15 -7q6 -6 5 -15q0 -6 -0.5 -12.5t-1.5 -14.5
q-2 -31 -6.5 -77t-13.5 -121q-11 -100 -35.5 -226.5t-80.5 -292.5q68 6 131 95v1q12 16 24 36t23.5 41t22.5 42.5t20 39.5q7 13 12.5 24l9.5 19q7 11 12.5 19t16.5 8zM655 -324q43 55 77.5 119.5t62.5 133.5q-7 -7 -17 -7h-8t-9 1q-4 0 -7.5 0.5t-7.5 0.5q-56 0 -127 -32
t-138 -88q-32 -26 -57.5 -54.5t-44.5 -56.5q-40 -58 -40 -101q0 -10 4 -23.5t15 -26.5q24 -30 68 -30q49 0 116 50q28 21 56.5 50t56.5 64zM290 656q-35 -41 -56 -95t-21 -107q0 -18 5 -43q1 -6 5.5 -20.5t14 -30.5t25 -28t38.5 -12q7 0 15 3.5t16 17.5q14 28 14 77
q0 22 -3.5 51.5t-11 61t-18 64t-23.5 61.5zM901 869q20 0 33.5 -13t13.5 -33q0 -27 -23 -48q-22 -19 -48 -19q-20 0 -33 12t-13 32q0 4 0.5 9t2.5 10q7 21 26 35.5t41 14.5zM743 869q20 0 33.5 -13t13.5 -33q0 -27 -23 -48q-22 -19 -48 -19q-20 0 -33 12t-13 32q0 4 0.5 9
t2.5 10q7 21 26 35.5t41 14.5z" />
    <glyph glyph-name="V" unicode="V" horiz-adv-x="920" 
d="M1065 767q22 -5 40.5 -22t18.5 -40q0 -17 -11 -28.5t-28 -11.5q-16 0 -27 11t-11 27q0 5 1 8.5t2 6.5h-4q-42 0 -95 -89q-27 -45 -53 -102.5t-53 -120.5q-32 -75 -65.5 -148t-70.5 -130.5t-79 -93t-91 -35.5q-41 0 -64 20q-24 19 -24 62q0 38 16 88t38 110q12 35 25 72
t23 73.5t16.5 72.5t6.5 69q0 59 -21.5 98t-66.5 64q-18 10 -34.5 14t-34.5 4q-38 0 -74 -21q21 -32 38.5 -69t30 -76t19.5 -77t7 -72q0 -31 -4.5 -56t-15.5 -43q-28 -51 -88 -51q-39 0 -71.5 15.5t-55.5 45.5q-21 26 -32 61t-11 73q0 69 31 142q14 31 32 58t39 50
q-44 71 -103 71q-29 0 -56 -17t-41 -43q15 -12 15 -32q0 -16 -11.5 -27t-28.5 -11q-12 0 -23 8q-14 11 -14 29q0 27 13.5 53t36.5 47t51.5 32t56.5 11q83 0 153 -82q33 20 65.5 26.5t68.5 6.5q112 0 177 -65q32 -31 47.5 -73.5t15.5 -93.5q0 -36 -7 -74t-17.5 -77
t-24.5 -77.5t-27 -74.5q-19 -53 -34.5 -99.5t-15.5 -76.5q0 -12 4 -19t8 -7q6 0 18.5 7.5t30.5 27.5q14 14 26 30.5l20 27.5q35 54 67.5 125t64.5 144q28 66 55 126t56 108q35 58 67.5 85t67.5 27q8 0 18 -2h1zM289 679q-35 -42 -56 -96t-21 -107q0 -10 1.5 -20t3.5 -22
q1 -6 5.5 -21t14 -30.5t25 -28t38.5 -12.5q13 0 21.5 9t14 23t8 31.5t2.5 35.5q0 25 -4 55t-11.5 61.5t-18 62.5t-23.5 59z" />
    <glyph glyph-name="X" unicode="X" horiz-adv-x="1233" 
d="M1293 294q0 -2 0.5 -4t0.5 -5q0 -5 -2.5 -10t-4.5 -8h-1q-101 -99 -171.5 -166t-123.5 -109l-8 -6q-18 -14 -35.5 -27t-37 -23.5t-42.5 -16.5t-50 -6q-56 0 -94 35q-33 31 -52 89q-16 49 -23 112.5t-12 134.5q-55 -36 -96 -66.5t-71 -59.5q-42 -39 -64.5 -74.5
t-29.5 -69.5q-1 -9 -8 -16t-17 -7q-11 0 -18 7t-7 18q0 2 0.5 2.5t0.5 1.5q13 83 108 173q35 33 83.5 68.5t114.5 77.5q-6 75 -16 146t-31 126q-41 110 -134 113q-52 0 -103 -26q15 -39 23.5 -85.5t8.5 -92.5q0 -52 -8.5 -96t-25.5 -77q-40 -80 -116 -80q-62 0 -99 39
t-37 97q0 36 13.5 77.5t37 82t55.5 77.5t69 65q-11 36 -28 55q-21 24 -55 24q-32 0 -65.5 -18.5t-55.5 -47.5q9 -9 9 -26q0 -18 -12.5 -28.5t-26.5 -10.5q-15 0 -25.5 10.5t-10.5 25.5q0 24 17 50t49 49q29 21 61 33t60 12q48 0 91 -32q14 -11 27 -26t23 -32
q36 17 75.5 26.5t78.5 9.5q78 0 128 -35q48 -32 76 -93q24 -52 35 -117.5t16 -131.5l42 26q70 42 138.5 85t122.5 85q110 86 123 146v2q7 18 25 18q11 0 17.5 -6.5t6.5 -17.5v-5q-8 -40 -37.5 -79.5t-83.5 -82.5q-46 -37 -102 -72.5t-119 -73.5q-32 -19 -64 -39l-64 -40
q1 -10 1 -19.5v-20.5l3 -49q2 -42 5 -94.5t15 -97.5q14 -47 33 -69q21 -25 52 -25q23 0 55 18.5t79 57.5q50 42 115 104.5t152 148.5q3 2 8 4.5t10 2.5q10 0 18 -6q4 -6 5 -9zM283 653q-39 -34 -70.5 -77.5t-50.5 -91.5q-18 -41 -18 -80q0 -14 4 -28t11.5 -25t18.5 -18
t25 -7q11 0 20.5 6t17 15t13 19t9.5 18q14 32 21 74t7 90q0 28 -2 54.5t-6 50.5z" />
    <glyph glyph-name="M" unicode="M" horiz-adv-x="1445" 
d="M1480 295q14 -6 14 -23q0 -13 -14 -38l-6 -11v-1q-8 -15 -14.5 -29.5t-12.5 -28.5q-43 -91 -74.5 -157.5t-60.5 -112.5q-29 -47 -58 -72q-31 -28 -67 -28q-62 0 -96 61q-31 56 -31 147q0 83 19.5 182t57.5 205q20 58 43.5 111.5t48.5 99.5q-33 -28 -69 -59.5t-72 -66
t-71 -70.5t-66 -72q31 -71 31 -131q0 -67 -34 -112q-19 -25 -44.5 -38.5t-56.5 -13.5q-34 0 -53 17t-19 47q0 28 17.5 77.5t62.5 110.5q-11 27 -25 55t-30 55q-26 -63 -63 -135.5t-87 -136.5q-118 -151 -245 -151q-57 0 -100 29q-39 27 -60 76q-51 -17 -91 -17q-26 0 -46 5
t-35 13.5t-26 18.5t-18 20q-19 26 -24 53t-5 42q0 5 1 17.5t4 26.5q8 30 22 38t24 8q16 0 26.5 -11t10.5 -28v-2q-2 -14 -12.5 -24.5t-25.5 -11.5q0 -3 -0.5 -6t-0.5 -6q0 -45 29.5 -74t75.5 -29q17 0 35 3.5t41 10.5q-4 17 -6 34t-2 34q0 57 16 112t45 100q32 51 74 77.5
t89 26.5q18 0 36 -3h1l12 -3h1q42 -14 61 -40q16 -22 16 -54q0 -31 -18 -69t-53 -80q-32 -39 -73.5 -73.5t-87.5 -61.5q4 -18 11.5 -35t18 -31t25 -22.5t34.5 -8.5q39 0 86 34.5t96 99.5q45 59 85.5 134.5t71.5 156.5q-24 44 -39 80t-17 69q0 29 7.5 57.5t20.5 50.5
q15 26 35 39.5t42 13.5q32 0 48 -25q15 -23 15 -61q0 -15 -2 -30t-5.5 -32.5t-9.5 -39t-15 -49.5q9 -21 21 -43.5t25 -45.5l33 -60q46 54 104 109.5t116.5 106t112 93.5t92.5 71v1q4 3 13 5t18 2.5t16.5 1t10.5 0.5q25 0 35 -6q11 -6 11 -15q2 -11 -7 -18q-35 -29 -58.5 -65
t-45.5 -77l-4 -7q-41 -75 -72 -159.5t-52 -168t-32 -160t-11 -136.5q0 -38 4 -59t9 -31q2 -4 5.5 -10.5t8.5 -6.5q29 0 73 75q24 40 51 96.5t60 129.5q11 22 21 44.5t21 46.5l18 40h1q6 14 22 14h2q7 0 9 -2zM334 181q35 23 67 50t58 58q28 32 45 62.5t19 53.5v6
q0 20 -13.5 32.5t-33.5 12.5q-11 0 -24.5 -7.5t-26.5 -19t-24.5 -26.5t-20.5 -30v-1q-23 -38 -35 -83t-12 -93q0 -4 0.5 -7.5t0.5 -7.5zM857 196q-20 -41 -26 -63t-6 -32q0 -2 0.5 -3t0.5 -2q4 2 10 7t14 16t15 31t7 50v11.5t-1 11.5q-4 -7 -7.5 -13.5t-5.5 -12.5zM824 623
q5 23 6 37q-2 -8 -4 -17t-2 -20z" />
    <glyph glyph-name="N" unicode="N" horiz-adv-x="1213" 
d="M1373 765q11 -5 24 -19t13 -33q0 -16 -11.5 -27t-27.5 -11t-27 11t-11 27q0 7 1 11h-3q-81 0 -174 -140q-40 -60 -75 -129.5t-67 -140.5q18 -26 31.5 -46.5t22.5 -39.5q28 -53 28 -95q0 -69 -42 -113q-40 -42 -105 -42q-42 0 -65 16q-28 21 -28 64q0 30 13.5 63t34.5 76
q7 14 14 28.5t15 31.5q-17 24 -36 49l-38 50q-13 16 -25.5 31.5t-24.5 32.5q-19 -45 -42.5 -94.5t-53 -98t-63.5 -93t-73 -78.5t-83 -54t-92 -20q-54 0 -94 24.5t-63 72.5q0 1 -0.5 1t-0.5 1l-2 6q-51 -17 -90 -17q-43 0 -76 15q-29 14 -47 39q-19 26 -24 52t-5 42
q0 45 13.5 69.5t37.5 24.5q15 0 26 -11t11 -26q0 -16 -11 -27.5t-27 -12.5q-1 -5 -1 -15q0 -45 28 -72.5t75 -27.5q36 0 76 14q-6 28 -6 63q0 60 17 118t48 103t73 72q43 28 92 28q47 0 82 -22q42 -28 42 -77q0 -30 -18.5 -67.5t-50.5 -76.5t-75 -76t-92 -67q3 -13 9.5 -29
t17 -30t26.5 -23.5t38 -9.5q42 0 89 37q48 36 97 101q44 58 85 134t73 157q-23 35 -39.5 71t-16.5 71q0 31 6.5 59.5t19.5 51.5q31 55 78 55q12 0 23.5 -5t20.5 -15.5t15 -27.5t6 -42q0 -14 -2 -29t-6 -33t-10.5 -40t-16.5 -50q17 -33 44 -69t55 -71l28 -35q45 95 83.5 164
t75.5 119q97 131 189 131q26 0 44 -9zM527 417q0 25 -13.5 32.5t-27.5 7.5q-16 0 -32 -6.5t-27 -17.5q-29 -29 -47.5 -60t-29 -61.5t-14 -60t-3.5 -53.5v-11q42 27 77.5 58.5t61 63t40 59.5t15.5 49zM911 38q3 -3 8 -3q9 0 20.5 5.5t22 17.5t18 30t7.5 43q0 32 -22 73
l-24 -53q-16 -35 -25 -57.5t-9 -37.5q0 -13 4 -18zM831 632q2 8 3 15.5t3 14.5q-5 -15 -6 -30z" />
    <glyph glyph-name="Ntilde" unicode="&#xd1;" horiz-adv-x="1213" 
d="M1370 765q11 -5 24 -18.5t13 -33.5q0 -16 -11.5 -27t-27.5 -11t-27 11t-11 27q0 8 1 11h-3q-80 0 -174 -139q-40 -60 -75 -130t-67 -140q18 -26 31.5 -47t22.5 -40q28 -53 28 -95q0 -69 -42 -113q-40 -42 -105 -42q-22 0 -37.5 4.5t-27.5 12.5q-28 19 -28 63
q0 31 13.5 63.5t34.5 76.5q7 14 14 28.5t15 31.5q-17 24 -36 48.5t-38 49.5l-50 64q-19 -44 -42.5 -94t-53 -98.5t-63.5 -93t-73 -78.5t-83 -54t-92 -20q-110 0 -157 98l-1 1l-2 6q-51 -17 -90 -17q-41 0 -76 16q-29 14 -47 39q-19 25 -24 51.5t-5 41.5q0 45 13.5 69.5
t37.5 24.5q15 0 26 -10.5t11 -26.5t-11 -27t-27 -12q-1 -5 -1 -8.5v-7.5q0 -45 28 -72.5t75 -27.5q37 0 76 15q-6 28 -6 62q0 60 17 118t48 104q31 44 73 72q43 27 92 27t82 -21q42 -28 42 -78q0 -30 -18.5 -67.5t-50.5 -76t-75 -75.5t-92 -67q3 -14 9.5 -30t17 -30
t26.5 -23.5t38 -9.5q40 0 89 37q48 37 97 101q44 59 85 134.5t73 156.5q-23 35 -39.5 71t-16.5 71q0 65 26 112q31 54 78 54q12 0 23.5 -4.5t20.5 -15t15 -28t6 -42.5q0 -14 -2 -29t-6 -32.5t-10.5 -39.5t-16.5 -50q17 -34 44 -70t55 -71l28 -35q45 96 83.5 164.5
t75.5 118.5q49 67 95.5 99t93.5 32q26 0 44 -9zM524 418q0 25 -13.5 32t-27.5 7q-16 0 -32 -6.5t-27 -17.5q-29 -28 -47.5 -59t-29 -62t-14 -60t-3.5 -54v-11q42 27 77.5 58.5t61 63t40 60t15.5 49.5zM947 779q-10 0 -17 7.5t-7 17.5q0 21 7 35t17 22.5t22 12.5t23 4
q19 0 39 -6.5t40 -14.5q14 -6 27.5 -11t22.5 -5q2 1 3.5 3t3.5 4q4 4 9.5 8t13.5 4q11 0 18 -7t7 -18v-1q0 -4 -1 -7q-15 -38 -37 -50t-40 -12q-20 0 -39.5 7.5t-36.5 15.5q-13 5 -24.5 9.5t-19.5 4.5q-3 0 -4.5 -1t-3.5 -6q-1 0 -1 -1q-5 -10 -12 -12.5t-10 -2.5zM908 38
q2 -1 3.5 -2t4.5 -1q9 0 20.5 5.5t22 17.5t18 30t7.5 43q0 31 -22 74l-24 -54q-16 -35 -25 -57t-9 -38q0 -13 4 -18zM828 633q2 8 3 15t3 14q-4 -13 -6 -29z" />
    <glyph glyph-name="Nacute" unicode="&#x143;" horiz-adv-x="1213" 
d="M1373 765q11 -5 24 -19t13 -33q0 -16 -11.5 -27t-27.5 -11t-27 11t-11 27q0 7 1 11h-3q-81 0 -174 -140q-40 -60 -75 -129.5t-67 -140.5q18 -26 31.5 -46.5t22.5 -39.5q28 -53 28 -95q0 -69 -42 -113q-40 -42 -105 -42q-42 0 -65 16q-28 21 -28 64q0 30 13.5 63t34.5 76
q7 14 14 28.5t15 31.5q-17 24 -36 49l-38 50q-13 16 -25.5 31.5t-24.5 32.5q-19 -45 -42.5 -94.5t-53 -98t-63.5 -93t-73 -78.5t-83 -54t-92 -20q-54 0 -94 24.5t-63 72.5q0 1 -0.5 1t-0.5 1l-2 6q-51 -17 -90 -17q-43 0 -76 15q-29 14 -47 39q-19 26 -24 52t-5 42
q0 45 13.5 69.5t37.5 24.5q15 0 26 -11t11 -26q0 -16 -11 -27.5t-27 -12.5q-1 -5 -1 -15q0 -45 28 -72.5t75 -27.5q36 0 76 14q-6 28 -6 63q0 60 17 118t48 103t73 72q43 28 92 28q47 0 82 -22q42 -28 42 -77q0 -30 -18.5 -67.5t-50.5 -76.5t-75 -76t-92 -67q3 -13 9.5 -29
t17 -30t26.5 -23.5t38 -9.5q42 0 89 37q48 36 97 101q44 58 85 134t73 157q-23 35 -39.5 71t-16.5 71q0 31 6.5 59.5t19.5 51.5q31 55 78 55q12 0 23.5 -5t20.5 -15.5t15 -27.5t6 -42q0 -14 -2 -29t-6 -33t-10.5 -40t-16.5 -50q17 -33 44 -69t55 -71l28 -35q45 95 83.5 164
t75.5 119q97 131 189 131q26 0 44 -9zM527 417q0 25 -13.5 32.5t-27.5 7.5q-16 0 -32 -6.5t-27 -17.5q-29 -29 -47.5 -60t-29 -61.5t-14 -60t-3.5 -53.5v-11q42 27 77.5 58.5t61 63t40 59.5t15.5 49zM1006 785q-17 8 -22.5 17.5t-5.5 17.5q0 12 10 22l86 84q10 10 23 4h1
q21 -10 37.5 -21.5t16.5 -28.5q0 -5 -2 -12t-10 -12h-2q-20 -12 -34.5 -21.5t-27.5 -17.5l-51 -31q-6 -3 -11 -3q-4 0 -8 2zM911 38q3 -3 8 -3q9 0 20.5 5.5t22 17.5t18 30t7.5 43q0 32 -22 73l-24 -53q-16 -35 -25 -57.5t-9 -37.5q0 -13 4 -18zM831 632q2 8 3 15.5t3 14.5
q-5 -15 -6 -30z" />
    <glyph glyph-name="Ncaron" unicode="&#x147;" horiz-adv-x="1213" 
d="M1373 765q11 -5 24 -19t13 -33q0 -16 -11.5 -27t-27.5 -11t-27 11t-11 27q0 7 1 11h-3q-81 0 -174 -140q-40 -60 -75 -129.5t-67 -140.5q18 -26 31.5 -46.5t22.5 -39.5q28 -53 28 -95q0 -69 -42 -113q-40 -42 -105 -42q-42 0 -65 16q-28 21 -28 64q0 30 13.5 63t34.5 76
q7 14 14 28.5t15 31.5q-17 24 -36 49l-38 50q-13 16 -25.5 31.5t-24.5 32.5q-19 -45 -42.5 -94.5t-53 -98t-63.5 -93t-73 -78.5t-83 -54t-92 -20q-54 0 -94 24.5t-63 72.5q0 1 -0.5 1t-0.5 1l-2 6q-51 -17 -90 -17q-43 0 -76 15q-29 14 -47 39q-19 26 -24 52t-5 42
q0 45 13.5 69.5t37.5 24.5q15 0 26 -11t11 -26q0 -16 -11 -27.5t-27 -12.5q-1 -5 -1 -15q0 -45 28 -72.5t75 -27.5q36 0 76 14q-6 28 -6 63q0 60 17 118t48 103t73 72q43 28 92 28q47 0 82 -22q42 -28 42 -77q0 -30 -18.5 -67.5t-50.5 -76.5t-75 -76t-92 -67q3 -13 9.5 -29
t17 -30t26.5 -23.5t38 -9.5q42 0 89 37q48 36 97 101q44 58 85 134t73 157q-23 35 -39.5 71t-16.5 71q0 31 6.5 59.5t19.5 51.5q31 55 78 55q12 0 23.5 -5t20.5 -15.5t15 -27.5t6 -42q0 -14 -2 -29t-6 -33t-10.5 -40t-16.5 -50q17 -33 44 -69t55 -71l28 -35q45 95 83.5 164
t75.5 119q97 131 189 131q26 0 44 -9zM527 417q0 25 -13.5 32.5t-27.5 7.5q-16 0 -32 -6.5t-27 -17.5q-29 -29 -47.5 -60t-29 -61.5t-14 -60t-3.5 -53.5v-11q42 27 77.5 58.5t61 63t40 59.5t15.5 49zM984 864q-3 4 -3 10v2q0 11 7 18t17 7t18 -6l38 -28l69 30q5 4 13 4
q11 0 18 -7t7 -17q0 -8 -2.5 -12t-4.5 -6l-2 -2l-93 -76l-7 -3q-4 -2 -9 -2h-1q-4 0 -8 2h-1q-2 1 -5.5 3.5t-6.5 7.5zM911 38q3 -3 8 -3q9 0 20.5 5.5t22 17.5t18 30t7.5 43q0 32 -22 73l-24 -53q-16 -35 -25 -57.5t-9 -37.5q0 -13 4 -18zM831 632q2 8 3 15.5t3 14.5
q-5 -15 -6 -30z" />
    <glyph glyph-name="E" unicode="E" horiz-adv-x="766" 
d="M791 297q11 0 18 -7t7 -18q0 -10 -5 -15q-6 -10 -19 -28t-31 -40.5t-40.5 -47.5t-49.5 -50q-132 -123 -255 -123q-45 0 -82.5 12t-66.5 36q-62 51 -62 139q0 41 17.5 85.5t49.5 87.5q28 38 63.5 69t75.5 53q-8 24 -8 47q0 48 32 106q-54 11 -104 19t-97 8
q-72 0 -113 -21.5t-60 -69.5q16 -10 16 -32q0 -18 -12 -28.5t-27 -10.5q-38 0 -38 37q0 9 3 19.5t8 24.5q24 67 79 99q54 32 143 32q54 0 111.5 -9t121.5 -23q23 27 51 49t58 37.5t61.5 24t60.5 8.5h2q46 -3 73 -33q27 -29 27 -73q0 -45 -29 -77q-31 -34 -78 -34
q-27 0 -54 5.5t-55 13.5l-44 10l-6 -9q-10 -19 -15.5 -39.5t-5.5 -39.5v-2q19 4 35.5 6t31.5 2q31 0 51 -5.5t31 -14t15.5 -18t5.5 -16.5v-2q0 -11 -8 -27t-39 -29q-17 -8 -40 -11.5t-48 -3.5q-20 0 -41.5 2.5t-41.5 14.5q-33 -23 -60.5 -51.5t-47 -58.5t-30 -61.5
t-10.5 -60.5q0 -32 12 -56.5t30.5 -41t40 -25t41.5 -8.5q88 0 198 105q46 44 80.5 88t51.5 68q5 12 21 12zM737 696q-4 5 -11 11t-18 6q-14 0 -35 -10t-46 -29q-15 -12 -29.5 -25t-26.5 -27l12 -3q29 -8 55 -14t49 -5q35 0 48.5 19t13.5 42q0 8 -3 17.5t-9 17.5zM610 429
q14 5 20 11q-4 2 -12 4t-19 2q-10 0 -27.5 -4t-31.5 -11q11 -10 31 -10q18 0 39 8z" />
    <glyph glyph-name="Eacute" unicode="&#xc9;" horiz-adv-x="766" 
d="M791 297q11 0 18 -7t7 -18q0 -10 -5 -15q-6 -10 -19 -28t-31 -40.5t-40.5 -47.5t-49.5 -50q-132 -123 -255 -123q-45 0 -82.5 12t-66.5 36q-62 51 -62 139q0 41 17.5 85.5t49.5 87.5q28 38 63.5 69t75.5 53q-8 24 -8 47q0 48 32 106q-54 11 -104 19t-97 8
q-72 0 -113 -21.5t-60 -69.5q16 -10 16 -32q0 -18 -12 -28.5t-27 -10.5q-38 0 -38 37q0 9 3 19.5t8 24.5q24 67 79 99q54 32 143 32q54 0 111.5 -9t121.5 -23q23 27 51 49t58 37.5t61.5 24t60.5 8.5h2q46 -3 73 -33q27 -29 27 -73q0 -45 -29 -77q-31 -34 -78 -34
q-27 0 -54 5.5t-55 13.5l-44 10l-6 -9q-10 -19 -15.5 -39.5t-5.5 -39.5v-2q19 4 35.5 6t31.5 2q31 0 51 -5.5t31 -14t15.5 -18t5.5 -16.5v-2q0 -11 -8 -27t-39 -29q-17 -8 -40 -11.5t-48 -3.5q-20 0 -41.5 2.5t-41.5 14.5q-33 -23 -60.5 -51.5t-47 -58.5t-30 -61.5
t-10.5 -60.5q0 -32 12 -56.5t30.5 -41t40 -25t41.5 -8.5q88 0 198 105q46 44 80.5 88t51.5 68q5 12 21 12zM726 805q-17 8 -22.5 17.5t-5.5 17.5q0 12 10 22l86 84q10 10 23 4h1q21 -10 37.5 -21.5t16.5 -28.5q0 -5 -2 -12t-10 -12h-2q-20 -12 -34.5 -21.5t-27.5 -17.5
l-51 -31q-6 -3 -11 -3q-4 0 -8 2zM737 696q-4 5 -11 11t-18 6q-14 0 -35 -10t-46 -29q-15 -12 -29.5 -25t-26.5 -27l12 -3q29 -8 55 -14t49 -5q35 0 48.5 19t13.5 42q0 8 -3 17.5t-9 17.5zM610 429q14 5 20 11q-4 2 -12 4t-19 2q-10 0 -27.5 -4t-31.5 -11q11 -10 31 -10
q18 0 39 8z" />
    <glyph glyph-name="Eogonek" unicode="&#x118;" horiz-adv-x="766" 
d="M794 293q11 0 18 -7t7 -18q0 -10 -5 -15q-39 -58 -85 -109q-36 -40 -72.5 -71.5t-73.5 -54.5q-41 -41 -63.5 -80.5t-22.5 -69.5q0 -6 1 -7q0 -2 1 -2l2 -1q11 0 28.5 9.5t30.5 25.5q0 1 0.5 1t0.5 1q7 7 19 7q24 0 24 -24q0 -10 -7 -17q-20 -23 -51.5 -41.5t-64.5 -18.5
q-30 0 -48 16.5t-18 44.5q0 31 22 70q12 20 25 36q-11 -2 -21.5 -3t-21.5 -1q-90 0 -149 48q-30 26 -46 61t-16 78q0 42 17.5 86t49.5 87q28 38 63.5 69.5t75.5 53.5q-8 22 -8 46q0 49 32 107q-54 11 -104 18.5t-97 7.5q-72 0 -113 -21t-60 -69q16 -11 16 -33
q0 -18 -12 -28.5t-27 -10.5q-38 0 -38 37q0 16 11 44q24 68 79 100q55 31 143 31q54 0 111.5 -9t121.5 -22q23 27 51 48.5t58 37t61.5 24t60.5 8.5h2q44 -2 73 -32q27 -29 27 -74q0 -21 -7.5 -41t-21.5 -36q-15 -16 -35 -25t-43 -9q-27 0 -54 6t-55 13l-22 6t-22 5l-6 -10
q-10 -18 -15.5 -39t-5.5 -40v-1q35 7 67 7q31 0 51 -5.5t31 -13.5t15.5 -17.5t5.5 -16.5v-3q0 -10 -8 -26.5t-39 -29.5q-17 -7 -40 -11t-48 -4q-20 0 -41.5 3t-41.5 14q-33 -23 -60.5 -51t-47 -58.5t-30 -61.5t-10.5 -61q0 -32 12 -56.5t30.5 -41t40 -25t41.5 -8.5
q87 0 198 106q23 22 43 44.5t37 43t30 38t22 29.5q5 12 21 12zM740 693q-4 5 -11 10.5t-18 5.5q-14 0 -35 -10t-46 -29q-15 -11 -29.5 -24.5t-26.5 -26.5l12 -3q29 -8 55 -14t49 -6q35 0 48.5 19.5t13.5 41.5q0 19 -12 36zM613 425q14 5 20 11q-4 2 -12 4t-19 2
q-10 0 -27.5 -4t-31.5 -10q13 -11 31 -11q8 0 18.5 2.5t20.5 5.5z" />
    <glyph glyph-name="Edieresis" unicode="&#xcb;" horiz-adv-x="766" 
d="M791 297q11 0 18 -7t7 -18q0 -10 -5 -15q-6 -10 -19 -28t-31 -40.5t-40.5 -47.5t-49.5 -50q-132 -123 -255 -123q-45 0 -82.5 12t-66.5 36q-62 51 -62 139q0 41 17.5 85.5t49.5 87.5q28 38 63.5 69t75.5 53q-8 24 -8 47q0 48 32 106q-54 11 -104 19t-97 8
q-72 0 -113 -21.5t-60 -69.5q16 -10 16 -32q0 -18 -12 -28.5t-27 -10.5q-38 0 -38 37q0 9 3 19.5t8 24.5q24 67 79 99q54 32 143 32q54 0 111.5 -9t121.5 -23q23 27 51 49t58 37.5t61.5 24t60.5 8.5h2q46 -3 73 -33q27 -29 27 -73q0 -45 -29 -77q-31 -34 -78 -34
q-27 0 -54 5.5t-55 13.5l-44 10l-6 -9q-10 -19 -15.5 -39.5t-5.5 -39.5v-2q19 4 35.5 6t31.5 2q31 0 51 -5.5t31 -14t15.5 -18t5.5 -16.5v-2q0 -11 -8 -27t-39 -29q-17 -8 -40 -11.5t-48 -3.5q-20 0 -41.5 2.5t-41.5 14.5q-33 -23 -60.5 -51.5t-47 -58.5t-30 -61.5
t-10.5 -60.5q0 -32 12 -56.5t30.5 -41t40 -25t41.5 -8.5q88 0 198 105q46 44 80.5 88t51.5 68q5 12 21 12zM737 696q-4 5 -11 11t-18 6q-14 0 -35 -10t-46 -29q-15 -12 -29.5 -25t-26.5 -27l12 -3q29 -8 55 -14t49 -5q35 0 48.5 19t13.5 42q0 8 -3 17.5t-9 17.5zM649 927
q20 0 33.5 -13t13.5 -33q0 -27 -23 -48q-22 -19 -48 -19q-20 0 -33 12t-13 32q0 4 0.5 9t2.5 10q7 21 26 35.5t41 14.5zM807 927q20 0 33.5 -13t13.5 -33q0 -27 -23 -48q-22 -19 -48 -19q-20 0 -33 12t-13 32q0 4 0.5 9t2.5 10q7 21 26 35.5t41 14.5zM610 429q14 5 20 11
q-4 2 -12 4t-19 2q-10 0 -27.5 -4t-31.5 -11q11 -10 31 -10q18 0 39 8z" />
    <glyph glyph-name="Ecaron" unicode="&#x11a;" horiz-adv-x="766" 
d="M791 297q11 0 18 -7t7 -18q0 -10 -5 -15q-6 -10 -19 -28t-31 -40.5t-40.5 -47.5t-49.5 -50q-132 -123 -255 -123q-45 0 -82.5 12t-66.5 36q-62 51 -62 139q0 41 17.5 85.5t49.5 87.5q28 38 63.5 69t75.5 53q-8 24 -8 47q0 48 32 106q-54 11 -104 19t-97 8
q-72 0 -113 -21.5t-60 -69.5q16 -10 16 -32q0 -18 -12 -28.5t-27 -10.5q-38 0 -38 37q0 9 3 19.5t8 24.5q24 67 79 99q54 32 143 32q54 0 111.5 -9t121.5 -23q23 27 51 49t58 37.5t61.5 24t60.5 8.5h2q46 -3 73 -33q27 -29 27 -73q0 -45 -29 -77q-31 -34 -78 -34
q-27 0 -54 5.5t-55 13.5l-44 10l-6 -9q-10 -19 -15.5 -39.5t-5.5 -39.5v-2q19 4 35.5 6t31.5 2q31 0 51 -5.5t31 -14t15.5 -18t5.5 -16.5v-2q0 -11 -8 -27t-39 -29q-17 -8 -40 -11.5t-48 -3.5q-20 0 -41.5 2.5t-41.5 14.5q-33 -23 -60.5 -51.5t-47 -58.5t-30 -61.5
t-10.5 -60.5q0 -32 12 -56.5t30.5 -41t40 -25t41.5 -8.5q88 0 198 105q46 44 80.5 88t51.5 68q5 12 21 12zM654 894q-3 4 -3 10v2q0 11 7 18t17 7t18 -6l38 -28l69 30q5 4 13 4q11 0 18 -7t7 -17q0 -8 -2.5 -12t-4.5 -6l-2 -2l-93 -76l-7 -3q-4 -2 -9 -2h-1q-4 0 -8 2h-1
q-2 1 -5.5 3.5t-6.5 7.5zM737 696q-4 5 -11 11t-18 6q-14 0 -35 -10t-46 -29q-15 -12 -29.5 -25t-26.5 -27l12 -3q29 -8 55 -14t49 -5q35 0 48.5 19t13.5 42q0 8 -3 17.5t-9 17.5zM610 429q14 5 20 11q-4 2 -12 4t-19 2q-10 0 -27.5 -4t-31.5 -11q11 -10 31 -10q18 0 39 8z
" />
    </font>
</defs>
</svg>
