<svg xmlns="http://www.w3.org/2000/svg" width="90" height="38" viewBox="0 0 90 38">
  <defs>
    <style>
      .cls-1 {
        fill: #fff;
        fill-rule: evenodd;
      }
    </style>
  </defs>
  <path class="cls-1" d="M1120.8,59V86.143h7.2V59h-7.2Zm-9,19.9H1110V68.048h-18.05v18.1h10.85v3.619h-21.87V97H1110V86.143h9V59h-7.2V78.9Zm-12.65,0V75.286h3.65V78.9h-3.65Zm-23.47,7.238h14.52V78.9l0.02-10.844-17.76-.241,0.1-1.582H1110V59h-47.16v7.238l-0.16,7.071,20.34-.06L1083,78.9h-7.32V75.346h-7.2V78.9h-8.1V59h-7.2V89.762h-7.98V86.143h3.99V78.9H1038V97h22.38V86.143h15.3ZM1062.07,97h7.74V89.762h-7.74V97Zm9.44,0h7.74V89.762h-7.74V97Z" transform="translate(-1038 -59)"/>
</svg>
