<?xml version="1.0" encoding="utf-8"?>
<!-- Generator: Adobe Illustrator 19.0.0, SVG Export Plug-In . SVG Version: 6.00 Build 0)  -->
<svg version="1.1" id="Layer_1" xmlns="http://www.w3.org/2000/svg" xmlns:xlink="http://www.w3.org/1999/xlink" x="0px" y="0px"
	 viewBox="0 0 96.7 41.6" style="enable-background:new 0 0 96.7 41.6;" xml:space="preserve">
<style type="text/css">
	.st0{fill:#1C1E22;}
	.st1{fill:none;stroke:#1C1E22;stroke-width:6;stroke-miterlimit:10;}
</style>
<g id="XMLID_1_">
	<path id="XMLID_9_" class="st0" d="M44.4,35.4L36,20.7l-3.6-6.2L24,0L0,41.6h23.9l3.6-6.2H10.7l13.3-23l4.8,8.3l3.6,6.2l3.2,5.5v0
		l1.7,3h0l3.6,6.2H48L44.4,35.4z"/>
</g>
<g id="XMLID_3_">
	<path id="XMLID_6_" class="st0" d="M40.7,0l-8.4,14.5l-3.6,6.2l-8.5,14.7l-3.6,6.2h7.1l3.6-6.2l1.3-2.2l3.6-6.3l3.6-6.2l4.8-8.3
		l13.3,23H37.3l3.6,6.2h23.8L40.7,0z"/>
</g>
<g id="XMLID_8_">
	<g id="XMLID_4_">
		<path id="XMLID_7_" class="st0" d="M89.6,0l-1.8,3.1l-3.1,5.3l-0.3,0.5L72.7,29.2l-11.5-20l-1.7-3L55.9,0h-7.1l24,41.6L96.7,0
			H89.6z"/>
	</g>
	<line id="XMLID_2_" class="st1" x1="57.5" y1="10.9" x2="88" y2="10.9"/>
</g>
<polygon id="XMLID_13_" points="37.3,35.4 37.3,35.4 35.5,32.4 "/>
</svg>
