<?xml version="1.0" encoding="utf-8"?>
<!-- Generator: Adobe Illustrator 18.0.0, SVG Export Plug-In . SVG Version: 6.00 Build 0)  -->
<!DOCTYPE svg PUBLIC "-//W3C//DTD SVG 1.1//EN" "http://www.w3.org/Graphics/SVG/1.1/DTD/svg11.dtd">
<svg version="1.1" id="Layer_1" xmlns="http://www.w3.org/2000/svg" xmlns:xlink="http://www.w3.org/1999/xlink" x="0px" y="0px"
	 viewBox="0 0 200 200" enable-background="new 0 0 200 200" xml:space="preserve">
<g>
	<g>
		<g>
			<path fill="#020202" d="M166.9,90.1c0,35.2-26,64.4-59.8,69.5c36.3-2.5,64.9-32.6,64.9-69.5c0-36.9-28.7-67.1-64.9-69.5
				C140.9,25.6,166.9,54.9,166.9,90.1z"/>
		</g>
	</g>
	<g>
		<g>
			<path fill="#C0BEB3" d="M96.6,159.2c38.1,0,69.1-31,69.1-69.1c0-38.1-31-69.1-69.1-69.1c-38.1,0-69.1,31-69.1,69.1
				C27.4,128.2,58.4,159.2,96.6,159.2z M96.6,48.1c23.1,0,42,18.8,42,42c0,23.1-18.8,42-42,42c-23.1,0-42-18.8-42-42
				C54.6,66.9,73.4,48.1,96.6,48.1z"/>
		</g>
	</g>
	<g>
		<g>
			<path fill="#FFFFFF" d="M96.6,160.4c3.6,0,7.1-0.3,10.5-0.8c33.8-5.1,59.8-34.3,59.8-69.5c0-35.2-26-64.4-59.8-69.5
				c-3.4-0.5-6.9-0.8-10.5-0.8c-38.8,0-70.3,31.5-70.3,70.3C26.2,128.8,57.8,160.4,96.6,160.4z M96.6,20.9c38.1,0,69.1,31,69.1,69.1
				c0,38.1-31,69.1-69.1,69.1c-38.1,0-69.1-31-69.1-69.1C27.4,51.9,58.4,20.9,96.6,20.9z"/>
		</g>
	</g>
	<g>
		<g>
			<path fill="#4A4A4A" d="M96.6,130.8c22.5,0,40.7-18.3,40.7-40.7c0-22.5-18.3-40.7-40.7-40.7c-22.5,0-40.7,18.3-40.7,40.7
				C55.8,112.5,74.1,130.8,96.6,130.8z"/>
		</g>
	</g>
	<g>
		<g>
			<path fill="#4A4A4A" d="M101.2,88.3l0.4-0.7c0.8-1.6,0.4-2.4-0.3-2.3c-0.6,0.1-1.5,0.8-2.1,2.1l-1.6,3.2c0.3,0.1,0.6,0.1,1,0
				C99.3,90.6,100.4,90,101.2,88.3z"/>
		</g>
	</g>
	<g>
		<g>
			<path fill="#FFFFFF" d="M96.6,132c23.1,0,42-18.8,42-42c0-23.1-18.8-42-42-42c-23.1,0-42,18.8-42,42
				C54.6,113.2,73.4,132,96.6,132z M96.6,49.3c22.5,0,40.7,18.3,40.7,40.7c0,22.5-18.3,40.7-40.7,40.7c-22.5,0-40.7-18.3-40.7-40.7
				C55.8,67.6,74.1,49.3,96.6,49.3z"/>
		</g>
	</g>
	<g>
		<g>
			<path fill="#020202" d="M148.5,170.7c0.2-0.5,0.6-3.3-0.7-5.8c-1.5-2.8-7.5-3.8-11.5-4.7c-4-0.9-13.2-3.4-19.3-5.3
				c-6.1-2-22.2-8.8-25.8-10.5c-3.6-1.7-3-1.9-4.4-3.5c-1.4-1.6-1.7-4.3-5.2-6.4c-3.5-2.1-12.7-4.8-21.5-7.6
				c-8.8-2.8-7.2-2.1-6.1-1.6c1.2,0.5,22.1,9.2,23.1,9.9c1,0.6,0.1,2.1-0.8,1.9c-0.9-0.3-1.7-0.5-6.3-2.1
				c-4.7-1.6-18.2-6.5-18.2-6.2c0,0.3,22.8,9.7,23.9,10.2c1,0.4,0.6,1,0.5,1.2l0,0c-0.1,0.2-0.2,0.9-1.2,0.5
				c-1.1-0.4-23.8-10.2-24-10c-0.2,0.2,12.7,6.5,17.2,8.7c4.4,2.2,5.1,2.6,5.9,3.1c0.8,0.5,0.4,2.2-0.8,1.9
				c-1.2-0.3-22-9.2-23.2-9.7c-1.2-0.5-2.8-1.1,5.4,3.2c8.2,4.3,16.4,9.1,20.4,10.2c4,1.1,6.1-0.7,8.2-0.8c2.1-0.1,1.9-0.7,5.6,0.8
				c3.7,1.4,19.8,8.2,25.5,11.2c5.7,3,13.8,7.9,17.3,10.1c3.4,2.3,8.4,5.9,11.4,5C146.5,173.5,148.3,171.3,148.5,170.7L148.5,170.7z
				"/>
		</g>
	</g>
	<g>
		<g>
			<path fill="#F8F6F2" d="M148.5,172.2c0.2-0.5,0.6-3.3-0.7-5.8c-1.5-2.8-7.5-3.8-11.5-4.7c-4-0.9-13.2-3.4-19.3-5.3
				c-6.1-2-22.2-8.8-25.8-10.5c-3.6-1.7-3-1.9-4.4-3.5c-1.4-1.6-1.7-4.3-5.2-6.4c-3.5-2.1-12.7-4.8-21.5-7.6
				c-8.8-2.8-7.2-2.1-6.1-1.6c1.2,0.5,22.1,9.2,23.1,9.9c1,0.6,0.1,2.2-0.8,1.9c-0.9-0.3-1.7-0.5-6.3-2.1
				c-4.7-1.6-18.2-6.5-18.2-6.2c0,0.3,22.8,9.7,23.9,10.2c1,0.4,0.6,1,0.5,1.2l0,0c-0.1,0.2-0.2,0.9-1.2,0.5
				c-1.1-0.4-23.8-10.2-24-10c-0.2,0.2,12.7,6.5,17.2,8.7c4.4,2.2,5.1,2.6,5.9,3.1c0.8,0.5,0.4,2.2-0.8,1.9
				c-1.2-0.3-22-9.2-23.2-9.7c-1.2-0.5-2.8-1.1,5.4,3.2c8.2,4.3,16.4,9.1,20.4,10.2c4,1.1,6.1-0.7,8.2-0.8c2.1-0.1,1.9-0.7,5.6,0.8
				c3.7,1.4,19.8,8.2,25.5,11.2c5.7,3,13.8,7.9,17.3,10.1c3.4,2.3,8.4,5.9,11.4,5C146.5,175,148.3,172.7,148.5,172.2L148.5,172.2z"
				/>
		</g>
	</g>
	<g>
		<g>
			<path fill="#020202" d="M158.3,91.6c0,0,4.1-1.7,5.7-1.5c1.5,0.2,3.5,1.1,1.4,4c-2.2,2.9-28.1,35.3-29.7,37.1
				c-1.6,1.8-6.2,6.4-8.6,8.9c-2.4,2.4-3.9,3.7-10.6,13.4c-6.7,9.7-14.7,22.4-19.2,25.4c0,0-4,3-7.2,0.3c-3.2-2.7-1.6-5.8,0.3-8.8
				c0,0,4.3-6.2,14.9-17.5c10.6-11.3,12.6-13.1,14.4-15.4c1.8-2.3,5.3-8.3,7.2-11.4c1.9-3.1,9.2-12.7,15.9-20.4
				C149.6,97.9,154.8,93.4,158.3,91.6z"/>
		</g>
	</g>
	<g>
		<g>
			<path fill="#F8F6F2" d="M155.8,91.6c0,0,4.1-1.7,5.7-1.5c1.5,0.2,3.5,1.1,1.4,4c-2.2,2.9-28.1,35.3-29.7,37.1
				c-1.6,1.8-6.2,6.4-8.6,8.9c-2.4,2.4-3.9,3.7-10.6,13.4c-6.7,9.7-14.7,22.4-19.2,25.4c0,0-4,3-7.2,0.3c-3.2-2.7-1.6-5.8,0.3-8.8
				c0,0,4.3-6.2,14.9-17.5c10.6-11.3,12.6-13.1,14.4-15.4c1.8-2.3,5.3-8.3,7.2-11.4c1.9-3.1,9.2-12.7,15.9-20.4
				C147.1,97.9,152.3,93.4,155.8,91.6z"/>
		</g>
	</g>
</g>
</svg>
