<?xml version="1.0" encoding="utf-8"?>
<!-- Generator: Adobe Illustrator 18.0.0, SVG Export Plug-In . SVG Version: 6.00 Build 0)  -->
<!DOCTYPE svg PUBLIC "-//W3C//DTD SVG 1.1//EN" "http://www.w3.org/Graphics/SVG/1.1/DTD/svg11.dtd">
<svg version="1.1" xmlns="http://www.w3.org/2000/svg" xmlns:xlink="http://www.w3.org/1999/xlink" x="0px" y="0px"
	 viewBox="0 0 800 800" enable-background="new 0 0 800 800" xml:space="preserve">
<g id="BACKGROUND">
</g>
<g id="OBJECTS">
	<g>
		<g>
			<path fill="#D3AE94" d="M329.2,96.6c3-2.8,6.2-4.9,9.6-7.2c2.4-1.6,0.2,0.6,2.1-1.6c0.1-0.2,2-3.1,1.3-1.8
				c0.4-0.8,0.9-1.6,1.2-2.4c0.1-0.3,0.2-0.6,0.3-0.7c0-0.1,0.1-0.2,0.1-0.4c0.6-2.2,1.2-4.4,1.5-6.6c0.6-3.4,1.1-6.8,1.6-10.1
				c-8.8,0-18.1,1.7-27.1,6.4c0,0-77.8,35.5-70.6,42.8c0,0,4.8,10.2,23.5,3.5c0,0,42.6-18.8,55.1-20.3
				C328.4,97.5,328.8,97,329.2,96.6z"/>
			<path fill="#DBB295" d="M335.2,111.4c3-3.7,6.4-6.7,9.9-9.9c2.5-2.3,0.3,0.6,2.1-2.2c0.1-0.2,1.9-3.9,1.3-2.3c0.4-1,0.8-2,1.1-3
				c0.1-0.4,0.2-0.7,0.3-0.9c0-0.1,0-0.3,0.1-0.5c0.4-2.6,0.6-5.3,0.7-7.9c0.1-4,0.1-8,0.2-12c-10.2,1.4-20.7,4.9-30.4,11.8
				c0,0-84.4,53.7-74.8,60.9c0,0,7.2,11,27.8,0.2c0,0,46.3-28.6,60.6-32.5C334.3,112.5,334.7,111.9,335.2,111.4z"/>
			<path fill="#E2B798" d="M334.1,128.1c2.4-4.2,5.2-7.7,8-11.5c2-2.7,0.4,0.6,1.7-2.5c0.1-0.2,1.2-4.1,0.9-2.4
				c0.2-1,0.4-2.1,0.5-3.1c0-0.4,0.1-0.7,0.1-0.9c0-0.1,0-0.3,0-0.5c-0.1-2.6-0.3-5.3-0.6-7.9c-0.6-4-1.2-7.9-1.8-11.9
				c-9.8,3.2-19.6,8.4-27.9,16.8c0,0-73.9,67.3-63.3,72.8c0,0,8.9,9.6,27.4-4.6c0,0,40.8-36.1,54.1-42.3
				C333.4,129.4,333.7,128.7,334.1,128.1z"/>
		</g>
		<path fill="#ECC29F" d="M609,0H463.1l-48.6,49c0,0-10.3,10.8-32.2,12c-2.2,0.1-6.2,1.1-8.7,1c-9.3,1.1-23.7,2.8-30.4,3.8
			c-10.5,1.5-16.7,50.2-16.7,50.2c-1.8,5.4-3,11.2-3.4,17.4c0,0-12.5,106.9,0,103.9c0,0,14.1,1.5,19.1-23.1c0,0,9.5-72.8,16.3-75.8
			c0,0,34.9-20.1,54-4c19.1,16.1,15.1,28.6,13.6,37.1c0,0-16.6,56.7-3.5,61.2c0,0,7,3.5,12.5-4.5c0,0,31.1-45.7,34.6-71.8
			c0,0,5-26.6,3.5-37.6C501,97.8,563.3,41.8,609,0z"/>
	</g>
	<g>
		<rect x="149.3" y="522.7" fill="#B2A58D" width="476.8" height="263.2"/>
		<rect x="149.3" y="522.7" fill="#EFF0F0" width="476.8" height="7.4"/>
		<rect x="134.7" y="473.1" fill="#C0B399" width="505.9" height="49.6"/>
		<polygon fill="#C9BBA1" points="187.2,408.4 134.7,473.1 641.7,473.1 589.2,408.4 		"/>
		
			<line fill="none" stroke="#726658" stroke-width="4" stroke-linecap="round" stroke-miterlimit="10" x1="316.2" y1="440.7" x2="458.1" y2="440.7"/>
		
			<line fill="none" stroke="#726658" stroke-width="4" stroke-linecap="round" stroke-miterlimit="10" x1="315.1" y1="437.2" x2="457" y2="437.2"/>
		
			<line fill="none" stroke="#726658" stroke-width="4" stroke-linecap="round" stroke-miterlimit="10" x1="314.1" y1="434.4" x2="456" y2="434.4"/>
		
			<line fill="none" stroke="#726658" stroke-width="4" stroke-linecap="round" stroke-miterlimit="10" x1="317.2" y1="440.7" x2="459.1" y2="440.7"/>
		
			<line fill="none" stroke="#726658" stroke-width="4" stroke-linecap="round" stroke-miterlimit="10" x1="313" y1="430.9" x2="454.9" y2="430.9"/>
	</g>
	<path fill="#F46969" d="M321.3,212.7c-1.3,0-2.5,0.2-3.6,0.6c-0.4,9.5-0.2,18,1.1,23.2c0.8,0.2,1.6,0.3,2.5,0.3
		c4.9,0,8.9-3.1,8.9-6.9v-10.3C330.2,215.8,326.2,212.7,321.3,212.7z"/>
	<path fill="#F46969" d="M428.4,231.7c1.3,0.9,2.6,1.5,4,1.8c6.8-9.3,12.4-18,14.5-24.1c-0.7-0.7-1.5-1.4-2.3-2
		c-5-3.3-11-2.9-13.6,0.9l-6.9,10.4C421.5,222.6,423.5,228.4,428.4,231.7z"/>
	<path fill="#F46969" d="M266.7,103.2c-0.5-0.8-1.1-1.5-1.8-2.1c-6.4,3.6-12,7.1-14.8,10.1c0.2,0.6,0.5,1.2,0.8,1.8
		c2,3.2,5.6,4.6,8.1,3.1l6.8-4.2C268.3,110.3,268.7,106.5,266.7,103.2z"/>
	<path fill="#F46969" d="M264.4,128.9c-0.8-0.9-1.6-1.6-2.6-2.2c-7,5.4-12.9,10.6-15.8,14.6c0.4,0.7,0.8,1.3,1.3,2
		c2.9,3.5,7.5,4.5,10.2,2.2l7.3-6.2C267.5,137.1,267.3,132.4,264.4,128.9z"/>
	<path fill="#F46969" d="M267.1,157.7c-0.9-0.8-1.9-1.4-3-1.8c-6.2,6.7-11.4,13.1-13.6,17.6c0.5,0.6,1,1.2,1.7,1.8
		c3.6,3.1,8.4,3.3,10.8,0.5l6.4-7.5C271.7,165.5,270.7,160.8,267.1,157.7z"/>
	<g>
		<rect x="267.5" y="565.9" fill="#00A59B" width="241.4" height="151.3"/>
		<rect x="279.8" y="578.5" fill="#EFF0F0" width="216.7" height="126.1"/>
		<text transform="matrix(1 0 0 1 300.2285 626.1826)" fill="#58595B" font-family="'FiraSans-Book'" font-size="49.1576">donate</text>
		<text transform="matrix(1 0 0 1 302.0737 684.3379)" fill="#E82E4A" font-family="'Lobster1.3'" font-size="68.1318">FOOD</text>
		
			<rect x="261.1" y="539.5" transform="matrix(0.7071 0.7071 -0.7071 0.7071 478.4909 -23.3709)" fill="#CFD1D2" width="12.8" height="52.8"/>
		
			<rect x="501.5" y="539.5" transform="matrix(-0.7071 0.7071 -0.7071 -0.7071 1267.1686 606.882)" fill="#CFD1D2" width="12.8" height="52.8"/>
		
			<rect x="501.5" y="690.8" transform="matrix(-0.7071 -0.7071 0.7071 -0.7071 359.8912 1583.4794)" fill="#CFD1D2" width="12.8" height="52.8"/>
		
			<rect x="261.1" y="690.8" transform="matrix(0.7071 -0.7071 0.7071 0.7071 -428.7968 399.1678)" fill="#CFD1D2" width="12.8" height="52.8"/>
	</g>
	<g>
		<g>
			<path fill="#AF6412" d="M429.4,367.8c0.7-0.7,1-1.5,1-2.5c0-0.9,0-1.8,0.7-2.6c0.5-0.6,0.4-1.3,0.2-1.9c-0.4-0.9-0.3-1.8-0.3-2.7
				c1.6,0.8,1.5,2.1,1,3.6c0.5,0.8,0.6,1.6,0.5,2.5c-0.3,2.2-2.2,3.6-3,5.7C429,369.2,429,368.5,429.4,367.8z"/>
			<path fill="#AF6412" d="M432.4,364.2c-0.5-0.8-0.6-1.6-0.5-2.5C433,362.4,433.5,363.1,432.4,364.2z"/>
			<path fill="#AF6412" d="M430.9,356.6c-0.6-0.6-0.9-1.2-1-2.1C430.9,355,431,355.7,430.9,356.6z"/>
			<path fill="#AF6412" d="M374.6,401.8c0.2-0.2,0.3-0.3,0.5-0.5C375,401.4,374.8,401.6,374.6,401.8z"/>
		</g>
		<g>
			<path fill="#AF6412" d="M343.9,386.5c-0.6,0.6-1.1,0.9-1.9,0.9c-0.7,0-0.7-0.2-0.8-0.9c-0.1-1-1.6-1-1.6,0c0,1.2,0.4,2.2,1.7,2.5
				c1.6,0.4,2.9-0.1,4.1-1.1C346.5,387.2,344.9,385.5,343.9,386.5z"/>
			<g>
				<path fill="#AF6412" d="M454.6,386.1c-1-2.8-2-5.7-3.9-8c-2.8-3.4-6.6-5.6-9.3-9.3c-3.1-4.4-3.7-9.1-5-14.1
					c-1-4-2.5-7.9-4.1-11.7c-2.7-6.3-6.8-10.3-13-13.1c-6.6-3.1-12.6-3.8-19.6-1.7c-7.4,2.2-14.9,6.5-19.9,12.6
					c-0.2,0.2-0.1,0.5,0,0.6c-3.4,3.7-5.9,8.2-6.5,13.7c-0.4,3.2,0.1,6.3,0.6,9.4c-6-2.5-14.2,2.5-19.3,5.2c-3.7,2-6.9,3.2-11.2,3.1
					c-3-0.1-6.1-0.4-9.1,0.4c-4,1.1-6.2,4.2-7,8.1c-2.2,10.5,5.7,17.6,13.8,22.9c4.8,3.2,9.5,5.6,15.2,6.9c6,1.4,12,0.5,18-0.5
					c4.8,8.7,13.5,16.2,21.8,19.5c6,2.3,13.2,3.1,19.8,3.1c-0.1,1,0.9,2.2,2.1,1.5c0.9-0.6,1.8-1.1,2.7-1.6
					c5.3-0.6,9.7-2.4,13.9-6.3c0.7-0.6,0.6-1.4,0.1-1.9c2.2-1.3,4.4-2.5,6.5-3.8c6-3.6,11-7.7,14-14.1
					C458.9,399.8,457.2,393.2,454.6,386.1z M370.9,399.4c0.3,2.7,1.1,5.5,2.2,8.2c-9,0.9-17.7,1.1-25.9-3.6
					c-7.4-4.3-18.5-10.9-16.9-20.8c1.8-10.8,14.5-5.5,22-9.2c4.9-2.4,15.3-11.1,22-8.9c0.8,4,1.7,8,1.6,12.1
					C375.5,384.9,370.1,391.7,370.9,399.4z M450.1,409.2c-3.9,5.5-10.1,8.9-15.8,12.1c-4.6,2.6-8.9,5.3-13.3,8.2
					c-2.1,0.2-4.3,0.3-6.7,0.1c-6.6-0.4-13.7-1.1-19.6-4.3c-6.3-3.4-13.1-9.5-16.9-16.5c0-0.6-0.3-1.2-0.8-1.5
					c-2.4-5.1-3.2-10.7-1.2-16.1c1.9-4.9,3.3-9.6,3.1-14.9c-0.1-5.5-2.1-10.6-2.9-16c-2-13.4,8.1-22.4,19.3-27.3
					c-0.3,0.9,0.9,1.8,1.7,1.1c0.5-0.4,1.1-1.4,1.7-1.6c0.3-0.1,0.7,0,0.7,0.4c0,0.3-0.7,0.9-0.9,1.1c-0.4,0.4-3.7,2.8-3.9,1
					c-0.1-0.5-0.8-0.3-0.8,0.1c0,1.3,1.2,1.7,2.3,1.6c1.7-0.1,3.5-1.1,4.7-2.3c1-1.1,0.9-2.6-0.2-3.4c0.2-0.2,0.2-0.5,0.1-0.7
					c7.7-1.8,14.6,0.1,21.1,4.6c11.7,8.1,9.3,25.2,17.3,35.7c4.3,5.6,9.7,8.6,12.2,15.6C454.2,394.4,455.5,401.6,450.1,409.2z"/>
				<path fill="#AF6412" d="M385,377.8c-4.1-6.2-4.3-12.6-4.2-19.8c0-0.3-0.5-0.3-0.5,0c-0.4,7.4-0.3,13.9,3.6,20.4
					C384.3,379.1,385.5,378.5,385,377.8z"/>
				<path fill="#AF6412" d="M393.3,383.8c-2.1-2-3.7-4.3-5.2-6.8c-0.6-1-2.1-0.1-1.5,0.9c1.6,2.6,3.2,5.1,5.3,7.3
					C392.7,386.1,394.2,384.6,393.3,383.8z"/>
				<path fill="#AF6412" d="M388.9,406.5c-4.4-1.5-7.2-4.5-10.2-7.9c-0.7-0.8-1.9,0.4-1.2,1.2c3,3.6,6.1,7.5,10.9,8.4
					C389.6,408.4,390,406.9,388.9,406.5z"/>
				<path fill="#AF6412" d="M400,403.1c-1,0-1,2.2,0,2.2C402,405.3,402,403.1,400,403.1z"/>
				<path fill="#AF6412" d="M391.8,359.4c0-0.3-0.6-0.3-0.5,0c0.1,1.2,0.3,2.3,0.4,3.5c0,0.3,0.5,0.3,0.5,0
					C392,361.8,391.9,360.6,391.8,359.4z"/>
				<path fill="#AF6412" d="M351.8,381.5c-1.3,0.4-2.7,1-3.6-0.4c-0.6-0.9-2.1-0.1-1.5,0.9c0.5,0.9,1.3,1.7,2.5,1.8
					c1.1,0.1,2.1-0.4,3.1-0.8C353.2,382.7,352.8,381.2,351.8,381.5z"/>
				<path fill="#AF6412" d="M358,379.7c-1,0-1,1.8,0,1.8S359,379.7,358,379.7z"/>
				<path fill="#AF6412" d="M357.1,396.9c-1,0.4-2,1-3,0.7c-1.2-0.4-1.7,1.5-0.5,1.9c1.6,0.5,2.9-0.2,4.3-0.8
					C358.8,398.2,358.1,396.5,357.1,396.9z"/>
				<path fill="#AF6412" d="M391.8,342.9c-0.7-0.8-2,0.2-1.4,1.1c-0.1-0.1,0,0.1,0,0.1c0,0.1,0,0.3-0.1,0.4
					c-0.1,0.3-0.1,0.6-0.1,0.9c0,0.2,0.1,0.5,0.1,0.7c0,0.1,0,0.2,0.1,0.3c0,0.1,0,0.2,0,0.1c-0.4,0.5-2,0.1-2.5-0.1
					c-0.8-0.2-1.1,1-0.3,1.2c1.3,0.4,3.2,0.8,4.3-0.2c0.6-0.6,0.3-1.4,0.3-2C392.1,344.6,392.6,343.8,391.8,342.9z"/>
				<path fill="#AF6412" d="M397.9,340.8c-0.1,0.5-0.2,0.9-0.3,1.4c-0.3,1.3,1.7,1.9,2,0.6c0.1-0.5,0.2-0.9,0.4-1.4
					C400.3,340.1,398.2,339.5,397.9,340.8z"/>
			</g>
		</g>
	</g>
	<g id="Layer_4">
	</g>
	<g>
		<g>
			<path fill="#2F7F37" d="M348.6,267.8c-1.3,3-2.1,6.2-2.6,9.3c-0.2,1.2,1.6,1.7,1.8,0.5c0.5-3.4,1.4-7.1,2.8-10.4
				C350.1,267.5,349.4,267.7,348.6,267.8z"/>
			<path fill="#2F7F37" d="M329.8,288.2c-0.7,1.9-1.4,4.1-0.7,6.1c0.8,2.3,3.3,3.6,5,5.1c2.8,2.6,7.6,6.9,11.8,6.1
				c0.1,0,0.2-0.1,0.2-0.2c0.1,0.1,0.2,0.2,0.3,0.4c0.5,0.6,1.6-0.2,1.1-0.9c-2.2-3.2-2.1-7.4-3.2-11c-1-3.4-2.8-6.6-4-9.9
				c-0.9-2.6-1.3-7.1-3.6-9.4c-0.7,0.5-1.5,0.8-2.5,0.8c0,0-0.1,0-0.1,0c-0.1,0.1-0.3,0.1-0.4,0.2c0.3-0.1,0.2-0.1-0.1,0.1
				c0.7,0.3,1.3,0.6,1.8,1.1c1.3,1.5,1.6,3.6,2,5.5c-0.9-0.8-2-1.4-2.7-2.4c-0.9-1.3-0.1-1.9-1.6-3.1c-0.2-0.2-0.5-0.4-0.8-0.5
				c-0.6,0.3-1.2,0.6-1.8,0.9c-0.3,0.1-0.6,0.3-1,0.4c0.4,0.1,0.8,0.2,1.1,0.3c0.9,0.5,2.4,3.3,3.1,4.5c1.7,0.6,2.5,2.1,2.2,4.4
				l-0.4,1.5c-0.5,2.4-2,4.3-3.4,6.2c-1.2-1.6-0.9-3.3-0.4-5.6C332,287.5,330.3,287,329.8,288.2z M338.6,286c0.4,1,0.8,2,1.2,3
				c1.4,3.4,2.7,6.5,3.6,10c0.6,2.2,1,4,2.2,5.7c-3.2-1.1-6.6-4.1-9-6.4c-1-1-2-1.9-3.2-2.7c0,0-0.1-0.1-0.1-0.1
				C335.5,293.3,338.2,289.3,338.6,286z"/>
			<path fill="#2F7F37" d="M358.1,265.2c0,0.1,0,0.1,0,0.2c-0.1,0.5,0.2,0.8,0.6,1c-0.1,0.3-0.1,0.6-0.2,0.8
				c-0.3,1.1-0.5,1.9-0.5,3.1c0,2.1,0.5,5.3,2.3,6.7c0.2,0.1,0.3,0.1,0.5,0c-1.1,4.3-2.1,8.7-3.1,13c-0.4,1.9-0.9,3.8-1.1,5.7
				c-0.2,1.8,0,3.9,0,5.8c-1.6-3.7-2.4-7.8-3.6-11.6c-0.7-2.3-1.7-4.5-2.2-6.8c1.1,0.2,2.4-0.2,3.7-0.8c-0.1,0.1-0.1,0.2-0.1,0.3
				c-0.1,3.8,0.1,7.5,0.5,11.3c0.1,1.1,1.9,1.2,1.8,0c-0.5-3.8-0.9-7.5-0.9-11.3c0-0.4-0.3-0.6-0.6-0.7c2.1-0.9,5.1-1.5,5.2-4.2
				c0-0.6-0.5-1.2-1.1-1.4c-0.1,0-0.2-0.1-0.3-0.1c-1.3-0.3-2,0.9-1.7,1.9c-0.4,0.5-1.7,1-2.1,1.3c-1.4,1-3,2.6-4.6,2.4
				c-0.1-0.5-0.1-0.9-0.1-1.4c-0.1-4.3,1.5-8.4,3.3-12.2c0.2-0.4-0.4-0.7-0.6-0.4c-2.5,4.5-4,8.7-4.1,13.2c-0.2-0.2-0.4-0.4-0.6-0.7
				c-0.3-0.5-1.1,0-0.8,0.5c0.4,0.6,0.9,1.1,1.4,1.5c0,1.8,0.3,3.7,0.8,5.6c1,3.6,2.1,7.1,3.2,10.7c0.8,2.6,1.2,5.2,3.4,7
				c0.8,0.7,1.9,0,1.7-1c-1.7-9.7,3.8-19.9,4.9-29.5c0.1-1-1.5-1.2-1.8-0.2c-0.1,0.5-0.2,1-0.4,1.4c-2.6-4.8,1-8.6,1.5-13.1
				C361.4,264.5,359.7,265.2,358.1,265.2z"/>
			<path fill="#2F7F37" d="M452.7,297.4c0,0-0.1-0.1-0.1-0.1c4.7-6.9,2.9-16.4-2.3-22.5c-3.1-3.7-7.4-7.8-12-9.7
				c-5.6-2.3-10.9-5.1-17.2-5.5c-1.5-0.1-1.8,2.3-0.3,2.6c2.3,0.4,5.1,0.8,7.2,1.9c1.5,0.8,2.6,2,4.1,2.8c2.1,1,4.4,1.1,6.5,2.2
				c1.8,1,3.7,2.6,5.4,3.8c3.3,2.3,7.2,6,8.3,10c1.2,4.5,1.4,9.5-0.3,13.8c0,0-0.1,0-0.1,0c-0.4-1.2-0.9-2.4-1.2-3.5
				c-0.5-1.8-0.8-3.4-2.3-4.6c-3-2.3-5.7-3.5-9.1-3.2c1.7-4.1,2.4-8.6-1.7-11.3c-3.7-2.5-6.4-4.9-10.6-6.9c-1.9-0.9-3.9-1.5-6-1.7
				c0.1-0.2,0-0.5-0.2-0.7c-2.3-2.7-3.1-6.5-6.1-8.6c-2.8-1.9-7.1-3.3-10.4-3.6c-6.2-0.7-11.7,2-15.3,6.9c-1.2,1.6-2.3,3.6-3.2,5.7
				c-0.3-0.3-0.6-0.5-0.8-0.8c-0.7-0.9-1.7-3.1-2.7-3.9c-2.2-2.1-5.6-4.1-9-5.1c-0.4,0.9-1,1.6-1.8,2.2c0.1,0,0.3,0,0.4,0.1
				c3.1,0.8,6.6,3.4,8.4,6c0.6,0.9,1.4,1.9,2.1,2.8c1.4,1.9,0.9,3.9,0.6,6.2c-0.1,0.5,0.2,0.9,0.5,1.2c0,1.2,0.1,2.4,0.4,3.5
				c1.5,5.7,7.7,5.3,12.6,6c0,0.1,0.1,0.2,0.2,0.2c0.1,0,0.2,0,0.4,0c0,5.6-1.1,10.6-5.8,14.7c-0.4,0.3-0.7,0.6-1.1,0.9
				c-2.8,0.9-6.1,0.6-9,1.8c-2.2,0.9-4.5,2.1-6.4,3.6c-2.3,1.9-7.4,7-7.4,10.4c-0.5,0.6-0.9,1.1-1.2,1.7c-0.5,1.1-0.5,2.2-0.5,3.4
				c-0.2,3.6-0.9,5.7-1.9,9.1c-0.4,1.2-0.4,2.3-0.1,3.3c-1.7,6.4-11,6.1-16.3,2.9c-1.2-0.7-2-1.7-2.4-2.8c1.5-3.6,5.6-7.5,9.5-8
				c2.6-0.3,4.3,0.5,6.2,2.2c0.9,0.8,1.1,1.1,2.3,1.4c1.1,0.3,1.5-1.3,0.5-1.7c-2.3-0.8-3.3-2.9-5.8-3.4c-1.9-0.4-3.9-0.2-5.7,0.5
				c-3.1,1.4-6,4.7-7.3,8c-0.5-2.2,0-4.8-0.1-7.1c-0.1-2.1-1.1-4.8-1.8-6.6c-1.7-4.4-5.6-6.8-9.1-9.8c-4.7-3.9-10.1-7-15.2-10.3
				c-0.2-0.1-0.4,0.2-0.2,0.3c1.8,1.2,3.7,2.6,5.5,4c-3.4,2.2-8.6,3.4-11.9,0.5c-3-2.6-2.6-6.1-2.7-9.8c0-2.5-0.6-4.2,0.4-6.9
				c0.5-1.3,1.7-3.1,2.9-4.4c-0.3-1.4,0-2.9,0.7-4.1c0,0,0,0,0,0c-0.8,0.3-1.6,0.6-2.5,1.1c-1.2,0.7-1.8,1.6-2.3,2.9
				c-0.4,1-0.2,2.2-0.7,3.2c-0.2,0.5-1.1,0.9-1.3,1.5c-0.9,2.1-0.7,2.8-0.2,4.9c0.5,2.3,0.2,4.2,0.6,6.5c0.5,3.7,1.2,7.6,5.2,8.4
				c3.6,0.7,6.7-0.1,9.5-1.8c-4.7,4.4-2.7,11.8-0.2,17.2c4.2,8.9,14.4-4.7,20.1,0.9c0.1,0.1,0.2,0.2,0.4,0.2c0.3,1,0.4,2,0.5,2.9
				c0.2,3.3-0.8,6.1,1.2,8.9c3.4,4.8,11.4,6,16.9,5.4c2.3-0.3,4.2-2.3,5.1-4.7c1.9,1.7,4.9,2.4,7.8,1.5c2.4-0.8,4.6-3.2,6.5-4.7
				c2.2-1.7,4.5-3.3,7-4.7c4.5-2.4,10-2.5,14.1-5.5c1.2-0.9,0.2-2.7-1.2-2c-4,2-8.6,2.1-12.7,3.9c-3.9,1.7-7.3,4.3-10.6,6.9
				c-2.1,1.6-5.9,4.6-8.5,2.8c-2.4-1.7-1.4-4.6-0.8-6.7c0.5-1.8,0.5-3.4,0.9-5.1c0.7-3.5,2.7-5.3,5.4-7.3
				c6.8-4.9,14.6-8.6,20.4-14.9c4.5-4.8,5-9.9,4.3-15.8c0.2,0,0.4,0.1,0.6,0.1c0.7,0.2,1.1-0.3,1.2-0.8c0.7-0.2,1.4-0.6,2-1
				c0.8-0.6-0.2-1.8-0.9-1.1c-0.5,0.5-1,0.8-1.5,1.1c-0.1-0.1-0.2-0.2-0.4-0.2c-0.5-0.2-0.9-0.3-1.4-0.5c-0.1-0.4-0.1-0.8-0.2-1.2
				c0-0.3-0.5-0.2-0.5,0.1c0,0.3,0,0.7,0,1c-4.6-1.1-10.1-0.7-10.2-7.1c0-4,3.2-11.2,5.6-13.9c4.4-4.9,10.2-5.2,16.1-3.6
				c3.3,0.9,5.4,2.4,7.6,5.1c1,1.2,1.8,2.5,2.8,3.7c-1,0-2.1,0-3.1,0.1c-1.6,0.2-2.5,0.7-3.8,1.5c-2.2,1.4-4.1,2.5-6.6,3.5
				c-2.1,0.8-4.2,1.9-4.6,4.3c-0.4,1.9,0.6,3.6,1.1,5.4c0.8,2.7-0.2,4.8,0,7.4c0.2,2.8,2.1,4.2,4.3,5.3c-2.3,0.7-4.1,2.3-5.1,5.2
				c-0.8,0.8-1.6,0.6-2.1-0.7c0-0.7,0.1-1.3,0.3-2c0.1-0.8,0.3-1.7,0.5-2.5c0.5-2.2,1-4.4,1.4-6.6c0.1-0.4-0.5-0.6-0.6-0.2
				c-0.6,2.5-1.4,4.9-2.1,7.4c-0.4,1.5-1.4,3.5-0.9,5.1c0.4,1.3,1.7,2,3,2c-0.2,1.2-0.4,2.4-0.6,3.7c-0.1-0.3-0.2-0.6-0.6-0.8
				c-1.2-1-3,0.2-4.1,1c-2,1.6-3.6,3.7-4,6.3c0,0.4,0.1,0.6,0.4,0.8c-1.3,1-2.6,1.9-3.9,2.5c-0.6,0.3-0.1,1.2,0.5,0.9
				c3.6-1.5,6.1-4.2,8.9-6.8c0.6-0.6,2.1-1.7,2.6-2.8c-0.1,1.2-0.3,2.3-0.4,3.4c-0.3,2.5-1.2,6.3-0.1,8.8c1.2,2.7,3.9,3.2,6.4,4.1
				c1.4,0.5,3.6,1.1,4.8,2.1c1.5,1.3,1.1,2.9,2.4,4.1c2.3,2.3,5.6,1,8.5-1c-0.1,0.4-0.3,0.9-0.4,1.3c-0.6,3,0.9,7.1,2.1,9.8
				c3.2,7.1,9.7,4.4,15.3,1.7c2.6-1.3,5.9-2.6,7.4-5.3c0.8-1.3,0.7-2.9,1.3-4.3c0.7-1.5,1.9-2.1,2.9-3.3c1.8-2.2,2.4-5,2.3-7.8
				c0-0.8-0.1-1.4-0.3-2.1c2.9-0.8,5-3.3,5.6-6.5C458.7,305.8,454.7,301,452.7,297.4z M329.9,320.2c-1.6,0.6-2.6,2.1-4.5,1.6
				c-2-0.5-1.9-2-2.5-3.5c-2.1-5.1-5.4-10.2,0.5-14.7c0.2-0.1,0.1-0.3,0-0.4c0.3-0.2,0.6-0.4,0.8-0.6c5.1,4,10,8.7,14.1,13.4
				c1,1.1,1.8,2.5,2.5,3.9C337.5,318.6,332.6,319.2,329.9,320.2z M376.1,308.7c-1.8,1.2-4.5,2.8-6.7,4.6c2-3,4.6-5.9,7.5-7.9
				c-0.1,0.4-0.1,0.8,0.1,1.3c0.1,0.4,0.3,0.8,0.6,1.1C377,308,376.5,308.4,376.1,308.7z M381.6,305.1c-0.4-0.5-1.1-0.7-1.6-0.1
				c-0.4,0.4-0.8,1.1-1.3,1.3c0,0-0.1,0-0.1,0c0-0.1-0.1-0.3-0.1-0.3c-0.2-0.5,0-1.1,0.1-1.6c1.9-1,4-1.9,6.1-2.4
				c0.8-0.2,1.5-0.2,2.2-0.3C385.2,302.9,383.4,304,381.6,305.1z M397.4,305.9c-1,1.3-2.2,2.6-3.5,3.8c0.7-1.4,1.4-2.6,2.7-3.7
				C397.2,305.4,398.7,304.3,397.4,305.9z M423,322.4c-1.5,1.5-3.2,2.9-5.3,3c-3.5,0.2-2.5-1.6-3.9-3.4c-1.6-2.2-4.8-3-7.2-3.8
				c-3.3-1.2-4.5-1.4-4.7-5.3c-0.2-2.2,0.3-4.9,0.5-7.1c0.2-1.7,0.2-3.4,0.4-5.1c0.1-0.6,0.1-1.1,0.3-1.6c0,0,0.1-0.1,0.1-0.1
				c0.1-0.2,0.1-0.4,0.1-0.6c0.8-2.6,2.3-4.2,4.4-4.9c0.2,0.1,0.4,0,0.5-0.2c0.4-0.1,0.9-0.2,1.4-0.2c-0.4,0.1-0.8,0.2-1.3,0.3
				c-0.2,0.1-0.1,0.4,0.1,0.4c5.8-1.3,6.9,1.6,11.3,3.7c1.9,0.9,3.8,0.5,5.5,1.8c0.1,0.1,0.2,0.2,0.4,0.3c-0.5,0.1-1,0.2-1.5,0.3
				c-0.6,0.1-0.4,1.1,0.1,1c0.7-0.1,1.4-0.2,2.1-0.3c1.4,2.5,0.9,6.7,0.5,9.4c-0.6,4.1-2.9,6.9-4.8,10.5
				C421.7,321.5,422.3,322.3,423,322.4z M448.9,324c-0.9,1.3-2.8,1.9-3.7,3.2c-1.2,1.7-1.3,3.5-2.6,5.2c-1.6,2.1-3.5,2.8-5.9,3.9
				c-3.3,1.6-6.5,3.7-9.6,1.1c-2.7-2.2-4.3-7.8-3.6-11.1c0.1-0.7,0.4-1.4,0.6-2.1c1-0.9,1.8-1.8,2.3-2.5c0.5-0.6,0.2-1.4-0.3-1.7
				c0.2-0.5,0.5-1,0.7-1.4c0.1-0.2,0-0.4-0.1-0.6c1.5-2.4,2.8-4.9,2.9-8c0.1-2.9,0.6-7-0.4-10.1c0.7-0.3,1.3-0.6,1.9-1.1
				c0.9-0.8,1.6-1.8,2.2-2.8c0.7-1.2,1.1-3.1,2.1-4.1c0.6-0.6-0.2-1.6-0.9-1.1c-1.6,1.1-2.3,3.3-3.2,4.9c-0.8,1.4-1.7,2.2-2.8,2.8
				c-0.1-0.2-0.2-0.3-0.3-0.4c-0.7-1-1.5-1.6-2.7-1.9c-0.8-0.2-1.7,0-2.5,0c-1.6-0.2-2.9-0.9-4.3-1.5c-1.8-0.8-3.5-1.4-5.3-1.6
				c0-0.1,0-0.2-0.1-0.2c-1.9-0.4-3.8-0.6-5.5-0.4c-3.6-2.3-3.2-5.5-2.8-9c0.2-1.9-0.4-3-0.6-4.8c-0.5-4.5,3.3-5.1,6.3-7
				c1.9-1.2,2.4-2.3,4.7-3.2c6.1-2.4,14,1.2,18.5,5.5c2.2,2,4.4,2.8,4.5,6.6c0,2.4-1.7,5.9-2.8,7.8c-0.6,1.1,1.1,2,1.6,0.9
				c0.5-1,1-2,1.5-3.1c3.6,0.2,7.4,3.1,8.9,6.1c0.9,1.7,1.9,7,1.6,8.9c-0.4,2.9-2.4,5.9-5.3,6.6c-2,0.5-4.5-0.1-6.5-0.3
				c-1.6-0.2-1.9,2.5-0.4,2.8c3.1,0.6,6.9,1.5,9.9,0.1c0,0.1,0,0.2,0,0.2c0.5,1.8,1.9,3,2.5,4.8C450.4,317.8,450.4,321.9,448.9,324z
				 M451.9,315.7c-0.7-2-2-3.5-3.2-5.8c-0.1-0.2-0.2-0.3-0.4-0.3c1.8-1.4,3.3-4.2,3.9-6.8c0.7,1.2,1.4,2.3,2.1,3.5
				C456.2,309.4,455.1,313.7,451.9,315.7z"/>
			<path fill="#2F7F37" d="M369.9,280.9c1.8,2.3,5.3,3.1,7.9,2.1c2.7-1.1,6.4-2.2,4.6-5.7c-0.7-1.3-2.3-0.3-2.2,0.9
				c0.1,1.1-3.2,2.3-4,2.6c-1.7,0.6-4.2,0.6-5.6-0.9c-0.1-0.1-0.2-0.2-0.4-0.2c0-0.1,0.1-0.1,0.1-0.2c0.5-0.6,1.1-1.2,1.8-1.7
				c1.3-1,3.3-2.5,5-1.9c-1.6,1.2-3.1,2.4-4.7,3.6c-0.4,0.3-0.1,1,0.4,0.7c1.8-1,4.1-1.7,5.4-3.4c0.2-0.3,0.2-0.7,0-1
				c0.3-0.3,0.4-0.9-0.1-1.3c-1.9-1.3-4.4,0.2-6,1.5c-0.4,0.3-0.7,0.6-1.1,1c0.2-1.2,0.3-2.2,0-3.2c-0.1-0.3-0.5-0.2-0.4,0.1
				c0.3,1.2-0.2,2.9-1,4.8c-0.6,0.8-1.1,1.7-1.5,2.7c0,0.1,0,0.2,0,0.3c-0.8,1.5-1.7,2.9-2.2,3.8c-0.4,0.8-0.8,1.6-1.2,2.4
				c-0.1,0.1-0.2,0.3-0.2,0.4c-0.9,1.9-1.7,3.8-2.4,5.9c-1.2,3.3-5.5,9.8-2.3,13.1c0.5,0.5,1.3,0.4,1.6-0.2c2.2-4.3,5.4-8,9.4-10.7
				c3.1-2.1,6-3.6,8.5-6.6c0.9-1-0.6-2.5-1.5-1.5c-1.6,1.8-3.4,3.1-5.3,4.4c-0.9,0-1.8-0.4-2.5-1c-0.4-0.4-0.6-0.9-1.1-1.3
				c-0.5-0.3-1-0.4-1.5-0.5c-0.8-0.1-0.8,0-0.6-0.9c0.1-0.4,0-0.8-0.3-1.1c0.1-0.3,0.2-0.7,0.4-1
				C367.7,285.2,368.9,283.1,369.9,280.9z M367,291.8c1.3,0.1,2.1,0.8,3.4,1.1c0.5,0.1,1,0.2,1.5,0.2c-1.8,1.2-3.6,2.3-5.2,3.8
				c-2,1.8-3.6,4.1-5.2,6.3c0.4-2.4,1.8-5,2.4-6.8c0.5-1.7,1-3.4,1.5-5C365.9,291.6,366.4,291.7,367,291.8z"/>
			<path fill="#2F7F37" d="M385.6,285.7c0.1-0.3-0.4-0.4-0.5-0.1c-1.2,3.1-4.2,5.2-6,8.1c-0.3,0.5,0,1,0.5,1.2
				c0.1,0,0.2,0.1,0.3,0.1c0.8,0.3,1.2-0.7,1-1.2C382.1,290.8,384.8,288.8,385.6,285.7z"/>
			<path fill="#2F7F37" d="M389.6,290.9c-1.2,0.1-2.3,1.1-3.2,1.8c-1.3,1-2.7,2-4,3c-0.8,0.6,0.1,1.7,0.8,1.1
				c2.2-1.8,4.5-3.6,6.5-5.7C389.8,291.1,389.8,290.9,389.6,290.9z"/>
			<path fill="#2F7F37" d="M358.5,320.1c-2.6-0.5-5.2-0.6-7.8-0.6c-0.9,0-0.9,1.4,0,1.4c2.5,0.1,4.9,0.3,7.4,0.8
				C359,321.9,359.5,320.3,358.5,320.1z"/>
			<path fill="#2F7F37" d="M351.2,314.6c-1.5-4.8-2.8-9.7-4-14.5c-0.1-0.3-0.5-0.2-0.5,0.1c1.1,4.9,2.2,9.8,3.4,14.7
				C350.3,315.6,351.4,315.3,351.2,314.6z"/>
			<path display="none" fill="#2F7F37" d="M355.4,311.7c-0.2-2.5-0.5-5-0.9-7.5c-0.2-1-1.7-0.6-1.5,0.4c0.5,3,0.9,6.2,0.8,9.2
				c-0.1,3.3-1.7,4.6-5.1,3.3c-0.9-0.3-1.5,1.1-0.6,1.5c2.3,1.1,5.5,1.3,7-1.2C355.9,315.8,355.5,313.4,355.4,311.7z"/>
		</g>
	</g>
	<g>
		<path fill="#E51717" stroke="#FFDC17" stroke-miterlimit="10" d="M421.9,179.4c-1.9,0.3-3,3-3.6,4.7c-1.5,4.3-3.2,13.7-8.2,15
			c-0.9,0.2-1.7,0.2-2.4-0.1c-0.2-0.2-0.4-0.3-0.6-0.5c0.5-6.3-1.5-11.8-4-18.1c-1.2-3-2.8-5.2-4.8-7c5.3-1.7,9.7-7.3,12-11.9
			c0.6-1.2,0.4-2.3,2-2.2c1.4,0.2,1.1,0.9,1.1,2.3c0,1.4-0.3,2.9-0.7,4.3c-1.3,4.3-4.5,8.7-8.2,11.1c-2.2,1.4,0,4.7,2.2,3.2
			c3.9-2.8,7.5-8,8.8-12.9c0.7-2.7,1.5-7,0-9.6c-1.4-2.3-4-2.5-5.7-0.7c-2,2.1-2.8,5.6-4.5,8c-2.3,3.1-4.6,6.2-8.1,7.5
			c-2.1-1.6-4.5-2.8-7.3-3.9c-4.1-1.8-10.9-3.4-14.1,0.4c-2.5,3-3.9,8.6-5.5,12.2c-1.6,3.6-3.1,7.2-4.1,11c-1.4,4.8-2.5,9.4-5,13.7
			c-2.7,4.8-6.6,8.7-10.3,12.6c-6.3,6.7-13.2,12.6-19.4,19.3c-4,4.4-8.3,5.4-13.8,7.2c-3.3,1.1-6,2.9-9,4.6
			c-4.9,2.8-9.3,2.9-14.7,3.7c-3.8,0.6-7.4,1.9-10.9,3.4c-0.8,0.3-0.8,1.5-0.3,2.1c4.7,5.6,17.1,6.6,23.4,6.6
			c4.3,0,8.5-0.7,12.5-2.4c2.7-1.1,5.2-2.7,7.7-4.3c1.5-0.9,5.5-4.4,7.8-4.5c-1,1.3-2,2.6-3.1,4c-4.6,5.8-11.7,12.1-14.3,19.3
			c-0.2,0.5,0.5,0.8,0.8,0.4c4.5-7.2,11.4-13.2,16.9-19.7c5.1-6,10-12.1,14.8-18.3c10.7-13.8,19.4-30.8,33-41.5
			c0.7-0.5,0.6-1.3,0.1-1.9c1.2-0.4,2.5-0.7,3.7-0.9c1.5-0.3,3-0.4,4.6-0.3c0.1,0.4,0.1,0.7,0.2,1.1c0.1,1.2,2,0.9,1.8-0.3
			c0-0.2-0.1-0.4-0.1-0.6c3.4,0.5,6.7,1.9,9.7,4.1c0.7,0.5,1.3,1.1,1.9,1.8c0.1,0.2,0.2,0.5,0.4,0.8c0.2,0.3,0.5,0.6,0.8,0.7
			c2.4,3.3,4.4,7.6,5.6,10.9c2.3,5.9,0.8,10.8-1.6,15.6c-0.3,0-0.6,0.1-0.9,0.4c-7.8,6.7-17.2,9.1-25.8,14.2
			c-7.5,4.5-13.5,10.9-21.1,15.2c-7.6,4.4-15.8,8-23.8,11.6c-3.9,1.7-7.9,3.2-11.9,4.8c-3.2,1.3-7.2,4.3-10.8,5.2
			c1-3.1,3.3-6.4,4.5-9.2c0.1-0.3-0.2-0.6-0.4-0.3c-2,3.3-4.9,6.6-6.2,10.3c-0.2,0.6,0.3,1.2,0.8,1.3c2.5,0.2,5.2-1.6,7.4-2.5
			c4.6-1.8,9.4-3.2,14-5c9.3-3.4,18.6-7.5,27.3-12.1c8.7-4.6,15.4-12,23.9-16.7c7.1-3.9,14.5-6.8,20.9-11.6c0.6,0.7,1.7,1.2,2.4,0.4
			c3.7-4.5,6.9-10.7,6.2-17c-0.2-1.6-0.6-3.4-1.1-5.1c0.1-0.6,0-1.2-0.6-1.7c-0.2-0.6-0.5-1.2-0.7-1.7c0.4-3.5,7.8-9.6,8.9-10.8
			c2.6-2.6,4.4-5.4,4.8-9.3C427.2,186.2,426.4,178.6,421.9,179.4z M404.3,195.8c-1-1.3-2-2.6-3.4-3.3c-1.7-0.9-3.2-0.9-4.5-0.4
			c-1.9-0.6-3.8-0.9-5.6-1c-1.3-2.6-3.3-4.8-5.7-6.5c-0.7-0.5-1.4,0.6-0.7,1.2c2,1.5,3.6,3.3,4.7,5.4c-0.2,0-0.5,0-0.7,0.1
			c-2.8,0.4-5.9,1.5-8.5,2.8c-3.3,1.6-4.9,4.5-7.5,6.9c-0.3,0.3,0,0.9,0.3,1c-10,10.1-17.7,23.2-26,34.6c-3.9,5.5-8,10.9-12.1,16.2
			c-1.8-0.6-3,0.1-4.7,0.9c-5.4,2.7-10.5,6.3-16.5,7.5c-5,1-10.1,0.6-15.2-0.3c-3.4-0.7-8.6-1.5-12.3-3.4c6.1-3.5,13.8-1.6,20.2-4.2
			c4.2-1.7,7.7-4.6,12-6c2.4-0.7,5-1,7.4-1.9c6.2-2.3,9.8-8.4,14.5-12.7c6.1-5.7,12.4-11,18-17.2c4.4-4.8,7.8-10.3,9.8-16.7
			c2.4-7.8,5.4-14.8,8.6-22.2c0.4-0.9,0.7-2.2,1.2-3c0-1.8,1-2.8,2.9-2.9c1.2-1.1,2.6-1.4,4.1-1c3.6,0.2,7.6,2.7,10.7,4.6
			C401,177.9,404.3,188.1,404.3,195.8z M424.5,186.7c0.7,3.2-2,6.8-3.8,8.7c-2.2,2.3-4.9,4.1-6.9,6.7c-0.5,0.6-1,1.3-1.5,2.2
			c-0.5-0.9-1.1-1.8-1.7-2.6c5.7-1.9,8.2-10.1,9.7-15.4C420.6,185,422.5,177.5,424.5,186.7z"/>
		<path fill="#E51717" stroke="#FFDC17" stroke-miterlimit="10" d="M387.3,214.2c1.3,3.3,2.8,6.3,3,9.9c0,0.9,1.4,1,1.4,0.1
			c0.3-3.8-1.8-7.2-3.2-10.5C388.1,212.9,386.9,213.5,387.3,214.2z"/>
		<path fill="#E51717" stroke="#FFDC17" stroke-miterlimit="10" d="M381.6,196c-0.8-0.8-1.4-1.7-1.9-2.7c-0.2-0.4-0.9-0.1-0.7,0.3
			c0.5,1.1,1.1,2.1,1.9,3C381.3,197,381.9,196.4,381.6,196z"/>
	</g>
</g>
<g id="DESIGNED_BY_FREEPIK">
</g>
</svg>
