<?xml version="1.0" encoding="utf-8"?>
<!-- Generator: Adobe Illustrator 18.0.0, SVG Export Plug-In . SVG Version: 6.00 Build 0)  -->
<!DOCTYPE svg PUBLIC "-//W3C//DTD SVG 1.1//EN" "http://www.w3.org/Graphics/SVG/1.1/DTD/svg11.dtd">
<svg version="1.1" id="Layer_1" xmlns="http://www.w3.org/2000/svg" xmlns:xlink="http://www.w3.org/1999/xlink" x="0px" y="0px"
	 viewBox="0 0 200 200" enable-background="new 0 0 200 200" xml:space="preserve">
<g>
	<g>
		<path fill="#4D4D4D" d="M24.5,53.7c0.7-1.9,1.9-3,3.3-4.2c0.6-0.5,1.9-0.9,2.5,0.2c0.5,0.9-0.1,1.6-0.4,2.5
			c-0.4,1.4-2.1,2.1-2.4,3.2c-0.8,3,1.5,5.6,4.4,6.5c3,0.9,6.2-1,7.1-4c0.3-1.1-0.2-3.3,1-3.7c1.5-0.4,2.9-0.3,2.9,1.2
			c0.1,3.3-1.8,6-4.5,8.2c-1.2,0.9-2.5,1.9-3.9,2.3c-2.6,0.7-4.9-0.4-6.8-2C24.8,61.2,23,57.6,24.5,53.7z"/>
		<path fill="#4D4D4D" d="M32.5,42.9c-0.3-0.7,0.2-1.9,1.3-2.4c0.5-0.1,1,0.3,1.4,0.7c1.8,2.2,3.4,4.4,5.9,5.8
			c-0.7-2.4-1-5.8,1.8-6.9c3.4,2,6.9,4,9.4,7c0.6,0.7-0.4,2.4-1.3,2.4c-3.1-0.3-4.4-4.1-7.5-5.1c0,2.4,0.6,4.7,1.5,7.1
			c0.1,0.5-0.3,1.6-0.8,2c-0.3,0.1-1,0.8-1.3,0.5c-2-1.9-3.8-3.9-5.5-6.1C35.7,46.2,33.1,45.1,32.5,42.9z"/>
		<path fill="#4D4D4D" d="M58.5,42.9c-2.4,1.2-4.7,3.1-7.4,1.9c-1.6-0.5-2.8-2.8-2.8-4.4c0-5,5-7.1,4.9-7.3c0-0.6-0.9-2.1-1.6-1.7
			c-2,0.9-2.5,2.5-3.7,4.2c-0.9,1.3-2.9-0.9-2.9-1.4c1.1-3,4.9-7.2,8.3-5.4c3.1,1.6,3.5,5.2,5.3,8.2c1.2,1.9,4,6,1.5,6.1
			C59.5,43.3,58.9,42.6,58.5,42.9z M54.4,35.6c-1.2,1.9-4.6,3.7-2.8,6.3c0.9,1.3,5.6-1.1,5.4-1.9C56.2,38.3,56.2,36.7,54.4,35.6z"/>
		<path fill="#4D4D4D" d="M55.2,25.5c0.9-2.3,3.9-1.4,4.7,0.9c1.8-1.4,0.8-4.4,3.5-5c1-0.1,2.2-0.3,2,1c-0.4,2.5-1.9,4.4-2.2,7
			c-0.1,0.9,0.7,1.7,0.7,2.6c-0.1,0.7,0.4,1.5,1.4,2c1.1,0.5,1.8,2.2,1.4,3.5c-0.1,1.3-1.6,2.1-2.7,1.6c-0.7-0.1-1-0.5-1.3-1.2
			c-1.2-2.7-3-5.3-4.7-7.8C57,28.5,54.4,27.5,55.2,25.5z"/>
		<path fill="#4D4D4D" d="M67.4,15.7c0.8-1,2.3-1.5,3.2-0.9c1,0.7,0.6,2.6,0.1,3.2c-0.6,0.7-1.8,1-2.9,0.4
			C67.1,18,67.1,16.2,67.4,15.7z M69.2,22.4c0.1-1.1,1.2-1.8,2.4-1.8c0.7,0,1.8,0.6,1.4,1.4c-0.5,1.9,0.7,3.2,0.8,4.7
			c0,1.9,1.7,3,1.9,4.8c0.1,0.1,0,0.5-0.1,0.6c-1,0.7-2.2,1.4-3,0.4c-1.3-1.7-1.7-4-2.4-6C69.5,25.2,69,23.9,69.2,22.4z"/>
		<path fill="#4D4D4D" d="M79.4,12.1c-0.2-1.8,2-2.3,3.6-1.8c0.2,0.1,0.5,0.6,0.5,1.2c-0.5,2.5-0.3,5.2,0.3,7.7
			c1.9-0.6,5.5-2.4,5.4,0c-0.1,1.9-3.4,2.4-5.3,2.9c0.2,2.3,3.7,12,4.1,14.3c0.1,0.7-0.3,1.4-1,1.5c-0.9,0.2-1.3,0-1.8-0.8
			c-1.2-1.9-3.5-12.4-5-14c-1.1,1.4-3.5,2.8-4.7,1.1c-0.3-0.5,0.1-1.3,0.5-1.8c1.2-1,3.2-1.3,3.8-2.5c0.5-1-0.1-2.6-0.2-3.8
			C79.6,14.6,79.5,13.4,79.4,12.1z"/>
		<path fill="#4D4D4D" d="M91.4,13c0.7-1.2,2.6-1.4,3.3-0.2c1,1.8,0.4,4,0.9,6.2c0.2,0.5,0.6,0,0.7-0.2c1-2.4,1.5-5.2,3.6-6.6
			c0.9-0.6,3.2-0.4,2.5,1.3c-1.7,3.7-4.2,7.4-4.2,11.8c-0.1,2.6-1.7,6.9-3.4,9.3c-1.2,1.7-4.5,2.1-5.5,0.3c-0.6-1.1-1.2-2.7,0-3.5
			c0.9-0.6,2.2,0.2,2.5,1.3c2.5-2.2,2-2.8,2.5-5.9c0.3-2-1.5-3.6-1.8-5.4c-0.3-2-0.8-3.8-1.1-5.8C91.2,14.7,90.9,13.6,91.4,13z"/>
		<path fill="#4D4D4D" d="M113.3,16.9c0.6-0.9,1.9-1,3-0.4c0.6,0.4,1.3,1.3,0.6,1.9c-1.4,1.4-0.9,3.2-1.6,4.5
			c-0.9,1.7,0,3.4-0.7,5.1c0,0.1-0.3,0.5-0.4,0.4c-1.2,0.2-2.6,0.1-2.8-1.1c-0.3-2.2,0.5-4.3,0.8-6.4
			C112.3,19.5,112.5,18.1,113.3,16.9z M115.1,10.2c1.2-0.5,2.7-0.2,3.3,0.8c0.5,1.1-0.7,2.6-1.4,2.9c-0.9,0.3-2,0-2.7-1.1
			C113.7,12,114.5,10.5,115.1,10.2z"/>
		<path fill="#4D4D4D" d="M131.1,20.9c0.1,0.6-0.6,1.5-1.1,1.7c-2.1,0.6-3.5-4.3-6.7-3.3c-1.2,0.4,0,2.5,0.6,2.9
			c2,1.4,3.5,2.7,4.8,4.6c0.8,1.3-0.2,3.1-1.2,4.2c-2.7,2.6-9.7,2.5-10.7-2.5c-0.2-1.1,1.3-1.9,2.3-1.7c0.9,0.2,0.6,1.5,1.2,2.1
			c1.4,1.3,4.6,1.2,5.2-0.8c0.1-0.5-0.6-1.5-1.2-2c-2.1-1.7-4.7-3.1-5.2-5.8c-0.6-3.2,6-5.1,8-3.5C128.7,18,130.7,19,131.1,20.9z"/>
		<path fill="#4D4D4D" d="M142.8,21.3c0.6-0.5,1.9-0.3,2.6,0.6c0.3,0.5,0,1-0.3,1.6c-1.6,2.3-3.4,4.5-4.1,7.3
			c2.1-1.3,5.3-2.5,7.1-0.1c-1.1,3.8-2.1,7.7-4.3,10.9c-0.5,0.8-2.4,0.2-2.7-0.6c-0.6-3.1,2.8-5.3,2.9-8.6c-2.3,0.7-4.4,1.8-6.4,3.3
			c-0.5,0.3-1.6,0.1-2.1-0.3c-0.2-0.3-1-0.7-0.8-1.1c1.4-2.4,2.8-4.7,4.4-6.9C140.5,25.3,140.9,22.5,142.8,21.3z"/>
		<path fill="#4D4D4D" d="M151.2,32.7c1.7-1.3,3.4-1.3,4.4-1.9c1.9-1.1,3.6,1,3.8,3.1c0.1,1.5-0.3,2.8-0.8,4
			c-1.2,2.8-3.7,3.9-6.6,4.4c-1.2,0.2-2.7-0.9-3.2-2C147.8,37.6,148.8,34.5,151.2,32.7z M155.9,34.6c-0.1-1.2-6.4,0.5-3.9,3.5
			C153.8,40.2,156.2,37.5,155.9,34.6z"/>
		<path fill="#4D4D4D" d="M161.6,38.3c1.3,0.1,1.7-1.7,3.1-1.4c1.2,0.2,2.2,1,2,2.1c0,0.7-1.1,1.3-1,1.7c1.9,2.4,4.2,6.2,1.4,8.4
			c-3.8,3.1-7.2-0.9-10.4-2.4c-2.9,1.9-3.7,3-5.4,6.1c-0.1,0.2-0.2,0.9-0.3,1.5c-0.5,1.4-2.2-0.3-2.6-1.3c-0.6-1.3,0.6-2.7,1.6-3.9
			c3-3.9,7-6.4,10.7-9.4C161.1,39.3,161,38.5,161.6,38.3z M159.5,45.2c0.5,1.4,3.3,2.7,5.3,1.2c0.9-0.6,0.6-1.4,0.3-2
			c-0.3-0.8-1.1-1.8-1.8-1.8C162,42.5,159.3,44.3,159.5,45.2z"/>
		<path fill="#4D4D4D" d="M176.2,52.1c1.4,2.6,0.6,6.3-1.9,8.1c-1.8,0.6-5.4-1.9-7.3-2.3c-0.1-0.1-0.8-0.4-1,0
			c-1.1,2.4,1.1,3.7,3.2,4.8c0,1.6-2.2,2.4-3.3,1.3c-1.2-1.2-2.6-2.4-3-4.3c-0.8-4,2.1-7.1,5-9.2C170.8,48.2,174.6,48.9,176.2,52.1z
			 M172.9,56.7c2-0.4,1-3.5-0.5-4.2c-1.6-0.8-4.2,1.6-3.7,2.3C169.8,56.2,171.2,57.3,172.9,56.7z"/>
	</g>
	<g>
		<path fill="#4D4D4D" d="M109.3,98.5c0.8-2.9,1.3-6.1,2.5-8.9c0.5-1.3,0.9-2.7,1.7-3.9c0.2-0.3,1.4-1.9,2.2-2.8
			c0.1,0,0.2-0.1,0.3-0.2c0.1-0.1,0.2-0.2,0.3-0.4c0.4,0,0.6-0.3,0.6-0.6c1.9-2.1,3.8-4,6.1-5.6c1.7-1.2,3.1-2.4,3.9-4.5
			c0.3-0.9,0.4-3-1-3.2c-1.9-0.3-3.4,0.3-4.9,1.4c-2.3,1.8-4.9,3.6-7.5,5c-1.2,0.6-2.6,1.6-4,1.6c-2.8,0-2.6-2.9-2.7-4.9
			c-0.1-3.1,1.2-6,2.2-8.8c0.6-1.6,0.8-3.2,1.5-4.8c0.5-1.2,1.2-2.6,1.2-4c0.1-3-3.5-7.1-6-3.6c-1.2,1.6-1.4,4.4-1.8,6.2
			c-0.3,1.5-0.8,2.8-1.3,4.2c-0.6,1.7-0.6,3.4-1.4,5c-0.5,1-1,1.9-1.4,3c-0.4,1.1-0.1,3.8-1.6,1.9c-0.9-1.2-0.7-2.8-0.8-4.2
			c-0.2-1.9,0-3.8,0-5.7c0-3.3,0.3-6.5,0.5-9.8c0.1-1.4,0.4-5.1-1.1-6c-1.1-0.6-3.4-0.4-4.3,0.5c-1.7,1.6-1.9,4.2-2,6.4
			c-0.2,3,0,6.1,0.1,9.1c0,1.6,0,3.1,0.1,4.7c0,0.8,0.1,1.5,0.1,2.3c0,0.4,0.1,2.8-0.6,2.1c-0.4-0.4-1.1-0.8-1.5-1.1
			c-0.7-0.6-1.2-1.9-1.5-2.7c-0.6-1.4-1-2.9-1.6-4.3c-1.2-2.9-2-5.9-2.9-8.9c-0.4-1.5-0.7-3.2-1.9-4.3c-1.1-1-2.9-0.1-3.7,0.9
			c-1.5,2-0.7,3.3-0.4,5.5c0.1,1.2-0.1,2.3,0.2,3.5c0.3,1.6,0.9,3.3,1.4,4.9c0.4,1.3,0.5,2.6,0.9,3.9c0.5,1.4,0.9,2.8,1.3,4.2
			c0.4,1.6,0.3,2.8,0.1,4.4c-0.2,1.3,0,2.7,0.1,4.1c0,1.3-1.5,4-2.4,4.9c-1.5,1.7-3.4,1.7-5.4,1.3c-3-0.6-5.5-1.9-8.3-2.8
			c-2.2-0.7-4.5-0.9-6.8-0.3c-1.5,0.5-3.6,2.2-3.1,3.9c0.1,0.5,0.6,0.9,1.1,1c1.3,0.3,2.4,0.7,3.7,1.3c1.2,0.6,2.5,0.9,3.7,1.5
			c1.6,0.8,3,1.9,4.5,2.8c2.8,1.8,5.6,3.5,8.3,5.5c3.1,2.3,5,4.8,7.1,8c2.1,3.2,2.3,7.8,2.4,11.4c0.1,3.9-0.2,7.9-0.8,11.8
			c-0.4,3.2-0.7,6.5-1.6,9.6c-0.3,1.2-0.4,2.7-0.6,3.9c-0.2,1.9-1,3.6-1.4,5.4c0,0.2,0,0.3,0,0.4c-0.1,0.4,0.1,0.9,0.6,0.9
			c4.5,0,9,0,13.5,0c4.2,0,8.5-0.3,12.7,0.1c0.4,0,0.8-0.5,0.7-0.9c0,0,0-0.1,0-0.1c0.1-0.2,0.1-0.3,0-0.5c-0.3-0.6-0.2-1.7-0.4-2.4
			c-0.5-1.6-0.9-3.2-1.1-4.8c-0.4-2.9-0.5-5.8-0.6-8.7c-0.1-2.8-0.1-5.6-0.1-8.4c0-3.1,0.4-6.2,0.3-9.3c-0.1-2.8,0.2-5.5,0.5-8.2
			C107.3,104.7,108.4,101.7,109.3,98.5z"/>
		<path fill="#4D4D4D" d="M166.2,100.3c-1.5-0.3-2.6,0.2-3.8,1.1c-1.8,1.4-3.9,2.8-5.9,3.9c-0.9,0.5-2,1.2-3.1,1.2
			c-2.2,0-2-2.3-2.1-3.8c-0.1-2.4,1-4.7,1.7-6.9c0.4-1.3,0.7-2.5,1.2-3.7c0.4-1,0.9-2,0.9-3.1c0-2.3-2.7-5.5-4.7-2.8
			c-0.9,1.2-1.1,3.4-1.4,4.9c-0.2,1.1-0.7,2.2-1,3.3c-0.5,1.3-0.5,2.6-1.1,3.9c-0.4,0.8-0.8,1.5-1.1,2.4c-0.3,0.9-0.1,3-1.2,1.5
			c-0.7-0.9-0.5-2.2-0.6-3.2c-0.1-1.5,0-3,0-4.5c0-2.6,0.2-5.1,0.4-7.6c0.1-1.1,0.3-4-0.9-4.7c-0.9-0.5-2.6-0.3-3.4,0.4
			c-1.3,1.3-1.5,3.3-1.6,5c-0.2,2.4,0,4.8,0,7.1c0,1.2,0,2.5,0.1,3.7c0,0.6,0.1,1.2,0.1,1.8c0,0.3,0.1,2.2-0.5,1.6
			c-0.3-0.3-0.8-0.6-1.2-0.9c-0.6-0.5-0.9-1.5-1.2-2.1c-0.5-1.1-0.8-2.3-1.2-3.4c-0.9-2.2-1.6-4.6-2.2-6.9c-0.3-1.2-0.5-2.5-1.5-3.3
			c-0.9-0.8-2.3-0.1-2.9,0.7c-1.2,1.5-0.5,2.6-0.3,4.3c0.1,0.9,0,1.8,0.1,2.7c0.2,1.3,0.7,2.6,1.1,3.8c0.3,1,0.4,2,0.7,3
			c0.4,1.1,0.7,2.2,1,3.3c0.3,1.3,0.3,2.2,0.1,3.5c-0.1,1,0,2.1,0,3.2c0,1-1.2,3.1-1.8,3.9c-1.1,1.3-2.6,1.3-4.2,1
			c-2.3-0.5-4.3-1.5-6.5-2.2c-1.7-0.6-3.6-0.7-5.3-0.2c-1.2,0.4-2.8,1.7-2.4,3.1c0.1,0.4,0.5,0.7,0.8,0.8c1,0.2,1.9,0.5,2.9,1
			c0.9,0.5,2,0.7,2.9,1.2c1.2,0.6,2.4,1.5,3.5,2.2c2.2,1.4,4.4,2.7,6.5,4.3c2.4,1.8,3.9,3.8,5.5,6.3c1.6,2.5,1.8,6.1,1.9,8.9
			c0.1,3.1-0.2,6.2-0.6,9.2c-0.1,0.4-0.1,0.7-0.1,1.1H151c0-1.8,0-3.5,0-5.3c0-2.4,0.3-4.8,0.2-7.2c0-2.2,0.2-4.3,0.4-6.4
			c0.2-2.6,1.1-4.9,1.8-7.4c0.6-2.3,1-4.7,1.9-6.9c0.4-1,0.7-2.1,1.3-3c0.1-0.2,1.1-1.5,1.7-2.2c0.1,0,0.2-0.1,0.2-0.1
			c0.1-0.1,0.2-0.2,0.2-0.3c0.3,0,0.4-0.3,0.4-0.5c1.4-1.6,3-3.1,4.7-4.4c1.4-1,2.5-1.9,3.1-3.5
			C167.3,102.1,167.3,100.5,166.2,100.3z"/>
		<path fill="#4D4D4D" d="M75.8,118.2c-1.3-0.4-2.6-0.3-3.8,0.1c-1.6,0.5-3,1.3-4.7,1.6c-1.2,0.2-2.2,0.2-3.1-0.7
			c-0.5-0.5-1.4-2.1-1.3-2.8c0-0.8,0.1-1.6,0-2.3c-0.1-0.9-0.1-1.6,0.1-2.5c0.2-0.8,0.4-1.6,0.7-2.4c0.3-0.7,0.3-1.5,0.5-2.2
			c0.3-0.9,0.6-1.8,0.8-2.8c0.1-0.7,0-1.3,0.1-2c0.1-1.2,0.6-2-0.2-3.1c-0.4-0.6-1.5-1.1-2.1-0.5c-0.7,0.6-0.8,1.6-1.1,2.4
			c-0.5,1.7-1,3.4-1.6,5c-0.3,0.8-0.6,1.6-0.9,2.4c-0.2,0.5-0.5,1.2-0.9,1.5c-0.3,0.2-0.6,0.4-0.9,0.7c-0.4,0.4-0.4-0.9-0.4-1.2
			c0-0.4,0-0.9,0.1-1.3c0-0.9,0-1.8,0-2.7c0-1.7,0.2-3.5,0-5.2c-0.1-1.2-0.2-2.7-1.2-3.6c-0.5-0.5-1.8-0.7-2.5-0.3
			C52.8,97,53,99.1,53,99.9c0.1,1.9,0.3,3.7,0.3,5.5c0,1.1,0.1,2.2,0,3.3c-0.1,0.8,0,1.7-0.5,2.4c-0.8,1.1-0.7-0.5-0.9-1.1
			c-0.2-0.6-0.5-1.1-0.8-1.7c-0.4-0.9-0.4-1.9-0.8-2.8c-0.3-0.8-0.6-1.6-0.8-2.4c-0.2-1-0.4-2.6-1-3.5c-1.4-1.9-3.4,0.4-3.4,2.1
			c0,0.8,0.4,1.6,0.7,2.3c0.4,0.9,0.6,1.8,0.9,2.7c0.6,1.6,1.3,3.3,1.2,5c0,1.1,0.1,2.8-1.5,2.8c-0.8,0-1.6-0.5-2.2-0.9
			c-1.5-0.8-2.9-1.8-4.3-2.8c-0.8-0.6-1.7-1-2.8-0.8c-0.8,0.1-0.8,1.3-0.6,1.8c0.4,1.1,1.2,1.8,2.2,2.5c1.3,0.9,2.4,2,3.4,3.2
			c0,0.2,0.1,0.3,0.3,0.4c0.1,0.1,0.1,0.1,0.2,0.2c0.1,0.1,0.1,0.1,0.2,0.1c0.4,0.5,1.1,1.5,1.2,1.6c0.4,0.7,0.7,1.5,1,2.2
			c0.7,1.6,0.9,3.4,1.4,5c0.5,1.8,1.1,3.5,1.3,5.3c0.1,1.6,0.3,3.1,0.3,4.7c0,1.7,0.2,3.5,0.2,5.3c0,1.6,0,3.2,0,4.7
			c0,1.4-0.1,2.8-0.2,4.1h13.6c0-0.1-0.1-0.3-0.1-0.4c-0.5-1.7-0.7-3.6-0.9-5.5c-0.3-2.2-0.5-4.5-0.4-6.7c0.1-2.1,0.2-4.7,1.4-6.5
			c1.2-1.8,2.3-3.2,4-4.5c1.5-1.1,3.1-2.1,4.7-3.1c0.8-0.5,1.7-1.1,2.6-1.6c0.7-0.3,1.5-0.5,2.1-0.9c0.7-0.4,1.3-0.6,2.1-0.7
			c0.3-0.1,0.5-0.3,0.6-0.6C77.9,119.5,76.7,118.5,75.8,118.2z"/>
	</g>
	<g>
		<path fill="#4D4D4D" d="M38.3,157.9C25.7,143,18.8,124,18.8,104.5c0-11.9,2.5-23.5,7.4-34.3l3.6,1.6c-4.7,10.3-7,21.2-7,32.6
			c0,18.6,6.6,36.6,18.5,50.8L38.3,157.9z"/>
	</g>
	<g>
		<path fill="#4D4D4D" d="M163.4,160.1l-2.9-2.7c13.1-14.5,20.4-33.4,20.4-53c0-12.2-2.7-23.9-8-34.7l3.6-1.7
			c5.6,11.4,8.4,23.7,8.4,36.5C184.8,125.1,177.2,144.9,163.4,160.1z"/>
	</g>
	<g>
		<path fill="#FFFFFF" d="M181.5,157c-4.2-1-8.2-1.8-12.1-3.4c-2.3-0.9-4.6-1.6-6.8-2.5c-2.4-0.9-4.7-2.2-7.1-3
			c0.3-1.1,0.4-2.3,0.3-3.6c0-0.2-0.1-0.5-0.3-0.6c0,0,0,0,0-0.1c-0.5-2.8-3.9-2.9-6.1-3.8c-4.6-1.8-9.6-2.3-14.5-3.1
			c-10.6-1.7-21.2-2.1-31.9-3.2c-10.1-1.1-20.3,1-30.1,3c-5.1,1-10.2,2.2-15.2,3.7c-3.5,1-8.7,1.5-11.5,4.1
			c-0.5,0.5-0.3,1.1,0.1,1.4c0.2,0.7,0.4,1.5,0.6,2.2c-4.3,0.6-8.5,2.9-12.7,4c-2.5,0.7-4.9,1.4-7.4,1.9c-1.5,0.3-4,0.7-5.2,1.9
			c-0.3,0.3-0.4,0.8-0.2,1.2c1.9,2.7,6.1,4.8,9,6.5c1.9,1.1,4.1,1.5,6,2.5c2.1,1.1,3.9,2.6,6.1,3.7c1.2,0.6,2.7,0.9,1.1,2.7
			c-0.7,0.9-1.5,1.7-2.2,2.6c-1.7,2-2.7,4.3-3.9,6.6c-2,4-5.5,6.7-7.6,10.6c-0.4,0.7,0.3,1.7,1.1,1.5c7.6-2.6,14.8-6.3,22.6-8.3
			c8-2.1,16.2-1.7,24.3-3.1c0.3-0.1,0.5-0.2,0.6-0.4c0.2-0.2,0.4-0.4,0.4-0.8c0-1.4-0.3-2.9-0.5-4.3c-0.1-0.6-0.2-1.5-0.4-2.2
			c7.5-1.2,15.2-3,22.8-3.3c7.8-0.3,15.5,1.3,23.1,2.7c0.1,0,0.2,0,0.3,0.1c0,0.9-0.7,1.9-0.8,2.7c-0.2,1.3-0.2,2.5-0.6,3.7
			c-0.1,0.4,0,0.7,0.2,0.9c0.1,0.3,0.3,0.6,0.7,0.7c1.3,0.5,2.2,1.1,3.6,1.2c2.2,0.2,4.4,0.1,6.7,0.5c4.2,0.8,8.1,2.3,12.2,3.2
			c4.5,1,8.7,2.5,13.1,3.9c2.2,0.7,4.6,0.9,6.8,1.6c1.8,0.6,3.2,1.4,5.1,1.6c0.7,0.1,1.1-0.7,1-1.3c-0.6-3.7-2.1-7.7-3.3-11.3
			c-0.7-2.1-1.1-4.2-1.4-6.3c-0.2-1.5-1.9-3.1-0.4-4.4c3.2-2.8,6.4-5.5,9.9-8c1.5-1.1,4.8-2.8,5.1-4.8
			C182.3,157.7,182.1,157.1,181.5,157z M76.5,175.2c0,0-0.1,0-0.1,0C76.4,175.2,76.4,175.2,76.5,175.2z M75.9,174.8
			c0.1,0.1,0.1,0.2,0.2,0.2c0,0,0,0.1,0,0.1c0.1,0.3,0.1,0.5,0.2,0.8c0.2,0.7,0.3,1.4,0.4,2.1c0.1,0.7,0.2,1.4,0.3,2.2
			c-2.8-0.2-6-1.7-8.6-2.4c-1.8-0.4-3.7-0.9-5.6-1.4c1.3-0.5,2.6-0.8,4.2-0.8C70,175.7,73,175.3,75.9,174.8z M134.5,176.3
			c0.3,0.1,0.6,0.2,1,0.3c-2.1,0.3-4.2,0.6-6.3,1c-1,0.2-2.6,0.6-3.9,1.3c0.1-0.8,0.2-1.7,0.4-2.5c0.2-0.7,0.5-1.4,0.6-2.1
			C129,174.9,131.8,175.5,134.5,176.3z"/>
		<path fill="#4D4D4D" d="M181.5,157c-4.2-1-8.2-1.8-12.1-3.4c-2.3-0.9-4.6-1.6-6.8-2.5c-2.4-0.9-4.7-2.2-7.1-3
			c0.3-1.1,0.4-2.3,0.3-3.6c0-0.2-0.1-0.5-0.3-0.6c0,0,0,0,0-0.1c-0.5-2.8-3.9-2.9-6.1-3.8c-4.6-1.8-9.6-2.3-14.5-3.1
			c-10.6-1.7-21.2-2.1-31.9-3.2c-10.1-1.1-20.3,1-30.1,3c-5.1,1-10.2,2.2-15.2,3.7c-3.5,1-8.7,1.5-11.5,4.1
			c-0.5,0.5-0.3,1.1,0.1,1.4c0.2,0.7,0.4,1.5,0.6,2.2c-4.3,0.6-8.5,2.9-12.7,4c-2.5,0.7-4.9,1.4-7.4,1.9c-1.5,0.3-4,0.7-5.2,1.9
			c-0.3,0.3-0.4,0.8-0.2,1.2c1.9,2.7,6.1,4.8,9,6.5c1.9,1.1,4.1,1.5,6,2.5c2.1,1.1,3.9,2.6,6.1,3.7c1.2,0.6,2.7,0.9,1.1,2.7
			c-0.7,0.9-1.5,1.7-2.2,2.6c-1.7,2-2.7,4.3-3.9,6.6c-2,4-5.5,6.7-7.6,10.6c-0.4,0.7,0.3,1.7,1.1,1.5c7.6-2.6,14.8-6.3,22.6-8.3
			c8-2.1,16.2-1.7,24.3-3.1c0.3-0.1,0.5-0.2,0.6-0.4c0.2-0.2,0.4-0.4,0.4-0.8c0-1.4-0.3-2.9-0.5-4.3c-0.1-0.6-0.2-1.5-0.4-2.2
			c7.5-1.2,15.2-3,22.8-3.3c7.8-0.3,15.5,1.3,23.1,2.7c0.1,0,0.2,0,0.3,0.1c0,0.9-0.7,1.9-0.8,2.7c-0.2,1.3-0.2,2.5-0.6,3.7
			c-0.1,0.4,0,0.7,0.2,0.9c0.1,0.3,0.3,0.6,0.7,0.7c1.3,0.5,2.2,1.1,3.6,1.2c2.2,0.2,4.4,0.1,6.7,0.5c4.2,0.8,8.1,2.3,12.2,3.2
			c4.5,1,8.7,2.5,13.1,3.9c2.2,0.7,4.6,0.9,6.8,1.6c1.8,0.6,3.2,1.4,5.1,1.6c0.7,0.1,1.1-0.7,1-1.3c-0.6-3.7-2.1-7.7-3.3-11.3
			c-0.7-2.1-1.1-4.2-1.4-6.3c-0.2-1.5-1.9-3.1-0.4-4.4c3.2-2.8,6.4-5.5,9.9-8c1.5-1.1,4.8-2.8,5.1-4.8
			C182.3,157.7,182.1,157.1,181.5,157z M53.3,183.5c-6.9,1.8-13.2,4.9-19.8,7.3c0.9-1.2,2-2.3,3-3.5c1.5-1.7,2.5-3.7,3.5-5.7
			c1.4-2.9,3.2-5.3,5.2-7.7c0.8-0.9,1.9-2.1,1.5-3.4c-0.3-1.3-2-1.9-3-2.4c-2.2-1.1-4.1-2.3-6.1-3.7c-2.1-1.5-4.8-1.8-7.1-3.1
			c-1.5-0.9-2.9-1.8-4.2-2.9c-0.5-0.4-1.6-1.1-2.4-1.7c1.3-0.6,3.4-0.8,4.5-1.1c2.1-0.4,4.2-1.1,6.3-1.7c4.2-1.1,8.5-3.5,12.8-4
			c1.7,4.9,4.1,9.7,6,14.5c1.2,3.3,1.9,6.6,2.8,9.9c0.5,1.8,0.8,3.4,2.9,3.6c0.1,0,0.2,0,0.4,0c3.1,0.4,6.4,1.4,9.4,2.1
			c1.1,0.2,2.2,0.6,3.3,1C65.9,181.7,59.5,181.8,53.3,183.5z M76.5,175.2c0,0-0.1,0-0.1,0C76.4,175.2,76.4,175.2,76.5,175.2z
			 M75.9,174.8c0.1,0.1,0.1,0.2,0.2,0.2c0,0,0,0.1,0,0.1c0.1,0.3,0.1,0.5,0.2,0.8c0.2,0.7,0.3,1.4,0.4,2.1c0.1,0.7,0.2,1.4,0.3,2.2
			c-2.8-0.2-6-1.7-8.6-2.4c-1.8-0.4-3.7-0.9-5.6-1.4c1.3-0.5,2.6-0.8,4.2-0.8C70,175.7,73,175.3,75.9,174.8z M99.7,169.3
			c-6.3,0.2-12.6,1.9-18.8,2.8c-3.5,0.5-7.1,1.1-10.6,1.5c-2.5,0.3-4.9,0.1-7.4,0.7c-0.9,0.2-1.8,0.8-2.6,1.3
			c-2,1.1-2.3-2.6-2.5-3.4c-0.6-3.2-1.7-6.3-2.8-9.3c-1.8-4.7-4.1-9.3-5.7-14.1c0-0.1,0-0.2-0.1-0.3c-0.3-1-0.6-2-0.9-3.1
			c1.5-1,3.7-1.3,5.4-1.7c2-0.5,3.9-1.2,5.8-1.7c4.2-1.2,8.5-2.3,12.8-3.1c9.3-1.9,18.7-3.7,28.3-3.3c9.6,0.4,19.5,1,29,2.5
			c4.2,0.6,8.4,1.4,12.6,2.2c1.9,0.4,3.8,0.7,5.6,1.4c1.1,0.4,5.5,1.3,5.8,2.8c0,0,0,0,0,0c0,0.3,0,0.6,0.2,0.8c0,3-1.5,5.9-2.4,8.8
			c-1.1,3.1-1.9,6.2-2.9,9.3c-1,3.4-2.1,6.6-3.6,9.8c-0.6,1.3-0.9,3.6-3.2,3.1c-1.3-0.3-2.5-0.3-3.8-0.8
			C126,171.4,112.3,168.8,99.7,169.3z M134.5,176.3c0.3,0.1,0.6,0.2,1,0.3c-2.1,0.3-4.2,0.6-6.3,1c-1,0.2-2.6,0.6-3.9,1.3
			c0.1-0.8,0.2-1.7,0.4-2.5c0.2-0.7,0.5-1.4,0.6-2.1C129,174.9,131.8,175.5,134.5,176.3z M177.1,160.5c-1.6,1.3-3.4,2.7-5.2,3.8
			c-1.6,1-2.9,2.3-4.2,3.6c-1,1-2.8,1.9-3.3,3.2c-0.4,1-0.1,1.8,0.5,2.7c1.2,2.1,1.2,4.8,1.9,7.2c1,3.6,2.5,7.3,3.3,11
			c-1.5-0.4-3-1.2-4.4-1.6c-2.2-0.7-4.6-0.9-6.8-1.6c-4.1-1.3-7.8-2.9-12-3.6c-1.7-0.3-3.2-1-4.8-1.6c-2-0.7-4.2-1-6.3-1.4
			c-3.2-0.6-6.5-0.6-9.6-1.4c1.7-0.9,4.7-1.4,5.6-1.5c3.1-0.4,6.2-1,9.2-1.1c0,0,0,0,0,0c0.7,0.1,1.5,0.2,2.2,0.3
			c1.4,0.1,2.5-1.9,2.8-2.9c1.3-3.5,2.8-6.9,4-10.5c1.1-3.5,2.1-7.1,3.3-10.6c0.5-1.6,1.1-3,1.6-4.4c4.3,1.4,8.6,3.6,12.9,5.1
			c4,1.4,7.9,2.5,12,3.5C179,159.4,177.7,160,177.1,160.5z"/>
		<g>
			<path fill="#4D4D4D" d="M49.6,154.1c-1.4,0.5-2.9,1-4.4,1.1c-1.3,0-1.3,2,0,2c1.7,0,3.3-0.6,4.9-1.1
				C51.3,155.6,50.8,153.7,49.6,154.1z"/>
			<path fill="#4D4D4D" d="M52,157.1c-1.4,0.5-3.5,1.9-5,1.3c-1.2-0.5-1.7,1.4-0.5,1.9c1.9,0.8,4.3-0.7,6-1.3
				C53.7,158.6,53.2,156.7,52,157.1z"/>
			<path fill="#4D4D4D" d="M51.6,162.2c-0.9,0.2-1.8,0.6-2.8,0.6c-1.3,0-1.3,2,0,2c1.2,0,2.2-0.4,3.3-0.7
				C53.3,163.8,52.8,161.9,51.6,162.2z"/>
			<path fill="#4D4D4D" d="M55.5,166c-1.6,0.5-3.2,1-4.8,1.1c-1.3,0-1.3,2,0,2c1.8,0,3.6-0.6,5.3-1.1
				C57.3,167.5,56.8,165.6,55.5,166z"/>
			<path fill="#4D4D4D" d="M56.6,171c-1.4,0.4-2.7,0.8-4.1,0.8c-1.3,0-1.3,2,0,2c1.6,0,3.1-0.5,4.7-0.9
				C58.4,172.6,57.9,170.7,56.6,171z"/>
		</g>
		<g>
			<path fill="#4D4D4D" d="M144.6,177.3c1.4,0.9,3,1.4,4.6,1.6c1.3,0.2,1.8-1.7,0.5-1.9c-1.5-0.2-2.9-0.6-4.2-1.4
				C144.5,174.9,143.5,176.6,144.6,177.3L144.6,177.3z"/>
		</g>
		<g>
			<path fill="#4D4D4D" d="M146.4,174.5c1.7,0,3.2,0.6,4.8,1.1c1.2,0.4,1.8-1.6,0.5-1.9c-1.8-0.5-3.5-1.1-5.3-1.1
				C145.1,172.5,145.1,174.5,146.4,174.5L146.4,174.5z"/>
		</g>
		<g>
			<path fill="#4D4D4D" d="M147.5,170.1c1,0,2,0.4,3,0.6c1.2,0.3,1.8-1.6,0.5-1.9c-1.2-0.3-2.3-0.7-3.6-0.7
				C146.2,168.1,146.2,170.1,147.5,170.1L147.5,170.1z"/>
		</g>
		<g>
			<path fill="#4D4D4D" d="M149.3,165.5c1.2,0,2.3,0.4,3.5,0.6c1.2,0.3,1.8-1.7,0.5-1.9c-1.3-0.3-2.6-0.7-4-0.7
				C148,163.5,148,165.5,149.3,165.5L149.3,165.5z"/>
		</g>
		<g>
			<path fill="#4D4D4D" d="M150.3,161.7c1.8,0.4,3.7,0.5,5.6,0.7c1.3,0.1,1.3-1.8,0-2c-1.7-0.2-3.4-0.2-5-0.6
				C149.6,159.5,149.1,161.4,150.3,161.7L150.3,161.7z"/>
		</g>
		<g>
			<path fill="#4D4D4D" d="M152.8,158.7c1.3,0,2.6,0.6,3.9,0.8c1.3,0.2,1.8-1.7,0.5-1.9c-1.5-0.3-2.9-0.9-4.5-0.9
				C151.5,156.6,151.5,158.6,152.8,158.7L152.8,158.7z"/>
		</g>
		<g>
			<path fill="#4D4D4D" d="M153.5,154c1.4,0.1,2.7,1,3.9,1.6c1.1,0.6,2.1-1.1,1-1.7c-1.6-0.8-3.1-1.8-4.9-1.9
				C152.2,152,152.2,154,153.5,154L153.5,154z"/>
		</g>
		<g>
			<g>
				<path fill="#662D91" d="M135.4,177.8c-0.5-0.3-0.5-0.3-0.1,0c0.2,0.1,0.3,0.2,0.5,0.2c0.8,0.2,1.6-0.2,1.8-1
					c0.2-0.7-0.2-1.7-1-1.8c0.5,0.3,0.5,0.3,0.1,0c-0.2-0.1-0.3-0.2-0.5-0.2c-0.8-0.2-1.6,0.2-1.8,1
					C134.2,176.8,134.6,177.7,135.4,177.8L135.4,177.8z"/>
			</g>
		</g>
		<path fill="#4D4D4D" d="M135.8,175.2c-0.7,0.2-1.2,0.4-1.8,0.6c-0.2-0.3-0.4-0.4-0.8-0.4c-0.5,0-0.9,0.4-1,0.8c0,0,0,0,0,0
			c0-0.5-0.1-1-0.2-1.5c-0.2-0.5-0.7-0.8-1.2-0.7c-0.3,0.1-0.5,0.3-0.6,0.5c-0.1-0.2-0.1-0.5-0.2-0.7c-0.2-0.5-0.9-0.6-1.3-0.4
			c-0.1,0-0.1-0.1-0.2-0.1c-0.2-0.2-0.4-0.3-0.7-0.3c-0.1,0-0.3,0-0.4,0c-0.6,0-0.9,0.4-0.9,0.8c-0.2,0.1-0.4,0.3-0.5,0.6
			c-0.1,0.4-0.3,0.8-0.5,1.1c-0.2,0.4-0.4,0.8-0.6,1.3c-0.1,0.4,0.1,0.9,0.4,1.1c0,0.1,0,0.2,0,0.3c-0.1,1.1,1.3,1.2,1.8,0.5
			c0.3,0.1,0.7,0,1-0.3c0.8,0,1.6-0.1,2.4-0.1c1.7-0.1,3.4,0.3,4.9-0.6c0.3-0.1,0.4-0.4,0.4-0.6c0.2-0.1,0.4-0.1,0.6-0.2
			C137.6,176.8,137,174.9,135.8,175.2z"/>
		<path fill="#4D4D4D" d="M77.7,177.7c0.2-0.4,0.2-0.8,0.1-1.3c-0.1-0.2-0.3-0.5-0.5-0.6c0-0.4,0-0.8,0-1.1c0-1.3-1.9-1.3-2,0
			c0,0,0,0.1,0,0.1c-0.2-0.3-0.6-0.5-1-0.4c-1.2,0.2-2.5,0.4-3.7,0.4c-0.2,0-0.3,0.1-0.5,0.1c-0.5,0.1-0.9,0.2-1.4,0.4
			c-0.2,0.1-0.4,0.2-0.5,0.4c0,0-0.1,0-0.1,0c-0.1,0-0.1,0-0.2,0.1c-0.1-0.1-0.3-0.1-0.4-0.1c-0.1,0-0.3,0-0.4,0
			c-0.1,0-0.1-0.1-0.2-0.1c-0.3-0.2-0.7-0.1-0.9,0c-0.7,0-1.3,0-2,0.1c-1.2,0-1.3,1.8-0.2,2c0.2,0.1,0.4,0.2,0.6,0.2
			c0.6,0,1.1,0.1,1.7,0.1c0.1,0.1,0.3,0.2,0.5,0.3c0.2,0.1,0.5,0.1,0.7,0.1c1.3,0.6,2.6,1.2,4.2,1.2c0.3,0,0.6-0.1,0.7-0.4
			c0.5,1,1.6,1.5,2.8,1.1c0.1,0,0.2-0.1,0.2-0.1c0.1,0.1,0.2,0.2,0.3,0.3c0.1,0.1,0.2,0.1,0.3,0.2c0.3,0.2,0.7,0.2,1,0
			c0.7-0.4,0.9-1,0.9-1.7c0.1-0.1,0.1-0.3,0.2-0.4C78,178.3,77.9,178,77.7,177.7z"/>
	</g>
	<g>
		<path fill="#4D4D4D" d="M67.7,162.8c0.1-0.4,0.8-0.8,0.7-1.3c-0.7-3.3-1.8-6.6-3-10c-0.1-0.3-0.7-0.6-1-0.9
			c-0.1-0.1-0.1-0.5-0.1-0.6c0-1,1.1-1.4,1.7-1.4c1.1-0.3,2.5-0.3,3.8,0.2c1.7,0.6,3.1,1.4,4.5,2.7c3.8,3.3,2.1,8.8-1.2,11.5
			c-1.1,0.9-2.4,1.6-3.8,1.4C68.6,164.3,67.6,163.6,67.7,162.8z M73.5,159.3c0.6-1.6,1.2-3.4,0.2-4.8c-1.1-1.7-3.2-3.3-5.5-3.1
			c0.2,1,2.7,10.1,2.9,10C72.3,161.4,73.2,160.1,73.5,159.3z"/>
		<path fill="#4D4D4D" d="M87.2,150.6c2.7,2.7,2.2,7.1-0.4,9.4c-1.8,1.5-4,2-5.9,0.9c-1.9-1.1-3.3-3.2-3-5.5
			C78.4,151.3,83.1,146.5,87.2,150.6z M84.3,158.8c1.8-1.1,2.2-3.4,1.4-5.4c-0.4-1.1-2.1-1.3-3.1-0.9c-1,0.3-1.9,3.4-1.6,4.3
			C81.6,158.2,82.7,159.8,84.3,158.8z"/>
		<path fill="#4D4D4D" d="M90.1,159.9c0.3-4-0.2-7.9,0.5-12c0.1-0.6,1.6-0.5,1.9-0.2c1.9,2.4,2.2,5.7,4.1,8c0.4-1.2,0.1-2.4,0.1-3.7
			c-0.1-2.3-1.4-4.6-1.2-6.9c0.1-0.9,1.9-1.1,2.2-0.3c1.3,3,1.4,6.4,1.5,9.7c0.1,1.5,0,3.2-1,4.3c-0.5,0.6-1.7,0.8-2.2,0.2
			c-1.2-1.3-2.1-3.1-3-4.6c-0.7,2,0.2,3.9-0.3,5.9c-0.2,0.8-1.7,1-2.4,0.2C90.2,160.3,90.1,160,90.1,159.9z"/>
		<path fill="#4D4D4D" d="M105.2,143.7c0.3-0.4,1.7-0.7,2-0.1c1.4,3.4,1.9,7.1,2.7,10.9c0,0.4,0.6,0.4,0.9,0.8
			c0.1,0.3,0.1,0.7,0,0.8c-1,2,0.8,3.7,0.5,5.5c-0.2,0.8-1.7,1.1-2.3,0.3c-1-1.4-0.1-3.6-1.6-4.5c-1.1-0.7-2.8-0.5-3.9,0.3
			c-1.4,1-0.6,5.6-3.6,4c-0.3-1.9,0.8-3.6,1.3-5.5c0.6-2.4,1.4-4.9,2.3-7.3C104.1,147.1,104.1,145.1,105.2,143.7z M104.2,154.9
			c0.7,0.4,2.5,0.6,2.8-0.3c0.6-1.9-0.4-3.8-1.1-5.6c-0.7,0.8-0.9,1.7-1,2.6C104.7,152.9,103.4,154.4,104.2,154.9z"/>
		<path fill="#4D4D4D" d="M115,162c0.3-4.9,2.1-9.7,2.7-14.6c0.1-0.7-1-0.3-1.4-0.2c-0.9,0-2,0.9-2.8,0.4c-0.9-0.6-0.6-1.9,0.4-2.3
			c4.8-1.7,6.8-0.6,11.6-0.3c0.1,0,0.2,0.5,0.3,0.6c0.2,0.9-0.6,1.5-1.5,1.7c-2.1,0.2-1.3,0-3.2-0.1c-1.6,4.7-2.4,9.6-3.1,14.5
			c-0.1,0.7-1.1,1-1.9,1.2C115.3,163.2,114.9,162.4,115,162z"/>
		<path fill="#4D4D4D" d="M127.4,149c2.1-2.1,6.1-1.6,8.1,0.8c0.4,0.5-0.3,1.3-1.2,1.3c-1.3-0.1-2.3-1.3-3.6-1
			c-1.6,0.4-0.8,2.8-1.7,4c1.6,1.3,4.5,0.1,4.9,2.6c-1.5,1.7-3.8-0.3-5.2,0.6c-1.1,0.8-1,2.9-1.2,4.5c2.1,0.9,4.2-0.2,6.4-0.4
			c0.1-0.1,0.3,0.2,0.5,0.4c0.1,1-0.5,1.7-1.4,1.8c-2.3,0.3-4.4,1-6.7,0.5c-0.6-0.3-1.7-0.2-1.6-0.9c-0.2-2.3,1-4.3,0.9-6.5
			c0-0.5-0.6-1.1-0.1-1.6c0-0.1,0.3-0.2,0.5-0.3c0.4-0.5,0.4-1.2,0.5-1.7C126.8,151.8,126.4,150,127.4,149z"/>
	</g>
</g>
</svg>
