<?xml version="1.0" encoding="utf-8"?>
<!-- Generator: Adobe Illustrator 18.0.0, SVG Export Plug-In . SVG Version: 6.00 Build 0)  -->
<!DOCTYPE svg PUBLIC "-//W3C//DTD SVG 1.1//EN" "http://www.w3.org/Graphics/SVG/1.1/DTD/svg11.dtd">
<svg version="1.1" xmlns="http://www.w3.org/2000/svg" xmlns:xlink="http://www.w3.org/1999/xlink" x="0px" y="0px"
	 viewBox="0 0 800 800" enable-background="new 0 0 800 800" xml:space="preserve">
<g id="Background">
</g>
<g id="Objects">
	<g>
		<g>
			<path d="M347.8,426.7c-1.8-1.4-16.3-12.3-56.3-15c-2.2-0.2-4.4-1.7-6.4-3.1c-2.5-1.7-5.1-3.4-7-5.6c-3.1-3.7-6.5-6.8-9.4-10.8
				c-19.5-27.2-38.6-32.6-41.4-33.7c-3.8-1.8-18.4,0.4-11.4,10.1c0.4,0.1,22.3,30.7,23.7,33.2c2.5,4.3,5.3,6.1,8,9.1
				c2.4,2.8,5.1,5.3,7.6,8.1c0,0-14-8.3-17.3-11.9c-1.5-1.6-2.2-4-3.4-5.9c-1.4-2.2-2.8-4.4-4.3-6.5c-1.9-2.7-3.7-5.3-5.7-7.9
				c-2.5-3.3-5.1-6.5-7.8-9.7c-1.6-2-3.5-4-4.8-6.1c-6.6-10.4,0.9-16.7,8.1-17.5c-0.3-1.2-3.6-32.7-4.2-38
				c-1.6-15.2-3.3-26.5-12-29.5c-2.2-0.8-3.8-0.5-5.5,1.3c-2,2.1-3.2,13.1-3.7,20.1c0,0-3.8,37.5-2.9,55c0.5,9.4,29.6,73.9,38,83.9
				c8.4,10,73.8,47.7,73.8,47.7c2.2,1.8,14.3,11.2,14.3,23.4v26.6l70.6,0.1l0.1-24.4c0.2-4.5,0.9-9,1.5-13.5
				c1.5-5.1,0.3-14.8-0.4-18.6C381.3,450.9,351.1,429.3,347.8,426.7L347.8,426.7z M347.8,426.7"/>
			<path d="M605.5,307.3c-0.6-7-1.7-18-3.7-20.1c-1.7-1.8-3.3-2-5.5-1.3c-8.7,3.1-10.3,14.3-12,29.5c-0.6,5.3-3.9,36.9-4.2,38
				c7.2,0.8,14.7,7,8.1,17.5c-1.3,2.1-3.2,4-4.8,6.1c-2.6,3.2-5.2,6.4-7.8,9.7c-2,2.6-3.9,5.3-5.7,7.9c-1.5,2.1-3,4.3-4.3,6.5
				c-1.2,1.9-1.9,4.3-3.4,5.9c-3.4,3.6-17.3,11.9-17.3,11.9c2.5-2.7,5.2-5.3,7.6-8.1c2.7-3,5.5-4.8,8-9.1
				c1.4-2.5,23.3-33.1,23.7-33.2c7-9.7-7.6-12-11.4-10.1c-2.9,1.1-21.9,6.5-41.4,33.7c-2.9,4.1-6.4,7.1-9.4,10.8
				c-1.9,2.2-4.5,4-7,5.6c-2,1.3-4.2,2.9-6.4,3.1c-40.1,2.7-54.5,13.6-56.3,15c-3.3,2.6-33.5,24.2-41.7,60.7
				c-0.7,3.8-2,13.5-0.4,18.6c0.6,4.5,1.3,9,1.5,13.5l0.1,24.4l70.6-0.1v-26.6c0-12.2,12.1-21.6,14.3-23.4c0,0,65.5-37.7,73.8-47.7
				c8.4-10,37.5-74.5,38-83.9C609.3,344.8,605.5,307.3,605.5,307.3L605.5,307.3z M605.5,307.3"/>
		</g>
		<g>
			<path d="M400,406.1l-11.4-11.4c-42.4-37.5-70.1-62.8-70.1-93.8c0-25.2,19.6-44.8,44.8-44.8c13.9,0,27.7,6.5,36.7,17.1
				c9-10.6,22.8-17.1,36.7-17.1c25.2,0,44.8,19.6,44.8,44.8c0,31-27.7,56.3-70.1,93.8L400,406.1z M400,406.1"/>
			<path stroke="#FFFFFF" stroke-width="3" stroke-miterlimit="10" d="M362.1,397.8l-7.9-4c-28.5-12.3-47.3-20.7-52.6-36.8
				c-4.3-13.1,2.5-26.7,15.7-31c7.2-2.4,15.6-1.4,22.1,2.6c2.9-7.1,8.9-12.8,16.2-15.2c13.1-4.3,26.7,2.5,31,15.7
				c5.3,16.2-4.8,34.1-20.4,60.9L362.1,397.8z M362.1,397.8"/>
		</g>
	</g>
</g>
</svg>
