<?xml version="1.0" encoding="utf-8"?>
<!-- Generator: Adobe Illustrator 18.0.0, SVG Export Plug-In . SVG Version: 6.00 Build 0)  -->
<!DOCTYPE svg PUBLIC "-//W3C//DTD SVG 1.1//EN" "http://www.w3.org/Graphics/SVG/1.1/DTD/svg11.dtd">
<svg version="1.1" id="Layer_1" xmlns="http://www.w3.org/2000/svg" xmlns:xlink="http://www.w3.org/1999/xlink" x="0px" y="0px"
	 viewBox="0 0 200 200" enable-background="new 0 0 200 200" xml:space="preserve">
<g>
	<g>
		<path fill="#4D4D4D" d="M147.2,71.8c-1.4,1.1-2.7,2.3-4.2,3.4c-1.3,0.9-2.4,2-3.6,3.1c-1.4,1.3-2.4,2.8-3.5,4.3
			c-1.1,1.4-2.3,2.7-3.2,4.2c-0.4,0.7-0.9,1.4-1.2,2.1c-0.1,0.2-0.4,1.3-0.5,2c0,0.1,0,0.1,0,0.2c0,0.1,0,0.2-0.1,0.3
			c0.1,0.2,0,0.4-0.1,0.5c-0.3,1.6-0.5,3.1-0.5,4.8c0,1.2,0,2.3-0.7,3.4c-0.3,0.5-1.3,1.2-1.8,0.7c-0.8-0.8-1-1.7-1.1-2.7
			c0-1.7-0.1-3.5-0.3-5.2c-0.1-0.8-0.2-1.7-0.7-2.4c-1-1.3-2.2-0.2-3.2,0.5c-1.5,1-2.3,2.7-3.3,4.1c-0.5,0.8-1.2,1.5-1.7,2.4
			c-0.4,0.7-0.8,1.4-1.4,1.9c-1.4,1.1-4.4,0.9-3.7-1.5c0.3-1.1,1.5-2.2,2.2-3c0.6-0.6,1-1.4,1.5-2.1c0.6-0.9,1.3-1.5,1.8-2.4
			c0.3-0.6,0.5-1.2,0.9-1.7c0.4-0.6,1.7-1.4,0.3-1.4c-0.8,0-1.5,0.7-2.2,1.1c-0.9,0.6-1.8,1.3-2.7,2c-1.5,1.1-2.9,2.4-4.3,3.6
			c-0.6,0.5-2.2,2-3.1,1.6c-0.7-0.3-1.3-1.4-1.3-2.2c0.2-1.3,1.3-2.3,2.2-3.2c1.3-1.2,2.8-2.1,4.2-3.2c0.7-0.5,1.4-1.1,2.2-1.6
			c0.4-0.3,0.7-0.5,1.1-0.8c0.2-0.1,1.3-0.9,0.7-1c-0.3-0.1-0.7-0.2-1.1-0.3c-0.5-0.1-1.3,0.1-1.8,0.2c-0.8,0.2-1.7,0.5-2.5,0.8
			c-1.7,0.5-3.4,1.1-5.1,1.8c-0.8,0.3-1.7,0.8-2.6,0.6c-0.8-0.2-1.1-1.3-0.9-2c0.4-1.4,1.3-1.5,2.4-2.1c0.6-0.3,1-0.8,1.7-1.1
			c0.9-0.4,1.8-0.7,2.8-1c0.7-0.2,1.4-0.7,2.1-0.9c0.8-0.3,1.6-0.6,2.4-0.9c0.9-0.4,1.4-0.8,2.1-1.5c0.6-0.5,1.3-0.9,1.9-1.4
			c0.6-0.4,1.3-2.1,1.4-2.8c0.3-1.3-0.4-2.1-1.3-2.9c-1.3-1.2-2.8-1.9-4.2-2.8c-1.1-0.7-2-1.8-2.5-3c-0.3-0.8-0.3-2.4,0.7-2.8
			c0.3-0.1,0.6-0.1,0.9,0.1c0.6,0.5,1.2,0.9,1.9,1.2c0.7,0.3,1.3,0.9,2,1.2c0.9,0.4,1.9,0.7,2.9,1.1c1.8,0.6,3.6,1.3,5.4,1.9
			c2.1,0.6,4,0.6,6.1,0.5c2.2-0.2,4.4-1.6,6.1-2.9c1.9-1.3,3.6-2.9,5.2-4.5c1.3-1.3,2.7-2.6,3.9-4.1c0.4-0.6,1.1-1.1,1.6-1.6
			c0.5-0.5,0.9-1.1,1.3-1.6c-0.8-1.9-1.8-3.7-3-5.5c-1.1-1.2-2.3-2.4-3.7-3.3c-1.3-1-2.8-1.8-4.3-2.4c-1.5-0.6-3.2-1.1-4.9-1.3
			c-12.4-2.2-26.5,4.6-32.7,15.9c-2.3-3.4-4.5-7.3-8.3-9.8c-1.4-1.1-2.9-2.2-4.6-3.2c-1.3-0.7-2.6-1.4-4.1-1.9
			C71,37.9,57.2,44,50.5,54.4c0.5,0.5,1.1,1,1.4,1.5c1.1,1.5,2.6,2.8,3.9,4.1c1.6,1.6,3.3,3.2,5.2,4.5c1.7,1.2,3.9,2.7,6.1,2.9
			c2.2,0.2,4,0.2,6.1-0.5c1.8-0.5,3.6-1.2,5.4-1.9c1-0.3,2-0.6,2.9-1.1c0.7-0.3,1.3-0.9,2-1.2c0.7-0.3,1.3-0.7,1.9-1.2
			c0.2-0.2,0.6-0.2,0.9-0.1c1,0.4,1,1.9,0.7,2.8c-0.5,1.3-1.4,2.3-2.5,3c-1.4,1-2.9,1.7-4.2,2.8c-0.9,0.8-1.6,1.7-1.3,2.9
			c0.1,0.7,0.8,2.4,1.4,2.8c0.6,0.5,1.3,0.8,1.9,1.4c0.7,0.7,1.2,1.1,2.1,1.5c0.8,0.3,1.6,0.6,2.4,0.9c0.7,0.2,1.4,0.7,2.1,0.9
			c0.9,0.3,1.9,0.6,2.8,1c0.6,0.3,1.1,0.8,1.7,1.1c1.1,0.6,2,0.7,2.4,2.1c0.2,0.7,0,1.9-0.9,2c-0.9,0.2-1.8-0.3-2.6-0.6
			c-1.7-0.6-3.4-1.3-5.1-1.8c-0.8-0.2-1.7-0.5-2.5-0.8c-0.5-0.1-1.2-0.3-1.8-0.2c-0.3,0.1-0.7,0.2-1.1,0.3c-0.6,0.1,0.5,0.9,0.7,1
			c0.4,0.3,0.7,0.5,1.1,0.8c0.7,0.5,1.5,1.1,2.2,1.6c1.4,1,2.9,2,4.2,3.2c0.9,0.8,2,1.8,2.2,3.2c0.1,0.8-0.6,1.9-1.3,2.2
			c-0.9,0.4-2.5-1.1-3.1-1.6c-1.4-1.2-2.8-2.5-4.3-3.6c-0.9-0.7-1.7-1.4-2.7-2c-0.7-0.4-1.3-1.1-2.2-1.1c-1.4,0-0.1,0.8,0.3,1.4
			c0.4,0.5,0.6,1.1,0.9,1.7c0.5,0.9,1.3,1.5,1.8,2.4c0.5,0.7,0.9,1.5,1.5,2.1c0.7,0.8,1.9,1.9,2.2,3c0.7,2.3-2.4,2.5-3.7,1.5
			c-0.6-0.5-1-1.3-1.4-1.9c-0.5-0.9-1.1-1.6-1.7-2.4c-1-1.4-1.8-3.1-3.3-4.1c-0.9-0.7-2.2-1.8-3.2-0.5c-0.5,0.6-0.5,1.6-0.7,2.4
			c-0.3,1.7-0.3,3.5-0.3,5.2c0,1.1-0.2,2-1.1,2.7c-0.6,0.5-1.5-0.2-1.8-0.7c-0.7-1.1-0.7-2.1-0.7-3.4c0.1-1.6-0.2-3.2-0.5-4.8
			c-0.1-0.1-0.2-0.3-0.1-0.5c0-0.1,0-0.2-0.1-0.3c0-0.1,0-0.1,0-0.2c-0.1-0.6-0.5-1.8-0.5-2c-0.3-0.7-0.8-1.4-1.2-2.1
			c-0.9-1.5-2.1-2.8-3.2-4.2c-1.1-1.5-2.1-3-3.5-4.3c-1.2-1.1-2.3-2.2-3.6-3.1c-1.4-1-2.7-2.3-4.2-3.4c-1.3-1-2.5-1.9-3.8-2.9
			c0.2,0.8,0.3,1.6,0.4,2.5c0.3,1.7,0.7,3.3,1.2,4.8c2,6.3,5.7,12.1,9.9,17.5c1,1.4,2.1,2.7,3.2,4c3,2.8,5.3,6.8,8.7,9.1
			c7.4,4.2,13.3,9.6,19.1,15.1c1.2,1.1,2.3,2.2,3.5,3.3c2.8,2,5.6,7.1,7.9,5.4c1.5-1,3-1.9,4.5-3c1.5-1,2.9-2,4.4-3.1
			c14.8-14.3,32.9-26.8,40-46.3c0.4-1.5,0.7-3.1,1-4.7c0.3-1.6,0.5-3.3,0.6-4.9c-0.1,0.1-0.1,0.1-0.2,0.2
			C149.8,69.9,148.5,70.9,147.2,71.8z"/>
	</g>
	<g>
		<g>
			<path fill="#FFFFFF" d="M97.2,131.1c0,1.3,0.9,2,2.1,2.1c0.9,0.1,1.7-0.8,1.7-1.7c0-1-0.8-1.6-1.7-1.7c1,1.1,1.4,1.4,1.2,0.9
				c0,0.4,0.1,0.5,0,0.4c0-0.9-0.7-1.7-1.7-1.7C98,129.4,97.1,130.2,97.2,131.1L97.2,131.1z"/>
		</g>
	</g>
	<g>
		<path fill="#4D4D4D" d="M184.2,85.4c-1-1.4-3-0.7-4,0.1c-2.2,1.8-3.9,3.7-6.2,5.2c-0.1,0-0.3-0.1-0.4-0.1
			c0.1-3.9-0.3-7.9-1.1-11.7c0.2-0.1,0.3-0.2,0.3-0.4c1.2-0.5,2.2-2,3.1-3.6c0.9-1.2,1.7-2.7,2.2-4c0-0.1,0.1-0.1,0.1-0.2
			c1-1.5,3-4,1-5.4c-1.4-1-3,0.5-3.7,1.6c-1.5,2.5-2.3,4.9-3.9,7.1c-0.1,0-0.3,0-0.4,0c-0.5-1.5-1.1-2.9-1.7-4.3
			c0.3-0.5,0.3-1.4,0.2-1.7c-1.3-2.8-2.2-6-3.9-8.5c-0.3-0.5-0.6-1-0.9-1.3c-0.1-0.1-0.1-0.1-0.2-0.2c-0.9-0.9-2-1.7-3.3-2.2
			c-0.2-0.1-0.4-0.1-0.5,0c0,0-0.1-0.1-0.1-0.1c-0.3-0.3-0.7-0.2-0.9,0.1c-0.4,0.2-0.6,0.9-0.5,1.4c-0.4,1.7-0.2,3.6,0.8,5.1
			c0.4,0.7,0.9,1.1,1.5,1.5c0.1,0.1,0.2,0.3,0.3,0.4c1.5,2,3.8,3.8,5.9,5.1c0.1,0.1,0.2,0.1,0.3,0.1c0.6,1.3,1.2,2.7,1.7,4
			c-0.2-0.1-0.4-0.2-0.6-0.3c-1.1-0.9-2.5-1.9-3.8-2.7c-0.1-0.1-0.2-0.2-0.4-0.3c-0.2-0.1-0.5-0.3-0.8-0.4c-2.2-1-4.3-1.4-5.5,0
			c-0.2,0-0.3,0.1-0.5,0.1c-0.5,0.2-0.8,0.6-0.4,1.1c0,0.1,0.1,0.1,0.2,0.2c0,0,0,0,0,0.1c0,0.1-0.1,0.2-0.1,0.2
			c-0.2,0.4,0.1,0.7,0.4,0.9c2.6,2.1,7,4.8,11.1,5.3c0.7,0.2,1.4,0.4,1.9,0.6c0,0,0.1,0.1,0.1,0.1c0,0.1,0.1,0.1,0.2,0.2
			c0.9,3.6,1.3,7.3,1.2,11c-0.2-0.2-0.4-0.3-0.5-0.5c-0.7-1.3-1.6-2.7-2.6-3.9c-0.1-0.1-0.2-0.2-0.3-0.4c-0.2-0.2-0.4-0.4-0.6-0.6
			c-1.7-1.7-3.5-2.8-5.1-2c-0.2,0-0.3,0-0.5,0c-0.5,0-0.9,0.3-0.8,0.8c0,0.1,0.1,0.1,0.1,0.2c0,0,0,0-0.1,0
			c-0.1,0.1-0.1,0.1-0.2,0.2c-0.3,0.3-0.2,0.7,0,1c1.7,2.9,4.8,7,8.4,8.9c0.6,0.5,1.1,0.9,1.6,1.2c0,0.1,0,0.1,0,0.2
			c0,0.1,0.1,0.2,0.1,0.3c-0.6,3.9-1.6,7.8-3.3,11.5c-0.2-0.3-0.3-0.6-0.4-0.9c-0.2-1.4-0.5-3.1-0.9-4.6c0-0.1-0.1-0.3-0.1-0.4
			c-0.1-0.3-0.2-0.5-0.3-0.8c-0.9-2.2-2.2-4-4-3.8c-0.1-0.1-0.3-0.2-0.4-0.2c-0.5-0.2-1-0.1-1,0.5c0,0.1,0,0.2,0,0.2c0,0,0,0-0.1,0
			c-0.1,0-0.2,0.1-0.2,0.1c-0.4,0.2-0.4,0.5-0.4,0.9c0.5,3.4,1.8,8.3,4.4,11.5c0.4,0.7,0.7,1.3,1,1.7c0,0.1,0,0.1,0,0.2
			c0,0.1,0,0.3,0.1,0.5c-2,3.4-4.5,6.5-7.3,9.1c-0.1-0.4-0.2-0.9-0.3-1.4c0.2-1.4,0.3-3.1,0.2-4.7c0-0.1,0-0.3,0-0.5
			c0-0.3-0.1-0.6-0.1-0.9c-0.3-2.4-1.2-4.4-2.9-4.7c-0.1-0.1-0.2-0.2-0.4-0.3c-0.4-0.3-0.9-0.3-1.1,0.2c0,0.1,0,0.2-0.1,0.2
			c0,0,0,0-0.1,0c-0.1,0-0.2,0-0.3,0c-0.4,0.1-0.5,0.4-0.6,0.8c-0.4,3.4-0.3,8.5,1.5,12.2c0.2,0.7,0.4,1.4,0.6,1.9c0,0,0,0,0,0
			c-3.5,2.7-7.3,4.8-11.4,6.4c0,0,0,0,0,0c0.9-1.1,1.9-2.5,2.6-3.9c0.1-0.1,0.2-0.2,0.2-0.4c0.1-0.2,0.3-0.5,0.4-0.8
			c1-2.2,1.3-4.3-0.1-5.5c0-0.2-0.1-0.3-0.2-0.5c-0.2-0.4-0.6-0.8-1.1-0.4c-0.1,0-0.1,0.1-0.2,0.2c0,0,0,0-0.1,0
			c-0.1,0-0.2-0.1-0.2-0.1c-0.4-0.1-0.7,0.1-0.9,0.4c-2.1,2.7-4.7,7.1-5.1,11.2c-0.2,0.6-0.3,1.1-0.4,1.5c-1.9,0.5-3.9,0.9-5.9,1.1
			c0.1,0.8,0.2,1.6,0,2.4c2-0.3,4-0.6,5.9-1.1c0.6,1.1,2,2,3.6,2.9c1.2,0.9,2.7,1.6,4,2.1c0.1,0,0.1,0.1,0.2,0.1
			c1.5,1,4.1,2.9,5.5,0.8c1-1.4-0.5-3-1.7-3.7c-2.5-1.4-4.9-2.2-7.1-3.7c4.7-1.7,9-4.2,12.9-7.4c1.1,0.7,2.9,0.7,4.6,0.7
			c1.5,0.1,3.2,0,4.5-0.3c0.1,0,0.2,0,0.2,0c1.8,0.1,5,0.3,5.1-2.1c0.1-1.7-2-2.3-3.3-2.3c-2.6,0.1-4.9,0.6-7.3,0.6
			c2.8-2.8,5.3-6.1,7.3-9.6c1.2,0.4,2.9,0,4.7-0.5c1.5-0.3,3.1-0.8,4.3-1.4c0.1,0,0.2,0,0.2-0.1c1.8-0.4,4.9-0.9,4.4-3.3
			c-0.3-1.7-2.5-1.8-3.8-1.4c-2.7,0.8-5.1,1.9-7.7,2.5c0,0,0,0,0,0c1.8-3.9,2.9-8.1,3.5-12.2c0.2,0,0.3-0.1,0.3-0.3
			c1.3-0.1,2.8-1.1,4.2-2.2c1.3-0.8,2.6-1.9,3.5-2.9c0.1,0,0.1-0.1,0.2-0.1C182.8,89.1,185.5,87.4,184.2,85.4z"/>
		<path fill="#4D4D4D" d="M14,85.4c1-1.4,3-0.7,4,0.1c2.2,1.8,3.9,3.7,6.2,5.2c0.1,0,0.3-0.1,0.4-0.1c-0.1-3.9,0.3-7.9,1.1-11.7
			c-0.2-0.1-0.3-0.2-0.3-0.4c-1.2-0.5-2.2-2-3.1-3.6c-0.9-1.2-1.7-2.7-2.2-4c0-0.1-0.1-0.1-0.1-0.2c-1-1.5-3-4-1-5.4
			c1.4-1,3,0.5,3.7,1.6c1.5,2.5,2.3,4.9,3.9,7.1c0.1,0,0.3,0,0.4,0c0.5-1.5,1.1-2.9,1.7-4.3c-0.3-0.5-0.3-1.4-0.2-1.7
			c1.3-2.8,2.2-6,3.9-8.5c0.3-0.5,0.6-1,0.9-1.3c0.1-0.1,0.1-0.1,0.2-0.2c0.9-0.9,2-1.7,3.3-2.2c0.2-0.1,0.4-0.1,0.5,0
			c0,0,0.1-0.1,0.1-0.1c0.3-0.3,0.7-0.2,0.9,0.1c0.4,0.2,0.6,0.9,0.5,1.4c0.4,1.7,0.2,3.6-0.8,5.1c-0.4,0.7-0.9,1.1-1.5,1.5
			c-0.1,0.1-0.2,0.3-0.3,0.4c-1.5,2-3.8,3.8-5.9,5.1c-0.1,0.1-0.2,0.1-0.3,0.1c-0.6,1.3-1.2,2.7-1.7,4c0.2-0.1,0.4-0.2,0.6-0.3
			c1.1-0.9,2.5-1.9,3.8-2.7c0.1-0.1,0.2-0.2,0.4-0.3c0.2-0.1,0.5-0.3,0.8-0.4c2.2-1,4.3-1.4,5.5,0c0.2,0,0.3,0.1,0.5,0.1
			c0.5,0.2,0.8,0.6,0.4,1.1c0,0.1-0.1,0.1-0.2,0.2c0,0,0,0,0,0.1c0,0.1,0.1,0.2,0.1,0.2c0.2,0.4-0.1,0.7-0.4,0.9
			c-2.6,2.1-7,4.8-11.1,5.3c-0.7,0.2-1.4,0.4-1.9,0.6c0,0-0.1,0.1-0.1,0.1c0,0.1-0.1,0.1-0.2,0.2c-0.9,3.6-1.3,7.3-1.2,11
			c0.2-0.2,0.4-0.3,0.5-0.5c0.7-1.3,1.6-2.7,2.6-3.9c0.1-0.1,0.2-0.2,0.3-0.4c0.2-0.2,0.4-0.4,0.6-0.6c1.7-1.7,3.5-2.8,5.1-2
			c0.2,0,0.3,0,0.5,0c0.5,0,0.9,0.3,0.8,0.8c0,0.1-0.1,0.1-0.1,0.2c0,0,0,0,0.1,0c0.1,0.1,0.1,0.1,0.2,0.2c0.3,0.3,0.2,0.7,0,1
			c-1.7,2.9-4.8,7-8.4,8.9c-0.6,0.5-1.1,0.9-1.6,1.2c0,0.1,0,0.1,0,0.2c0,0.1-0.1,0.2-0.1,0.3c0.6,3.9,1.6,7.8,3.3,11.5
			c0.2-0.3,0.3-0.6,0.4-0.9c0.2-1.4,0.5-3.1,0.9-4.6c0-0.1,0.1-0.3,0.1-0.4c0.1-0.3,0.2-0.5,0.3-0.8c0.9-2.2,2.2-4,4-3.8
			c0.1-0.1,0.3-0.2,0.4-0.2c0.5-0.2,1-0.1,1,0.5c0,0.1,0,0.2,0,0.2c0,0,0,0,0.1,0c0.1,0,0.2,0.1,0.2,0.1c0.4,0.2,0.4,0.5,0.4,0.9
			c-0.5,3.4-1.8,8.3-4.4,11.5c-0.4,0.7-0.7,1.3-1,1.7c0,0.1,0,0.1,0,0.2c0,0.1,0,0.3-0.1,0.5c2,3.4,4.5,6.5,7.3,9.1
			c0.1-0.4,0.2-0.9,0.3-1.4c-0.2-1.4-0.3-3.1-0.2-4.7c0-0.1,0-0.3,0-0.5c0-0.3,0.1-0.6,0.1-0.9c0.3-2.4,1.2-4.4,2.9-4.7
			c0.1-0.1,0.2-0.2,0.4-0.3c0.4-0.3,0.9-0.3,1.1,0.2c0,0.1,0,0.2,0.1,0.2c0,0,0,0,0.1,0c0.1,0,0.2,0,0.3,0c0.4,0.1,0.5,0.4,0.6,0.8
			c0.4,3.4,0.3,8.5-1.5,12.2c-0.2,0.7-0.4,1.4-0.6,1.9c0,0,0,0,0,0c3.5,2.7,7.3,4.8,11.4,6.4c0,0,0,0,0,0c-0.9-1.1-1.9-2.5-2.6-3.9
			c-0.1-0.1-0.2-0.2-0.2-0.4c-0.1-0.2-0.3-0.5-0.4-0.8c-1-2.2-1.3-4.3,0.1-5.5c0-0.2,0.1-0.3,0.2-0.5c0.2-0.4,0.6-0.8,1.1-0.4
			c0.1,0,0.1,0.1,0.2,0.2c0,0,0,0,0.1,0c0.1,0,0.2-0.1,0.2-0.1c0.4-0.1,0.7,0.1,0.9,0.4c2.1,2.7,4.7,7.1,5.1,11.2
			c0.2,0.6,0.3,1.1,0.4,1.5c1.9,0.5,3.9,0.9,5.9,1.1c-0.1,0.8-0.2,1.6,0,2.4c-2-0.3-4-0.6-5.9-1.1c-0.6,1.1-2,2-3.6,2.9
			c-1.2,0.9-2.7,1.6-4,2.1c-0.1,0-0.1,0.1-0.2,0.1c-1.5,1-4.1,2.9-5.5,0.8c-1-1.4,0.5-3,1.7-3.7c2.5-1.4,4.9-2.2,7.1-3.7
			c-4.7-1.7-9-4.2-12.9-7.4c-1.1,0.7-2.9,0.7-4.6,0.7c-1.5,0.1-3.2,0-4.5-0.3c-0.1,0-0.2,0-0.2,0c-1.8,0.1-5,0.3-5.1-2.1
			c-0.1-1.7,2-2.3,3.3-2.3c2.6,0.1,4.9,0.6,7.3,0.6c-2.8-2.8-5.3-6.1-7.3-9.6c-1.2,0.4-2.9,0-4.7-0.5c-1.5-0.3-3.1-0.8-4.3-1.4
			c-0.1,0-0.2,0-0.2-0.1c-1.8-0.4-4.9-0.9-4.4-3.3c0.3-1.7,2.5-1.8,3.8-1.4c2.7,0.8,5.1,1.9,7.7,2.5c0,0,0,0,0,0
			c-1.8-3.9-2.9-8.1-3.5-12.2c-0.2,0-0.3-0.1-0.3-0.3c-1.3-0.1-2.8-1.1-4.2-2.2c-1.3-0.8-2.6-1.9-3.5-2.9c-0.1,0-0.1-0.1-0.2-0.1
			C15.4,89.1,12.6,87.4,14,85.4z"/>
	</g>
	<g>
		<path fill="#4D4D4D" d="M70.3,145c1.5-0.3,2.7-0.1,4.2,0.3c0.5,0.2,1.4,0.9,0.9,1.7c-0.4,0.7-1.1,0.6-1.8,0.8
			c-1.1,0.3-2.2-0.5-3.1-0.1c-2.3,0.8-2.9,3.4-2.2,5.6c0.7,2.3,3.3,3.6,5.6,2.8c0.9-0.3,2-1.6,2.8-1c0.9,0.7,1.5,1.7,0.5,2.4
			c-2.1,1.5-4.6,1.5-7.2,0.7c-1.1-0.3-2.3-0.8-3.2-1.5c-1.6-1.3-1.9-3.3-1.7-5.3C65.6,148.5,67.1,145.8,70.3,145z"/>
		<path fill="#4D4D4D" d="M79,144.9c0.2-0.6,1.2-0.9,2-0.6c0.4,0.2,0.4,0.7,0.4,1.2c-0.2,2.1-0.6,4.3,0,6.4c0.9-1.7,2.6-3.7,4.8-2.7
			c0.7,3,1.5,6,1.2,9c-0.1,0.7-1.5,1.1-2,0.6c-1.5-1.9-0.1-4.6-1.3-6.9c-1.3,1.3-2.3,2.9-3.1,4.6c-0.2,0.4-1.1,0.7-1.5,0.6
			c-0.2-0.1-0.9-0.1-0.9-0.5c0-2.1,0.1-4.2,0.3-6.3C78.9,148.5,78.1,146.5,79,144.9z"/>
		<path fill="#4D4D4D" d="M93.9,158.3c-2-0.4-4.3-0.3-5.5-2.2c-0.8-1-0.5-3.1,0.3-4c2.3-3.1,6.4-2.1,6.4-2.2
			c0.3-0.4,0.4-1.7-0.2-1.8c-1.7-0.4-2.7,0.4-4.3,0.9c-1.1,0.4-1.4-1.9-1.1-2.2c2.1-1.4,6.3-2.2,7.6,0.5c1.1,2.4-0.2,4.9-0.4,7.5
			c-0.1,1.7-0.3,5.6-1.9,4.5C94.3,159,94.3,158.3,93.9,158.3z M94.6,151.9c-1.7,0.6-4.6,0.1-4.6,2.6c0,1.3,4,1.9,4.2,1.3
			C94.5,154.4,95.3,153.5,94.6,151.9z"/>
		<path fill="#4D4D4D" d="M98.5,145.7c1.4-1.3,3.1,0.4,2.9,2.3c1.7-0.3,2.1-2.7,4.2-2.1c0.7,0.3,1.6,0.6,1,1.4c-1.1,1.6-2.9,2.3-4,4
			c-0.4,0.6-0.1,1.4-0.4,2c-0.3,0.4-0.3,1.1,0.3,1.9c0.6,0.7,0.4,2.1-0.3,2.9c-0.6,0.9-1.9,0.9-2.4,0.1c-0.4-0.3-0.5-0.7-0.4-1.3
			c0.1-2.3-0.1-4.7-0.4-7C98.6,148.4,97.2,146.8,98.5,145.7z"/>
		<path fill="#4D4D4D" d="M108.5,148.2c0.4-0.7,1.4-1,2.2-0.6c0.5,0.2,1.1,0.9,0.6,1.4c-0.9,1.3-0.4,2.5-0.7,3.6
			c-0.5,1.4,0.4,2.6,0,4c0,0.1-0.1,0.4-0.3,0.4c-0.9,0.3-2,0.4-2.3-0.5c-0.5-1.6-0.1-3.4-0.1-5C108,150.4,108,149.2,108.5,148.2z
			 M109.1,142.9c0.9-0.5,2.1-0.5,2.6,0.3c0.5,0.8-0.3,2.1-0.8,2.3c-0.7,0.3-1.5,0.2-2.2-0.5C108.2,144.5,108.7,143.2,109.1,142.9z"
			/>
		<path fill="#4D4D4D" d="M117.3,143c0.1-1.4,1.9-1.4,3-0.7c0.1,0.1,0.3,0.6,0.1,1c-0.8,1.8-1.1,3.9-1.1,5.8c1.5-0.1,4.6-0.9,4,0.9
			c-0.4,1.4-3,1.2-4.5,1.2c-0.3,1.8,0.7,9.7,0.6,11.5c0,0.5-0.4,1-1,1c-0.7,0-1-0.2-1.2-0.9c-0.6-1.6-0.4-9.9-1.3-11.5
			c-1.1,0.8-3.1,1.5-3.7,0c-0.1-0.4,0.3-1,0.7-1.3c1.1-0.5,2.6-0.4,3.3-1.2c0.5-0.7,0.4-1.9,0.5-2.9C117,145,117.2,144,117.3,143z"
			/>
		<path fill="#4D4D4D" d="M124.7,145.4c0.6-0.9,2.1-1,2.5,0c0.7,1.4,0.1,3.1,0.4,4.8c0.1,0.4,0.4,0,0.6-0.1c0.9-1.8,1.4-4,3.1-5
			c0.7-0.4,2.5-0.2,1.8,1.1c-1.5,2.8-3.5,5.5-3.8,8.9c-0.2,2-1.6,5.3-3,7c-1,1.3-3.5,1.4-4.3,0c-0.4-0.9-0.8-2.1,0.1-2.7
			c0.7-0.4,1.7,0.3,1.8,1.1c2-1.5,1.7-2,2.2-4.5c0.3-1.5-1-2.8-1.1-4.2c-0.1-1.6-0.4-3-0.6-4.6C124.5,146.7,124.3,145.9,124.7,145.4
			z"/>
	</g>
</g>
</svg>
