<?xml version="1.0" encoding="utf-8"?>
<!-- Generator: Adobe Illustrator 18.0.0, SVG Export Plug-In . SVG Version: 6.00 Build 0)  -->
<!DOCTYPE svg PUBLIC "-//W3C//DTD SVG 1.1//EN" "http://www.w3.org/Graphics/SVG/1.1/DTD/svg11.dtd">
<svg version="1.1" id="Layer_1" xmlns="http://www.w3.org/2000/svg" xmlns:xlink="http://www.w3.org/1999/xlink" x="0px" y="0px"
	 viewBox="0 0 200 200" enable-background="new 0 0 200 200" xml:space="preserve">
<g>
	<path fill="#FFFFFF" stroke="#4D4D4D" stroke-width="5.2749" stroke-miterlimit="10" d="M180.5,96.9c0,7.4-11.7,12.8-13.8,19.4
		c-2.2,6.9,3.9,18.1-0.2,23.8c-4.2,5.8-16.8,3.4-22.6,7.6c-5.7,4.2-7.3,16.9-14.2,19.2c-6.6,2.2-15.4-7.2-22.8-7.2
		c-7.4,0-16.1,9.3-22.8,7.2c-6.9-2.2-8.5-15-14.2-19.2c-5.8-4.2-18.4-1.8-22.6-7.6c-4.2-5.7,2-17-0.3-23.8
		c-2.2-6.6-13.8-12.1-13.8-19.4c0-7.4,11.7-12.8,13.8-19.4c2.2-6.9-3.9-18.1,0.3-23.8c4.2-5.8,16.8-3.4,22.6-7.6
		c5.7-4.2,7.3-16.9,14.2-19.2c6.6-2.2,15.4,7.2,22.8,7.2c7.4,0,16.1-9.3,22.8-7.2c6.9,2.2,8.5,15,14.2,19.2
		c5.8,4.2,18.4,1.8,22.6,7.6c4.2,5.7-2,17,0.2,23.8C168.8,84.1,180.5,89.6,180.5,96.9z"/>
	
		<path fill="none" stroke="#4D4D4D" stroke-width="3.0524" stroke-linejoin="round" stroke-miterlimit="10" stroke-dasharray="7.1223,2.0349" d="
		M172.1,96.9c0,6.5-10.3,11.3-12.2,17.2c-2,6.1,3.5,16-0.2,21.1c-3.7,5.1-14.9,3-20,6.7c-5.1,3.7-6.5,15-12.6,17
		c-5.9,1.9-13.6-6.3-20.2-6.3c-6.5,0-14.3,8.3-20.2,6.3c-6.1-2-7.5-13.3-12.6-17c-5.1-3.7-16.3-1.6-20-6.7c-3.7-5.1,1.8-15-0.2-21.1
		c-1.9-5.9-12.2-10.7-12.2-17.2c0-6.5,10.3-11.3,12.2-17.2c2-6.1-3.5-16,0.2-21.1c3.7-5.1,14.9-3,20-6.7c5.1-3.7,6.5-15,12.6-17
		c5.9-1.9,13.6,6.3,20.2,6.3c6.5,0,14.3-8.3,20.2-6.3c6.1,2,7.5,13.3,12.6,17c5.1,3.7,16.3,1.6,20,6.7c3.7,5.1-1.8,15,0.2,21.1
		C161.8,85.6,172.1,90.4,172.1,96.9z"/>
	<g>
		<g>
			<path fill="#4D4D4D" d="M145.4,114.8c1.3-1.2,2.5-2.4,3-3.3c2.2-4,3.4-8.2,3.8-12.7c-1.4-0.9-2.8-2-4.1-3.1
				c-1-0.8-1.9-1.7-2.9-2.7c-1.2-0.8-2.5-2.1-3.7-2.9c-2.1-1.2-4.3-2.3-6.6-3.3c-3.9-1.4-8.7-2.1-12.8-1c-4.5,1-9.1,2.1-13.6,2.1
				c-4.8,0-9.3-0.8-14.1,0.2c-2.3,0.4-4.5,1-6.8,1s-4.8,0.6-4.5,3.3c0.2,2.5,3.3,2.9,5.4,3.1c1.7,0.2,3.1,0,4.8,0.2
				c1.2,0,2.7,0.4,3.9,0.4c5,0,9.7,0.8,14.5,1.7c2.3,0.4,4.3,0.2,6.6,0.8c0.8,0.4,2.3,0.8,2.3,2.1c0,1.4-1.4,1.2-2.7,1.2
				c-2.1-0.2-4.3-1-6.2-1.7c-2.3-1-5-0.6-7.2-0.6c-2.3,0-4.8,0.4-6.8,0c-1-0.4-1.9-0.8-2.9-1c-1-0.2-2.3-0.2-3.3-0.2
				c-4.3-0.2-9.9-0.4-11.8-5.2c-0.6-1.7-0.6-4.5,0.8-6c0.6-0.6,2.1-0.8,2.9-1.2C84,85.7,85,85,85.7,85c-0.2-0.7-1.3-1.3-1.8-1.8
				c-0.8-0.6-1.9-1.4-2.9-2.1c-1.9-1.4-3.1-3.5-5.2-4.8c-0.8-0.6-1.7-1.2-2.9-1.2c-1,0-1.9,0-2.9-0.4c-1.9-0.6-4.1-1.4-6.2-1.2
				c-1.2,0-1.9,0.6-2.3,1.9c-0.4,1.2,0,2.1,0.6,3.1c1.7,2.5,3.5,4.5,5.4,6.6c1.7,1.7,3.1,3.5,4.8,5.2c1.7,1.9,3.7,3.5,5.4,5.4
				c1.7,1.9,3.5,3.3,5.2,5c1.7,1.7,3.3,3.3,5.2,4.8c2.1,1.7,3.7,3.5,6,4.8c1.9,1,3.7,2.3,5.6,3.1c0.6,0.4,1.2,0.8,1.9,0.8
				c0.5,0.1,0.9,0.1,1.4,0.1c1,0.5,2.6,0.3,3.8,0.1c0.1,0,0.3,0,0.4-0.1c0.9-0.2,1.4-0.2,1.2-0.2c1-0.2,2-0.5,3-0.7
				c1.2-0.4,2.1-0.6,3.3-0.6h3.3c2.5-0.4,4.5-1.4,7-1.4c2.5,0,4.8,0.4,7,0.4c2.3,0,4.1,0.6,6.4,1c2.2,0.4,4.6,1.4,6.6,2.8
				C145.1,115.1,145.3,115,145.4,114.8z"/>
		</g>
		<path fill="#4D4D4D" d="M120.1,58.5c-0.3-0.4-0.7-0.7-1-0.9c-0.4-0.3-0.8-0.5-1.2-0.7c-0.4-0.2-0.9-0.3-1.4-0.4
			c-3.5-0.6-7.5,1.3-9.3,4.5c-0.6-1-1.3-2.1-2.3-2.8c-0.4-0.3-0.8-0.6-1.3-0.9c-0.4-0.2-0.7-0.4-1.2-0.5c-4.7-1.2-10.1,2.3-10.4,7.1
			c0,0.5,0.2,1,0.2,1.5c0.1,0.5,0.2,0.9,0.3,1.4c0.6,1.8,1.6,3.4,2.8,5c0.3,0.4,0.6,0.8,0.9,1.1c0.9,0.8,1.5,1.9,2.5,2.6
			c2.1,1.2,3.8,2.7,5.4,4.3c0.3,0.3,0.7,0.6,1,0.9c0.8,0.6,1.6,2,2.2,1.5c0.4-0.3,0.9-0.6,1.3-0.8c0.4-0.3,0.8-0.6,1.2-0.9
			c4.2-4.1,9.3-7.6,11.3-13.1c0.1-0.4,0.2-0.9,0.3-1.3C122,63.4,121.7,60.7,120.1,58.5z"/>
	</g>
	<g>
		<path fill="#4D4D4D" d="M78.6,128.5c1.5-1,3.2-0.9,4.6,0c0.5,0.3,0.2,0.8-0.2,1c-1,0.5-1.9-0.3-2.9,0c-0.9,0.2-1.3,1.2-1.5,2
			c-0.7,1.8-1.1,4.5,1,5.5c0.5,0.2,1.1,0.1,1.2-0.3c0.3-0.6,0.8-1.4,0.2-1.7c-0.2-0.1-0.6-0.3-0.6-0.4c-0.5-0.8,0.5-1.2,1.1-1.3
			c1-0.3,2.6,0.3,2,1.5c0,0.1-0.4,0.2-0.4,0.3c0,0.7-0.3,1.2-0.4,1.9c-0.1,0.5-0.6,0.7-0.9,1.1c-0.4,0.3-0.9,0.2-1.2,0.4
			c-1.8,0.8-3.9-0.4-4.3-2.4C75.7,133.2,76.1,130.3,78.6,128.5z"/>
		<path fill="#4D4D4D" d="M84.4,128.1c0.2-1.1,1.2-1.4,2.2-0.8c0.1,0.1,0.3,0.4,0.2,0.6c-1.1,3.2-0.3,6.5-0.4,9.6
			c0,0.3-0.8,0.5-1.3,0.2c-1-0.5-0.9-1.6-0.9-2.6C84.2,132.9,84,130.5,84.4,128.1z"/>
		<path fill="#4D4D4D" d="M90.3,138.3c-0.3-1.2-1.2-2-1.5-2.9c-0.7-2.1-2-4-1.8-6.2c0.1-0.5,1.4-1.4,1.8-0.6c0.8,1.9,0.8,4.2,2.1,6
			c1.2-2.6,1.3-5.5,2.2-8.1c0.2-0.6,2-1.1,1.9,0.1c-0.4,2.6-1.1,5.1-1.8,7.6c-0.4,1.3-0.6,2.5-0.8,3.7c-0.1,0.4-0.7,0.7-1.3,0.7
			C90.8,138.6,90.4,138.6,90.3,138.3z"/>
		<path fill="#4D4D4D" d="M95.7,128.2c1.1-1.6,3.8-1.8,5.4-0.5c0.4,0.3,0,0.9-0.6,1c-0.8,0.1-1.7-0.6-2.5-0.2
			c-1,0.5-0.2,1.9-0.6,2.9c1.2,0.7,2.9-0.5,3.6,1c-0.7,1.3-2.6,0.3-3.3,1.1c-0.6,0.7-0.3,2-0.2,3.1c1.5,0.3,2.8-0.7,4.1-1.1
			c0.1-0.1,0.3,0.1,0.4,0.2c0.2,0.7-0.1,1.2-0.6,1.4c-1.5,0.5-2.8,1.3-4.3,1.2c-0.5-0.1-1.1,0.1-1.2-0.4c-0.5-1.5,0.1-3-0.3-4.4
			c-0.1-0.3-0.6-0.7-0.3-1c0-0.1,0.2-0.2,0.3-0.3c0.2-0.4,0.1-0.8,0.1-1.2C95.7,130.1,95.1,129,95.7,128.2z"/>
		<path fill="#4D4D4D" d="M106.9,126.6c0.2-0.8,1.8-1.1,1.9-0.1c0.5,3.3-1.2,6.6-0.4,9.9c1.2,0,2.8,0,3.9-0.5
			c0.3-0.2,0.8-0.5,1.2-0.2c0.3,0.3,0.9,1,0.7,1.3c-1.8,2.1-5,0.6-7.5,1.7c-1.3-0.8-0.7-2.4-0.7-3.6
			C106.1,132.2,106.4,129.5,106.9,126.6z"/>
		<path fill="#4D4D4D" d="M121.5,130.6c1.6,2,0.9,4.9-1.1,6.2c-1.3,0.9-2.8,1-4,0.1c-1.2-0.9-2-2.4-1.5-3.9
			C115.6,130.3,119.2,127.5,121.5,130.6z M118.9,135.8c1.3-0.6,1.8-2.1,1.4-3.5c-0.2-0.8-1.3-1-2-0.9c-0.7,0.1-1.5,2.1-1.4,2.7
			C117.1,135.1,117.8,136.3,118.9,135.8z"/>
		<path fill="#4D4D4D" d="M125.9,138.3c-0.3-1.2-1.2-2-1.5-2.9c-0.7-2.1-2-4-1.8-6.2c0.1-0.5,1.4-1.4,1.8-0.6c0.8,1.9,0.8,4.2,2.1,6
			c1.2-2.6,1.3-5.5,2.2-8.1c0.2-0.6,2-1.1,1.9,0.1c-0.4,2.6-1.1,5.1-1.8,7.6c-0.4,1.3-0.6,2.5-0.8,3.7c-0.1,0.4-0.7,0.7-1.3,0.7
			C126.4,138.6,125.9,138.6,125.9,138.3z"/>
		<path fill="#4D4D4D" d="M131.2,128.2c1.1-1.6,3.8-1.8,5.4-0.5c0.4,0.3,0,0.9-0.6,1c-0.8,0.1-1.7-0.6-2.5-0.2
			c-1,0.5-0.2,1.9-0.6,2.9c1.2,0.7,2.9-0.5,3.6,1c-0.7,1.3-2.6,0.3-3.3,1.1c-0.6,0.7-0.3,2-0.2,3.1c1.5,0.3,2.8-0.7,4.1-1.1
			c0.1-0.1,0.3,0.1,0.4,0.2c0.2,0.7-0.1,1.2-0.6,1.4c-1.5,0.5-2.8,1.3-4.3,1.2c-0.5-0.1-1.1,0.1-1.2-0.4c-0.5-1.5,0.1-3-0.3-4.4
			c-0.1-0.3-0.6-0.7-0.3-1c0-0.1,0.2-0.2,0.3-0.3c0.2-0.4,0.1-0.8,0.1-1.2C131.2,130.1,130.7,129,131.2,128.2z"/>
	</g>
</g>
</svg>
