<svg xmlns="http://www.w3.org/2000/svg" width="23" height="23" viewBox="0 0 23 23">
  <defs>
    <style>
      .cls-1 {
        fill: #faffff;
        fill-rule: evenodd;
      }
    </style>
  </defs>
  <path class="cls-1" d="M1008.5,75A11.5,11.5,0,1,0,1020,86.5,11.514,11.514,0,0,0,1008.5,75Zm10.64,11.074h-2.78c-0.1-3.985-1.59-7.461-3.79-9.41A10.66,10.66,0,0,1,1019.14,86.074Zm-7.41,0h-6.46c0.08-6.045,1.74-10.222,3.23-10.222S1011.65,80.029,1011.73,86.074Zm-3.23,11.042c-1.49,0-3.15-4.163-3.23-10.19h6.46C1011.65,92.953,1009.99,97.116,1008.5,97.116Zm-1.95-20.845c-1.35,1.969-2.08,5.932-2.13,9.8h-2.93C1001.61,81.416,1003.71,77.518,1006.55,76.271Zm-2.13,10.654c0.05,3.859.79,7.807,2.13,9.77-2.83-1.244-4.93-5.127-5.06-9.77h2.93Zm6.03,9.77c1.34-1.964,2.08-5.911,2.13-9.77h2.93C1015.38,91.569,1013.28,95.452,1010.45,96.7Zm2.13-10.622c-0.05-3.87-.78-7.834-2.13-9.8,2.84,1.246,4.94,5.144,5.06,9.8h-2.93Zm-8.15-9.41c-2.2,1.949-3.69,5.425-3.79,9.41h-2.777A10.655,10.655,0,0,1,1004.43,76.663Zm-6.567,10.262h2.777c0.11,4.015,1.63,7.507,3.86,9.439A10.665,10.665,0,0,1,997.863,86.926Zm14.637,9.439c2.23-1.932,3.75-5.424,3.86-9.439h2.78A10.669,10.669,0,0,1,1012.5,96.364Z" transform="translate(-997 -75)"/>
</svg>
