<svg xmlns="http://www.w3.org/2000/svg" width="18.44" height="13.156" viewBox="0 0 18.44 13.156">
  <defs>
    <style>
      .cls-1 {
        fill: #faffff;
        fill-rule: evenodd;
      }
    </style>
  </defs>
  <path id="youtube" class="cls-1" d="M1016.45,421.579a0.63,0.63,0,0,1-.31.556l-5.27,3.3a0.608,0.608,0,0,1-.35.1,0.711,0.711,0,0,1-.32-0.082,0.66,0.66,0,0,1-.34-0.577v-6.589a0.657,0.657,0,0,1,1.01-.556l5.27,3.294A0.632,0.632,0,0,1,1016.45,421.579Zm5.27,0a20.825,20.825,0,0,0-.32-4.468,2.355,2.355,0,0,0-2-1.864,92.889,92.889,0,0,0-13.81,0,2.355,2.355,0,0,0-1.99,1.864,20.207,20.207,0,0,0-.33,4.468,20.829,20.829,0,0,0,.32,4.469,2.364,2.364,0,0,0,2,1.863,92.53,92.53,0,0,0,13.81,0,2.33,2.33,0,0,0,1.99-1.863A20.212,20.212,0,0,0,1021.72,421.579Z" transform="translate(-1003.28 -415)"/>
</svg>
