<?xml version="1.0" ?><svg height="512" preserveAspectRatio="xMidYMid" viewBox="0 0 512 512" width="512" xmlns="http://www.w3.org/2000/svg" xmlns:xlink="http://www.w3.org/1999/xlink"><defs><style>
      .cls-1 {
        fill: #3498db;
      }

      .cls-2 {
        fill: #000;
        opacity: 0.3;
      }

      .cls-2, .cls-3 {
        fill-rule: evenodd;
      }

      .cls-3 {
        fill: #fff;
      }
    </style></defs><g><circle class="cls-1" cx="256" cy="256" r="256"/><path class="cls-2" d="M184.220,202.340 L12.174,334.231 C43.421,431.698 131.488,503.726 237.391,511.334 L344.120,352.902 L310.000,264.000 L353.000,214.000 L239.000,216.000 L292.000,168.000 L277.000,138.000 L199.000,198.000 L184.220,202.340 Z"/><path class="cls-3" d="M359.000,315.421 C358.203,348.116 319.943,384.797 303.204,384.000 C286.465,383.203 282.480,372.039 261.756,372.039 C241.031,372.039 242.632,382.669 214.728,383.203 C192.763,383.623 151.112,331.233 154.149,263.588 C156.693,206.923 210.684,168.569 258.567,202.186 C323.131,161.517 353.420,214.147 353.420,214.147 C288.059,263.588 359.000,315.421 359.000,315.421 ZM258.567,185.440 C258.567,125.633 307.189,128.025 307.189,128.025 C307.189,179.858 258.567,185.440 258.567,185.440 Z"/></g></svg>