<svg xmlns="http://www.w3.org/2000/svg" xmlns:xlink="http://www.w3.org/1999/xlink" preserveAspectRatio="xMidYMid" width="15.312" height="15.78" viewBox="0 0 15.312 15.78">
  <defs>
    <style>
      .cls-1 {
        fill: #fff;
        fill-rule: evenodd;
      }
    </style>
  </defs>
  <path d="M12.319,15.759 L12.319,9.357 C12.319,7.960 11.353,7.006 10.131,7.006 C9.198,7.006 8.660,7.649 8.415,8.270 C8.326,8.492 8.304,8.803 8.304,9.114 L8.304,15.759 L5.327,15.759 L5.327,4.767 L8.014,4.767 L8.335,5.889 C8.779,5.179 9.741,4.386 11.562,4.386 C13.783,4.386 15.318,5.681 15.318,8.876 L15.318,15.759 L12.319,15.759 ZM1.880,3.389 C0.754,3.389 -0.001,2.672 -0.001,1.698 C-0.001,0.701 0.750,-0.006 1.899,-0.006 C3.049,-0.006 3.753,0.701 3.776,1.698 C3.776,2.672 3.076,3.389 1.880,3.389 ZM3.319,15.790 L0.308,15.790 L0.308,4.767 L3.319,4.767 L3.319,15.790 Z" class="cls-1"/>
</svg>
