<svg xmlns="http://www.w3.org/2000/svg" xmlns:xlink="http://www.w3.org/1999/xlink" preserveAspectRatio="xMidYMid" width="16" height="11.94" viewBox="0 0 16 11.94">
  <defs>
    <style>
      .cls-1 {
        fill: #fff;
        fill-rule: evenodd;
      }
    </style>
  </defs>
  <path d="M0.609,1.118 C1.096,1.388 6.847,5.129 7.098,5.267 C7.349,5.406 7.675,5.474 8.003,5.474 C8.331,5.474 8.657,5.406 8.908,5.267 C9.159,5.129 14.910,1.388 15.397,1.118 C15.885,0.848 16.347,-0.000 15.451,-0.000 L0.555,-0.000 C-0.340,-0.000 0.121,0.848 0.609,1.118 ZM15.604,3.178 C15.050,3.476 9.247,7.145 8.908,7.327 C8.569,7.510 8.331,7.534 8.003,7.534 C7.675,7.534 7.437,7.510 7.098,7.327 C6.759,7.145 0.956,3.476 0.402,3.178 C0.012,2.968 0.016,3.214 0.016,3.404 C0.016,3.594 0.016,10.959 0.016,10.959 C0.016,11.391 0.573,11.947 1.006,11.947 L15.000,11.947 C15.433,11.947 15.991,11.391 15.991,10.959 C15.991,10.959 15.991,3.594 15.991,3.404 C15.991,3.214 15.994,2.968 15.604,3.178 Z" class="cls-1"/>
</svg>
