<svg xmlns="http://www.w3.org/2000/svg" xmlns:xlink="http://www.w3.org/1999/xlink" preserveAspectRatio="xMidYMid" width="16.969" height="14" viewBox="0 0 16.969 14">
  <defs>
    <style>
      .cls-1 {
        fill: #fff;
        fill-rule: evenodd;
      }
    </style>
  </defs>
  <path d="M16.984,1.656 C16.360,1.937 15.689,2.127 14.985,2.212 C15.704,1.774 16.256,1.082 16.516,0.256 C15.843,0.662 15.098,0.956 14.305,1.114 C13.670,0.427 12.765,-0.002 11.764,-0.002 C9.841,-0.002 8.282,1.581 8.282,3.533 C8.282,3.810 8.313,4.080 8.372,4.338 C5.479,4.191 2.913,2.784 1.197,0.645 C0.897,1.167 0.725,1.774 0.725,2.422 C0.725,3.648 1.340,4.730 2.274,5.364 C1.704,5.346 1.166,5.187 0.697,4.923 C0.697,4.937 0.697,4.952 0.697,4.967 C0.697,6.680 1.897,8.108 3.489,8.433 C3.198,8.514 2.890,8.557 2.572,8.557 C2.348,8.557 2.130,8.535 1.917,8.494 C2.360,9.898 3.646,10.921 5.170,10.949 C3.978,11.897 2.477,12.462 0.846,12.462 C0.565,12.462 0.288,12.445 0.016,12.412 C1.556,13.416 3.386,14.001 5.352,14.001 C11.755,14.001 15.257,8.614 15.257,3.943 C15.257,3.790 15.254,3.637 15.247,3.485 C15.927,2.987 16.517,2.365 16.984,1.656 Z" class="cls-1"/>
</svg>
